<svg width="94" height="94" viewBox="0 0 94 94" fill="none" xmlns="http://www.w3.org/2000/svg">
<path d="M53.3983 41.9988C52.4155 41.9988 51.4327 42.021 50.4523 41.9938C49.4127 41.9642 48.7781 41.3444 48.7855 40.4233C48.7929 39.5072 49.4324 38.8997 50.4819 38.8898C52.4451 38.8701 54.4107 38.8701 56.3739 38.8898C57.3789 38.9022 58.0728 39.5763 58.063 40.4529C58.0531 41.3271 57.3592 41.9691 56.3443 41.9938C55.3639 42.0185 54.3811 41.9988 53.3983 41.9988Z" fill="url(#paint0_linear_1402_9)"/>
<path d="M38.637 41.9969C38.4222 41.9969 38.2074 42.0068 37.9925 41.9969C36.9801 41.9377 36.3282 41.2882 36.3603 40.3844C36.3899 39.5177 37.0295 38.9299 38.0123 38.888C38.442 38.8707 38.8716 38.8707 39.2988 38.888C40.3138 38.9275 40.9978 39.5646 40.9904 40.4486C40.983 41.3351 40.3039 41.9525 39.2791 41.9994C39.0642 42.0093 38.8494 41.9994 38.6346 41.9994L38.637 41.9969Z" fill="url(#paint1_linear_1402_9)"/>
<path d="M47.1679 60.6101C43.2268 60.6101 39.2832 60.615 35.342 60.6101C31.9985 60.6027 30.1539 58.7457 30.1514 55.3997C30.1514 53.6143 30.1687 51.8265 30.144 50.0411C30.1292 48.957 30.3613 47.9569 31.0107 47.0877C31.2527 46.7642 31.275 46.5444 31.0231 46.2111C30.3687 45.3443 30.1316 44.3467 30.1464 43.2626C30.1711 41.3834 30.1464 39.5067 30.1538 37.6275C30.1662 34.637 32.0528 32.7084 35.0482 32.6862C38.5275 32.6591 42.0069 32.6788 45.4888 32.6788C49.9855 32.6788 54.4823 32.6763 58.9766 32.6788C62.4436 32.6813 64.266 34.5062 64.2734 37.9806C64.2783 39.7042 64.2685 41.4303 64.2734 43.154C64.2783 44.2578 64.0808 45.3073 63.3992 46.2012C63.1523 46.5247 63.1276 46.7395 63.3869 47.0754C64.0364 47.9075 64.266 48.8928 64.2685 49.9324C64.2734 51.8734 64.2981 53.8143 64.2635 55.7528C64.2117 58.6988 62.3201 60.5829 59.3593 60.6051C55.2947 60.6348 51.2301 60.6125 47.163 60.6125L47.1679 60.6101ZM47.1605 45.1023C51.1609 45.1023 55.1638 45.1072 59.1642 45.0998C60.6311 45.0974 61.1743 44.5467 61.1817 43.0898C61.1916 41.2748 61.1966 39.4573 61.1793 37.6423C61.1669 36.3582 60.5866 35.7754 59.3025 35.7754C51.24 35.768 43.1749 35.768 35.1124 35.7754C33.811 35.7754 33.2727 36.331 33.2628 37.6423C33.248 39.3956 33.2579 41.1513 33.2603 42.9046C33.2628 44.6504 33.7073 45.0998 35.4383 45.1023C39.3474 45.1048 43.2564 45.1023 47.1655 45.1023H47.1605ZM47.1951 57.5159C51.1955 57.5159 55.1984 57.5209 59.1988 57.5135C60.6039 57.511 61.1719 56.9504 61.1817 55.5626C61.1941 53.7155 61.199 51.8684 61.1793 50.0238C61.1644 48.794 60.5891 48.194 59.3618 48.194C51.2671 48.1816 43.1725 48.1816 35.0778 48.194C33.816 48.194 33.2727 48.7545 33.2628 50.0016C33.2455 51.8166 33.2529 53.6341 33.2579 55.4491C33.2628 57.0369 33.7567 57.5159 35.3766 57.5184C39.3153 57.5209 43.2564 57.5184 47.1951 57.5184V57.5159Z" fill="url(#paint2_linear_1402_9)"/>
<path d="M93.7508 24.2781C93.3779 25.5893 92.8964 26.8413 91.8543 27.792C91.6346 27.9921 91.6741 28.2365 91.7309 28.4785C92.8742 33.358 91.6741 37.8622 89.538 42.2182C88.9553 43.4085 88.3305 44.5814 87.5551 45.6507C87.0711 46.3199 87.0563 46.7866 87.5304 47.5027C89.6739 50.7327 91.2913 54.1972 91.9333 58.0643C93.2248 65.8404 89.1256 72.7794 81.6508 75.4809C76.8059 77.2317 71.8103 77.9231 66.6789 77.6218C65.9702 77.5799 65.659 77.8046 65.3602 78.4145C63.2514 82.7113 60.6141 86.6203 56.7964 89.6132C50.6451 94.4359 43.4814 94.3791 37.3944 89.4576C33.7298 86.4944 31.1419 82.6964 29.0948 78.5084C28.7417 77.7873 28.3811 77.5601 27.5712 77.6144C22.015 77.9824 16.6466 77.1502 11.5399 74.8685C11.0855 74.666 10.7941 74.6932 10.3867 74.992C7.70739 76.9477 4.18851 76.5724 2.04755 74.1375C-0.100819 71.6953 0.0251201 68.1172 2.34882 65.6824C2.58094 65.4403 2.79578 65.265 2.69206 64.8279C1.54873 60.0571 2.69206 55.6221 4.74412 51.3327C5.39604 49.9721 6.12204 48.646 7.00115 47.4212C7.39131 46.8804 7.33451 46.5026 6.98386 45.9717C4.74412 42.5763 3.05012 38.9537 2.41055 34.8891C0.963488 25.6659 7.13696 19.7912 12.824 17.7935C17.6739 16.0896 22.6694 15.3587 27.8008 15.6525C28.4256 15.6896 28.7392 15.5315 28.9935 14.9611C29.6331 13.5264 30.4085 12.1608 31.2876 10.857C31.5518 10.4668 31.5444 10.205 31.2827 9.80993C29.5245 7.12818 29.8529 3.90809 32.063 1.80664C34.2879 -0.307158 37.5277 -0.482484 40.0934 1.40166C40.4268 1.6486 40.6639 1.72762 41.0713 1.54242C47.2769 -1.27763 52.7663 0.174374 57.7274 4.44148C61.024 7.27881 63.3847 10.8347 65.2788 14.7117C65.6294 15.4278 65.9801 15.7142 66.8616 15.6846C72.4202 15.492 77.8677 16.06 82.9843 18.4627C83.3275 18.6232 83.5596 18.6158 83.893 18.3985C87.8268 15.8278 92.2865 17.4971 93.5829 22.0063C93.6249 22.1495 93.6916 22.2878 93.7459 22.4285V24.2781H93.7508ZM68.9409 46.6113C68.9088 42.1713 68.5704 37.7585 67.8741 33.3704C67.7926 32.8543 67.5432 32.5678 67.1283 32.2987C61.0907 28.3748 54.6703 25.2362 47.8844 22.8409C47.43 22.6804 47.0275 22.6557 46.5583 22.8236C39.9206 25.1745 33.6311 28.2291 27.702 32.0369C26.939 32.5259 26.5661 33.0864 26.4451 33.9927C26.0945 36.6176 25.7735 39.2426 25.6302 41.8873C25.3043 47.9003 25.5808 53.8861 26.5365 59.8373C26.6205 60.3534 26.8205 60.709 27.2822 61.0053C33.3545 64.9292 39.7971 68.0925 46.6151 70.4927C46.9756 70.6187 47.2892 70.6582 47.6745 70.5224C54.5937 68.1172 61.1178 64.9168 67.2419 60.8967C67.6099 60.6547 67.7926 60.3732 67.8617 59.9435C68.5655 55.5257 68.9162 51.0833 68.9409 46.6113ZM9.35448 44.011C9.53227 43.848 9.65574 43.7591 9.75205 43.6455C13.7105 38.8747 18.2443 34.7384 23.3707 31.2566C23.7807 30.9775 23.9041 30.622 23.9856 30.1947C24.6845 26.5302 25.7043 22.957 27.0501 19.4801C27.3045 18.8232 27.1291 18.7294 26.5044 18.7071C22.0471 18.5466 17.706 19.2035 13.5697 20.8333C9.4088 22.4754 6.43813 25.3646 5.56149 29.896C4.54657 35.1533 6.69 39.6352 9.35448 44.011ZM85.0215 49.214C80.8532 54.2812 76.191 58.5433 70.9213 62.1363C70.6077 62.3487 70.5213 62.6351 70.4447 62.9808C70.0941 64.5711 69.7409 66.1614 69.3384 67.7394C68.7557 70.026 67.958 72.2509 67.1234 74.5055C67.3135 74.5351 67.4271 74.5672 67.5432 74.5697C72.2153 74.7648 76.7663 74.098 81.0952 72.3423C85.1154 70.71 87.9576 67.8431 88.8392 63.4895C89.9084 58.2001 87.728 53.6935 85.024 49.214H85.0215ZM47.1633 90.0923C50.4846 90.0281 53.2183 88.6724 55.6358 86.5882C58.3793 84.2225 60.3573 81.2716 62.0834 78.1207C62.4636 77.4292 62.3081 77.2638 61.5969 77.1823C56.91 76.644 52.3391 75.5723 47.8498 74.145C47.5214 74.0412 47.2102 73.9326 46.8645 74.0462C42.2072 75.5747 37.4512 76.644 32.5791 77.2045C32.0976 77.2589 31.9519 77.3971 32.2161 77.896C33.7693 80.8197 35.5671 83.5632 37.9747 85.8622C40.5626 88.3316 43.521 90.0231 47.1633 90.0972V90.0923ZM84.9499 43.8776C86.4587 41.8206 87.9922 38.4425 88.5799 35.9435C88.9404 34.4075 89.1578 32.8592 89.0046 31.2788C88.9479 30.701 89.0763 30.0095 88.6762 29.5972C88.3503 29.2638 87.7477 29.6737 87.2662 29.5749C87.2069 29.5626 87.1452 29.5601 87.0835 29.5552C83.1398 29.1551 80.7223 25.8042 81.552 21.8778C81.6212 21.5445 81.757 21.2827 81.273 21.0852C76.7614 19.2405 72.0844 18.4577 67.1604 18.7689C67.2444 19.0529 67.2962 19.2875 67.3827 19.5122C68.7013 22.9323 69.694 26.4487 70.3929 30.0441C70.5114 30.6516 70.7805 31.0146 71.2695 31.348C73.4598 32.837 75.5391 34.4717 77.5294 36.2201C80.1914 38.561 82.641 41.1095 84.9524 43.8776H84.9499ZM24.724 74.5647C25.3092 74.5647 25.8969 74.5302 26.4772 74.5722C27.2205 74.6265 27.2724 74.3623 27.023 73.7326C25.9611 71.0409 25.0005 68.295 24.5264 65.4502C24.1683 63.2994 23.2275 61.8844 21.415 60.6423C17.0837 57.6716 13.3302 54.017 9.96441 49.9795C9.51005 49.4362 9.3125 49.4708 8.96678 50.0659C8.05311 51.6365 7.1987 53.2342 6.569 54.9405C5.58619 57.6025 5.07008 60.3238 5.53186 63.1735C5.61335 63.6698 5.74917 63.813 6.28996 63.7636C10.5447 63.3759 13.8414 67.1294 12.8758 71.2879C12.7203 71.962 12.9598 72.1349 13.4808 72.3398C17.096 73.7597 20.8396 74.5203 24.724 74.5598V74.5647ZM31.9889 15.9069C32.1988 15.9513 32.3445 15.9958 32.4951 16.0155C36.1597 16.4896 39.8317 17.0304 43.3234 18.2182C46.0027 19.1269 48.4548 19.1516 51.1415 18.2182C54.5097 17.0502 58.0607 16.5217 61.6092 16.1019C61.9327 16.0624 62.6217 16.2328 62.1945 15.4229C60.2511 11.741 57.9471 8.34312 54.5443 5.84162C51.3218 3.47101 47.793 2.50301 43.8494 3.75005C42.86 4.06284 42.418 4.73863 42.5233 5.77742C42.5381 5.93052 42.5406 6.08362 42.5431 6.2392C42.5974 10.2643 38.8266 13.2646 34.9053 12.3262C34.5916 12.2522 34.2286 11.9509 33.9323 12.4349C33.2458 13.5585 32.5322 14.6623 31.9864 15.9118L31.9889 15.9069ZM23.109 35.3903C22.9337 35.462 22.8102 35.4867 22.7188 35.5558C18.5406 38.6499 14.8489 42.2454 11.5942 46.3001C11.2559 46.7224 11.4683 46.9323 11.7053 47.2261C14.8834 51.1401 18.4813 54.6145 22.5287 57.6247C22.6768 57.7359 22.8077 57.9729 23.0966 57.805C22.1484 50.3623 22.1558 42.9072 23.1114 35.3928L23.109 35.3903ZM71.3065 57.9359C74.4723 55.9505 80.5421 50.1104 82.804 47.0088C83.1497 46.5347 82.9176 46.3149 82.6583 45.9988C80.6384 43.5072 78.4283 41.1934 76.0379 39.0549C74.5809 37.7511 73.0944 36.4793 71.2967 35.2644C72.24 42.8998 72.2474 50.3474 71.3041 57.9383L71.3065 57.9359ZM66.8592 64.8181C62.1031 67.7443 57.3347 70.0927 52.1465 72.1768C55.5271 73.1523 58.683 73.7424 61.871 74.1598C63.8119 74.4116 63.8169 74.387 64.5429 72.5226C64.6441 72.2657 64.7454 72.0089 64.8367 71.7472C65.6096 69.5519 66.3381 67.3467 66.8616 64.8181H66.8592ZM27.544 28.4736C32.2507 25.5745 37.0314 23.2088 41.9726 21.1271C38.8094 20.1295 35.6164 19.5369 32.3914 19.1245C30.6036 18.8948 30.5937 18.917 29.9171 20.6555C28.9516 23.1422 28.1589 25.6782 27.5415 28.4711L27.544 28.4736ZM27.5391 64.8279C28.2725 68.0579 29.2405 70.9619 30.369 73.8165C30.5443 74.2585 30.7962 74.2931 31.2185 74.2536C33.2088 74.0635 35.1843 73.7745 37.1425 73.3893C38.7723 73.0683 40.412 72.7621 42.2369 72.1423C37.0191 70.1026 32.2704 67.6974 27.5366 64.8279H27.5391ZM66.7209 28.3625C66.7456 28.1822 66.7851 28.0859 66.7653 28.0044C66.0862 25.0683 65.1429 22.2137 64.0194 19.4183C63.849 18.9911 63.5971 18.9837 63.2267 19.0356C61.5549 19.2726 59.8708 19.443 58.2064 19.727C56.2605 20.0579 54.3245 20.4604 52.1638 21.1271C57.3693 23.1891 62.1229 25.5745 66.7233 28.3649L66.7209 28.3625ZM90.6295 23.3521C90.6221 21.6309 89.2071 20.2332 87.5008 20.2629C85.8117 20.2925 84.4758 21.6507 84.4634 23.3471C84.4536 25.0856 85.8216 26.4783 87.5403 26.4808C89.2565 26.4808 90.6344 25.0856 90.627 23.3521H90.6295ZM3.75637 69.8531C3.71686 71.5373 5.12935 72.9967 6.82829 73.0263C8.51241 73.056 9.96688 71.6237 9.97923 69.9297C9.98911 68.2727 8.6186 66.8578 6.95176 66.8084C5.26023 66.7565 3.79835 68.1493 3.75637 69.8531ZM33.2656 6.33797C33.2804 8.06901 34.6855 9.44199 36.4042 9.40001C38.0982 9.3605 39.4267 8.00728 39.4292 6.31328C39.4341 4.57483 38.0636 3.19938 36.335 3.20678C34.6089 3.21172 33.2532 4.59458 33.2656 6.33797Z" fill="url(#paint3_linear_1402_9)"/>
<path d="M53.374 54.4056C52.3912 54.4056 51.4083 54.4279 50.428 54.4007C49.3958 54.3711 48.7661 53.7389 48.7859 52.8129C48.8056 51.9313 49.423 51.3164 50.4157 51.3016C52.4109 51.2745 54.4037 51.2745 56.399 51.3016C57.4016 51.314 58.088 52.0103 58.0633 52.8919C58.0387 53.7438 57.3769 54.376 56.4138 54.4032C55.4013 54.4303 54.3889 54.4106 53.3764 54.4081L53.374 54.4056Z" fill="url(#paint4_linear_1402_9)"/>
<path d="M38.5844 54.3797C38.2782 54.3797 37.9646 54.4192 37.6683 54.3722C36.883 54.2463 36.3496 53.5944 36.3595 52.8289C36.3694 52.0634 36.9052 51.4189 37.7053 51.3226C38.2807 51.2534 38.8709 51.2633 39.4487 51.3003C40.3525 51.3571 40.9773 51.9967 40.9921 52.8215C41.0069 53.6759 40.3525 54.3352 39.4092 54.3994C39.1351 54.4192 38.8585 54.4019 38.582 54.4019V54.3797H38.5844Z" fill="url(#paint5_linear_1402_9)"/>
<defs>
<linearGradient id="paint0_linear_1402_9" x1="53.4242" y1="38.875" x2="53.4242" y2="42.0073" gradientUnits="userSpaceOnUse">
<stop stop-color="#F8FFA5"/>
<stop offset="1" stop-color="#06FF45"/>
</linearGradient>
<linearGradient id="paint1_linear_1402_9" x1="38.6748" y1="38.875" x2="38.6748" y2="42.0038" gradientUnits="userSpaceOnUse">
<stop stop-color="#F8FFA5"/>
<stop offset="1" stop-color="#06FF45"/>
</linearGradient>
<linearGradient id="paint2_linear_1402_9" x1="47.2125" y1="32.6719" x2="47.2125" y2="60.6206" gradientUnits="userSpaceOnUse">
<stop stop-color="#F8FFA5"/>
<stop offset="1" stop-color="#06FF45"/>
</linearGradient>
<linearGradient id="paint3_linear_1402_9" x1="47.1341" y1="0.0888672" x2="47.1341" y2="93.1899" gradientUnits="userSpaceOnUse">
<stop stop-color="#F8FFA5"/>
<stop offset="1" stop-color="#06FF45"/>
</linearGradient>
<linearGradient id="paint4_linear_1402_9" x1="53.4247" y1="51.2812" x2="53.4247" y2="54.4174" gradientUnits="userSpaceOnUse">
<stop stop-color="#F8FFA5"/>
<stop offset="1" stop-color="#06FF45"/>
</linearGradient>
<linearGradient id="paint5_linear_1402_9" x1="38.6759" y1="51.2715" x2="38.6759" y2="54.4089" gradientUnits="userSpaceOnUse">
<stop stop-color="#F8FFA5"/>
<stop offset="1" stop-color="#06FF45"/>
</linearGradient>
</defs>
</svg>
