<svg width="107" height="107" viewBox="0 0 107 107" fill="none" xmlns="http://www.w3.org/2000/svg">
<path d="M52.8944 106.18C53.5132 102.572 54.1375 98.9635 54.7508 95.355C55.1799 92.8248 55.5649 90.2835 56.038 87.7614C56.1232 87.3049 56.4753 86.8456 56.819 86.5018C63.9781 79.3153 71.1564 72.1452 78.3292 64.9724C81.382 61.9196 84.4321 58.8612 87.4905 55.8139C90.9531 52.365 95.5049 52.3485 98.9813 55.7726C100.007 56.782 100.983 57.8436 102.042 58.8172C103.97 60.5857 105.609 62.5109 106.008 65.2172V66.6583C105.579 68.4735 104.927 70.154 103.555 71.5181C93.1754 81.84 82.8177 92.1867 72.438 102.509C72.1465 102.797 71.7065 103.026 71.3022 103.097C67.625 103.741 63.9396 104.332 60.2624 104.965C58.0072 105.35 55.7602 105.779 53.5104 106.186H52.8916L52.8944 106.18ZM60.5952 98.4299C63.2108 97.9898 65.6365 97.613 68.043 97.1482C68.6014 97.041 69.2064 96.7357 69.608 96.3369C76.9045 89.0898 84.1736 81.8153 91.4482 74.5462C91.6847 74.3097 91.9102 74.0622 92.0752 73.8916C89.7127 71.5346 87.4135 69.2436 85.0895 66.9279C85.0399 66.9664 84.9299 67.0461 84.8364 67.1396C77.3556 74.6397 69.8775 82.1398 62.4049 89.6482C62.2014 89.8544 61.9924 90.135 61.9456 90.4072C61.4891 93.0008 61.0655 95.6026 60.5952 98.4299ZM96.704 69.3124C97.5236 68.4845 98.3542 67.6704 99.16 66.8289C99.8009 66.155 99.8614 65.3959 99.2095 64.7221C97.5869 63.0472 95.9339 61.4052 94.27 59.7716C93.7172 59.227 92.9911 59.1005 92.4053 59.6175C91.4427 60.4701 90.5818 61.4355 89.699 62.3321C92.045 64.6699 94.325 66.9444 96.704 69.3124Z" fill="black"/>
<path d="M0.728576 53.4822C0.728576 40.2064 0.714824 26.928 0.734076 13.6522C0.742327 8.22862 3.18735 4.22417 8.10765 1.94692C9.61482 1.24834 11.4025 0.833043 13.061 0.827542C32.4781 0.750533 51.8953 0.756034 71.3125 0.791788C77.9627 0.802789 83.5156 6.21264 83.5788 12.8519C83.6806 23.5533 83.6228 34.2603 83.6118 44.9617C83.6118 46.6394 82.3412 47.877 80.7653 47.8413C79.1481 47.8055 78.0095 46.5404 78.0095 44.7527C78.0095 34.3235 78.0177 23.8944 78.004 13.4652C77.9985 10.0301 75.8532 7.34852 72.5776 6.65819C71.9478 6.52618 71.2822 6.51793 70.6359 6.51793C51.6643 6.51243 32.6926 6.50968 13.721 6.51518C9.13352 6.51518 6.36946 9.30399 6.36671 13.8943C6.36671 40.2752 6.36671 66.6589 6.36671 93.0398C6.36671 97.5943 9.18302 100.405 13.7485 100.408C22.7365 100.411 31.7245 100.408 40.7125 100.411C42.6543 100.411 43.8891 101.563 43.8534 103.296C43.8259 104.712 42.8055 105.84 41.3919 105.999C41.0866 106.035 40.7758 106.041 40.4678 106.041C31.4798 106.041 22.4918 106.063 13.5038 106.035C7.10104 106.013 2.12023 101.934 0.932098 95.7654C0.745078 94.7973 0.731326 93.7879 0.728576 92.7951C0.714824 79.6898 0.720325 66.5846 0.720325 53.4794L0.728576 53.4822Z" fill="black"/>
<path d="M41.79 31.0115C34.1441 31.0115 26.4955 31.0115 18.8497 31.0115C18.5059 31.0115 18.1593 31.0307 17.8211 30.9867C16.3139 30.7942 15.2193 29.5676 15.2495 28.1236C15.277 26.6715 16.4019 25.4916 17.9228 25.3623C18.4344 25.3183 18.9514 25.3623 19.4657 25.3623C34.6914 25.3623 49.9144 25.3623 65.1401 25.3623C67.1451 25.3623 68.38 26.4184 68.4075 28.1236C68.4322 29.8068 67.1946 30.995 65.3464 31.0032C61.6444 31.0197 57.9398 31.0087 54.2351 31.0087C50.0849 31.0087 45.9374 31.0087 41.7872 31.0087L41.79 31.0115Z" fill="black"/>
<path d="M31.4896 47.3034C35.8103 47.3034 40.131 47.2924 44.4545 47.3089C45.8434 47.3144 46.8885 48.0872 47.2626 49.3029C47.5981 50.3947 47.2433 51.7176 46.2807 52.3227C45.7306 52.6692 45.0128 52.9168 44.3692 52.9195C35.7965 52.958 27.2211 52.9608 18.6484 52.936C16.7644 52.9305 15.5818 51.7259 15.6285 50.0317C15.6725 48.42 16.9157 47.3116 18.7336 47.3061C22.9856 47.2951 27.2376 47.3034 31.4923 47.3061L31.4896 47.3034Z" fill="black"/>
</svg>
