<svg width="28" height="31" viewBox="0 0 28 31" fill="none" xmlns="http://www.w3.org/2000/svg">
<path d="M0.71717 30.8549C0.46076 27.5277 2.48151 24.3561 5.66222 23.0619C7.2953 22.3995 8.92839 21.731 10.5584 21.0594C11.3032 20.7542 11.6482 20.223 11.6054 19.4508C11.5993 19.3561 11.5413 19.231 11.465 19.176C10.0456 18.1382 9.0047 16.8073 8.32094 15.1864C8.28736 15.104 8.14695 15.0216 8.05232 15.0155C6.65122 14.9147 5.66527 13.8738 5.65916 12.4666C5.65306 11.1449 5.64695 9.82318 5.65916 8.50145C5.69885 4.31647 8.78187 0.803049 12.9272 0.213917C17.6372 -0.457632 22.0328 2.97338 22.4479 7.72917C22.5914 9.38972 22.5395 11.0747 22.4937 12.7444C22.4601 13.9624 21.407 14.9361 20.1829 15.0002C19.9723 15.0124 19.8838 15.0826 19.8044 15.2688C19.1543 16.8287 18.1439 18.1138 16.7794 19.1119C16.6207 19.2279 16.5566 19.3439 16.5596 19.5454C16.5749 20.2688 16.8924 20.7572 17.5609 21.035C19.2672 21.7371 20.9827 22.4208 22.6829 23.1412C25.7599 24.4446 27.7104 27.607 27.457 30.861H0.71717V30.8549ZM21.526 26.9263H22.5212V29.8689H26.4467C26.3581 27.9916 25.3539 26.0747 23.8032 24.9422C23.2751 24.5576 22.686 24.234 22.0877 23.9654C21.0071 23.4831 19.8991 23.0619 18.7788 22.607C18.0828 23.9929 17.3991 25.3604 16.6878 26.7798C15.7965 25.8854 14.9449 25.0307 14.0535 24.1363C13.1897 25.0033 12.335 25.861 11.462 26.7371C10.769 25.3512 10.0853 23.9898 9.40152 22.6254C9.33742 22.6406 9.29774 22.6437 9.25806 22.6589C8.06453 23.1504 6.84964 23.5899 5.68664 24.1424C3.28737 25.278 2.00227 27.2255 1.69092 29.8659H5.66832V26.9294H6.65428V29.8598H13.6018V28.9166H14.5877V29.8659H21.523V26.9263H21.526ZM6.69396 10.4795C6.96868 10.3665 7.26478 10.2536 7.55171 10.1193C7.62192 10.0857 7.68602 9.97886 7.70434 9.89644C8.06758 8.21451 9.43815 7.09119 11.1537 7.07898C11.9076 7.07288 12.6616 7.07898 13.4156 7.07898C15.067 7.07288 14.7587 7.19498 16.0987 6.19376C17.0053 5.51611 17.9913 5.37569 19.0108 5.8824C20.0395 6.39217 20.5309 7.26824 20.537 8.41293C20.537 8.96848 20.537 9.52709 20.537 10.0613C20.8759 10.2139 21.1903 10.3574 21.581 10.5344C21.523 9.4233 21.581 8.33661 21.3917 7.29266C20.8728 4.42026 19.1817 2.44224 16.4223 1.52344C13.6445 0.598532 11.1109 1.20598 8.96196 3.19621C6.81911 5.18033 6.4345 7.74748 6.69396 10.4795ZM13.5926 11.0533C13.5926 11.1693 13.5926 11.2517 13.5926 11.3311C13.5865 12.4483 13.0096 13.0222 11.8863 13.0222C10.8484 13.0222 9.81056 13.0222 8.76661 13.0222C8.76661 13.0741 8.75439 13.1351 8.76661 13.1931C9.39542 16.1357 11.0804 18.2023 13.8704 19.347C13.9955 19.3989 14.1817 19.4019 14.3069 19.347C17.0083 18.2328 18.6933 16.2456 19.3588 13.3977C19.3893 13.2633 19.3985 13.126 19.4168 13.01C18.211 13.01 17.045 13.0466 15.882 12.9978C15.1524 12.9673 14.6091 12.3079 14.5847 11.5723C14.5786 11.4013 14.5847 11.2273 14.5847 11.0503H13.5926V11.0533ZM19.5419 9.06311C19.5419 8.83417 19.548 8.57776 19.5419 8.3183C19.5236 7.61928 19.2123 7.08814 18.5895 6.76763C17.9638 6.45017 17.3502 6.51732 16.7794 6.9172C16.5077 7.10646 16.2483 7.30792 15.9858 7.50939C15.4943 7.8879 14.9388 8.06799 14.3191 8.06494C13.2965 8.05884 12.277 8.05884 11.2544 8.06494C11.0285 8.06494 10.7996 8.0802 10.5798 8.12904C10.0181 8.25725 9.5511 8.54113 9.16343 9.05395C10.1769 9.05395 11.1231 9.05395 12.0725 9.05395C12.5578 9.05395 13.0187 9.20657 13.2416 9.62171C13.4705 10.0491 13.7819 10.0735 14.1695 10.046C14.2611 10.0399 14.3557 10.0369 14.4473 10.046C14.6121 10.0643 14.6976 10.0033 14.777 9.8476C15.0151 9.38667 15.4119 9.08142 15.9247 9.06616C17.1182 9.03563 18.3148 9.057 19.545 9.057L19.5419 9.06311ZM10.5951 12.0332C11.0804 12.0332 11.5657 12.0393 12.0511 12.0332C12.4021 12.0271 12.5883 11.8439 12.5975 11.499C12.6066 11.1999 12.6036 10.9007 12.5975 10.6016C12.5883 10.2505 12.4052 10.0582 12.0633 10.0552C11.1018 10.0491 10.1433 10.0491 9.18174 10.0552C8.82155 10.0552 8.64145 10.2505 8.63535 10.6199C8.62924 10.8793 8.63535 11.1358 8.63535 11.3952C8.63535 11.8622 8.80324 12.0332 9.26416 12.0362C9.70677 12.0362 10.1524 12.0362 10.5951 12.0362V12.0332ZM17.5609 10.0491C17.0755 10.0491 16.5902 10.043 16.1048 10.0491C15.7751 10.0552 15.5889 10.2444 15.5798 10.571C15.5706 10.8793 15.5706 11.1907 15.5798 11.499C15.5889 11.8287 15.7751 12.021 16.1018 12.024C17.0725 12.0301 18.0431 12.0301 19.0138 12.024C19.3435 12.024 19.5297 11.8287 19.5389 11.5021C19.548 11.2121 19.545 10.9251 19.5389 10.6351C19.5328 10.2292 19.3557 10.0491 18.9528 10.046C18.4888 10.043 18.0218 10.046 17.5578 10.046L17.5609 10.0491ZM15.5554 19.9086C15.1646 20.0704 14.78 20.2505 14.3801 20.3787C14.2 20.4367 13.9711 20.4337 13.7941 20.3757C13.3881 20.2444 13.0004 20.0643 12.6219 19.9086C12.512 20.2108 12.4052 20.4886 12.3167 20.7694C12.2953 20.8335 12.3106 20.9404 12.3533 20.9831C12.9241 21.5631 13.501 22.1339 14.0932 22.7261C14.6854 22.1339 15.2623 21.56 15.8331 20.9801C15.8759 20.9373 15.885 20.8305 15.8637 20.7664C15.7721 20.4856 15.6683 20.2078 15.5584 19.9056L15.5554 19.9086ZM16.6543 21.6913C16.0499 22.2957 15.4546 22.8879 14.8869 23.4556C15.3905 23.9562 15.9186 24.4843 16.4589 25.0246C16.9168 24.1089 17.3808 23.1748 17.8508 22.2377C17.4174 22.0393 17.0145 21.8561 16.6543 21.6913ZM11.7062 25.0002C12.2495 24.4569 12.7837 23.9227 13.3057 23.4007C12.7471 22.8421 12.1579 22.253 11.5749 21.6699C11.175 21.8531 10.766 22.0423 10.3295 22.2438C10.7965 23.1809 11.2635 24.115 11.7062 25.0002ZM7.58224 11.1846C6.96258 11.3983 6.5627 12.0698 6.66343 12.7383C6.76111 13.3885 7.2953 13.9196 7.85391 13.9441C7.76233 13.0283 7.67381 12.1126 7.58224 11.1846ZM20.3234 13.9532C20.9766 13.8861 21.5199 13.2603 21.526 12.543C21.5321 11.8989 21.0621 11.2548 20.592 11.206C20.5035 12.1156 20.4149 13.0253 20.3234 13.9532Z" fill="#04E239"/>
<path d="M13.6143 24.9395H14.5666V25.904H13.6143V24.9395Z" fill="#04E239"/>
<path d="M14.5575 27.8943H13.6143V26.9297H14.5575V27.8943Z" fill="#04E239"/>
<path d="M12.1213 15.5156H13.0645C13.2324 16.175 13.5712 16.4985 14.0871 16.4955C14.5999 16.4955 14.9265 16.1811 15.1097 15.5156H16.0285C16.1597 16.4375 15.2562 17.4173 14.2214 17.4845C13.0859 17.5577 12.0908 16.6389 12.1182 15.5156H12.1213Z" fill="#04E239"/>
</svg>
