<svg width="159" height="122" viewBox="0 0 159 122" fill="none" xmlns="http://www.w3.org/2000/svg">
<path d="M-31.221 114.909C-30.4183 114.95 -29.6156 115.033 -28.8335 115.033C-4.32085 115.033 20.2124 115.033 44.7251 115.033C45.7748 115.033 46.6598 115.033 47.4213 116.123C47.8741 116.782 49.109 117.214 49.994 117.214C59.0705 117.297 68.147 117.317 77.2234 117.214C78.2319 117.214 79.2199 116.309 80.2284 115.815C80.7429 115.568 81.2369 115.094 81.7514 115.094C107.087 115.053 132.403 115.074 157.739 115.094C157.924 115.094 158.089 115.156 158.5 115.238C158.5 116.782 158.706 118.408 158.418 119.911C158.274 120.651 157.265 121.351 156.504 121.825C156.051 122.113 155.31 121.927 154.693 121.927C93.9769 121.927 33.2612 121.927 -27.4751 121.927C-28.957 121.927 -30.2948 121.783 -31.2416 120.487C-31.2416 118.634 -31.2416 116.782 -31.2416 114.93L-31.221 114.909Z" fill="url(#paint0_linear_398_640)"/>
<path d="M63.8033 0.414062C88.8305 0.414062 113.837 0.414062 138.864 0.414062C144.133 0.414062 146.212 2.45164 146.212 7.65879C146.212 39.6014 146.212 71.544 146.212 103.466C146.212 108.57 144.154 110.629 138.988 110.629C88.7688 110.629 38.5497 110.629 -11.69 110.629C-16.7943 110.629 -18.8524 108.55 -18.8524 103.404C-18.8524 71.4617 -18.8524 39.5191 -18.8524 7.59704C-18.8524 2.4928 -16.7531 0.414062 -11.6283 0.414062C13.5224 0.414062 38.6526 0.414062 63.8033 0.414062ZM63.6798 105.668C88.707 105.668 113.714 105.668 138.741 105.668C140.387 105.668 141.218 104.866 141.231 103.26C141.231 71.4411 141.231 39.622 141.231 7.80286C141.231 5.37423 141.231 5.37423 138.741 5.37423C88.707 5.37423 38.6526 5.37423 -11.3813 5.37423C-13.8511 5.37423 -13.8717 5.37423 -13.8717 7.80286C-13.8717 39.622 -13.8717 71.4411 -13.8717 103.26C-13.8717 104.866 -13.0415 105.668 -11.3813 105.668C13.6459 105.668 38.6526 105.668 63.6798 105.668Z" fill="url(#paint1_linear_398_640)"/>
<defs>
<linearGradient id="paint0_linear_398_640" x1="63.6649" y1="114.909" x2="63.6649" y2="121.986" gradientUnits="userSpaceOnUse">
<stop stop-color="#78CB19"/>
<stop offset="1" stop-color="#19A627"/>
</linearGradient>
<linearGradient id="paint1_linear_398_640" x1="63.6798" y1="0.414062" x2="63.6798" y2="110.629" gradientUnits="userSpaceOnUse">
<stop stop-color="#78CB19"/>
<stop offset="1" stop-color="#19A627"/>
</linearGradient>
</defs>
</svg>
