<svg width="26" height="26" viewBox="0 0 26 26" fill="none" xmlns="http://www.w3.org/2000/svg">
<path d="M9.37402 1.57713C10.4628 1.57713 11.5136 1.57713 12.5645 1.57713C13.0302 1.57713 13.1587 1.70567 13.1601 2.16647C13.1601 2.37649 13.1601 2.58652 13.1601 2.81832H16.0928C16.0963 2.74035 16.104 2.65606 16.104 2.57177C16.1047 1.98454 16.1026 1.3973 16.1054 0.809371C16.1075 0.476419 16.2578 0.31486 16.5795 0.314158C17.8067 0.310645 19.0331 0.310645 20.2603 0.314158C20.5813 0.31486 20.7323 0.477121 20.733 0.810776C20.7351 1.94169 20.7337 3.0726 20.7337 4.20351C20.7337 4.29834 20.7337 4.39387 20.7337 4.52242C20.844 4.52242 20.9367 4.52242 21.0294 4.52242C22.0199 4.52242 23.0096 4.52101 24 4.52242C24.8338 4.52382 25.3592 5.04994 25.3592 5.88794C25.3599 10.8675 25.3599 15.847 25.3592 20.8265C25.3592 21.6765 24.8338 22.1963 23.9768 22.197C21.1987 22.1984 18.4213 22.197 15.6432 22.197C15.5392 22.197 15.4346 22.197 15.2414 22.197C15.4451 22.657 15.5954 23.0869 15.8174 23.4754C16.0415 23.8687 16.3295 24.227 16.6062 24.588C16.6631 24.6618 16.7917 24.7103 16.8907 24.7166C17.1787 24.7334 17.4688 24.718 17.7575 24.7243C18.0273 24.7306 18.2036 24.8999 18.2057 25.1387C18.2078 25.3769 18.0315 25.5461 17.7631 25.5623C17.702 25.5658 17.6402 25.5637 17.5791 25.5637C14.3542 25.5637 11.1294 25.5637 7.90453 25.5637C7.47324 25.5637 7.27516 25.4324 7.27235 25.1451C7.26954 24.8564 7.46762 24.7229 7.89681 24.7222C7.94036 24.7222 7.98461 24.7222 8.02816 24.7222C8.55967 24.7222 8.98136 24.5019 9.29324 24.0612C9.688 23.4993 10.0111 22.9036 10.1579 22.197C10.0364 22.197 9.93315 22.197 9.8299 22.197C7.06934 22.197 4.3095 22.197 1.54895 22.197C0.622443 22.197 0.119503 21.6933 0.119503 20.7675C0.119503 17.3748 0.119503 13.982 0.119503 10.5893C0.119503 10.5015 0.111074 10.4116 0.127932 10.3273C0.172185 10.1109 0.311969 9.99364 0.534639 9.99153C0.75731 9.98943 0.901308 10.1025 0.948371 10.3189C0.968741 10.4116 0.959609 10.5106 0.959609 10.6069C0.959609 13.982 0.959609 17.3572 0.959609 20.7324C0.959609 21.2424 1.06989 21.3547 1.57002 21.3547C9.01859 21.3547 16.4672 21.3547 23.9157 21.3547C24.4004 21.3547 24.517 21.2374 24.517 20.7492C24.517 15.8224 24.517 10.8956 24.517 5.96872C24.517 5.47842 24.4025 5.36322 23.9171 5.36252C22.867 5.36252 21.8169 5.36252 20.7492 5.36252V6.20473C21.2781 6.20473 21.8014 6.20473 22.324 6.20473C22.6134 6.20473 22.9021 6.20122 23.1915 6.20544C23.5174 6.21035 23.6664 6.36419 23.6748 6.69363C23.6762 6.73718 23.6748 6.78143 23.6748 6.82498C23.6748 10.6209 23.6748 14.4168 23.6748 18.2128C23.6748 18.7115 23.5561 18.8295 23.0545 18.8295C16.1756 18.8295 9.29675 18.8295 2.41785 18.8295C1.91772 18.8295 1.80112 18.7115 1.80112 18.21C1.80112 14.414 1.80112 10.6181 1.80112 6.82217C1.80112 6.31993 1.91632 6.20473 2.41856 6.20473C3.18069 6.20473 3.94283 6.20473 4.72534 6.20473V5.38359C4.70005 5.37798 4.66774 5.36463 4.63543 5.36463C3.56633 5.36322 2.49723 5.36112 1.42813 5.36463C1.11344 5.36533 0.966634 5.51846 0.960312 5.83666C0.955395 6.09094 0.963824 6.34522 0.957502 6.5995C0.950478 6.88188 0.800158 7.04203 0.54939 7.04765C0.287384 7.05397 0.125825 6.8882 0.119503 6.59529C0.113884 6.33258 0.115289 6.06917 0.118801 5.80646C0.129337 5.07172 0.668804 4.52733 1.40144 4.52382C2.40943 4.5182 3.41671 4.52242 4.4247 4.52242C4.51952 4.52242 4.61505 4.52242 4.74571 4.52242C4.74571 4.41424 4.74571 4.32152 4.74571 4.2288C4.74571 3.10702 4.745 1.98454 4.74571 0.862755C4.74571 0.451834 4.88549 0.313455 5.29922 0.312753C6.47368 0.311348 7.64744 0.311348 8.82191 0.312753C9.23283 0.312753 9.3698 0.453239 9.37191 0.866267C9.37261 1.09245 9.37191 1.31863 9.37191 1.57642L9.37402 1.57713ZM2.65457 17.9718H22.815V7.0624H20.7506V14.6023C20.7843 14.6114 20.8004 14.6198 20.8173 14.6198C21.0273 14.622 21.2381 14.622 21.4481 14.6234C21.8569 14.6255 21.9932 14.7631 21.9939 15.1804C21.9953 15.6363 21.9939 16.0921 21.9939 16.548C21.9939 17.0264 21.8695 17.1486 21.3835 17.1486C19.1666 17.1486 16.9504 17.1486 14.7336 17.1486C11.1673 17.1486 7.60179 17.1486 4.03555 17.1486C3.62393 17.1486 3.48484 17.0081 3.48414 16.5965C3.48274 16.1055 3.48133 15.6145 3.48414 15.1242C3.48625 14.7786 3.63727 14.629 3.98076 14.6248C4.23083 14.622 4.48159 14.6248 4.72604 14.6248V7.06381H2.65387V17.9732L2.65457 17.9718ZM19.8732 10.4025V1.17674H16.9596V10.4025H19.8732ZM8.51354 14.6114V5.37727H5.60197V14.6121H8.51354V14.6114ZM9.39158 2.43058V10.3933H12.3053V2.43128H9.39158V2.43058ZM16.0907 7.90532H13.1777V14.6023H16.0907V7.90532ZM21.1404 15.4817H4.34673V16.293H21.1404V15.4817ZM14.4505 22.2131H11.0303C10.8779 23.1487 10.4396 23.9446 9.88398 24.7011H15.6018C15.0286 23.9369 14.6113 23.1375 14.4505 22.2131ZM5.59986 2.82113H8.51143V1.16972H5.59986V2.82113ZM13.1714 5.34637H16.0829V3.69495H13.1714V5.34637ZM9.37893 14.6079H12.3003V12.96H9.37893V14.6079ZM16.9659 12.9495V14.61H19.8753V12.9495H16.9659ZM5.59775 4.50204H8.51846V3.69706H5.59775V4.50204ZM13.1699 7.02588H16.0892V6.22089H13.1699V7.02588ZM12.3067 11.2749H9.39509V12.0841H12.3067V11.2749ZM19.8796 11.2749H16.9673V12.0848H19.8796V11.2749Z" fill="#04E239"/>
<path d="M12.7449 19.6727C13.0076 19.6727 13.271 19.6692 13.5337 19.6734C13.8203 19.679 14.0029 19.8497 13.9994 20.0977C13.9959 20.3351 13.8189 20.5079 13.5485 20.5114C13.0055 20.5184 12.4618 20.5191 11.9188 20.5107C11.6512 20.5065 11.477 20.3253 11.4805 20.0857C11.484 19.8462 11.6596 19.6804 11.9308 19.6741C12.2026 19.6678 12.4738 19.6727 12.7456 19.6727H12.7449Z" fill="#04E239"/>
<path d="M0.955874 8.54055C0.955874 8.62765 0.967815 8.71686 0.953766 8.80185C0.91443 9.03225 0.76973 9.15377 0.537225 9.15166C0.304019 9.14955 0.155806 9.02593 0.128411 8.79412C0.108743 8.63046 0.114363 8.46258 0.124197 8.29751C0.138948 8.04885 0.312448 7.88658 0.54425 7.88869C0.774647 7.8908 0.941123 8.05517 0.959386 8.30523C0.965005 8.3832 0.960088 8.46187 0.960088 8.54055C0.958683 8.54055 0.957279 8.54055 0.955874 8.54055Z" fill="#04E239"/>
</svg>
