<svg width="27" height="22" viewBox="0 0 27 22" fill="none" xmlns="http://www.w3.org/2000/svg">
<path d="M0.722218 7.60014C0.93322 7.39534 1.14422 7.19055 1.36143 6.99196C1.77722 6.60099 2.29852 6.50169 2.83844 6.43343C3.69485 6.38999 4.37751 6.83061 5.08498 7.21537C5.17807 7.26502 5.27736 7.30846 5.37045 7.3519C5.76142 7.58773 6.14619 7.84217 6.54958 8.05317C6.92193 8.24555 7.42461 7.9787 7.69767 7.48843C8.31826 6.35896 8.93885 5.23569 9.54703 4.10621C9.89457 3.467 10.2235 2.81538 10.5648 2.16996C10.7634 1.84725 10.9496 1.51834 11.1606 1.20804C11.657 0.488157 12.4018 0.221302 13.2334 0.140625C14.6049 0.190272 15.4613 0.9536 15.995 2.15755C16.026 2.22581 16.0198 2.32511 16.1067 2.36234C16.7397 3.53526 17.3727 4.71439 18.0119 5.88731C18.2105 6.25346 18.3284 6.66305 18.6263 6.97334C18.7256 7.20296 18.7876 7.46361 18.9304 7.66841C19.3089 8.19591 19.8302 8.23314 20.5812 7.81114C20.7115 7.73667 20.817 7.63738 20.9349 7.55049C21.4376 7.37673 21.8534 7.04161 22.325 6.81199C22.716 6.6196 23.1132 6.47066 23.5538 6.44584C24.7639 6.48928 25.639 7.07884 26.1417 8.16488C26.4768 8.89718 26.452 9.66671 26.241 10.4549C25.6638 12.5835 25.1115 14.7183 24.5964 16.8594C24.3978 17.6848 24.1558 18.4977 23.9696 19.3293C23.6903 19.8196 23.4359 20.3223 22.9332 20.6388C22.3933 20.9739 21.8223 21.1725 21.1769 21.1415C20.0599 21.1415 18.9366 21.1415 17.8195 21.1415C16.3735 21.1415 14.9276 21.1415 13.4816 21.1415C12.4452 21.1415 11.4088 21.1415 10.3724 21.1415C9.41671 21.1415 8.461 21.1415 7.50529 21.1415C6.68611 21.1415 5.86692 21.1415 5.04774 21.1415C4.38371 21.098 3.81897 20.825 3.33491 20.3719C2.55296 19.6272 2.44126 18.6032 2.19302 17.6413C1.7462 15.9037 1.29937 14.166 0.846337 12.4283C0.846337 12.4035 0.809101 12.3911 0.790483 12.3725C0.753248 11.7829 0.529835 11.243 0.368481 10.6845C0.0705972 9.61706 0.151274 8.59929 0.709806 7.63117L0.722218 7.60014ZM3.40938 8.33244C3.03703 8.20211 2.65226 8.14626 2.36058 8.46897C2.00684 8.85373 1.82687 9.30677 1.99443 9.85289C2.12476 10.2749 2.21785 10.7155 2.34817 11.1437C2.65226 12.1677 2.8012 13.2289 3.17356 14.2343C3.49626 15.7175 3.89344 17.1759 4.29062 18.6343C4.35268 18.8701 4.51404 19.0314 4.71262 19.1556C4.88018 19.3169 5.09739 19.3728 5.30839 19.3728C6.20204 19.3728 7.0957 19.3604 7.98935 19.3542C8.72785 19.3914 9.46636 19.3976 10.1987 19.3542C10.8006 19.3914 11.3964 19.3976 11.9984 19.3542C12.5445 19.3914 13.0906 19.3976 13.6367 19.3542C14.3442 19.3976 15.0517 19.3976 15.7654 19.3542C16.6652 19.3976 17.5651 19.3976 18.4649 19.3542C19.2593 19.3914 20.0474 19.3976 20.8418 19.3542C21.5927 19.5155 22.1947 19.0625 22.3188 18.597C22.8339 16.5925 23.3428 14.5818 23.8827 12.5835C24.1992 11.4292 24.3668 10.2252 24.8322 9.11438C24.8446 9.08335 24.826 9.03371 24.8074 9.00268C24.4537 8.289 23.5972 8.05317 22.896 8.45656C22.1947 8.85373 21.5307 9.31297 20.7611 9.57362C20.4508 9.766 20.0847 9.84048 19.7558 9.85909C19.3648 9.88392 18.9428 9.79083 18.558 9.62327C18.105 9.32539 17.6706 9.00888 17.4099 8.51241C16.8948 7.55049 16.3735 6.59478 15.8522 5.63286C15.2627 4.53442 14.6793 3.43597 14.0836 2.33752C14.0277 2.23202 13.9532 2.12652 13.8167 2.1079C13.3761 1.82243 12.8548 1.87828 12.5693 2.30028C12.3149 2.67885 12.1163 3.09464 11.8929 3.49803C11.5081 4.18688 11.0923 4.85712 10.7572 5.5708C10.5276 6.06107 10.18 6.49549 10.0249 7.02299C9.97524 7.10367 9.91939 7.17814 9.87595 7.25881C9.37327 8.15867 8.97609 9.133 7.98314 9.64809C7.05846 9.92736 6.1586 9.92115 5.30219 9.41227C5.1098 9.29436 4.91121 9.18265 4.71262 9.07094C4.29683 8.78547 3.86241 8.53723 3.40318 8.34485L3.40938 8.33244Z" fill="#04E239"/>
</svg>
