<svg width="62" height="61" viewBox="0 0 62 61" fill="none" xmlns="http://www.w3.org/2000/svg">
<path fill-rule="evenodd" clip-rule="evenodd" d="M0.922363 16.0219C0.922363 7.19836 8.0748 0.0449219 16.8993 0.0449219H45.3028C54.1273 0.0449219 61.2808 7.19836 61.2808 16.0219V44.4264C61.2808 53.2499 54.1273 60.4033 45.3028 60.4033H16.8993C8.0748 60.4033 0.922363 53.2499 0.922363 44.4264V16.0219ZM16.8993 3.59536C10.0365 3.59536 4.4728 9.15903 4.4728 16.0219V44.4264C4.4728 51.2892 10.0365 56.8529 16.8993 56.8529H45.3028C52.1657 56.8529 57.7303 51.2892 57.7303 44.4264V16.0219C57.7303 9.15903 52.1657 3.59536 45.3028 3.59536H16.8993Z" fill="black"/>
<path fill-rule="evenodd" clip-rule="evenodd" d="M16.713 32.5182C17.4063 31.826 18.5309 31.826 19.2241 32.5182L26.325 39.6201C27.0182 40.3133 27.0182 41.4369 26.325 42.1302L19.2241 49.231C18.5309 49.9243 17.4063 49.9243 16.713 49.231C16.0198 48.5378 16.0198 47.4142 16.713 46.7209L22.5594 40.8746L16.713 35.0293C16.0198 34.3361 16.0198 33.2124 16.713 32.5182Z" fill="black"/>
<path fill-rule="evenodd" clip-rule="evenodd" d="M26.8447 47.9764C26.8447 46.9956 27.6401 46.2012 28.6199 46.2012H42.8217C43.8025 46.2012 44.5969 46.9956 44.5969 47.9764C44.5969 48.9562 43.8025 49.7516 42.8217 49.7516H28.6199C27.6401 49.7516 26.8447 48.9562 26.8447 47.9764Z" fill="black"/>
</svg>
