<svg width="31" height="27" viewBox="0 0 31 27" fill="none" xmlns="http://www.w3.org/2000/svg">
<path d="M30.9606 6.04824C30.7794 6.16768 30.6133 6.34091 30.414 6.39787C29.6768 6.61144 28.9293 6.79179 28.1825 6.97214C28.0259 7.01011 27.9579 7.0726 27.9278 7.23713C27.8076 7.89604 27.6502 8.54863 27.5426 9.20912C27.4556 9.74227 27.1827 10.1386 26.7674 10.4542C26.0152 11.0245 25.1403 11.299 24.2243 11.4192C21.9209 11.7206 19.8421 11.17 18.0331 9.68848C17.564 9.30404 17.1724 8.84921 16.909 8.29471C16.7382 7.93401 16.6978 7.56303 16.7785 7.17148C16.9146 6.51573 17.0253 5.85444 17.1748 5.20106C17.227 4.97404 17.1558 4.86726 16.9826 4.74544C16.3617 4.30801 15.7549 3.85081 15.138 3.40942C14.9378 3.26625 14.8018 3.10251 14.8548 2.84227C14.9062 2.58993 15.1039 2.50688 15.3231 2.45151C17.9864 1.77677 20.6513 1.10441 23.3123 0.42256C23.5899 0.351369 23.8011 0.409113 24.025 0.572853C26.2177 2.18494 28.4167 3.78832 30.6102 5.39961C30.7415 5.49611 30.8435 5.63375 30.959 5.7524V6.04824H30.9606ZM16.4281 3.14997C16.4977 3.21404 16.523 3.24331 16.5539 3.26546C18.4238 4.63233 20.2938 6.00078 22.1693 7.36053C22.2547 7.42223 22.4081 7.442 22.5134 7.4159C24.214 6.9935 25.9123 6.56002 27.6114 6.12892C28.1873 5.98258 28.7631 5.83704 29.3619 5.68516C29.3137 5.63296 29.2971 5.60765 29.2741 5.59103C27.3971 4.21705 25.52 2.84148 23.6366 1.4754C23.552 1.4137 23.3977 1.39709 23.2917 1.42319C21.9818 1.74434 20.675 2.07736 19.3667 2.408C18.4033 2.65163 17.4398 2.89447 16.4273 3.15076L16.4281 3.14997ZM18.0781 5.54753C17.9587 6.16689 17.8638 6.73879 17.7349 7.30358C17.6676 7.59704 17.7119 7.85175 17.8733 8.08984C17.9943 8.26861 18.1201 8.44817 18.2664 8.60558C19.9173 10.3743 23.0046 11.0546 25.3246 10.1702C26.0958 9.87595 26.7041 9.47174 26.7231 8.51857C26.731 8.11594 26.8671 7.71569 26.9509 7.28617C26.8576 7.30437 26.8109 7.31149 26.765 7.32335C25.3626 7.67772 23.9585 8.02498 22.5592 8.3928C22.2452 8.47506 21.9905 8.45766 21.7397 8.23934C21.5246 8.05266 21.2825 7.89763 21.0524 7.72835C20.0762 7.01248 19.1001 6.29662 18.0789 5.54753H18.0781Z" fill="#04E239"/>
<path d="M27.1388 23.5704C27.8974 23.5704 28.6457 23.5696 29.3948 23.5704C29.8599 23.5712 30.0212 23.7349 30.0117 24.1921C29.9856 25.4886 29.0459 26.4117 27.751 26.4117C19.4628 26.4117 11.1746 26.4117 2.88636 26.4117C1.58672 26.4117 0.622481 25.4221 0.64542 24.113C0.651748 23.746 0.821025 23.5735 1.19359 23.5712C1.86437 23.5672 2.53515 23.5696 3.20672 23.5696C3.3135 23.5696 3.4195 23.5696 3.48753 23.5696C3.48753 23.2832 3.48753 23.0285 3.48753 22.7738C3.48753 18.1859 3.48753 13.5973 3.48753 9.00942C3.48753 7.99376 4.01988 7.46457 5.04107 7.46457C8.39576 7.46457 11.7504 7.46457 15.1051 7.46457C15.1644 7.46457 15.2238 7.46299 15.2831 7.46457C15.5916 7.47564 15.7917 7.65125 15.8004 7.91861C15.8099 8.19309 15.6003 8.40508 15.2839 8.40825C14.485 8.41616 13.6853 8.41141 12.8863 8.41141C10.2712 8.41141 7.65695 8.41141 5.04187 8.41141C4.54907 8.41141 4.43437 8.52611 4.43437 9.0197C4.43437 13.6669 4.43437 18.3141 4.43437 22.9613C4.43437 23.4446 4.56014 23.5688 5.05057 23.5688C11.8984 23.5688 18.7462 23.5688 25.5932 23.5688C26.1018 23.5688 26.2228 23.4478 26.2228 22.9447C26.2228 19.4516 26.2228 15.9592 26.2228 12.4661C26.2228 12.3673 26.2173 12.2684 26.2268 12.1703C26.2521 11.9069 26.4419 11.7305 26.6934 11.7297C26.9442 11.7289 27.1356 11.9029 27.1657 12.1663C27.1744 12.2447 27.1704 12.3238 27.1704 12.4029C27.1704 15.9252 27.1704 19.4476 27.1696 22.97C27.1696 23.1559 27.1507 23.3426 27.1388 23.5688V23.5704ZM1.67532 24.5322C1.83036 25.1461 2.22112 25.4648 2.80805 25.4648C11.1556 25.4648 19.5039 25.4648 27.8515 25.4648C28.4384 25.4648 28.8308 25.1437 28.9818 24.5322H1.67532Z" fill="#04E239"/>
<path d="M11.9932 16.2093C11.9932 14.8678 11.9916 13.527 11.9932 12.1854C11.994 11.5787 12.3128 11.381 12.8483 11.661C15.4317 13.0113 18.0136 14.3647 20.5962 15.7149C20.8138 15.8289 21.0163 15.9522 21.0076 16.2362C20.9997 16.5028 20.8059 16.6199 20.597 16.729C18.0136 18.0793 15.4317 19.4319 12.8491 20.783C12.3096 21.0654 11.994 20.8739 11.9924 20.2625C11.9908 18.9114 11.9924 17.5604 11.9924 16.2093H11.9932ZM12.9677 12.7922V19.6558C15.1636 18.5048 17.3199 17.3745 19.5189 16.2228C17.3064 15.0639 15.1533 13.9368 12.9677 12.7922Z" fill="#04E239"/>
</svg>
