<svg xmlns="http://www.w3.org/2000/svg" width="18" height="14" viewBox="0 0 18 14" fill="none">
  <path d="M9.05311 8.2425C6.60961 8.2425 4.16542 8.2425 1.72192 8.2425C1.62841 8.2425 1.53422 8.24523 1.44071 8.23908C0.74793 8.19608 0.321341 7.75516 0.330214 7.09446C0.339087 6.44741 0.768406 6.02423 1.45368 5.98669C1.52193 5.98328 1.59019 5.98464 1.65776 5.98464C6.60483 5.98464 11.5519 5.98464 16.499 5.98601C16.6512 5.98601 16.8061 5.99693 16.9556 6.02491C17.4975 6.12593 17.8299 6.54911 17.8272 7.11971C17.8245 7.6794 17.4948 8.09438 16.9686 8.20291C16.8088 8.23567 16.6484 8.24318 16.486 8.24318C14.0084 8.2425 11.5301 8.24318 9.05243 8.24318L9.05311 8.2425Z" fill="black"/>
  <path d="M9.09222 0.555425C11.6292 0.555425 14.1662 0.553377 16.7039 0.556107C17.5093 0.55679 17.9994 1.21886 17.7824 1.99627C17.6554 2.45016 17.3005 2.73888 16.8179 2.77847C16.7504 2.78393 16.6821 2.78324 16.6138 2.78324C11.5903 2.78324 6.5675 2.78324 1.54398 2.78324C0.886012 2.78324 0.48536 2.48907 0.357042 1.92188C0.190501 1.18268 0.674424 0.558837 1.43 0.557472C3.98407 0.55406 6.53815 0.556107 9.09222 0.555425Z" fill="black"/>
  <path d="M5.25328 13.6702C4.00218 13.6702 2.75108 13.6715 1.49998 13.6702C0.768973 13.6688 0.326685 13.2436 0.330098 12.5515C0.33351 11.8799 0.786036 11.4444 1.49725 11.4437C4.00764 11.441 6.51871 11.4403 9.0291 11.4437C9.84474 11.4451 10.3198 12.0293 10.1676 12.8265C10.07 13.3371 9.67684 13.6661 9.13353 13.6681C7.84012 13.6729 6.54601 13.6695 5.2526 13.6702H5.25328Z" fill="black"/>
</svg>