<svg width="101" height="200" viewBox="0 0 101 200" fill="none" xmlns="http://www.w3.org/2000/svg">
<path d="M4.91074 4.94922H0.112915V7.16127H4.91074V4.94922Z" fill="#F4FFC7"/>
<path d="M26.1529 4.94922H8.48682V7.16127H26.1529V4.94922Z" fill="#E8F924"/>
<path d="M47.5164 4.94922H29.8503V7.16127H47.5164V4.94922Z" fill="#59FD56"/>
<path d="M58.4039 4.94922H51.1011V7.16127H58.4039V4.94922Z" fill="#72C91B"/>
<path d="M4.91074 26.4141H0.112915V28.6261H4.91074V26.4141Z" fill="#F4FFC7"/>
<path d="M26.1529 26.4141H8.48682V28.6261H26.1529V26.4141Z" fill="#72C91B"/>
<path d="M4.91074 10.3125H0.112915V12.5246H4.91074V10.3125Z" fill="#F4FFC7"/>
<path d="M26.1529 12.5246H41.819V10.3125H26.1529H24.153H8.48682V12.5246H24.153H26.1529Z" fill="#59FD56"/>
<path d="M63.0603 12.5246H79.282V10.3125H63.0603H61.6159H45.4043V12.5246H61.6159H63.0603Z" fill="white"/>
<path d="M89.9076 10.3125H82.8674V12.5246H89.9076V10.3125Z" fill="#BADC58"/>
<path d="M100.533 10.3125H93.4933V12.5246H100.533V10.3125Z" fill="#BADC58"/>
<path d="M4.91074 15.6758H0.112915V17.8878H4.91074V15.6758Z" fill="#F4FFC7"/>
<path d="M22.3954 15.6758H8.48682V17.8878H22.3954V15.6758Z" fill="white"/>
<path d="M43.8185 15.6758H26.1525V17.8878H43.8185V15.6758Z" fill="#72C91B"/>
<path d="M82.7272 15.6758H65.0712H47.4052V17.8878H65.0712H82.7272V15.6758Z" fill="#E8F924"/>
<path d="M92.6047 15.6758H86.3827V17.8878H92.6047V15.6758Z" fill="#59FD56"/>
<path d="M48.5149 21.0498H42.2928V23.2619H48.5149V21.0498Z" fill="#E8F924"/>
<path d="M4.91061 0H0.112793V2.21205H4.91061V0Z" fill="#F4FFC7"/>
<path d="M18.2542 0H8.48682V2.21205H18.2542V0Z" fill="#72C91B"/>
<path d="M27.5967 0H21.8394V2.21205H27.5967V0Z" fill="white"/>
<path d="M4.91074 31.3828H0.112915V33.5949H4.91074V31.3828Z" fill="#F4FFC7"/>
<path d="M18.2542 31.3828H8.48682V33.5949H18.2542V31.3828Z" fill="#72C91B"/>
<path d="M27.5967 31.3828H21.8394V33.5949H27.5967V31.3828Z" fill="white"/>
<path d="M4.91074 21.0498H0.112915V23.2619H4.91074V21.0498Z" fill="#F4FFC7"/>
<path d="M37.2232 21.0498H26.1529H25.9509H8.48682V23.2518H25.9509H26.1529H37.2232V21.0498Z" fill="white"/>
<path d="M4.91098 40.8848H0.113159V43.0968H4.91098V40.8848Z" fill="#F4FFC7"/>
<path d="M26.1531 40.8848H8.48706V43.0968H26.1531V40.8848Z" fill="#E8F924"/>
<path d="M47.405 43.0867H64.8488V40.8848H47.405H47.1828H29.7389V43.0867H47.1828H47.405Z" fill="white"/>
<path d="M4.91098 62.3486H0.113159V64.5607H4.91098V62.3486Z" fill="#F4FFC7"/>
<path d="M26.1531 62.3486H8.48706V64.5607H26.1531V62.3486Z" fill="#72C91B"/>
<path d="M47.1828 62.3486H29.7389V64.5506H47.1828H47.405H64.8488V62.3486H47.405H47.1828Z" fill="#BADC58"/>
<path d="M86.2513 62.3486H68.5852V64.5607H86.2513V62.3486Z" fill="white"/>
<path d="M97.1413 62.3486H89.8385V64.5607H97.1413V62.3486Z" fill="#59FD56"/>
<path d="M4.91098 46.248H0.113159V48.4601H4.91098V46.248Z" fill="#F4FFC7"/>
<path d="M26.1531 48.4601H41.8193V46.248H26.1531H24.1532H8.48706V48.4601H24.1532H26.1531Z" fill="#59FD56"/>
<path d="M52.9092 46.248H45.869V48.4601H52.9092V46.248Z" fill="#BADC58"/>
<path d="M63.5357 46.248H56.4955V48.4601H63.5357V46.248Z" fill="#72C91B"/>
<path d="M4.91098 51.6113H0.113159V53.8234H4.91098V51.6113Z" fill="#F4FFC7"/>
<path d="M22.3957 51.6113H8.48706V53.8234H22.3957V51.6113Z" fill="white"/>
<path d="M62.1121 51.6113H44.446H26.7799V53.8234H44.446H62.1121V51.6113Z" fill="#E8F924"/>
<path d="M71.9897 51.6113H65.7677V53.8234H71.9897V51.6113Z" fill="#59FD56"/>
<path d="M4.91086 35.9355H0.113037V38.1476H4.91086V35.9355Z" fill="#F4FFC7"/>
<path d="M18.2544 35.9355H8.48706V38.1476H18.2544V35.9355Z" fill="#72C91B"/>
<path d="M27.597 35.9355H21.8396V38.1476H27.597V35.9355Z" fill="white"/>
<path d="M43.4451 35.9355H31.0011V38.1476H43.4451V35.9355Z" fill="#E8F924"/>
<path d="M4.91098 56.9746H0.113159V59.1867H4.91098V56.9746Z" fill="#F4FFC7"/>
<path d="M37.2235 56.9746H26.1531H25.9511H8.48706V59.1867H25.9511H26.1531H37.2235V56.9746Z" fill="white"/>
<path d="M47.4035 56.9746H40.8481V59.1867H47.4035V56.9746Z" fill="white"/>
<path d="M54.6971 56.9746H50.9901V59.1867H54.6971V56.9746Z" fill="white"/>
<path d="M76.0092 56.9746H58.3431V59.1867H76.0092V56.9746Z" fill="#72C91B"/>
<path d="M4.91098 74.833H0.113159V77.0451H4.91098V74.833Z" fill="#F4FFC7"/>
<path d="M26.1531 74.833H8.48706V77.0451H26.1531V74.833Z" fill="#E8F924"/>
<path d="M4.91098 96.2979H0.113159V98.5099H4.91098V96.2979Z" fill="#F4FFC7"/>
<path d="M26.1531 96.2979H8.48706V98.5099H26.1531V96.2979Z" fill="#72C91B"/>
<path d="M47.1828 96.2979H29.7389V98.4998H47.1828H47.405H64.8488V96.2979H47.405H47.1828Z" fill="#BADC58"/>
<path d="M85.9691 96.2979H68.303V98.5099H85.9691V96.2979Z" fill="white"/>
<path d="M96.8572 96.2969H89.5544V98.5089H96.8572V96.2969Z" fill="#59FD56"/>
<path d="M4.91098 80.1963H0.113159V82.4083H4.91098V80.1963Z" fill="#F4FFC7"/>
<path d="M26.1531 82.4083H41.8193V80.1963H26.1531H24.1532H8.48706V82.4083H24.1532H26.1531Z" fill="#59FD56"/>
<path d="M4.91098 85.5596H0.113159V87.7716H4.91098V85.5596Z" fill="#F4FFC7"/>
<path d="M22.3957 85.5596H8.48706V87.7716H22.3957V85.5596Z" fill="white"/>
<path d="M43.8188 85.5596H26.1527V87.7716H43.8188V85.5596Z" fill="#72C91B"/>
<path d="M54.1012 85.5596H47.8792V87.7716H54.1012V85.5596Z" fill="#59FD56"/>
<path d="M4.91086 69.8838H0.113037V72.0958H4.91086V69.8838Z" fill="#F4FFC7"/>
<path d="M18.2544 69.8838H8.48706V72.0958H18.2544V69.8838Z" fill="#72C91B"/>
<path d="M27.597 69.8838H21.8396V72.0958H27.597V69.8838Z" fill="white"/>
<path d="M43.4451 69.8838H31.0011V72.0958H43.4451V69.8838Z" fill="#E8F924"/>
<path d="M4.91098 90.9238H0.113159V93.1359H4.91098V90.9238Z" fill="#F4FFC7"/>
<path d="M37.2235 90.9238H26.1531H25.9511H8.48706V93.1359H25.9511H26.1531H37.2235V90.9238Z" fill="#59FD56"/>
<path d="M47.4035 90.9238H40.8481V93.1359H47.4035V90.9238Z" fill="white"/>
<path d="M54.6971 90.9238H50.9901V93.1359H54.6971V90.9238Z" fill="white"/>
<path d="M76.0092 90.9238H58.3431V93.1359H76.0092V90.9238Z" fill="#72C91B"/>
<path d="M4.91171 108.78H0.113892V110.992H4.91171V108.78Z" fill="#F4FFC7"/>
<path d="M26.1539 108.78H8.48779V110.992H26.1539V108.78Z" fill="#E8F924"/>
<path d="M47.5168 108.78H29.8507V110.992H47.5168V108.78Z" fill="#59FD56"/>
<path d="M58.4048 108.78H51.1021V110.992H58.4048V108.78Z" fill="#72C91B"/>
<path d="M4.91171 130.243H0.113892V132.455H4.91171V130.243Z" fill="#F4FFC7"/>
<path d="M26.1539 130.243H8.48779V132.455H26.1539V130.243Z" fill="#72C91B"/>
<path d="M4.91171 114.144H0.113892V116.356H4.91171V114.144Z" fill="#F4FFC7"/>
<path d="M26.1539 116.356H41.82V114.144H26.1539H24.1539H8.48779V116.356H24.1539H26.1539Z" fill="#59FD56"/>
<path d="M63.0613 116.356H79.2829V114.144H63.0613H61.6169H45.4053V116.356H61.6169H63.0613Z" fill="white"/>
<path d="M89.9085 114.144H82.8683V116.356H89.9085V114.144Z" fill="#BADC58"/>
<path d="M100.534 114.144H93.4943V116.356H100.534V114.144Z" fill="#BADC58"/>
<path d="M4.91147 119.508H0.113647V121.72H4.91147V119.508Z" fill="#F4FFC7"/>
<path d="M22.3963 119.508H8.48767V121.72H22.3963V119.508Z" fill="white"/>
<path d="M43.8193 119.508H26.1532V121.72H43.8193V119.508Z" fill="#72C91B"/>
<path d="M82.7277 119.508H65.0717H47.4056V121.72H65.0717H82.7277V119.508Z" fill="#E8F924"/>
<path d="M92.6052 119.508H86.3832V121.72H92.6052V119.508Z" fill="#59FD56"/>
<path d="M48.5152 124.881H42.2932V127.093H48.5152V124.881Z" fill="#E8F924"/>
<path d="M4.91147 103.831H0.113647V106.043H4.91147V103.831Z" fill="#F4FFC7"/>
<path d="M18.2551 103.831H8.48779V106.043H18.2551V103.831Z" fill="#72C91B"/>
<path d="M27.5976 103.831H21.8402V106.043H27.5976V103.831Z" fill="white"/>
<path d="M4.91171 135.214H0.113892V137.426H4.91171V135.214Z" fill="#F4FFC7"/>
<path d="M18.2551 135.214H8.48779V137.426H18.2551V135.214Z" fill="#72C91B"/>
<path d="M27.5976 135.214H21.8402V137.426H27.5976V135.214Z" fill="white"/>
<path d="M4.91171 124.881H0.113892V127.093H4.91171V124.881Z" fill="#F4FFC7"/>
<path d="M37.2242 124.881H26.1539H25.9519H8.48779V127.083H25.9519H26.1539H37.2242V124.881Z" fill="white"/>
<path d="M4.91086 142.376H0.113037V144.588H4.91086V142.376Z" fill="#F4FFC7"/>
<path d="M26.1525 142.376H8.48645V144.588H26.1525V142.376Z" fill="#E8F924"/>
<path d="M47.4044 144.578H64.8482V142.376H47.4044H47.1821H29.7383V144.578H47.1821H47.4044Z" fill="white"/>
<path d="M4.91086 163.84H0.113037V166.052H4.91086V163.84Z" fill="#F4FFC7"/>
<path d="M26.1525 163.84H8.48645V166.052H26.1525V163.84Z" fill="#72C91B"/>
<path d="M47.1821 163.84H29.7383V166.042H47.1821H47.4044H64.8482V163.84H47.4044H47.1821Z" fill="#BADC58"/>
<path d="M86.2512 163.84H68.5851V166.052H86.2512V163.84Z" fill="white"/>
<path d="M97.1407 163.84H89.8379V166.052H97.1407V163.84Z" fill="#59FD56"/>
<path d="M4.91086 147.738H0.113037V149.95H4.91086V147.738Z" fill="#F4FFC7"/>
<path d="M26.1525 149.95H41.8187V147.738H26.1525H24.1526H8.48645V149.95H24.1526H26.1525Z" fill="#59FD56"/>
<path d="M52.9091 147.738H45.8689V149.95H52.9091V147.738Z" fill="#BADC58"/>
<path d="M63.5355 147.738H56.4954V149.95H63.5355V147.738Z" fill="#72C91B"/>
<path d="M4.91086 153.102H0.113037V155.314H4.91086V153.102Z" fill="#F4FFC7"/>
<path d="M22.3951 153.102H8.48645V155.314H22.3951V153.102Z" fill="white"/>
<path d="M62.1114 153.102H44.4454H26.7793V155.314H44.4454H62.1114V153.102Z" fill="#E8F924"/>
<path d="M71.9896 153.102H65.7676V155.314H71.9896V153.102Z" fill="#59FD56"/>
<path d="M4.91074 137.426H0.112915V139.638H4.91074V137.426Z" fill="#F4FFC7"/>
<path d="M18.2538 137.426H8.48645V139.638H18.2538V137.426Z" fill="#72C91B"/>
<path d="M27.5969 137.426H21.8395V139.638H27.5969V137.426Z" fill="white"/>
<path d="M43.4445 137.426H31.0005V139.638H43.4445V137.426Z" fill="#E8F924"/>
<path d="M4.91074 158.465H0.112915V160.677H4.91074V158.465Z" fill="#F4FFC7"/>
<path d="M37.2229 158.465H26.1525H25.9505H8.48645V160.677H25.9505H26.1525H37.2229V158.465Z" fill="white"/>
<path d="M47.4031 158.465H40.8478V160.677H47.4031V158.465Z" fill="white"/>
<path d="M54.6968 158.465H50.9899V160.677H54.6968V158.465Z" fill="white"/>
<path d="M76.009 158.465H58.3429V160.677H76.009V158.465Z" fill="#72C91B"/>
<path d="M4.91171 176.324H0.113892V178.536H4.91171V176.324Z" fill="#F4FFC7"/>
<path d="M26.1539 176.324H8.48779V178.536H26.1539V176.324Z" fill="#E8F924"/>
<path d="M26.1539 197.788H8.48779V200H26.1539V197.788Z" fill="#72C91B"/>
<path d="M47.1829 197.788H29.739V199.99H47.1829H47.4051H64.849V197.788H47.4051H47.1829Z" fill="#BADC58"/>
<path d="M85.9692 197.788H68.3031V200H85.9692V197.788Z" fill="white"/>
<path d="M96.8582 197.788H89.5554V200H96.8582V197.788Z" fill="#59FD56"/>
<path d="M4.91171 181.687H0.113892V183.899H4.91171V181.687Z" fill="#F4FFC7"/>
<path d="M26.1539 183.899H41.82V181.687H26.1539H24.1539H8.48779V183.899H24.1539H26.1539Z" fill="#59FD56"/>
<path d="M4.91171 187.05H0.113892V189.262H4.91171V187.05Z" fill="#F4FFC7"/>
<path d="M22.3964 187.05H8.48779V189.262H22.3964V187.05Z" fill="white"/>
<path d="M43.8194 187.05H26.1533V189.262H43.8194V187.05Z" fill="#72C91B"/>
<path d="M54.1013 187.05H47.8793V189.262H54.1013V187.05Z" fill="#59FD56"/>
<path d="M4.91171 171.374H0.113892V173.586H4.91171V171.374Z" fill="#F4FFC7"/>
<path d="M18.2551 171.374H8.48779V173.586H18.2551V171.374Z" fill="#72C91B"/>
<path d="M27.5977 171.374H21.8403V173.586H27.5977V171.374Z" fill="white"/>
<path d="M43.4454 171.374H31.0013V173.586H43.4454V171.374Z" fill="#E8F924"/>
<path d="M37.2243 192.413H26.154H25.952H8.48792V194.625H25.952H26.154H37.2243V192.413Z" fill="#59FD56"/>
<path d="M47.4041 192.413H40.8488V194.625H47.4041V192.413Z" fill="white"/>
<path d="M54.6978 192.413H50.9908V194.625H54.6978V192.413Z" fill="white"/>
<path d="M76.0099 192.413H58.3439V194.625H76.0099V192.413Z" fill="#72C91B"/>
</svg>
