<svg width="18" height="18" viewBox="0 0 19 19" fill="none" xmlns="http://www.w3.org/2000/svg">
<g clip-path="url(#clip0_398_55)">
<path d="M13.361 8.19126C12.467 8.19126 11.5732 8.19126 10.6788 8.19126C10.2234 8.19126 9.98845 7.95833 9.98845 7.50591C9.98845 5.74801 9.98697 3.99059 9.98845 2.23267C9.98945 1.01378 10.8455 0.155224 12.0615 0.153233C13.3589 0.150745 14.6565 0.150745 15.954 0.153233C17.161 0.155722 18.0205 1.01278 18.023 2.21773C18.026 3.52224 18.026 4.82624 18.023 6.13074C18.02 7.32474 17.1605 8.18629 15.968 8.19076C15.099 8.19424 14.23 8.19126 13.361 8.19126ZM11.1685 7.0107H11.3656C12.899 7.0107 14.4326 7.01118 15.966 7.0107C16.5159 7.0107 16.8434 6.68121 16.8439 6.12875C16.8444 4.82475 16.8444 3.52024 16.8439 2.21625C16.8439 1.66279 16.517 1.33381 15.9669 1.33381C14.6634 1.33281 13.3594 1.33331 12.0559 1.33381C11.492 1.33381 11.169 1.65881 11.1685 2.22421C11.168 3.75219 11.1685 5.27965 11.1685 6.80762V7.0107Z" fill="black"/>
<path d="M4.81469 8.19126C5.70858 8.19126 6.60247 8.19126 7.49685 8.19126C7.95225 8.19126 8.18718 7.95833 8.18718 7.50591C8.18718 5.74801 8.18867 3.99059 8.18718 2.23267C8.18618 1.01378 7.33012 0.155224 6.11422 0.153233C4.81668 0.150745 3.51915 0.150745 2.22162 0.153233C1.01467 0.155722 0.15512 1.01278 0.152631 2.21773C0.149644 3.52224 0.149644 4.82624 0.152631 6.13074C0.155617 7.32474 1.01516 8.18629 2.20767 8.19076C3.07669 8.19424 3.94569 8.19126 4.81469 8.19126ZM7.00711 7.0107H6.81001C5.27657 7.0107 3.74311 7.01118 2.20967 7.0107C1.6597 7.0107 1.3322 6.68121 1.3317 6.12875C1.33122 4.82475 1.33122 3.52024 1.3317 2.21625C1.3317 1.66279 1.6587 1.33381 2.20867 1.33381C3.51218 1.33281 4.81618 1.33331 6.11969 1.33381C6.68359 1.33381 7.00661 1.65881 7.00711 2.22421C7.0076 3.75219 7.00711 5.27965 7.00711 6.80762V7.0107Z" fill="#40A944"/>
<path d="M8.18816 13.3683C8.18816 14.2254 8.18916 15.0825 8.18816 15.9395C8.18668 17.1803 7.33409 18.0304 6.08982 18.0314C4.8107 18.0325 3.53208 18.0325 2.25297 18.0314C1.01068 18.0304 0.154617 17.1783 0.153124 15.9406C0.151632 14.636 0.14964 13.332 0.154119 12.0275C0.157106 11.051 0.770286 10.2666 1.69951 10.0496C1.87272 10.0093 2.05588 9.99487 2.23405 9.99487C3.99097 9.99089 5.74789 9.99238 7.5048 9.99287C7.95623 9.99287 8.18816 10.2283 8.18816 10.6852C8.18866 11.5796 8.18816 12.474 8.18816 13.3683ZM7.0081 11.1735H6.80901C5.27556 11.1735 3.74212 11.1735 2.20867 11.1735C1.6582 11.1735 1.3327 11.5019 1.3327 12.0559C1.3322 13.3599 1.3322 14.6643 1.3327 15.9683C1.3327 16.5214 1.65969 16.8498 2.21016 16.8503C3.51366 16.8514 4.81767 16.8509 6.12118 16.8503C6.68359 16.8503 7.0076 16.5239 7.0076 15.9585C7.0081 14.4304 7.0076 12.903 7.0076 11.375L7.0081 11.1735Z" fill="black"/>
<path d="M13.3656 9.99312C14.2221 9.99312 15.0793 9.99212 15.9358 9.99312C17.1667 9.99511 18.0222 10.8477 18.0237 12.076C18.0252 13.3681 18.0257 14.6596 18.0237 15.9517C18.0217 17.1706 17.1667 18.0287 15.9503 18.0312C14.6527 18.0337 13.3551 18.0337 12.0577 18.0312C10.8532 18.0287 9.99065 17.1686 9.98915 15.9656C9.98667 14.2017 9.98816 12.4379 9.98915 10.674C9.98915 10.2305 10.2251 9.99312 10.665 9.99312C11.5654 9.99212 12.4652 9.99312 13.3656 9.99312ZM11.1687 11.1737V11.3857C11.1687 12.9136 11.1687 14.4411 11.1687 15.9691C11.1687 16.5221 11.4957 16.851 12.0457 16.8516C13.3492 16.8526 14.6532 16.8521 15.9567 16.8516C16.5191 16.8516 16.8437 16.5251 16.8437 15.9602C16.8441 14.6687 16.8437 13.3765 16.8437 12.085C16.8437 11.4932 16.5266 11.1742 15.9388 11.1742C14.4242 11.1742 12.9092 11.1742 11.3947 11.1742C11.3275 11.1742 11.2608 11.1737 11.1687 11.1737Z" fill="black"/>
</g>
<defs>
<clipPath id="clip0_398_55">
<rect width="19" height="19" fill="white"/>
</clipPath>
</defs>
</svg>
