<svg width="142" height="41" viewBox="0 0 142 41" fill="none" xmlns="http://www.w3.org/2000/svg">
<path d="M140.574 36.1617C140.574 38.3328 138.779 40.0914 136.558 40.0914H5.13827C2.91877 40.0914 1.11719 38.3328 1.11719 36.1617V4.8234C1.11719 2.65333 2.91877 0.88855 5.13827 0.88855H136.557C138.779 0.88855 140.573 2.65333 140.573 4.8234L140.574 36.1617Z" fill="#06141C"/>
<path d="M136.135 0.935613C138.553 0.935613 140.521 2.85422 140.521 5.21206V35.7672C140.521 38.1251 138.553 40.0437 136.135 40.0437H5.55709C3.13879 40.0437 1.17099 38.1251 1.17099 35.7672V5.21206C1.17099 2.85422 3.13879 0.935613 5.55709 0.935613H136.135ZM136.135 0.119537H5.55709C2.68569 0.119537 0.333984 2.41245 0.333984 5.21206V35.7672C0.333984 38.5668 2.68569 40.8597 5.55709 40.8597H136.135C139.006 40.8597 141.358 38.5668 141.358 35.7672V5.21206C141.358 2.41245 139.006 0.119537 136.135 0.119537Z" fill="white"/>
<path d="M31.8069 20.27C31.7766 16.9873 34.5637 15.3903 34.6911 15.316C33.1127 13.0722 30.6662 12.7656 29.8065 12.7412C27.7517 12.5303 25.7586 13.94 24.7118 13.94C23.6442 13.94 22.0324 12.7615 20.2952 12.7962C18.0597 12.8298 15.9684 14.0917 14.8214 16.0513C12.4543 20.0469 14.2197 25.9186 16.4875 29.1483C17.622 30.73 18.9476 32.4961 20.6827 32.434C22.3803 32.3657 23.0143 31.3788 25.0628 31.3788C27.0925 31.3788 27.688 32.434 29.4576 32.3942C31.2794 32.3657 32.4264 30.8054 33.5211 29.2094C34.8321 27.3964 35.3586 25.611 35.3795 25.5193C35.3367 25.5051 31.8414 24.2044 31.8069 20.27Z" fill="white"/>
<path d="M28.4641 10.6166C29.3771 9.50335 30.0018 7.98883 29.8284 6.4519C28.507 6.50894 26.8544 7.3431 25.9027 8.43188C25.0608 9.39131 24.3086 10.9639 24.5029 12.4428C25.9873 12.5507 27.5114 11.7125 28.4641 10.6166Z" fill="white"/>
<path d="M56.373 32.2065H54.0007L52.7012 28.2252H48.1842L46.9464 32.2065H44.6367L49.1119 18.6522H51.8759L56.373 32.2065ZM52.3095 26.5548L51.1343 23.0155C51.0099 22.6539 50.777 21.8025 50.4333 20.4621H50.3915C50.2547 21.0386 50.0343 21.8901 49.7313 23.0155L48.577 26.5548H52.3095Z" fill="white"/>
<path d="M67.8819 27.1995C67.8819 28.8617 67.4212 30.1756 66.4998 31.1401C65.6746 31.9987 64.6498 32.4275 63.4265 32.4275C62.1061 32.4275 61.1576 31.9651 60.58 31.0403H60.5382V36.1889H58.311V25.6504C58.311 24.6054 58.2828 23.5329 58.2285 22.4329H60.1872L60.3115 23.9821H60.3533C61.096 22.8149 62.2231 22.2323 63.7358 22.2323C64.9183 22.2323 65.9054 22.6876 66.6952 23.5991C67.487 24.5117 67.8819 25.7115 67.8819 27.1995ZM65.6129 27.279C65.6129 26.3277 65.3936 25.5435 64.9527 24.9262C64.4712 24.2826 63.8245 23.9607 63.0139 23.9607C62.4644 23.9607 61.9651 24.14 61.5191 24.4934C61.072 24.8499 60.7795 25.3153 60.6426 25.8918C60.5737 26.1607 60.5392 26.3807 60.5392 26.5538V28.1834C60.5392 28.8943 60.7628 29.4942 61.2099 29.9841C61.657 30.474 62.2378 30.7185 62.9523 30.7185C63.7911 30.7185 64.444 30.4027 64.911 29.7733C65.3789 29.1429 65.6129 28.3118 65.6129 27.279Z" fill="white"/>
<path d="M79.4121 27.1995C79.4121 28.8617 78.9514 30.1756 78.029 31.1401C77.2048 31.9987 76.18 32.4275 74.9568 32.4275C73.6364 32.4275 72.6878 31.9651 72.1112 31.0403H72.0694V36.1889H69.8423V25.6504C69.8423 24.6054 69.8141 23.5329 69.7598 22.4329H71.7184L71.8427 23.9821H71.8845C72.6262 22.8149 73.7534 22.2323 75.267 22.2323C76.4485 22.2323 77.4356 22.6876 78.2275 23.5991C79.0162 24.5117 79.4121 25.7115 79.4121 27.1995ZM77.1431 27.279C77.1431 26.3277 76.9227 25.5435 76.4819 24.9262C76.0003 24.2826 75.3558 23.9607 74.5441 23.9607C73.9936 23.9607 73.4953 24.14 73.0482 24.4934C72.6011 24.8499 72.3097 25.3153 72.1728 25.8918C72.1049 26.1607 72.0694 26.3807 72.0694 26.5538V28.1834C72.0694 28.8943 72.293 29.4942 72.738 29.9841C73.1851 30.473 73.7659 30.7185 74.4825 30.7185C75.3213 30.7185 75.9742 30.4027 76.4412 29.7733C76.9092 29.1429 77.1431 28.3118 77.1431 27.279Z" fill="white"/>
<path d="M92.3021 28.4058C92.3021 29.5587 91.8916 30.4968 91.0674 31.2209C90.1617 32.0123 88.9008 32.4075 87.2806 32.4075C85.7847 32.4075 84.5855 32.1264 83.6777 31.5632L84.1938 29.7533C85.1715 30.3298 86.2444 30.619 87.4133 30.619C88.2521 30.619 88.905 30.4336 89.3741 30.0649C89.841 29.6962 90.0739 29.2012 90.0739 28.584C90.0739 28.034 89.8817 27.5706 89.4963 27.1948C89.1129 26.819 88.4725 26.4696 87.5783 26.1468C85.1444 25.2617 83.9284 23.9651 83.9284 22.2601C83.9284 21.1459 84.3547 20.2323 85.2081 19.5214C86.0584 18.8094 87.1929 18.454 88.6115 18.454C89.8765 18.454 90.9274 18.6689 91.7662 19.0977L91.2094 20.8678C90.426 20.4523 89.5401 20.2445 88.5488 20.2445C87.7653 20.2445 87.1532 20.4329 86.7145 20.8077C86.3436 21.1428 86.1577 21.5513 86.1577 22.035C86.1577 22.5708 86.3697 23.0138 86.7959 23.3622C87.1668 23.684 87.8406 24.0323 88.8183 24.4082C90.0144 24.8777 90.8929 25.4267 91.4581 26.0561C92.0211 26.6835 92.3021 27.4688 92.3021 28.4058Z" fill="white"/>
<path d="M99.6653 24.0626H97.2104V28.8078C97.2104 30.0147 97.6429 30.6177 98.51 30.6177C98.908 30.6177 99.2381 30.5841 99.4992 30.5169L99.5608 32.1658C99.1221 32.3257 98.5444 32.4062 97.8289 32.4062C96.9493 32.4062 96.2619 32.1444 95.7657 31.6219C95.2716 31.0984 95.023 30.2205 95.023 28.9871V24.0606H93.5605V22.431H95.023V20.6414L97.2104 19.9977V22.431H99.6653V24.0626Z" fill="white"/>
<path d="M110.742 27.2392C110.742 28.7415 110.301 29.9749 109.422 30.9395C108.499 31.9325 107.275 32.4275 105.749 32.4275C104.278 32.4275 103.107 31.9519 102.234 31.0006C101.36 30.0493 100.924 28.8485 100.924 27.4012C100.924 25.8867 101.373 24.6461 102.275 23.6816C103.174 22.716 104.388 22.2333 105.914 22.2333C107.385 22.2333 108.568 22.7089 109.462 23.6612C110.316 24.585 110.742 25.7777 110.742 27.2392ZM108.432 27.3095C108.432 26.4081 108.234 25.6351 107.834 24.9904C107.367 24.2102 106.7 23.8211 105.835 23.8211C104.939 23.8211 104.259 24.2112 103.792 24.9904C103.392 25.6361 103.195 26.4214 103.195 27.3502C103.195 28.2516 103.392 29.0247 103.792 29.6684C104.274 30.4485 104.947 30.8376 105.815 30.8376C106.665 30.8376 107.333 30.4404 107.814 29.648C108.225 28.9911 108.432 28.2099 108.432 27.3095Z" fill="white"/>
<path d="M117.98 24.3426C117.76 24.3029 117.525 24.2825 117.278 24.2825C116.495 24.2825 115.889 24.5707 115.463 25.1482C115.092 25.6575 114.906 26.3012 114.906 27.0783V32.2065H112.68L112.701 25.5108C112.701 24.3843 112.673 23.3587 112.617 22.4339H114.557L114.639 24.3039H114.7C114.935 23.6612 115.306 23.1438 115.814 22.7558C116.31 22.4064 116.846 22.2322 117.424 22.2322C117.629 22.2322 117.815 22.2465 117.98 22.272V24.3426Z" fill="white"/>
<path d="M127.942 26.8575C127.942 27.2466 127.916 27.5746 127.86 27.8424H121.179C121.205 28.808 121.528 29.5464 122.148 30.0556C122.711 30.5109 123.439 30.7391 124.334 30.7391C125.323 30.7391 126.225 30.5853 127.037 30.2767L127.386 31.784C126.437 32.1874 125.318 32.388 124.025 32.388C122.471 32.388 121.251 31.9419 120.363 31.0507C119.477 30.1595 119.033 28.9628 119.033 27.4615C119.033 25.9877 119.446 24.7604 120.272 23.7817C121.137 22.7367 122.306 22.2142 123.777 22.2142C125.222 22.2142 126.315 22.7367 127.058 23.7817C127.646 24.6117 127.942 25.6384 127.942 26.8575ZM125.818 26.2943C125.833 25.6506 125.687 25.0945 125.386 24.625C125 24.021 124.408 23.7195 123.611 23.7195C122.883 23.7195 122.29 24.0139 121.838 24.6046C121.467 25.0741 121.247 25.6374 121.179 26.2933H125.818V26.2943Z" fill="white"/>
<path d="M51.5728 10.3138C51.5728 11.5126 51.204 12.415 50.4676 13.021C49.7854 13.5802 48.816 13.8603 47.5604 13.8603C46.9378 13.8603 46.405 13.8338 45.959 13.7808V7.2308C46.5408 7.13914 47.1676 7.09229 47.8445 7.09229C49.0406 7.09229 49.9421 7.34589 50.5501 7.85311C51.2312 8.42653 51.5728 9.24642 51.5728 10.3138ZM50.4185 10.3434C50.4185 9.56623 50.2075 8.97041 49.7854 8.55486C49.3634 8.14033 48.7471 7.93255 47.9354 7.93255C47.5907 7.93255 47.2971 7.95496 47.0537 8.00181V12.9813C47.1885 13.0017 47.435 13.0108 47.7933 13.0108C48.6311 13.0108 49.2778 12.7837 49.7332 12.3294C50.1887 11.8752 50.4185 11.2132 50.4185 10.3434Z" fill="white"/>
<path d="M57.6941 11.361C57.6941 12.0994 57.4779 12.7044 57.0454 13.179C56.592 13.6668 55.9914 13.9103 55.2413 13.9103C54.5185 13.9103 53.9429 13.677 53.5135 13.2085C53.0852 12.741 52.8711 12.1513 52.8711 11.4404C52.8711 10.6969 53.0915 10.0868 53.5344 9.6132C53.9773 9.13959 54.5728 8.90228 55.3228 8.90228C56.0457 8.90228 56.6265 9.13552 57.0663 9.60301C57.4841 10.0573 57.6941 10.6439 57.6941 11.361ZM56.5586 11.3956C56.5586 10.9525 56.4604 10.5726 56.2651 10.2559C56.0353 9.87292 55.7083 9.68144 55.2831 9.68144C54.8433 9.68144 54.5091 9.87292 54.2792 10.2559C54.0829 10.5726 53.9857 10.9586 53.9857 11.4149C53.9857 11.858 54.0839 12.2379 54.2792 12.5546C54.5164 12.9376 54.8465 13.1291 55.2727 13.1291C55.6905 13.1291 56.0185 12.9345 56.2546 12.5445C56.4573 12.2216 56.5586 11.8386 56.5586 11.3956Z" fill="white"/>
<path d="M65.9004 9.00018L64.3596 13.8014H63.3567L62.7185 11.7165C62.5566 11.1961 62.4249 10.6787 62.3226 10.1654H62.3027C62.2076 10.6929 62.076 11.2093 61.9068 11.7165L61.2288 13.8014H60.2145L58.7656 9.00018H59.8907L60.4475 11.2827C60.5822 11.8225 60.6929 12.3368 60.7817 12.8237H60.8016C60.8831 12.4224 61.0178 11.9111 61.2079 11.2928L61.9068 9.0012H62.7989L63.4685 11.244C63.6304 11.7909 63.762 12.3175 63.8634 12.8247H63.8937C63.9678 12.3307 64.0796 11.8041 64.2279 11.244L64.8255 9.0012H65.9004V9.00018Z" fill="white"/>
<path d="M71.5761 13.8014H70.4814V11.0515C70.4814 10.2041 70.1513 9.78036 69.489 9.78036C69.1641 9.78036 68.9019 9.89647 68.6982 10.1297C68.4966 10.3629 68.3942 10.6379 68.3942 10.9527V13.8004H67.2995V10.3721C67.2995 9.95045 67.2859 9.49314 67.2598 8.99815H68.2219L68.273 9.74879H68.3033C68.4308 9.51555 68.6209 9.32305 68.8706 9.16926C69.1672 8.99 69.4994 8.89935 69.863 8.89935C70.3226 8.89935 70.7049 9.04398 71.0089 9.33425C71.387 9.68971 71.5761 10.2204 71.5761 10.9252V13.8014Z" fill="white"/>
<path d="M74.5937 13.8014H73.5V6.79712H74.5937V13.8014Z" fill="white"/>
<path d="M81.0398 11.361C81.0398 12.0994 80.8236 12.7044 80.3911 13.179C79.9377 13.6668 79.336 13.9103 78.587 13.9103C77.8631 13.9103 77.2875 13.677 76.8592 13.2085C76.4309 12.741 76.2168 12.1513 76.2168 11.4404C76.2168 10.6969 76.4372 10.0868 76.8801 9.6132C77.3231 9.13959 77.9185 8.90228 78.6675 8.90228C79.3914 8.90228 79.9712 9.13552 80.412 9.60301C80.8298 10.0573 81.0398 10.6439 81.0398 11.361ZM79.9033 11.3956C79.9033 10.9525 79.8051 10.5726 79.6097 10.2559C79.381 9.87292 79.0529 9.68144 78.6288 9.68144C78.188 9.68144 77.8537 9.87292 77.6249 10.2559C77.4286 10.5726 77.3314 10.9586 77.3314 11.4149C77.3314 11.858 77.4296 12.2379 77.6249 12.5546C77.8621 12.9376 78.1922 13.1291 78.6184 13.1291C79.0362 13.1291 79.3632 12.9345 79.5993 12.5445C79.803 12.2216 79.9033 11.8386 79.9033 11.3956Z" fill="white"/>
<path d="M86.3376 13.8013H85.3546L85.2731 13.2482H85.2428C84.9065 13.6893 84.427 13.9103 83.8044 13.9103C83.3395 13.9103 82.9635 13.7646 82.6804 13.4754C82.4234 13.2126 82.2949 12.8857 82.2949 12.4976C82.2949 11.9109 82.5456 11.4638 83.0502 11.1542C83.5537 10.8446 84.2619 10.6928 85.1739 10.6999V10.6103C85.1739 9.97782 84.8333 9.66209 84.1512 9.66209C83.6655 9.66209 83.2372 9.78125 82.8674 10.0175L82.6449 9.31681C83.1024 9.0408 83.6676 8.90228 84.334 8.90228C85.621 8.90228 86.2666 9.56431 86.2666 10.8884V12.6565C86.2666 13.1362 86.2906 13.5181 86.3376 13.8013ZM85.201 12.1513V11.4109C83.9935 11.3905 83.3897 11.7134 83.3897 12.3784C83.3897 12.629 83.4586 12.8164 83.5997 12.9417C83.7407 13.0669 83.9204 13.1291 84.1345 13.1291C84.3748 13.1291 84.5994 13.0547 84.8041 12.907C85.0099 12.7583 85.1363 12.5699 85.1833 12.3387C85.1948 12.2868 85.201 12.2236 85.201 12.1513Z" fill="white"/>
<path d="M92.5582 13.8013H91.5867L91.5355 13.0303H91.5052C91.195 13.617 90.6664 13.9103 89.9237 13.9103C89.3303 13.9103 88.8362 13.6832 88.4445 13.2289C88.0528 12.7747 87.8574 12.185 87.8574 11.4608C87.8574 10.6837 88.0695 10.0542 88.4957 9.5735C88.9083 9.12536 89.4139 8.90129 90.0156 8.90129C90.6768 8.90129 91.1396 9.11823 91.4029 9.55313H91.4237V6.79706H92.5196V12.5078C92.5196 12.9753 92.5321 13.4061 92.5582 13.8013ZM91.4237 11.7765V10.976C91.4237 10.8375 91.4133 10.7254 91.3935 10.6399C91.3318 10.3832 91.1992 10.1673 90.9975 9.99313C90.7938 9.81896 90.5484 9.73137 90.2653 9.73137C89.8568 9.73137 89.5372 9.88924 89.3021 10.206C89.0692 10.5228 88.9511 10.9271 88.9511 11.4211C88.9511 11.8957 89.0629 12.2807 89.2875 12.5771C89.5246 12.8928 89.8443 13.0507 90.2444 13.0507C90.6037 13.0507 90.891 12.9193 91.1093 12.6555C91.3203 12.4121 91.4237 12.1187 91.4237 11.7765Z" fill="white"/>
<path d="M101.921 11.361C101.921 12.0994 101.704 12.7044 101.272 13.179C100.819 13.6668 100.219 13.9103 99.4679 13.9103C98.7461 13.9103 98.1705 13.677 97.7401 13.2085C97.3118 12.741 97.0977 12.1513 97.0977 11.4404C97.0977 10.6969 97.3181 10.0868 97.761 9.6132C98.2039 9.13959 98.7993 8.90228 99.5504 8.90228C100.272 8.90228 100.854 9.13552 101.293 9.60301C101.711 10.0573 101.921 10.6439 101.921 11.361ZM100.786 11.3956C100.786 10.9525 100.688 10.5726 100.493 10.2559C100.262 9.87292 99.9359 9.68144 99.5097 9.68144C99.0709 9.68144 98.7367 9.87292 98.5058 10.2559C98.3094 10.5726 98.2123 10.9586 98.2123 11.4149C98.2123 11.858 98.3105 12.2379 98.5058 12.5546C98.7429 12.9376 99.073 13.1291 99.4992 13.1291C99.9171 13.1291 100.246 12.9345 100.482 12.5445C100.684 12.2216 100.786 11.8386 100.786 11.3956Z" fill="white"/>
<path d="M107.808 13.8015H106.714V11.0515C106.714 10.2041 106.384 9.78042 105.72 9.78042C105.395 9.78042 105.133 9.89653 104.931 10.1298C104.728 10.363 104.627 10.638 104.627 10.9527V13.8005H103.531V10.3722C103.531 9.95051 103.518 9.4932 103.492 8.99821H104.453L104.504 9.74885H104.535C104.663 9.51561 104.853 9.32311 105.102 9.16932C105.4 8.99006 105.731 8.89941 106.095 8.89941C106.554 8.89941 106.936 9.04404 107.24 9.33432C107.619 9.68977 107.808 10.2204 107.808 10.9252V13.8015Z" fill="white"/>
<path d="M115.177 9.79963H113.971V12.132C113.971 12.7248 114.185 13.0212 114.61 13.0212C114.806 13.0212 114.969 13.0049 115.097 12.9713L115.126 13.781C114.909 13.8604 114.625 13.9001 114.275 13.9001C113.843 13.9001 113.506 13.7718 113.263 13.5151C113.019 13.2585 112.897 12.8266 112.897 12.2206V9.79963H112.178V9.00011H112.897V8.12012L113.97 7.80438V8.99909H115.176V9.79963H115.177Z" fill="white"/>
<path d="M120.972 13.8013H119.876V11.0717C119.876 10.2111 119.546 9.78026 118.885 9.78026C118.377 9.78026 118.03 10.0298 117.84 10.5289C117.808 10.6338 117.789 10.7621 117.789 10.9128V13.8003H116.695V6.79706H117.789V9.69063H117.81C118.155 9.16406 118.649 8.90129 119.289 8.90129C119.742 8.90129 120.118 9.04592 120.415 9.33619C120.786 9.69776 120.972 10.2355 120.972 10.9464V13.8013Z" fill="white"/>
<path d="M126.95 11.1735C126.95 11.365 126.936 11.5259 126.91 11.6573H123.626C123.641 12.1319 123.798 12.4935 124.102 12.744C124.379 12.9681 124.738 13.0801 125.177 13.0801C125.662 13.0801 126.105 13.0048 126.504 12.853L126.676 13.5945C126.209 13.7921 125.659 13.8909 125.023 13.8909C124.26 13.8909 123.66 13.6719 123.225 13.2339C122.789 12.796 122.572 12.2083 122.572 11.4709C122.572 10.7467 122.774 10.1438 123.18 9.66306C123.604 9.14973 124.178 8.89307 124.902 8.89307C125.61 8.89307 126.148 9.14973 126.512 9.66306C126.805 10.0705 126.95 10.5746 126.95 11.1735ZM125.906 10.8975C125.914 10.5807 125.842 10.3078 125.694 10.0776C125.503 9.7812 125.214 9.6325 124.822 9.6325C124.465 9.6325 124.174 9.77713 123.951 10.0674C123.769 10.2986 123.662 10.5746 123.626 10.8975H125.906Z" fill="white"/>
</svg>
