<svg width="142" height="42" viewBox="0 0 142 42" fill="none" xmlns="http://www.w3.org/2000/svg">
<path d="M136.591 41.6012H6.19249C3.32503 41.6012 0.976562 39.3083 0.976562 36.5087V5.95351C0.976562 3.1539 3.32503 0.860992 6.19249 0.860992H136.591C139.458 0.860992 141.807 3.1539 141.807 5.95351V36.5087C141.807 39.3083 139.458 41.6012 136.591 41.6012Z" fill="#06141C"/>
<path d="M136.591 1.67707C139.006 1.67707 140.971 3.59568 140.971 5.95352V36.5087C140.971 38.8665 139.006 40.7851 136.591 40.7851H6.19249C3.77751 40.7851 1.81241 38.8665 1.81241 36.5087V5.95352C1.81241 3.59568 3.77751 1.67707 6.19249 1.67707H136.591ZM136.591 0.860992H6.19249C3.32503 0.860992 0.976562 3.1539 0.976562 5.95352V36.5087C0.976562 39.3083 3.32503 41.6012 6.19249 41.6012H136.591C139.458 41.6012 141.807 39.3083 141.807 36.5087V5.95352C141.807 3.1539 139.458 0.860992 136.591 0.860992Z" fill="white"/>
<path d="M50.4421 11.2945C50.4421 12.1449 50.1814 12.8261 49.6676 13.334C49.0769 13.9362 48.3075 14.2392 47.3648 14.2392C46.4637 14.2392 45.6944 13.9311 45.0632 13.3239C44.4308 12.7077 44.1152 11.9514 44.1152 11.0462C44.1152 10.141 44.4308 9.38479 45.0632 8.77369C45.6944 8.16131 46.4637 7.85321 47.3648 7.85321C47.8133 7.85321 48.241 7.9436 48.6492 8.11166C49.056 8.28098 49.3872 8.51015 49.6272 8.79278L49.0821 9.33004C48.6635 8.84753 48.0937 8.60945 47.3648 8.60945C46.7076 8.60945 46.1377 8.83352 45.6539 9.28548C45.1754 9.73872 44.9354 10.3256 44.9354 11.0462C44.9354 11.7668 45.1754 12.3588 45.6539 12.8121C46.1377 13.2589 46.7076 13.4881 47.3648 13.4881C48.0624 13.4881 48.6492 13.2589 49.1121 12.807C49.4172 12.5078 49.5907 12.0953 49.6363 11.5682H47.3648V10.8323H50.3952C50.4317 10.9915 50.4421 11.1455 50.4421 11.2945Z" fill="white" stroke="white" stroke-width="0.16" stroke-miterlimit="10"/>
<path d="M55.2501 8.74316H52.4035V10.6783H54.9698V11.4142H52.4035V13.3493H55.2501V14.0992H51.5977V7.99329H55.2501V8.74316Z" fill="white" stroke="white" stroke-width="0.16" stroke-miterlimit="10"/>
<path d="M58.6417 14.0992H57.8359V8.74316H56.0898V7.99329H60.3891V8.74316H58.6417V14.0992Z" fill="white" stroke="white" stroke-width="0.16" stroke-miterlimit="10"/>
<path d="M63.502 14.0992V7.99329H64.3065V14.0992H63.502Z" fill="white" stroke="white" stroke-width="0.16" stroke-miterlimit="10"/>
<path d="M67.8722 14.0993H67.0729V8.74322H65.3203V7.99335H69.6247V8.74322H67.8722V14.0993Z" fill="white" stroke="white" stroke-width="0.16" stroke-miterlimit="10"/>
<path d="M77.7639 13.3137C77.1471 13.9311 76.383 14.2392 75.4715 14.2392C74.5548 14.2392 73.7907 13.9311 73.1739 13.3137C72.5584 12.6975 72.252 11.9412 72.252 11.0462C72.252 10.1512 72.5584 9.39497 73.1739 8.77878C73.7907 8.16131 74.5548 7.85321 75.4715 7.85321C76.3777 7.85321 77.1419 8.16131 77.7587 8.78387C78.3794 9.40516 78.6858 10.1563 78.6858 11.0462C78.6858 11.9412 78.3794 12.6975 77.7639 13.3137ZM73.7698 12.8019C74.234 13.2589 74.7986 13.4881 75.4715 13.4881C76.1391 13.4881 76.709 13.2589 77.168 12.8019C77.6309 12.3448 77.8656 11.7579 77.8656 11.0462C77.8656 10.3345 77.6309 9.74763 77.168 9.29058C76.709 8.83352 76.1391 8.60436 75.4715 8.60436C74.7986 8.60436 74.234 8.83352 73.7698 9.29058C73.3069 9.74763 73.0722 10.3345 73.0722 11.0462C73.0722 11.7579 73.3069 12.3448 73.7698 12.8019Z" fill="white" stroke="white" stroke-width="0.16" stroke-miterlimit="10"/>
<path d="M79.8164 14.0992V7.99329H80.7944L83.8353 12.7421H83.8705L83.8353 11.5682V7.99329H84.6398V14.0992H83.8001L80.6157 9.11619H80.5805L80.6157 10.2951V14.0992H79.8164Z" fill="white" stroke="white" stroke-width="0.16" stroke-miterlimit="10"/>
<path d="M72.0541 23.0164C69.604 23.0164 67.6024 24.837 67.6024 27.3489C67.6024 29.8404 69.604 31.68 72.0541 31.68C74.5095 31.68 76.5112 29.8404 76.5112 27.3489C76.5112 24.837 74.5095 23.0164 72.0541 23.0164ZM72.0541 29.974C70.7097 29.974 69.5531 28.8906 69.5531 27.3489C69.5531 25.7867 70.7097 24.7224 72.0541 24.7224C73.3985 24.7224 74.5604 25.7867 74.5604 27.3489C74.5604 28.8906 73.3985 29.974 72.0541 29.974ZM62.3408 23.0164C59.8854 23.0164 57.889 24.837 57.889 27.3489C57.889 29.8404 59.8854 31.68 62.3408 31.68C64.7949 31.68 66.7926 29.8404 66.7926 27.3489C66.7926 24.837 64.7949 23.0164 62.3408 23.0164ZM62.3408 29.974C60.9951 29.974 59.8345 28.8906 59.8345 27.3489C59.8345 25.7867 60.9951 24.7224 62.3408 24.7224C63.6852 24.7224 64.8418 25.7867 64.8418 27.3489C64.8418 28.8906 63.6852 29.974 62.3408 29.974ZM50.7823 24.3443V26.1852H55.285C55.1533 27.2139 54.8012 27.9701 54.2613 28.4972C53.6041 29.1338 52.5805 29.8404 50.7823 29.8404C48.0114 29.8404 45.8415 27.657 45.8415 24.9515C45.8415 22.2461 48.0114 20.0627 50.7823 20.0627C52.2806 20.0627 53.3707 20.6344 54.1753 21.3753L55.504 20.078C54.3787 19.0289 52.8817 18.223 50.7823 18.223C46.9825 18.223 43.7891 21.2416 43.7891 24.9515C43.7891 28.6615 46.9825 31.68 50.7823 31.68C52.8361 31.68 54.3787 31.0231 55.5914 29.7907C56.8341 28.5774 57.2214 26.8714 57.2214 25.4939C57.2214 25.0661 57.1849 24.6727 57.1197 24.3443H50.7823ZM98.0464 25.7714C97.68 24.8026 96.5494 23.0164 94.2466 23.0164C91.9646 23.0164 90.0647 24.772 90.0647 27.3489C90.0647 29.7754 91.9451 31.68 94.4657 31.68C96.5038 31.68 97.68 30.4667 98.1637 29.7602L96.6511 28.776C96.1465 29.4966 95.4593 29.974 94.4657 29.974C93.4785 29.974 92.7705 29.5323 92.3167 28.6614L98.2511 26.2641L98.0464 25.7714ZM91.9959 27.2139C91.9451 25.5436 93.3247 24.688 94.3131 24.688C95.0877 24.688 95.7449 25.0661 95.9639 25.6072L91.9959 27.2139ZM87.1725 31.4165H89.1232V18.6852H87.1725V31.4165ZM83.9777 23.9814H83.9125C83.4744 23.4747 82.6386 23.0164 81.5797 23.0164C79.3577 23.0164 77.3261 24.921 77.3261 27.3629C77.3261 29.7907 79.3577 31.68 81.5797 31.68C82.6386 31.68 83.4744 31.2179 83.9125 30.6959H83.9777V31.3172C83.9777 32.9735 83.0715 33.8635 81.6097 33.8635C80.4179 33.8635 79.6785 33.0232 79.3734 32.3166L77.6769 33.0079C78.1659 34.1563 79.4608 35.5695 81.6097 35.5695C83.8969 35.5695 85.8268 34.2556 85.8268 31.0588V23.2799H83.9777V23.9814ZM81.7466 29.974C80.4022 29.974 79.2769 28.8753 79.2769 27.3629C79.2769 25.8364 80.4022 24.7224 81.7466 24.7224C83.0715 24.7224 84.116 25.8364 84.116 27.3629C84.116 28.8753 83.0715 29.974 81.7466 29.974ZM107.179 18.6852H102.514V31.4165H104.459V26.5926H107.179C109.34 26.5926 111.459 25.0661 111.459 22.6383C111.459 20.2117 109.335 18.6852 107.179 18.6852ZM107.23 24.8217H104.459V20.4561H107.23C108.683 20.4561 109.512 21.6338 109.512 22.6383C109.512 23.6237 108.683 24.8217 107.23 24.8217ZM119.257 22.9922C117.851 22.9922 116.389 23.5982 115.788 24.9414L117.515 25.6479C117.886 24.9414 118.57 24.7122 119.292 24.7122C120.301 24.7122 121.325 25.3042 121.341 26.3494V26.4831C120.989 26.2845 120.235 25.9904 119.308 25.9904C117.448 25.9904 115.554 26.9898 115.554 28.855C115.554 30.561 117.077 31.6597 118.789 31.6597C120.098 31.6597 120.82 31.0829 121.274 30.412H121.341V31.3961H123.22V26.5124C123.22 24.2551 121.493 22.9922 119.257 22.9922ZM119.022 29.969C118.386 29.969 117.499 29.6609 117.499 28.8906C117.499 27.9052 118.605 27.5271 119.562 27.5271C120.419 27.5271 120.82 27.7117 121.341 27.9549C121.188 29.1338 120.149 29.969 119.022 29.969ZM130.066 23.271L127.829 28.79H127.763L125.451 23.271H123.353L126.827 30.9836L124.844 35.2754H126.877L132.23 23.271H130.066ZM112.528 31.4165H114.479V18.6852H112.528V31.4165Z" fill="white"/>
<path d="M11.8627 8.53995C11.5562 8.85314 11.3789 9.34075 11.3789 9.97223V32.4965C11.3789 33.1279 11.5562 33.6156 11.8627 33.9287L11.9383 33.9975L24.866 21.3808V21.0828L11.9383 8.46612L11.8627 8.53995Z" fill="url(#paint0_linear_152_4959)"/>
<path d="M29.1697 25.5883L24.8652 21.3806V21.0826L29.1749 16.8749L29.2714 16.9297L34.3752 19.765C35.8317 20.5696 35.8317 21.8936 34.3752 22.7033L29.2714 25.5335L29.1697 25.5883Z" fill="url(#paint1_linear_152_4959)"/>
<path d="M29.2708 25.5337L24.8646 21.2318L11.8613 33.9287C12.3451 34.4253 13.134 34.4851 14.0312 33.9886L29.2708 25.5337Z" fill="url(#paint2_linear_152_4959)"/>
<path d="M29.2708 16.9299L14.0312 8.47504C13.134 7.98361 12.3451 8.04344 11.8613 8.53997L24.8646 21.2318L29.2708 16.9299Z" fill="url(#paint3_linear_152_4959)"/>
<defs>
<linearGradient id="paint0_linear_152_4959" x1="23.7182" y1="32.731" x2="6.63009" y2="15.2289" gradientUnits="userSpaceOnUse">
<stop stop-color="#00A0FF"/>
<stop offset="0.0066" stop-color="#00A1FF"/>
<stop offset="0.2601" stop-color="#00BEFF"/>
<stop offset="0.5122" stop-color="#00D2FF"/>
<stop offset="0.7604" stop-color="#00DFFF"/>
<stop offset="1" stop-color="#00E3FF"/>
</linearGradient>
<linearGradient id="paint1_linear_152_4959" x1="36.2718" y1="21.2302" x2="11.03" y2="21.2302" gradientUnits="userSpaceOnUse">
<stop stop-color="#FFE000"/>
<stop offset="0.4087" stop-color="#FFBD00"/>
<stop offset="0.7754" stop-color="#FFA500"/>
<stop offset="1" stop-color="#FF9C00"/>
</linearGradient>
<linearGradient id="paint2_linear_152_4959" x1="26.8748" y1="18.8932" x2="3.70204" y2="-4.8411" gradientUnits="userSpaceOnUse">
<stop stop-color="#FF3A44"/>
<stop offset="1" stop-color="#C31162"/>
</linearGradient>
<linearGradient id="paint3_linear_152_4959" x1="8.58813" y1="41.4225" x2="18.9358" y2="30.8241" gradientUnits="userSpaceOnUse">
<stop stop-color="#32A071"/>
<stop offset="0.0685" stop-color="#2DA771"/>
<stop offset="0.4762" stop-color="#15CF74"/>
<stop offset="0.8009" stop-color="#06E775"/>
<stop offset="1" stop-color="#00F076"/>
</linearGradient>
</defs>
</svg>
