<svg width="21" height="19" viewBox="0 0 21 19" fill="none" xmlns="http://www.w3.org/2000/svg">
<g clip-path="url(#clip0_361_671)">
<path d="M15.4219 7.33228C15.4219 4.61499 13.2173 2.4104 10.5 2.4104C7.78271 2.4104 5.57812 4.61499 5.57812 7.33228C5.57812 7.7561 5.73193 8.41235 6.10107 9.28735C6.45996 10.135 6.96924 11.0715 7.55371 12.0183C8.52783 13.5974 9.65576 15.1218 10.5 16.2087C11.3477 15.1218 12.4756 13.5974 13.4463 12.0183C14.0308 11.0715 14.54 10.135 14.8989 9.28735C15.2681 8.41235 15.4219 7.7561 15.4219 7.33228ZM17.0625 7.33228C17.0625 10.3196 13.0635 15.6379 11.3101 17.8323C10.8896 18.3552 10.1104 18.3552 9.68994 17.8323C7.93652 15.6379 3.9375 10.3196 3.9375 7.33228C3.9375 3.70923 6.87695 0.769775 10.5 0.769775C14.123 0.769775 17.0625 3.70923 17.0625 7.33228ZM11.5938 7.33228C11.5938 7.04219 11.4785 6.764 11.2734 6.55888C11.0683 6.35376 10.7901 6.23853 10.5 6.23853C10.2099 6.23853 9.93172 6.35376 9.7266 6.55888C9.52148 6.764 9.40625 7.04219 9.40625 7.33228C9.40625 7.62236 9.52148 7.90056 9.7266 8.10567C9.93172 8.31079 10.2099 8.42603 10.5 8.42603C10.7901 8.42603 11.0683 8.31079 11.2734 8.10567C11.4785 7.90056 11.5938 7.62236 11.5938 7.33228ZM7.76562 7.33228C7.76562 6.60707 8.05371 5.91158 8.5665 5.39878C9.0793 4.88599 9.7748 4.5979 10.5 4.5979C11.2252 4.5979 11.9207 4.88599 12.4335 5.39878C12.9463 5.91158 13.2344 6.60707 13.2344 7.33228C13.2344 8.05748 12.9463 8.75298 12.4335 9.26577C11.9207 9.77857 11.2252 10.0667 10.5 10.0667C9.7748 10.0667 9.0793 9.77857 8.5665 9.26577C8.05371 8.75298 7.76562 8.05748 7.76562 7.33228Z" fill="white"/>
</g>
<defs>
<clipPath id="clip0_361_671">
<rect width="20" height="17.5" fill="white" transform="translate(0.5 0.769775)"/>
</clipPath>
</defs>
</svg>
