<svg width="287" height="53" viewBox="0 0 287 53" fill="none" xmlns="http://www.w3.org/2000/svg">
<path d="M97.4566 17.5504V35.1727H92.608V33.0794C91.2637 34.6176 89.2975 35.4402 87.1374 35.4402C82.7167 35.4402 79.6069 32.9523 79.6069 27.5152V17.5571H84.7164V26.7595C84.7164 29.7088 86.0272 31.0196 88.2877 31.0196C90.5481 31.0196 92.3471 29.5148 92.3471 26.2713V17.5571H97.4566V17.5504Z" fill="white"/>
<path d="M113.833 26.3579C113.833 21.0545 117.926 17.2826 123.531 17.2826C129.135 17.2826 133.195 21.0478 133.195 26.3579C133.195 31.668 129.135 35.4332 123.531 35.4332C117.926 35.4332 113.833 31.668 113.833 26.3579ZM128.018 26.3579C128.018 23.315 126.085 21.4758 123.531 21.4758C120.976 21.4758 119.01 23.3083 119.01 26.3579C119.01 29.4075 120.976 31.24 123.531 31.24C126.085 31.24 128.018 29.4075 128.018 26.3579Z" fill="white"/>
<path d="M146.928 17.2902V22.005C146.5 21.9716 146.172 21.9382 145.785 21.9382C142.969 21.9382 141.103 23.4763 141.103 26.8537V35.1733H135.994V17.551H140.876V19.8783C142.12 18.1729 144.22 17.2902 146.935 17.2902H146.928Z" fill="white"/>
<path d="M149.976 17.5504H155.086V35.1727H149.976V17.5504Z" fill="white"/>
<path d="M177.113 17.5501V35.1724H172.231V33.1393C170.954 34.6775 169.088 35.4332 166.727 35.4332C161.752 35.4332 157.919 31.8954 157.919 26.3579C157.919 20.8204 161.752 17.2826 166.727 17.2826C168.887 17.2826 170.72 17.9714 171.997 19.4093V17.5434H177.107L177.113 17.5501ZM172.104 26.3579C172.104 23.315 170.138 21.4758 167.617 21.4758C165.095 21.4758 163.096 23.3083 163.096 26.3579C163.096 29.4075 165.062 31.24 167.617 31.24C170.171 31.24 172.104 29.4075 172.104 26.3579Z" fill="white"/>
<path d="M186.334 10.8719H181.224V35.1753H186.334V10.8719Z" fill="white"/>
<path d="M189.802 33.5331L191.508 29.8682C193.079 30.8847 195.473 31.5736 197.634 31.5736C199.994 31.5736 200.877 30.9516 200.877 29.9685C200.877 27.0861 190.23 30.0354 190.23 22.9932C190.23 19.6493 193.246 17.2952 198.383 17.2952C200.804 17.2952 203.492 17.8503 205.164 18.8334L203.459 22.4715C201.72 21.4884 199.988 21.1607 198.383 21.1607C196.089 21.1607 195.106 21.883 195.106 22.7992C195.106 25.8154 205.753 22.8995 205.753 29.8415C205.753 33.1185 202.71 35.4391 197.433 35.4391C194.45 35.4391 191.441 34.6232 189.802 33.5398V33.5331Z" fill="white"/>
<path d="M226.632 26.5607C226.632 31.8039 222.967 35.3351 218.052 35.3351C215.303 35.3351 212.942 34.158 211.505 31.931V41.5279H209.177V17.9469H211.404V21.3509C212.815 19.057 215.203 17.8131 218.052 17.8131C222.967 17.8131 226.632 21.3509 226.632 26.5607ZM224.305 26.5607C224.305 22.5681 221.523 19.8462 217.885 19.8462C214.247 19.8462 211.464 22.5614 211.464 26.5607C211.464 30.56 214.213 33.2752 217.885 33.2752C221.556 33.2752 224.305 30.5868 224.305 26.5607Z" fill="white"/>
<path d="M229.041 26.5607C229.041 21.4513 232.772 17.8131 237.815 17.8131C242.857 17.8131 246.562 21.4513 246.562 26.5607C246.562 31.6702 242.864 35.3351 237.815 35.3351C232.766 35.3351 229.041 31.6702 229.041 26.5607ZM244.202 26.5607C244.202 22.5347 241.48 19.8462 237.815 19.8462C234.15 19.8462 231.395 22.5347 231.395 26.5607C231.395 30.5867 234.143 33.2752 237.815 33.2752C241.486 33.2752 244.202 30.5867 244.202 26.5607Z" fill="white"/>
<path d="M250.099 17.9464H252.426V35.1741H250.099V17.9464Z" fill="white"/>
<path d="M273.552 25.183V35.1746H271.224V25.4171C271.224 21.779 269.325 19.9131 266.048 19.9131C262.35 19.9131 260.022 22.207 260.022 26.1327V35.1746H257.695V17.9469H259.922V21.1236C261.166 19.0303 263.493 17.8131 266.469 17.8131C270.662 17.8131 273.545 20.2341 273.545 25.183H273.552Z" fill="white"/>
<path d="M76.0836 30.7204C75.4951 31.1485 74.7394 31.3758 73.9903 31.3758C72.6127 31.3758 71.8302 30.5599 71.8302 29.0485V21.8792H76.1839V17.9468H71.8302V13.0514L66.7207 14.2618V17.9468H64.5405V21.8792H66.7207V29.1154C66.7207 33.3086 69.115 35.4353 73.3015 35.4353C74.8397 35.4353 76.3779 35.0742 77.4279 34.3185L76.0836 30.7138V30.7204Z" fill="white"/>
<path d="M111.478 30.7205C110.89 31.1485 110.134 31.3759 109.385 31.3759C108.007 31.3759 107.225 30.56 107.225 29.0485V21.8792H111.578V17.9468H107.225V13.0514L102.115 14.2619V17.9468H99.9351V21.8792H102.115V29.1154C102.115 33.3086 104.509 35.4354 108.696 35.4354C110.234 35.4354 111.772 35.0742 112.822 34.3185L111.478 30.7138V30.7205Z" fill="white"/>
<path d="M152.531 14.9961C153.942 14.9961 155.086 13.8523 155.086 12.4413C155.086 11.0304 153.942 9.8866 152.531 9.8866C151.12 9.8866 149.976 11.0304 149.976 12.4413C149.976 13.8523 151.12 14.9961 152.531 14.9961Z" fill="white"/>
<path d="M251.261 14.996C252.672 14.996 253.816 13.8522 253.816 12.4413C253.816 11.0303 252.672 9.88654 251.261 9.88654C249.85 9.88654 248.707 11.0303 248.707 12.4413C248.707 13.8522 249.85 14.996 251.261 14.996Z" fill="white"/>
<path d="M286.056 32.4499C285.401 33.0385 284.485 33.3327 283.502 33.3327C281.569 33.3327 280.552 32.2159 280.552 30.1895V19.9037H285.762V17.9375H280.552V12.9618L278.225 14.1723V17.9375H275.791V19.9037H278.225V30.3166C278.225 33.4932 280.024 35.3257 283.267 35.3257C284.612 35.3257 285.989 34.9311 286.872 34.1152L286.056 32.4433V32.4499Z" fill="white"/>
<path d="M35.5002 50.1457C42.9237 49.9852 49.5646 45.4442 52.7012 38.7163C54.5202 34.824 55.4365 30.4302 55.1957 25.8022C54.4667 11.8047 42.9103 0.522463 28.8927 0.114509C13.5309 -0.333571 0.931152 11.9853 0.931152 27.2535C0.931152 38.9103 8.28101 48.8483 18.5935 52.7004C17.6104 51.6705 16.8882 50.4132 16.4468 48.9285C15.7579 46.6346 15.778 43.9261 16.5003 40.8029L20.2187 25.207H12.5344L13.7917 19.7565L14.1328 18.3119H21.8572L21.9976 17.6766L23.8033 9.8519L35.0856 7.69175L32.7783 17.6766L31.1197 25.207L27.2943 42.1404C26.7125 44.6751 26.9399 46.6346 27.9966 48.0056C27.9966 48.0056 29.5749 50.2728 35.5002 50.1457ZM38.1753 17.068C41.3186 16.4728 44.0204 19.1746 43.4252 22.3179C43.0908 24.0701 41.6797 25.4879 39.9208 25.8223C36.7776 26.4175 34.0757 23.7156 34.6709 20.5724C35.0053 18.8202 36.4165 17.4024 38.1753 17.068Z" fill="white"/>
</svg>
