<?xml version="1.0" encoding="utf-8"?>
<!-- Generator: Adobe Illustrator 26.0.1, SVG Export Plug-In . SVG Version: 6.00 Build 0)  -->
<svg version="1.1" id="Layer_1" xmlns="http://www.w3.org/2000/svg" xmlns:xlink="http://www.w3.org/1999/xlink" x="0px" y="0px"
	 viewBox="0 0 500 500" style="enable-background:new 0 0 500 500;" xml:space="preserve">
<style type="text/css">
	.st0{fill-rule:evenodd;clip-rule:evenodd;fill:#6CB35D;}
</style>
<g>
	<path class="st0" d="M79.3,313.7l33.9-118.8l32.9,118.8H79.3z M69.6,347.9l7.7-27.9h70.8l19.9,71.6h-27.4v6.5h76.5v-6.5h-20.9
		l-69.3-242.2h-7.2L64.6,342.7c-8.7,30.6-16.9,46.2-38.1,48.9v6.5H97v-6.5h-6.5c-14.7,0-23.7-9.2-23.7-25.8
		C66.9,360.7,67.6,354.4,69.6,347.9L69.6,347.9z M298.6,303.4v25.8c0,37.6-19.7,67.2-39.9,67.2c-21.4,0-27.7-21.4-27.7-66.7
		c0-61.3,5.7-91.3,27.7-91.3C279.2,238.4,298.6,265.9,298.6,303.4z M298.6,103.6v167.7c-9.2-25.8-23.4-38.8-41.4-38.8
		c-11,0-24.2,8.2-33.9,23.5c-13.2,20.1-19.4,41.6-19.4,65.7c0,48.9,25.7,80.6,53.3,80.6c18.4,0,32.4-13.8,41.4-40.9l1.5,36.7h45.6
		v-5.5h-22.9V97.7h-46.8v5.9H298.6L298.6,103.6z M420.4,303.4v35.5c0,34.8-18.2,56.9-34.4,56.9c-13.2,0-16.2-11.3-16.2-35
		c0-25.6,2.5-39.5,13.7-43.9C393.8,312.7,407.5,312,420.4,303.4L420.4,303.4z M422.4,365.8v1.7c0,21.4,11.2,34.8,26.9,34.8
		c15,0,23.4-13,24.2-38.2H468c-0.7,19.9-6.2,30.6-14.5,30.6c-6.2,0-9-5.2-9-15.5v-98.4c0-31.1-17.2-48.3-43.6-48.3
		c-28.7,0-47.3,16.6-47.3,34.8c0,10.7,6.2,17.8,14.2,17.8c8.7,0,14.7-6.1,14.7-15.1c0-8.4-5.2-13.8-12.2-13.8
		c-1.7,0-3.5,0.8-5.5,1.7c5.2-12,16.9-19.1,29.4-19.1c17.9,0,26.2,8.6,26.2,27.1v31.1c-12,8.6-26.7,10.9-42.1,14.7
		c-21.2,5.7-33.1,21.4-33.1,44.5c0,29.4,14.2,46.2,37.4,46.2C400.3,402.3,412.2,390.3,422.4,365.8L422.4,365.8z"/>
</g>
</svg>
