<?xml version="1.0" encoding="utf-8"?>
<!-- Generator: Adobe Illustrator 26.0.1, SVG Export Plug-In . SVG Version: 6.00 Build 0)  -->
<svg version="1.1" id="Layer_1" xmlns="http://www.w3.org/2000/svg" xmlns:xlink="http://www.w3.org/1999/xlink" x="0px" y="0px"
	 viewBox="0 0 500 500" style="enable-background:new 0 0 500 500;" xml:space="preserve">
<style type="text/css">
	.st0{fill:#B3B3B3;}
	.st1{fill:#A6120D;}
	.st2{fill:#DD1B16;}
	.st3{fill:#F2F2F2;}
</style>
<g>
	<path class="st0" d="M249.3,25L37.6,99.5l33.5,277.3L249.5,475l179.4-99.4l33.4-277.3L249.3,25z"/>
	<path class="st1" d="M441.3,114.2L248.8,48.6v402.9l161.3-89.2L441.3,114.2L441.3,114.2z"/>
	<path class="st2" d="M61.4,115.4l28.7,248l158.8,88.1V48.6L61.4,115.4L61.4,115.4z"/>
	<path class="st3" d="M301.8,263.1l-53,24.8H193l-26.2,65.6l-48.8,0.9L248.8,63.3L301.8,263.1L301.8,263.1z M296.7,250.6l-47.5-94
		l-39,92.4h38.6L296.7,250.6L296.7,250.6z"/>
	<path class="st0" d="M248.8,63.3l0.4,93.4l44.2,92.5h-44.5l-0.1,38.7l61.5,0.1l28.7,66.6l46.7,0.9L248.8,63.3L248.8,63.3z"/>
</g>
</svg>
