<?xml version="1.0" encoding="utf-8"?>
<!-- Generator: Adobe Illustrator 26.0.1, SVG Export Plug-In . SVG Version: 6.00 Build 0)  -->
<svg version="1.1" id="Layer_1" xmlns="http://www.w3.org/2000/svg" xmlns:xlink="http://www.w3.org/1999/xlink" x="0px" y="0px"
	 viewBox="0 0 500 500" style="enable-background:new 0 0 500 500;" xml:space="preserve">
<style type="text/css">
	.st0{fill:#FF0000;}
	.st1{fill:#FFFFFF;}
</style>
<circle class="st0" cx="250" cy="250" r="225.1"/>
<g>
	<path class="st1" d="M250,460c-115.8,0-210-94.2-210-210c0-115.8,94.2-210,210-210c115.8,0,210,94.2,210,210
		C460,365.8,365.8,460,250,460z M250,42C135.3,42,42,135.3,42,250c0,114.7,93.3,208,208,208c114.7,0,208-93.3,208-208
		C458,135.3,364.7,42,250,42z"/>
</g>
<path class="st1" d="M313.4,405.8H183.9v-62.6c-8.2,0-15.7,0-23.3,0c-10.5,0-19.1-8.6-19.1-19.1c0-16.5,0-33.1,0-49.6c0-2,0-4,0-6.5
	h-13.2c-4,0-5.9-4.9-3-7.7c12.9-12.4,15.2-29.7,15.8-47.3c1-29,8.5-55.4,28.1-77.1c31.2-34.5,70.1-47.2,114.9-35.1
	c44,11.8,71.3,41.6,81.3,85.7c6.8,29.9,0.4,61.3-16.8,86.8c-2.4,3.5-4.6,7.1-7.1,10.5c-13.6,19.1-20.7,40.6-22.7,63.9
	C317.2,366.9,315.3,386,313.4,405.8z"/>
</svg>
