<?xml version="1.0" encoding="utf-8"?>
<!-- Generator: Adobe Illustrator 26.0.1, SVG Export Plug-In . SVG Version: 6.00 Build 0)  -->
<svg version="1.1" id="Layer_1" xmlns="http://www.w3.org/2000/svg" xmlns:xlink="http://www.w3.org/1999/xlink" x="0px" y="0px"
	 viewBox="0 0 500 500" style="enable-background:new 0 0 500 500;" xml:space="preserve">
<style type="text/css">
	.st0{fill:#ED1E79;}
	.st1{fill:#FFFFFF;}
</style>
<circle class="st0" cx="250" cy="250" r="225"/>
<g>
	<path class="st1" d="M89.7,275.1c3.3-5,6.5-10.1,10-14.9c7.7-10.7,14.5-21.9,20.3-33.7c1.4-2.8,1-4.7-1.2-6.6
		c-1.3-1.2-2.6-2.4-3.9-3.6c-5.9-5.6-7.7-12-4.3-19.3c4.9-10.7,7.8-21.9,11.1-33.1c6.2-20.7,17.2-38.4,35.4-50.8
		c12.5-8.6,26.7-13.2,41.5-15.7c16.7-2.9,33.5-5.2,50.4-7.3c6.3-0.8,12.7,0,19,0.2c3.5,0.1,5.6,2.5,5.4,5.6
		c-0.2,3.2-2.6,5.1-6.3,5.1c-7.3,0-14.6-0.4-21.9,0.1c-19.9,1.6-39.5,4.8-58.7,10.2c-29.1,8.1-46.4,28-54.7,56.2
		c-3.3,11.1-6.1,22.3-11.1,32.8c-2,4.2-1.5,5.2,1.9,8.5c1.9,1.8,4,3.4,5.5,5.5c3.8,5,4.6,10.4,1.7,16.4
		c-7.1,14.6-15.6,28.3-25.5,41.1c-5.2,6.7-5.6,5.9,2.2,10.8c1.6,1,3.3,1.7,5,2.7c8.8,5.1,11.3,13.1,7,22.4c-1,2.1-2.1,4.1-3.2,6.1
		c2.6,2.3,5.6,4.2,7.6,6.9c2.5,3.3-0.7,6.2-2.2,9.1c0.6,0.4,1,0.8,1.5,1c8.5,4.8,11.5,11.3,9.2,20.9c-1.2,4.8-1.2,9.4,0.4,14.1
		c2,5.6,6.5,8.3,12.3,6.6c16.8-5,33.5-10.1,50.1-15.4c8.1-2.6,16.2-5.4,24.1-8.5c4.4-1.7,8.6-4.2,12.6-6.7c4.1-2.6,6.7-6.4,7-11.6
		c0.2-3.3,2.6-5.1,5.7-4.9c2.8,0.2,4.8,2.4,4.8,5.5c0,6.1-2.4,11.3-6.7,15.7c-6.4,6.5-14.4,10.2-22.7,13.3c-5.5,2-11,3.8-17,5.9
		c8.9,10.1,15.1,21.3,18.7,33.8c40.3,0,80.3,0,120.5,0c0-0.6,0.1-1,0-1.2c-9.5-15.3-13.4-32.4-16.2-49.9c-3.1-19.3-1.6-38,5.7-56.2
		c3.9-9.7,9.6-18.5,16-26.8c7.9-10.3,15.4-20.8,18.8-33.6c0.3-1.2,0.6-2.4,1-3.6c1-2.8,3.8-4.3,6.5-3.5c2.8,0.8,4.4,3.3,3.7,6.3
		c-1.8,8.4-5,16.4-9.6,23.6c-3.7,5.9-7.7,11.7-12,17.2c-12.4,16-20.2,33.7-20.9,54.2c-0.5,14.1,2.1,27.8,5.6,41.4
		c2.6,10,6.3,19.4,12.2,27.9c1.5,2.1,2.6,4.5,3.5,6.9c1.7,4.2-0.6,7.6-5.2,7.7c-6.7,0.1-13.4,0.1-20,0.1c-0.5,0-1,0.2-1.5,0.3
		c-38,0-76,0-114,0c-1.3-2-2.9-3.9-3.8-6.1c-2.3-5.3-4-10.9-6.4-16.2c-2.9-6.3-6.7-12-12.1-16.5c-1.7-1.4-3.2-1.6-5.3-1
		c-13.9,4.3-27.8,8.6-41.9,12.4c-9.8,2.7-19.6-2.8-23.2-12.3c-2.6-6.8-3.3-13.7-1.4-20.8c1.5-5.7,0.8-7.1-4.4-10.2
		c-0.9-0.5-1.8-1.1-2.7-1.6c-3.3-2-4.7-4.9-4-8.7c0.3-1.7,0.8-3.4,1.3-5.1c-0.5-0.4-1-0.8-1.5-1.2c-6.8-5.4-7.3-7.8-3-15.6
		c0.2-0.4,0.4-0.7,0.6-1.1c4.4-8.1,4.1-9.5-4.1-13.7c-5.7-2.9-10.8-6.3-13.2-12.6C89.7,278.4,89.7,276.7,89.7,275.1z"/>
	<path class="st1" d="M366.4,207.9c-2.3,3.7-5.5,5.3-9.4,5.9c-4,0.6-8,1.5-11.9,2.5c-1,0.2-1.8,1.4-2.7,2.1
		c-0.1,0.1-0.1,0.2-0.1,0.3c-3.2,4.9-2.6,9.3,1.4,13.6c1.9,2,3.3,4.6,4.7,7c2.7,4.5,2.4,9.1-1.2,13c-3,3.3-6.2,6.5-9.5,9.5
		c-3.8,3.5-8.8,3.8-13.3,1c-3.8-2.4-7.5-4.9-11.2-7.5c-1.5-1.1-2.7-0.9-4.5-0.5c-5.7,1.4-8,4.9-8.3,10.6c-0.1,2.7-1,5.3-1.6,8
		c-1.3,5.5-5.1,8.6-10.7,8.7c-4,0.1-7.9,0.1-11.9,0c-6.1-0.1-10-3.3-11.2-9.3c-0.9-4.2-1.8-8.4-2.5-12.6c-0.3-1.9-1.3-2.6-2.8-3.6
		c-5-3.1-9.2-2.2-13.3,1.6c-2,1.8-4.4,3.1-6.7,4.5c-4.8,3-9.7,2.5-13.7-1.3c-3-2.8-5.8-5.7-8.6-8.6c-3.9-4.1-4.4-9.1-1.3-14
		c2.4-3.8,5.1-7.4,7.4-11.2c0.6-1,0.6-2.6,0.4-3.9c-1-6-4.9-8.4-10.8-8.7c-2.9-0.1-5.7-1-8.6-1.8c-4.7-1.3-7.6-4.9-7.8-9.8
		c-0.1-4.5-0.1-9,0-13.5c0.2-5.1,3.3-8.8,8.3-10c4.5-1,9-1.9,13.5-2.7c1.8-0.3,2.6-1.3,3.5-2.9c3.1-5,2.2-9.1-1.5-13.3
		c-1.8-2.1-3.3-4.6-4.7-7c-2.7-4.5-2.3-9.4,1.3-13.3c2.9-3.1,6-6.2,9.1-9.1c4-3.8,8.8-4.2,13.5-1.3c3.8,2.4,7.5,4.9,11.2,7.5
		c1.5,1.1,2.7,0.9,4.5,0.5c6-1.3,8-5.3,8.4-10.8c0.2-2.5,0.8-4.9,1.4-7.4c1.3-5.8,5.3-9.1,11.4-9.2c4-0.1,7.9,0.1,11.9-0.1
		c1.3-0.1,2.7-0.7,3.8-1.5c1.1-0.7,1.9-1.9,2.9-2.8c3.9-3.6,8.1-4.1,12.6-1.3c2.8,1.8,5.5,3.7,8.3,5.5c2.5,1.7,7.7-0.5,8.4-3.5
		c0.7-3.4,1.3-6.8,2-10.1c1.1-4.7,4.6-7.5,9.4-7.7c3.4-0.1,6.9-0.1,10.3,0c4.5,0.2,7.9,2.9,9,7.3c0.8,3.3,1.4,6.7,2.1,10.1
		c0.7,3.4,5.8,5.6,8.7,3.7c2.6-1.7,5.2-3.5,7.8-5.2c4.6-3,8.9-2.6,12.8,1.1c2.4,2.2,4.7,4.5,6.9,6.9c3.6,3.8,3.9,8.1,1.1,12.6
		c-1.7,2.7-3.6,5.4-5.4,8.1c-1.8,2.8,0.3,7.8,3.6,8.5c3.4,0.7,6.8,1.3,10.1,2.1c4.6,1.1,7.3,4.5,7.5,9.2c0.1,3.4,0.1,6.9,0,10.3
		c-0.1,4.7-3,8.2-7.5,9.2c-3.3,0.8-6.7,1.3-10.1,2c-3.2,0.7-5.4,5.8-3.6,8.5c1.8,2.8,3.8,5.5,5.5,8.3c2.7,4.3,2.2,8.6-1.2,12.3
		c-2.3,2.4-4.6,4.8-7.1,7.1c-3.6,3.3-7.9,3.7-12.1,1.2C371.6,211.5,369.2,209.8,366.4,207.9z M275.8,271.4c3.6,0,7-0.1,10.3,0
		c1.9,0.1,2.5-0.6,2.8-2.4c0.9-5.2,2.1-10.4,3.1-15.6c0.5-2.9,2.1-4.5,4.9-5.4c3.6-1.2,7.2-2.7,10.7-4.4c3-1.5,5.4-1.5,8.1,0.4
		c4.8,3.4,9.8,6.6,15,10.1c2.5-2.6,4.8-5.1,7.3-7.5c1.3-1.2,1.2-2.1,0.3-3.4c-3-4.3-5.7-8.7-8.8-12.9c-1.9-2.7-2.1-5.2-0.5-8.1
		c1.6-3,3.1-6.2,4-9.5c1.1-4,3.4-5.8,7.4-6.4c5.5-0.9,11-2.2,16.6-3.3c0-3.6-0.1-6.9,0-10.2c0.1-1.8-0.6-2.5-2.4-2.8
		c-5.1-0.9-10.2-2.1-15.3-3c-3.1-0.5-4.9-2.1-5.9-5.2c-1.2-3.6-2.7-7.2-4.4-10.6c-1.5-2.9-1.3-5.2,0.5-7.8c3.4-4.9,6.6-9.9,9.8-14.6
		c-3-3.1-5.9-6-9-9.1c-4.9,3.3-10,6.6-15,10c-2.4,1.7-4.6,1.8-7.3,0.5c-3.6-1.8-7.4-3.3-11.2-4.6c-2.8-1-4.3-2.6-4.8-5.5
		c-1-5.2-2-10.4-3.2-15.6c-0.2-0.9-1.1-2.3-1.8-2.3c-3.7-0.2-7.4-0.1-11.2-0.1c-1.3,6.2-2.6,12.1-3.7,18.1c-0.6,3.1-2.3,4.6-5.1,5.6
		c-3.4,1.2-6.9,2.4-10.1,4.1c-3.2,1.7-5.8,1.6-8.7-0.5c-4.7-3.4-9.6-6.5-13.9-9.4c-3.3,3.1-6.2,5.9-9.3,8.9
		c3.2,4.7,6.3,9.6,9.7,14.4c1.9,2.7,2,5.2,0.5,8.1c-1.7,3.3-3.2,6.8-4.3,10.4c-1,3.2-2.9,4.8-6.1,5.4c-5.1,0.9-10.2,2-15.3,3.1
		c-0.8,0.2-2,1-2,1.6c-0.2,3.7-0.1,7.5-0.1,11.3c6.1,1.2,11.9,2.4,17.7,3.5c3.1,0.6,4.9,2.2,5.8,5.3c1.1,3.6,2.6,7,4.3,10.4
		c1.5,3,1.4,5.4-0.5,8.1c-3.4,4.8-6.6,9.8-9.5,14.2c3.1,3.3,6,6.2,8.9,9.3c4.9-3.2,9.9-6.5,14.9-10c2.3-1.6,4.5-1.6,7-0.5
		c3.8,1.7,7.6,3.4,11.5,4.8c2.5,0.9,4,2.4,4.5,5C273.2,259,274.5,265,275.8,271.4z M302.4,114.8c-3.1,1.8-4.4,4.1-3.1,7.6
		c0.7,1.8,1.1,3.9,1.2,5.8c0.2,5.4,2.6,8.7,8,10.1c2,0.5,3.3,0.6,5.1-0.6c6.4-4.2,12.4-8.3,20.4-9.9c23.1-4.8,43.8,15,38.8,38.1
		c-1.4,6.3-4.5,11.6-8.9,16.2c3.2,3.1,3.8,6.8,3.8,10.8c0,1.2,0.3,2.9,1.1,3.5c3.4,2.6,7,4.8,10.6,7.2c2-2,4-3.9,6-5.9
		c-2.6-3.9-5.1-7.7-7.7-11.5c-1.5-2.2-1.6-4.4-0.4-6.8c1.4-2.9,2.6-5.9,3.7-8.9c0.9-2.5,2.4-4,5.1-4.5c4.5-0.8,8.9-1.8,13.5-2.7
		c0-2.9,0-5.5,0-8.4c-4.5-0.9-8.9-1.9-13.3-2.6c-2.9-0.5-4.5-2.1-5.4-4.9c-0.9-2.8-2-5.5-3.4-8c-1.5-2.8-1.3-5.3,0.5-7.8
		c2.5-3.6,4.9-7.2,7.3-10.8c-2-2.1-3.9-4-5.9-6c-3.7,2.5-7.5,4.9-11.1,7.5c-2.5,1.8-4.9,1.8-7.6,0.3c-2.6-1.3-5.3-2.5-8.1-3.4
		c-2.8-0.9-4.4-2.6-4.9-5.4c-0.8-4.4-1.7-8.8-2.6-13.2c-2.8,0-5.5,0-8.3,0c-0.9,4.6-1.9,9-2.7,13.5c-0.5,2.7-2,4.2-4.5,5.1
		c-2.8,1-5.7,2-8.4,3.4c-2.8,1.5-5.3,1.3-7.9-0.5C309.6,119.6,306,117.2,302.4,114.8z M345.3,138.7c0.5,0.6,0.8,1.1,1.2,1.5
		c4.3,4.8,4.7,9.3,1.2,14.7c-1.5,2.4-2.9,4.9-4.7,7c-3.1,3.6-3.8,7-1.4,11.4c2.2,3.9,8,6.1,11.9,3.5c8.3-5.5,11.6-16.1,7.9-25.4
		C358.6,144.4,351.6,138.8,345.3,138.7z"/>
	<path class="st1" d="M149.4,184.2c-3.6-0.8-6.8-1.5-10.3-2.3c1.9-10,5-19.3,9.7-28.3c10.6-20.1,28.2-29.9,49.5-34.4
		c1.3-0.3,2.6-0.6,4-0.8c3.3-0.5,5.8,0.9,6.5,3.9c0.7,3-0.9,5.6-4.3,6.5c-4.1,1.1-8.3,2.1-12.4,3.2c-23.4,6.4-35.2,23.3-41.1,45.5
		C150.5,179.6,150,181.7,149.4,184.2z"/>
	<path class="st1" d="M143,201.9c0,3-2.4,5.4-5.3,5.4c-2.9,0-5.4-2.6-5.3-5.5c0.1-2.8,2.4-5.1,5.2-5.1
		C140.7,196.6,143,198.9,143,201.9z"/>
	<path class="st1" d="M282,233.9c-20.6,0-37.5-16.9-37.4-37.4c0.1-20.7,16.9-37.3,37.6-37.3c20.5,0,37.2,16.8,37.2,37.3
		C319.5,217.2,302.7,233.9,282,233.9z M282.1,223.2c14.7-0.1,26.6-12,26.6-26.7c0-14.8-12.2-26.8-27-26.7
		c-14.7,0.1-26.5,12.2-26.4,26.9C255.5,211.6,267.4,223.3,282.1,223.2z"/>
	<path class="st1" d="M287.4,196.7c-0.1,2.9-2.6,5.2-5.5,5.1c-3-0.1-5.2-2.5-5-5.5c0.1-2.8,2.5-5.1,5.3-5.1
		C285,191.3,287.5,193.9,287.4,196.7z"/>
</g>
</svg>
