<?xml version="1.0" encoding="utf-8"?>
<!-- Generator: Adobe Illustrator 27.9.0, SVG Export Plug-In . SVG Version: 6.00 Build 0)  -->
<svg version="1.1" id="Layer_1" xmlns="http://www.w3.org/2000/svg" xmlns:xlink="http://www.w3.org/1999/xlink" x="0px" y="0px"
	 viewBox="0 0 85 85" style="enable-background:new 0 0 85 85;" xml:space="preserve">
<style type="text/css">
	.st0{fill:#5C8DBC;}
	.st1{fill:#1A4674;}
	.st2{fill:#EFA90C;}
	.st3{fill:#FFFFFF;}
</style>
<path class="st0" d="M75.5,27.2c0-1.2-0.3-2.3-0.8-3.3c-0.5-0.9-1.3-1.7-2.4-2.3c-8.8-5.1-17.6-10.1-26.4-15.2
	c-2.4-1.4-4.7-1.3-7,0.1c-3.5,2.1-21,12.1-26.2,15.1c-2.1,1.2-3.2,3.1-3.2,5.6c0,10.2,0,20.4,0,30.6c0,1.2,0.3,2.3,0.8,3.2
	c0.5,1,1.3,1.8,2.4,2.4c5.2,3,22.7,13.1,26.2,15.1c2.4,1.4,4.6,1.4,7,0.1c8.8-5.1,17.6-10.1,26.4-15.2c1.1-0.6,1.9-1.4,2.4-2.4
	c0.5-0.9,0.8-2,0.8-3.2C75.5,57.8,75.5,37.4,75.5,27.2"/>
<path class="st1" d="M42.6,42.4L10.3,61c0.5,1,1.3,1.8,2.4,2.4c5.2,3,22.7,13.1,26.2,15.1c2.4,1.4,4.6,1.4,7,0.1
	c8.8-5.1,17.6-10.1,26.4-15.2c1.1-0.6,1.9-1.4,2.4-2.4L42.6,42.4"/>
<path class="st1" d="M33,47.9c1.9,3.3,5.4,5.5,9.5,5.5c4.1,0,7.6-2.2,9.5-5.6l-9.4-5.5L33,47.9"/>
<path class="st2" d="M75.5,27.2c0-1.2-0.3-2.3-0.8-3.3L42.6,42.4L74.7,61c0.5-0.9,0.8-2,0.8-3.2C75.5,57.8,75.5,37.4,75.5,27.2"/>
<path class="st3" d="M71.3,40.1h-2.3v2.3h-2.3v-2.3h-2.3v-2.3h2.3v-2.3h2.3v2.3h2.3V40.1 M63.1,40.1h-2.3v2.3h-2.3v-2.3h-2.3v-2.3
	h2.3v-2.3h2.3v2.3h2.3V40.1"/>
<path class="st3" d="M52,47.9c-1.9,3.3-5.4,5.6-9.5,5.6c-4.1,0-7.6-2.2-9.5-5.5c-0.9-1.6-1.4-3.5-1.4-5.4c0-6,4.9-10.9,10.9-10.9
	c4,0,7.5,2.2,9.4,5.4l9.5-5.5c-3.8-6.5-10.9-10.9-19-10.9c-12.1,0-21.9,9.8-21.9,21.9c0,4,1.1,7.7,2.9,10.9c3.8,6.6,10.9,11,19,11
	c8.1,0,15.3-4.4,19-11L52,47.9"/>
<g>
	<path class="st1" d="M63.3,47.4c0,2.1-1.3,3.2-2.8,3.2c-1.6,0-2.7-1.2-2.7-3.1c0-1.9,1.2-3.2,2.8-3.2
		C62.3,44.3,63.3,45.6,63.3,47.4z M58.6,47.5c0,1.3,0.7,2.5,1.9,2.5c1.2,0,1.9-1.1,1.9-2.5c0-1.2-0.6-2.5-1.9-2.5
		C59.3,45,58.6,46.2,58.6,47.5z"/>
	<path class="st1" d="M67.4,50.5l-0.8-1.3c-0.3-0.5-0.5-0.8-0.7-1.2h0c-0.2,0.4-0.3,0.7-0.7,1.2l-0.7,1.3h-0.9l1.9-3.1l-1.8-3h0.9
		l0.8,1.4c0.2,0.4,0.4,0.7,0.6,1h0c0.2-0.4,0.3-0.6,0.6-1l0.8-1.4h0.9l-1.8,3l1.9,3.1H67.4z"/>
</g>
</svg>
