<?xml version="1.0" encoding="utf-8"?>
<!-- Generator: Adobe Illustrator 27.9.0, SVG Export Plug-In . SVG Version: 6.00 Build 0)  -->
<svg version="1.1" id="Layer_1" xmlns="http://www.w3.org/2000/svg" xmlns:xlink="http://www.w3.org/1999/xlink" x="0px" y="0px"
	 viewBox="0 0 85 85" style="enable-background:new 0 0 85 85;" xml:space="preserve">
<style type="text/css">
	.st0{fill:#5C8DBC;}
	.st1{fill:#1A4674;}
	.st2{fill:#1B598E;}
	.st3{fill:#FFFFFF;}
</style>
<g>
	<path class="st0" d="M77.2,26.4c0-1.3-0.3-2.5-0.8-3.5c-0.6-1-1.4-1.8-2.5-2.4c-9.2-5.3-18.5-10.6-27.7-16
		c-2.5-1.4-4.9-1.4-7.4,0.1c-3.7,2.2-22.1,12.7-27.6,15.9c-2.3,1.3-3.4,3.3-3.4,5.9c0,10.7,0,21.4,0,32.1c0,1.3,0.3,2.4,0.8,3.4
		c0.6,1,1.4,1.8,2.5,2.5c5.5,3.2,23.9,13.7,27.6,15.9c2.5,1.5,4.9,1.5,7.4,0.1c9.2-5.3,18.5-10.6,27.7-16c1.1-0.7,2-1.5,2.5-2.5
		c0.5-1,0.8-2.1,0.8-3.4C77.2,58.6,77.2,37.1,77.2,26.4"/>
	<path class="st1" d="M42.6,42.4L8.6,62c0.6,1,1.4,1.8,2.5,2.5c5.5,3.2,23.9,13.7,27.6,15.9c2.5,1.5,4.9,1.5,7.4,0.1
		c9.2-5.3,18.5-10.6,27.7-16c1.1-0.7,2-1.5,2.5-2.5L42.6,42.4"/>
	<path class="st1" d="M32.5,48.2c2,3.5,5.7,5.8,10,5.8c4.3,0,8-2.4,10-5.8l-9.9-5.7L32.5,48.2"/>
	<path class="st2" d="M77.2,26.4c0-1.3-0.3-2.5-0.8-3.5L42.6,42.4L76.4,62c0.5-1,0.8-2.1,0.8-3.4C77.2,58.6,77.2,37.1,77.2,26.4"/>
	<path class="st3" d="M75.3,43.8h-2.6v2.6h-2.6v-2.6h-2.6v-2.6h2.6v-2.6h2.6v2.6h2.6V43.8 M65.7,43.8h-2.6v2.6h-2.6v-2.6h-2.6v-2.6
		h2.6v-2.6h2.6v2.6h2.6V43.8"/>
	<path class="st3" d="M52.5,48.1c-2,3.5-5.7,5.8-10,5.8c-4.3,0-8-2.3-10-5.8c-1-1.7-1.5-3.7-1.5-5.7C31,36.2,36.2,31,42.5,31
		c4.2,0,7.9,2.3,9.9,5.7l10-5.8c-4-6.9-11.4-11.5-20-11.5c-12.7,0-23,10.3-23,23c0,4.2,1.1,8.1,3.1,11.5c4,6.9,11.4,11.6,20,11.6
		c8.6,0,16-4.7,20-11.6L52.5,48.1"/>
</g>
</svg>
