<?xml version="1.0" encoding="UTF-8"?>
<svg id="Layer_1" data-name="Layer 1" xmlns="http://www.w3.org/2000/svg" viewBox="0 0 500 500">
  <defs>
    <style>
      .cls-1 {
        fill: #659ad2;
      }

      .cls-2 {
        fill: #fff;
      }

      .cls-3 {
        fill: #004482;
      }

      .cls-4 {
        fill: #00599c;
      }
    </style>
  </defs>
  <path class="cls-3" d="m444.04,160.03c.15-6.77-1.48-13.46-4.73-19.41-3.37-5.75-8.22-10.48-14.05-13.69-51.68-29.84-103.39-59.64-155.11-89.4-13.93-8.05-27.43-7.77-41.26.41-20.57,12.09-123.58,71.17-154.27,88.97-12.64,7.32-18.78,18.53-18.78,33.1v179.98c-.13,6.63,1.44,13.18,4.55,19.03,3.37,5.92,8.31,10.79,14.28,14.07,30.69,17.86,133.72,76.87,154.29,89.01,13.84,8.18,27.34,8.46,41.28.41,51.67-29.85,103.38-59.67,155.11-89.44,5.97-3.28,10.92-8.15,14.28-14.07,3.12-5.85,4.68-12.4,4.55-19.03v-179.94h-.14Z"/>
  <path class="cls-4" d="m444.08,339.99c.13,6.63-1.43,13.18-4.55,19.03-.77,1.39-1.63,2.73-2.59,4l-187-113.02,175.32-123.08c5.82,3.22,10.67,7.95,14.03,13.69,3.26,5.94,4.9,12.63,4.75,19.41.04,59.99.04,179.96.04,179.96h0Z"/>
  <path class="cls-1" d="m439.29,140.62L60.33,359.02c-3.1-5.85-4.66-12.4-4.52-19.02v-180c0-14.57,6.16-25.78,18.78-33.1,30.71-17.8,133.72-76.88,154.3-89.01,13.8-8.18,27.32-8.46,41.25-.41,51.67,29.85,103.38,59.67,155.11,89.44,5.82,3.22,10.67,7.95,14.03,13.69Z"/>
  <path class="cls-2" d="m257.44,322.71c-25.99.04-49.94-14.08-62.49-36.84-.63-1.12-1.23-2.26-1.79-3.43-17.16-35.45-2.34-78.1,33.11-95.26,29.64-14.35,65.25-6.54,86.17,18.9.95,1.14,1.79,2.34,2.73,3.57.43.59.86,1.18,1.25,1.79l62.62-36.07c-1.52-2.45-3.12-4.83-4.79-7.14-.87-1.23-1.79-2.41-2.64-3.57-48.06-62.43-137.63-74.09-200.07-26.03-54.85,42.22-71.48,117.72-39.44,179.08.61,1.14,1.23,2.27,1.79,3.39,38.86,68.55,125.93,92.63,194.48,53.78,20.24-11.47,37.36-27.71,49.88-47.31l-61.23-37.01c-13.17,20.08-35.57,32.17-59.58,32.16h0Z"/>
</svg>