<?xml version="1.0" encoding="utf-8"?>
<!-- Generator: Adobe Illustrator 27.9.0, SVG Export Plug-In . SVG Version: 6.00 Build 0)  -->
<svg version="1.1" id="Layer_1" xmlns="http://www.w3.org/2000/svg" xmlns:xlink="http://www.w3.org/1999/xlink" x="0px" y="0px"
	 viewBox="0 0 85 85" style="enable-background:new 0 0 85 85;" xml:space="preserve">
<style type="text/css">
	.st0{fill:#5C8DBC;}
	.st1{fill:#1A4674;}
	.st2{fill:#1B598E;}
	.st3{fill:#FFFFFF;}
</style>
<g>
	<g>
		<path class="st0" d="M74.5,27.7c0-1.2-0.3-2.3-0.8-3.2c-0.5-0.9-1.3-1.7-2.3-2.3c-8.5-4.9-17-9.8-25.6-14.7
			c-2.3-1.3-4.5-1.3-6.8,0.1c-3.4,2-20.4,11.7-25.4,14.7c-2.1,1.2-3.1,3.1-3.1,5.5c0,9.9,0,19.8,0,29.6c0,1.2,0.2,2.2,0.7,3.1
			c0.5,0.9,1.3,1.7,2.4,2.3c5.1,2.9,22,12.7,25.4,14.7c2.3,1.3,4.5,1.4,6.8,0.1c8.5-4.9,17-9.8,25.6-14.7c1.1-0.6,1.8-1.4,2.4-2.3
			c0.5-0.9,0.7-2,0.7-3.1C74.5,57.3,74.5,37.6,74.5,27.7"/>
		<path class="st1" d="M42.6,42.4L11.2,60.5c0.5,0.9,1.3,1.7,2.4,2.3c5.1,2.9,22,12.7,25.4,14.7c2.3,1.3,4.5,1.4,6.8,0.1
			c8.5-4.9,17-9.8,25.6-14.7c1.1-0.6,1.8-1.4,2.4-2.3L42.6,42.4"/>
		<path class="st1" d="M33.3,47.8c1.8,3.2,5.3,5.3,9.2,5.3c4,0,7.4-2.2,9.2-5.4l-9.1-5.3L33.3,47.8"/>
		<path class="st2" d="M74.5,27.7c0-1.2-0.3-2.3-0.8-3.2L42.6,42.4l31.2,18c0.5-0.9,0.7-2,0.7-3.1C74.5,57.3,74.5,37.6,74.5,27.7"/>
		<path class="st3" d="M51.7,47.7c-1.8,3.2-5.3,5.4-9.2,5.4c-3.9,0-7.4-2.1-9.2-5.3c-0.9-1.6-1.4-3.4-1.4-5.3
			c0-5.8,4.7-10.6,10.6-10.6c3.9,0,7.3,2.1,9.2,5.3l9.3-5.3c-3.7-6.3-10.5-10.6-18.4-10.6c-11.7,0-21.3,9.5-21.3,21.3
			c0,3.9,1,7.5,2.8,10.6c3.7,6.4,10.6,10.7,18.4,10.7c7.9,0,14.8-4.3,18.5-10.7L51.7,47.7"/>
	</g>
	<g>
		<path class="st3" d="M55.2,41v-0.6c0-0.4,0.1-0.7,0.3-0.8c0.2-0.2,0.5-0.3,0.9-0.3h3.5c0.4,0,0.7,0.1,0.9,0.3
			c0.2,0.2,0.3,0.5,0.3,0.8V41H55.2z M57.5,42.2h1.2v-0.7c0-0.1,0-0.1,0-0.2h2.4v4.3c0,0.4-0.1,0.7-0.3,0.8
			c-0.2,0.2-0.5,0.3-0.9,0.3h-4.7l0.5-1.7h2.6c0.2,0,0.3,0,0.4-0.1c0.1-0.1,0.1-0.2,0.1-0.5V44h-3.5v-2.5h2.3v0.1V42.2z"/>
		<path class="st3" d="M63.9,41v-0.6c0-0.4,0.1-0.7,0.3-0.8c0.2-0.2,0.5-0.3,0.9-0.3h3.5c0.4,0,0.7,0.1,0.9,0.3
			c0.2,0.2,0.3,0.5,0.3,0.8V41H63.9z M66.2,42.2h1.2v-0.7c0-0.1,0-0.1,0-0.2h2.4v4.3c0,0.4-0.1,0.7-0.3,0.8
			c-0.2,0.2-0.5,0.3-0.9,0.3h-4.7l0.5-1.7H67c0.2,0,0.3,0,0.4-0.1c0.1-0.1,0.1-0.2,0.1-0.5V44h-3.5v-2.5h2.3v0.1V42.2z"/>
	</g>
</g>
</svg>
