<?xml version="1.0" encoding="utf-8"?>
<!-- Generator: Adobe Illustrator 27.9.0, SVG Export Plug-In . SVG Version: 6.00 Build 0)  -->
<svg version="1.1" id="Layer_1" xmlns="http://www.w3.org/2000/svg" xmlns:xlink="http://www.w3.org/1999/xlink" x="0px" y="0px"
	 viewBox="0 0 85 85" style="enable-background:new 0 0 85 85;" xml:space="preserve">
<style type="text/css">
	.st0{fill:#5C8DBC;}
	.st1{fill:#1A4674;}
	.st2{fill:#EFD914;}
	.st3{fill:#FFFFFF;}
</style>
<g>
	<path class="st0" d="M75.5,27.2c0-1.2-0.3-2.3-0.8-3.3c-0.5-0.9-1.3-1.7-2.4-2.3c-8.8-5.1-17.6-10.1-26.4-15.2
		c-2.4-1.4-4.7-1.3-7,0.1c-3.5,2.1-21,12.1-26.2,15.1c-2.1,1.2-3.2,3.1-3.2,5.6c0,10.2,0,20.4,0,30.6c0,1.2,0.3,2.3,0.8,3.2
		c0.5,1,1.3,1.8,2.4,2.4c5.2,3,22.7,13.1,26.2,15.1c2.4,1.4,4.6,1.4,7,0.1c8.8-5.1,17.6-10.1,26.4-15.2c1.1-0.6,1.9-1.4,2.4-2.4
		c0.5-0.9,0.8-2,0.8-3.2C75.5,57.8,75.5,37.4,75.5,27.2"/>
	<path class="st1" d="M42.6,42.4L10.3,61c0.5,1,1.3,1.8,2.4,2.4c5.2,3,22.7,13.1,26.2,15.1c2.4,1.4,4.6,1.4,7,0.1
		c8.8-5.1,17.6-10.1,26.4-15.2c1.1-0.6,1.9-1.4,2.4-2.4L42.6,42.4"/>
	<path class="st1" d="M33,47.9c1.9,3.3,5.4,5.5,9.5,5.5c4.1,0,7.6-2.2,9.5-5.6l-9.4-5.5L33,47.9"/>
	<path class="st2" d="M75.5,27.2c0-1.2-0.3-2.3-0.8-3.3L42.6,42.4L74.7,61c0.5-0.9,0.8-2,0.8-3.2C75.5,57.8,75.5,37.4,75.5,27.2"/>
	<path d="M71.3,39h-2.3v2.3h-2.3V39h-2.3v-2.3h2.3v-2.3h2.3v2.3h2.3V39 M63.1,39h-2.3v2.3h-2.3V39h-2.3v-2.3h2.3v-2.3h2.3v2.3h2.3
		V39"/>
	<path class="st3" d="M52,47.9c-1.9,3.3-5.4,5.6-9.5,5.6c-4.1,0-7.6-2.2-9.5-5.5c-0.9-1.6-1.4-3.5-1.4-5.4c0-6,4.9-10.9,10.9-10.9
		c4,0,7.5,2.2,9.4,5.4l9.5-5.5c-3.8-6.5-10.9-10.9-19-10.9c-12.1,0-21.9,9.8-21.9,21.9c0,4,1.1,7.7,2.9,10.9c3.8,6.6,10.9,11,19,11
		c8.1,0,15.3-4.4,19-11L52,47.9"/>
	<g>
		<path d="M62.2,44.1h3.2l0,0v8.5l0,0h-3.2l0,0L62.2,44.1L62.2,44.1z"/>
		<path d="M67.8,44.1H71l0,0v8.5l0,0h-3.2l0,0L67.8,44.1L67.8,44.1z"/>
	</g>
</g>
</svg>
