<?xml version="1.0" encoding="utf-8"?>
<!-- Generator: Adobe Illustrator 26.0.1, SVG Export Plug-In . SVG Version: 6.00 Build 0)  -->
<svg version="1.1" id="Layer_1" xmlns="http://www.w3.org/2000/svg" xmlns:xlink="http://www.w3.org/1999/xlink" x="0px" y="0px"
	 viewBox="0 0 500 500" style="enable-background:new 0 0 500 500;" xml:space="preserve">
<style type="text/css">
	.st0{fill:#8C4A37;}
	.st1{fill:#FED2A4;}
	.st2{fill:#B3B3B3;}
</style>
<g>
	<g>
		<path class="st0" d="M187.1,95.2c0,0,57.7-24.9,127.6,0l23.6,14.4l-88.7,119.7L176.2,100L187.1,95.2z"/>
	</g>
	<g>
		<path class="st1" d="M110.9,178.5c0,0-59.6-21.9-54.4-93s106.1-79.8,130.7,19.3c0,0,45.6,33.3,62.3,77.2c0,0,34.2-64,64.9-75.4
			c0,0,8.8-67.5,71.9-75.4s67.5,74.5,54.4,99.1c-13.2,24.6-44.7,48.2-50.9,50c0,0,6.1,30.7,19.3,43s75.4,47.4,56.1,133.3
			c-19.3,85.9-108.7,86.8-108.7,86.8s-91.2,59.6-213.1-1.8c0,0-112.2-5.3-112.2-123.6c0,0,0.9-57.9,63.1-91.2
			C94.3,226.7,112.7,188.2,110.9,178.5z"/>
	</g>
	<g>
		<rect x="160" y="183.5" class="st0" width="28" height="28"/>
	</g>
	<g>
		<rect x="314.5" y="183.5" class="st0" width="28" height="28"/>
	</g>
	<g>
		<path class="st0" d="M250.9,309.6c-36.3,0-65.8-29.5-65.8-65.8h20.6c0,24.9,20.3,45.2,45.2,45.2c24.9,0,45.2-20.3,45.2-45.2h20.6
			C316.7,280.1,287.2,309.6,250.9,309.6z"/>
	</g>
	<g>
		<polygon class="st2" points="289.8,418.2 212.4,418.2 212.4,350.4 252.2,336.4 289.8,350.4 		"/>
	</g>
	<g>
		<path class="st0" d="M299.2,371.2c-9.6,0-19.2-2.6-27.9-8.1c-24.5-15.4-31.8-47.9-16.4-72.3l17.4,11c-9.4,14.8-4.9,34.5,10,43.9
			c14.8,9.4,34.5,4.9,43.9-10l17.4,11C333.6,362.6,316.6,371.2,299.2,371.2z"/>
	</g>
	<g>
		<path class="st0" d="M203.5,371.2c-17.4,0-34.5-8.7-44.4-24.5l17.4-11c9.4,14.8,29,19.3,43.9,10c7.2-4.5,12.2-11.6,14.1-19.9
			c1.9-8.3,0.4-16.8-4.1-24l17.4-11c7.5,11.8,9.9,25.9,6.8,39.6c-3.1,13.7-11.3,25.3-23.2,32.8C222.7,368.6,213.1,371.2,203.5,371.2
			z"/>
	</g>
</g>
</svg>
