<?xml version="1.0" encoding="utf-8"?>
<!-- Generator: Adobe Illustrator 26.0.1, SVG Export Plug-In . SVG Version: 6.00 Build 0)  -->
<svg version="1.1" id="Layer_1" xmlns="http://www.w3.org/2000/svg" xmlns:xlink="http://www.w3.org/1999/xlink" x="0px" y="0px"
	 viewBox="0 0 500 500" style="enable-background:new 0 0 500 500;" xml:space="preserve">
<style type="text/css">
	.st0{fill:#4D7CD4;}
	.st1{fill:#5FB432;}
	.st2{fill:none;stroke:#FFFFFF;stroke-width:8.5446;stroke-miterlimit:10;}
	.st3{fill:none;stroke:#FFFFFF;stroke-width:10;stroke-miterlimit:10;}
	.st4{fill:none;stroke:#FFFFFF;stroke-width:9;stroke-miterlimit:10;}
</style>
<circle class="st0" cx="249.6" cy="250.8" r="224.3"/>
<path class="st1" d="M42.9,172.8c0,0,64.9-58.1,119.9-36.2c0,0,49.3-6.9,95.5,116.1c0,0,28.1,73.7,80.5,104.3c0,0,34.3,31.2,103,0.6
	c0,0-15.6,55.6-101.1,98.6c0,0-71.8,37.5-179.2,1.2c0,0-76.8-30.6-114.3-111.1C47.3,346.3,3.6,273.9,42.9,172.8z"/>
<circle class="st2" cx="249.6" cy="250.8" r="224.3"/>
<circle class="st0" cx="249.6" cy="250.8" r="139.7"/>
<circle class="st3" cx="249.6" cy="250.8" r="139.7"/>
<path class="st1" d="M171.5,140.9c0,0,52.4,14.4,74.9,97.4c0,0,41.8,95.5,85.5,120.5c0,0-53.1,53.1-141.1,15.6
	c0,0-88.7-31.2-76.2-147.3C114.7,227.1,125.9,165.9,171.5,140.9z"/>
<path class="st4" d="M9.6,197c0,0,157-170.5,237.7,29.2s172.7,152.5,249,98.7"/>
<path class="st4" d="M196.5,380.7c0,0-9.7-102,53.9-140.4"/>
</svg>
