<?xml version="1.0" encoding="utf-8"?>
<!-- Generator: Adobe Illustrator 26.0.1, SVG Export Plug-In . SVG Version: 6.00 Build 0)  -->
<svg version="1.1" id="Layer_1" xmlns="http://www.w3.org/2000/svg" xmlns:xlink="http://www.w3.org/1999/xlink" x="0px" y="0px"
	 viewBox="0 0 500 500" style="enable-background:new 0 0 500 500;" xml:space="preserve">
<style type="text/css">
	.st0{fill:#9E005D;}
	.st1{fill:none;stroke:#FFFFFF;stroke-width:10.9791;stroke-miterlimit:10;}
	.st2{fill:none;stroke:#FFFFFF;stroke-width:10.9791;stroke-linecap:round;stroke-miterlimit:10;}
</style>
<circle class="st0" cx="250" cy="250" r="225"/>
<path class="st1" d="M210.4,231.1h-74.2v-22.3c0-5.5-6.6-8.4-10.7-4.7l-58.1,53.2c-3.8,3.5-3.7,9.4,0.1,12.8l58,52
	c4.1,3.7,10.6,0.8,10.6-4.7v-21.1h74.2c6.1,0,11-4.9,11-11v-43.2C221.4,236.1,216.4,231.1,210.4,231.1z"/>
<path class="st1" d="M168.8,227.4v-68.3l61.4-59.7h129.9c7.4,0,13.4,6,13.4,13.4v245.3c0,7.4-6,13.4-13.4,13.4h-178
	c-7.4,0-13.4-6-13.4-13.4v-59.7"/>
<path class="st1" d="M173.6,162.1h51.7c4.1,0,7.4-3.3,7.4-7.4v-51.1"/>
<line class="st2" x1="271.6" y1="158.7" x2="340.1" y2="158.7"/>
<line class="st2" x1="271.6" y1="196.7" x2="340.1" y2="196.7"/>
<line class="st2" x1="271.6" y1="234.7" x2="340.1" y2="234.7"/>
<line class="st2" x1="271.6" y1="272.7" x2="340.1" y2="272.7"/>
<line class="st2" x1="271.6" y1="310.7" x2="340.1" y2="310.7"/>
</svg>
