<svg width="37" height="41" viewBox="0 0 37 41" fill="none" xmlns="http://www.w3.org/2000/svg">
<path d="M36.5732 12.3073C36.5729 11.6352 36.4288 11.0413 36.1374 10.5317C35.8512 10.0303 35.4226 9.61024 34.8476 9.27808C30.1015 6.54807 25.3508 3.82641 20.6063 1.09361C19.3272 0.356941 18.087 0.383936 16.8173 1.13118C14.9282 2.24244 5.47024 7.64806 2.65188 9.27655C1.4912 9.94699 0.926409 10.9728 0.92613 12.306C0.924316 17.7962 0.92613 23.2865 0.924316 28.7767C0.924316 29.434 1.06255 30.0165 1.34111 30.5184C1.62748 31.0348 2.06212 31.4665 2.65034 31.8062C5.46885 33.4346 14.9281 38.8398 16.8168 39.9515C18.087 40.6992 19.3272 40.7259 20.6067 39.9891C25.3514 37.2562 30.1023 34.5345 34.8491 31.8045C35.4374 31.465 35.872 31.033 36.1584 30.5171C36.4365 30.015 36.575 29.4326 36.575 28.7752C36.575 28.7752 36.575 17.7976 36.5732 12.3073Z" fill="#F3F3F3"/>
<path d="M18.8044 20.4883L1.34131 30.5189C1.62768 31.0353 2.06232 31.4669 2.65055 31.8066C5.46905 33.4351 14.9283 38.8403 16.817 39.952C18.0872 40.6996 19.3274 40.7263 20.6069 39.9895C25.3516 37.2566 30.1025 34.5349 34.8493 31.8049C35.4376 31.4654 35.8722 31.0335 36.1586 30.5175L18.8044 20.4883Z" fill="#E8E8E8"/>
<path d="M36.5732 12.3068C36.5729 11.6347 36.4288 11.0408 36.1374 10.5312L18.8042 20.4875L36.1584 30.5166C36.4365 30.0145 36.5747 29.4322 36.575 28.7747C36.575 28.7747 36.575 17.7972 36.5732 12.3068Z" fill="white"/>
<path d="M29.0866 16.7383V18.6132H30.9661V16.7383H31.9058V18.6132H33.7853V19.5507H31.9058V21.4255H33.7853V22.3629H31.9058V24.2379H30.9661V22.3629H29.0866V24.2379H28.1469V22.3629H26.2676V21.4255H28.1469V19.5507H26.2676V18.6132H28.1469V16.7383H29.0866ZM30.9661 19.5505H29.0866V21.4255H30.9661V19.5505Z" fill="black"/>
<path d="M18.8433 7.3224C23.7455 7.3224 28.0254 9.97825 30.3179 13.926L30.2956 13.888L24.5278 17.2009C23.3915 15.2816 21.3084 13.9862 18.9185 13.9595L18.8432 13.9591C15.1991 13.9591 12.2447 16.9063 12.2447 20.5417C12.2435 21.6875 12.5436 22.8136 13.115 23.8075C14.2523 25.7884 16.3906 27.1244 18.8433 27.1244C21.3113 27.1244 23.4616 25.7714 24.5932 23.7694L24.5657 23.8174L30.3247 27.1456C28.0574 31.06 23.836 33.7076 18.9909 33.7604L18.8433 33.7612C13.9257 33.7612 9.63361 31.0889 7.34684 27.1203C6.23051 25.1829 5.5918 22.9369 5.5918 20.5417C5.5918 13.2409 11.5245 7.32227 18.8432 7.32227L18.8433 7.3224Z" fill="black"/>
</svg>
