<?xml version="1.0" encoding="UTF-8"?>
<svg id="Layer_1" data-name="Layer 1" xmlns="http://www.w3.org/2000/svg" viewBox="0 0 500 500">
  <defs>
    <style>
      .cls-1 {
        fill: #fff;
      }

      .cls-2 {
        fill: #390091;
      }

      .cls-3 {
        fill: #a179dc;
      }

      .cls-4 {
        fill: #280068;
      }
    </style>
  </defs>
  <path class="cls-3" d="m446.93,158.8c0-7.44-1.6-14.02-4.81-19.67-3.16-5.55-7.9-10.21-14.25-13.88-52.44-30.24-104.93-60.38-157.35-90.65-14.13-8.16-27.84-7.86-41.86.42-20.87,12.31-125.37,72.18-156.51,90.21-12.82,7.43-19.06,18.79-19.07,33.55-.02,60.81,0,121.61-.02,182.42,0,7.28,1.53,13.73,4.61,19.29,3.16,5.72,7.97,10.5,14.47,14.26,31.14,18.04,135.65,77.9,156.52,90.21,14.03,8.28,27.74,8.58,41.87.42,52.42-30.27,104.91-60.41,157.36-90.65,6.5-3.76,11.3-8.54,14.47-14.26,3.07-5.56,4.6-12.01,4.6-19.29,0,0,0-121.58-.02-182.39"/>
  <path class="cls-4" d="m250.6,249.41l-192.94,111.09c3.16,5.72,7.97,10.5,14.47,14.26,31.14,18.04,135.65,77.9,156.52,90.21,14.03,8.28,27.74,8.58,41.87.42,52.42-30.27,104.91-60.41,157.36-90.65,6.5-3.76,11.3-8.54,14.47-14.26l-191.74-111.08Z"/>
  <path class="cls-2" d="m446.93,158.8c0-7.44-1.6-14.02-4.81-19.67l-191.51,110.27,191.74,111.08c3.07-5.56,4.6-12.01,4.6-19.29,0,0,0-121.58-.02-182.39"/>
  <g>
    <path class="cls-1" d="m364.2,207.88v20.77h20.77v-20.77h10.38v20.77h20.77v10.38h-20.77v20.76h20.77v10.38h-20.77v20.77h-10.38v-20.77h-20.77v20.77h-10.38v-20.77h-20.76v-10.38h20.76v-20.76h-20.76v-10.38h20.76v-20.77h10.38Zm20.77,31.15h-20.77v20.77h20.77v-20.77Z"/>
    <path class="cls-1" d="m251.03,103.59c54.16,0,101.45,29.41,126.78,73.14l-.25-.42-63.73,36.69c-12.55-21.26-35.57-35.6-61.97-35.9h-.83c-40.26,0-72.9,32.64-72.9,72.9-.01,12.69,3.3,25.16,9.62,36.17,12.57,21.94,36.19,36.74,63.29,36.74s51.03-14.98,63.53-37.16l-.3.53,63.63,36.86c-25.05,43.35-71.69,72.68-125.22,73.26h-1.63c-54.33,0-101.76-29.59-127.02-73.54-12.33-21.46-19.39-46.33-19.39-72.86,0-80.86,65.55-146.41,146.41-146.41h0Z"/>
  </g>
</svg>