<?xml version="1.0" encoding="utf-8"?>
<!-- Generator: Adobe Illustrator 27.9.0, SVG Export Plug-In . SVG Version: 6.00 Build 0)  -->
<svg version="1.1" id="Layer_1" xmlns="http://www.w3.org/2000/svg" xmlns:xlink="http://www.w3.org/1999/xlink" x="0px" y="0px"
	 viewBox="0 0 85 85" style="enable-background:new 0 0 85 85;" xml:space="preserve">
<style type="text/css">
	.st0{fill:#A40000;}
	.st1{fill:url(#rect3408_00000160893890591213919720000008436356531548597153_);}
	.st2{fill:#EEEEEC;}
	
		.st3{fill:none;stroke:url(#rect3372_00000137832188437605182600000010320977717795118000_);stroke-width:0.2827;stroke-linecap:round;stroke-linejoin:round;stroke-miterlimit:5.9004;}
	.st4{fill:none;}
</style>
<g id="layer1" transform="translate(-2.9819053,-15.753182)">
	<g id="g2225" transform="matrix(1.475092,0,0,1.475092,-30.36508,-28.63879)">
		<path id="rect3297" class="st0" d="M32.8,38.2h37.3c2.4,0,4.4,2.6,4.4,5.9v29.7c0,3.3-2,5.9-4.4,5.9H32.8c-2.4,0-4.4-2.6-4.4-5.9
			V44.1C28.4,40.8,30.3,38.2,32.8,38.2z"/>
		
			<linearGradient id="rect3408_00000138547252992310082430000008579966078336714687_" gradientUnits="userSpaceOnUse" x1="-2.2459" y1="105.2274" x2="8.346" y2="96.9567" gradientTransform="matrix(1.4751 0 0 -1.4629 32.4838 195.6187)">
			<stop  offset="0" style="stop-color:#F2F2F0;stop-opacity:0.1354"/>
			<stop  offset="1" style="stop-color:#EEEEEC;stop-opacity:0.3958"/>
		</linearGradient>
		<path id="rect3408" style="fill:url(#rect3408_00000138547252992310082430000008579966078336714687_);" d="M33.2,40.2h36.4
			c1.6,0,3,1.7,3,3.9v29.6c0,2.1-1.3,3.9-3,3.9H33.2c-1.6,0-3-1.7-3-3.9V44.1C30.2,42,31.6,40.2,33.2,40.2z"/>
		<path id="path2242" class="st2" d="M33.5,44c-0.5,0.1-0.8,0.5-0.8,1.1l0,27.6c0,0,0,0.1,0,0.1c0,0.1,0,0.1,0,0.2c0,0,0,0,0,0
			c0,0,0,0.1,0,0.1c0,0,0,0,0,0c0,0,0,0.1,0,0.1c0,0,0,0,0,0c0,0,0,0.1,0,0.1c0,0,0,0,0,0c0,0,0,0.1,0.1,0.1c0,0,0,0,0,0
			c0,0,0,0.1,0,0.1c0,0,0,0,0,0c0,0,0,0,0.1,0.1c0,0,0,0,0,0c0,0,0,0,0,0.1c0,0,0,0,0,0c0,0,0,0,0,0.1c0,0,0,0,0,0
			c0,0,0.1,0.1,0.1,0.1c0,0,0,0,0,0c0,0,0,0,0.1,0c0,0,0,0,0,0c0,0,0,0,0.1,0c0,0,0.1,0,0.1,0c0.1,0,0.1,0,0.2,0l0.1,0l8.8,0
			c2.5,0,4.2-0.1,5.2-0.2c0,0,0,0,0,0c1-0.2,2-0.5,3.1-0.9c1.9-0.7,3.6-1.8,5.1-3.2c1.4-1.4,2.5-3,3.3-4.8c0.8-1.8,1.2-3.8,1.2-5.8
			c0-2.8-0.7-5.4-2.1-7.8c-1.4-2.4-3.3-4.2-5.7-5.4c-2.4-1.2-5.6-1.8-9.4-1.8l-9.5,0C33.6,44,33.6,44,33.5,44L33.5,44z M38.6,49.6
			l4.1,0c1.9,0,3.3,0.1,4,0.2c0.8,0.1,1.6,0.4,2.5,0.8c0.9,0.4,1.7,0.9,2.3,1.5c0,0,0,0,0,0c1.8,1.7,2.7,3.8,2.7,6.5
			c0,2.8-0.8,4.9-2.6,6.7c-0.6,0.6-1.2,1-1.8,1.4c-0.6,0.4-1.5,0.7-2.5,0.9c-1,0.2-2.5,0.4-4.5,0.4l-4.2,0L38.6,49.6L38.6,49.6z"/>
		<path id="path2211" class="st2" d="M67.3,53.6c0,4.1-3,7.4-6.7,7.4C57,61,54,57.7,54,53.6c0,0,0,0,0,0c0-4.1,3-7.4,6.7-7.4
			C64.3,46.2,67.3,49.5,67.3,53.6C67.3,53.6,67.3,53.6,67.3,53.6z"/>
		
			<linearGradient id="rect3372_00000069377253995618360880000017290547684711147946_" gradientUnits="userSpaceOnUse" x1="-3.1824" y1="105.3708" x2="44.796" y2="69.3458" gradientTransform="matrix(1.4709 0 0 -1.4584 32.1778 194.7747)">
			<stop  offset="0" style="stop-color:#FFFFFF"/>
			<stop  offset="1" style="stop-color:#FFFFFF;stop-opacity:0.3333"/>
		</linearGradient>
		
			<path id="rect3372" style="fill:none;stroke:url(#rect3372_00000069377253995618360880000017290547684711147946_);stroke-width:0.2827;stroke-linecap:round;stroke-linejoin:round;stroke-miterlimit:5.9004;" d="
			M32.9,39H70c2.1,0,3.8,2.3,3.8,5v29.7c0,2.8-1.7,5-3.8,5H32.9c-2.1,0-3.8-2.3-3.8-5V44C29.1,41.3,30.8,39,32.9,39z"/>
		<path id="rect3464" class="st4" d="M32.8,38.2h37.3c2.4,0,4.4,2.6,4.4,5.9v29.7c0,3.3-2,5.9-4.4,5.9H32.8c-2.4,0-4.4-2.6-4.4-5.9
			V44.1C28.4,40.8,30.3,38.2,32.8,38.2z"/>
		<path id="path2222" class="st2" d="M70.4,45.5c0,1.3-1,2.4-2.1,2.4c-1.2,0-2.1-1.1-2.1-2.4c0,0,0,0,0,0c0-1.3,1-2.4,2.1-2.4
			C69.4,43.2,70.4,44.2,70.4,45.5C70.4,45.5,70.4,45.5,70.4,45.5z"/>
	</g>
</g>
</svg>
