<?xml version="1.0" encoding="utf-8"?>
<!-- Generator: Adobe Illustrator 27.9.0, SVG Export Plug-In . SVG Version: 6.00 Build 0)  -->
<svg version="1.1" id="Layer_1" xmlns="http://www.w3.org/2000/svg" xmlns:xlink="http://www.w3.org/1999/xlink" x="0px" y="0px"
	 viewBox="0 0 85 85" style="enable-background:new 0 0 85 85;" xml:space="preserve">
<style type="text/css">
	.st0{fill:url(#path34_00000131341818514548829160000010460288929958118056_);}
	.st1{fill:url(#path36_00000089552332307031197430000010033818229009268155_);}
	.st2{fill:url(#path38_00000028296134239764114770000005893658567587459766_);}
	.st3{fill:url(#path40_00000101798697791442187360000017232874994075503766_);}
	.st4{fill:url(#path42_00000144336661597800515850000017066916492444774063_);}
	.st5{fill:url(#path44_00000101063265444159266090000006080271440636155839_);}
</style>
<g id="g4600">
	
		<linearGradient id="path34_00000048470423328182182290000008816372505735655302_" gradientUnits="userSpaceOnUse" x1="-1954.5641" y1="-42507.1797" x2="-1582.8074" y2="-42110.5742" gradientTransform="matrix(0.12 0 0 0.12 258.83 5100.6997)">
		<stop  offset="0" style="stop-color:#F89F3C"/>
		<stop  offset="1" style="stop-color:#F6964E"/>
	</linearGradient>
	<path id="path34" style="fill:url(#path34_00000048470423328182182290000008816372505735655302_);" d="M79.4,58.2
		c0-0.3,0.1-0.6,0.1-1c0-0.4-23.3-22.5-23.3-22.5h-0.6C55.6,34.7,79.2,59.7,79.4,58.2L79.4,58.2L79.4,58.2z"/>
	
		<linearGradient id="path36_00000062192871422917143310000012828762021190214079_" gradientUnits="userSpaceOnUse" x1="-2216.5845" y1="-42424.7109" x2="-1866.8357" y2="-42083.6016" gradientTransform="matrix(0.12 0 0 0.12 259.35 5106.7998)">
		<stop  offset="0" style="stop-color:#F89F3C"/>
		<stop  offset="1" style="stop-color:#F6964E"/>
	</linearGradient>
	<path id="path36" style="fill:url(#path36_00000062192871422917143310000012828762021190214079_);" d="M29.6,50.6
		c0,0.1-0.1,0.1-0.1,0.2c0,0.1-0.1,0.1-0.1,0.2c-0.7,1.5,10.4,12.4,11.3,11.1c0-0.1,0.1-0.1,0.1-0.2c0-0.1,0.1-0.1,0.1-0.2
		C41.7,60.6,30,49.9,29.6,50.6L29.6,50.6z"/>
	
		<linearGradient id="path38_00000143589918019448144360000010439737891645916564_" gradientUnits="userSpaceOnUse" x1="-2135.1816" y1="-42330.5664" x2="-1822.7144" y2="-41972.3242" gradientTransform="matrix(0.12 0 0 0.12 258.41 5095.8501)">
		<stop  offset="0" style="stop-color:#F89F3C"/>
		<stop  offset="1" style="stop-color:#F6964E"/>
	</linearGradient>
	<path id="path38" style="fill:url(#path38_00000143589918019448144360000010439737891645916564_);" d="M45.4,65.9
		c0,0.1-0.3,0.4-0.5,0.6c0,0.1,10.9,10.9,10.9,10.9h1C56.8,77.4,46.5,66.3,45.4,65.9z"/>
	
		<linearGradient id="path40_00000172425219845504732260000011999261368401512383_" gradientUnits="userSpaceOnUse" x1="-2233.9897" y1="-42637.1367" x2="-1803.1317" y2="-42068.3945" gradientTransform="matrix(0.12 0 0 0.12 257.57 5086.4497)">
		<stop  offset="0" style="stop-color:#F16D58"/>
		<stop  offset="1" style="stop-color:#F89F3C"/>
	</linearGradient>
	<path id="path40" style="fill:url(#path40_00000172425219845504732260000011999261368401512383_);" d="M79.5,57.1
		C79,68.4,69.6,77.4,58.2,77.4h-1.5L45.2,66.2c0.9-1.3,1.8-2.7,2.6-4.1h10.4c3.3,0,6-2.7,6-6s-2.7-6-6-6H52c0.5-2.5,0.7-5,0.7-7.6
		c0-2.6-0.3-5.2-0.7-7.8h3.8L79.4,58C79.4,57.7,79.5,57.4,79.5,57.1L79.5,57.1z M11.7,7.4H5.5v15.4h6.2c10.8,0,19.7,8.8,19.7,19.7
		c0,3-0.7,5.7-1.8,8.3l11.3,11.2c3.7-5.6,5.9-12.2,5.9-19.4C46.8,23.2,31,7.4,11.7,7.4L11.7,7.4z"/>
	
		<linearGradient id="path42_00000154409521900197316980000007657804133763323323_" gradientUnits="userSpaceOnUse" x1="-1802.6479" y1="-42578.7383" x2="-1377.2861" y2="-42299.2383" gradientTransform="matrix(0.11 0 0 0.12 259.535 5134.3101)">
		<stop  offset="0" style="stop-color:#B74E51"/>
		<stop  offset="1" style="stop-color:#F58D48"/>
	</linearGradient>
	<path id="path42" style="fill:url(#path42_00000154409521900197316980000007657804133763323323_);" d="M58.2,7.4H33
		c6.1,3.7,11.2,9.1,14.7,15.4h10.5c3.3,0,6,2.7,6,6c0,3.3-2.7,6-6,6h-2.3L79.4,58c0.1-0.6,0.1-1.3,0.1-1.9c0-5.2-1.9-9.9-5-13.7
		c3.1-3.7,5-8.5,5-13.6C79.5,17,69.9,7.4,58.2,7.4L58.2,7.4z"/>
	
		<linearGradient id="path44_00000004547548461483770330000000666950770036980614_" gradientUnits="userSpaceOnUse" x1="-1375.274" y1="-54794.8242" x2="-1360.0256" y2="-54408.9531" gradientTransform="matrix(0.16 0 0 9.000000e-02 245.25 4925.8149)">
		<stop  offset="0" style="stop-color:#F89F3C"/>
		<stop  offset="1" style="stop-color:#F6964E"/>
	</linearGradient>
	<path id="path44" style="fill:url(#path44_00000004547548461483770330000000666950770036980614_);" d="M56.6,77.4H33.2
		c4.7-2.9,8.8-6.8,12-11.3L56.6,77.4L56.6,77.4z M40.9,61.9L29.5,50.8c-3.1,6.7-9.9,11.4-17.8,11.4H5.5v15.4h6.2
		C23.8,77.5,34.6,71.3,40.9,61.9z"/>
</g>
</svg>
