<?xml version="1.0" encoding="utf-8"?>
<!-- Generator: Adobe Illustrator 27.9.0, SVG Export Plug-In . SVG Version: 6.00 Build 0)  -->
<svg version="1.1" id="Layer_1" xmlns="http://www.w3.org/2000/svg" xmlns:xlink="http://www.w3.org/1999/xlink" x="0px" y="0px"
	 viewBox="0 0 85 85" style="enable-background:new 0 0 85 85;" xml:space="preserve">
<style type="text/css">
	.st0{fill:#00D2B8;}
	.st1{fill:#55DDCA;}
	.st2{fill:#0081C6;}
	.st3{fill:#0079B3;}
	.st4{fill:#00A4E4;}
</style>
<g>
	<path class="st0" d="M26.7,26.5l-4.6-4.6l0,32.9l0.1,1.5c0,0.7,0.2,1.5,0.4,2.4l36.1,12.7l9-4l0,0L26.7,26.5"/>
	<path class="st1" d="M22.6,58.7L22.6,58.7C22.6,58.7,22.6,58.7,22.6,58.7C22.6,58.7,22.6,58.7,22.6,58.7z M67.7,67.5l-9,4
		L22.6,58.7c0.7,2.6,2.2,5.6,3.9,7.2l11.8,11.7l26.2,0L67.7,67.5L67.7,67.5L67.7,67.5z"/>
	<path class="st2" d="M8.1,43.1c-1.2,1.2-0.6,3.8,1.3,5.7l8.1,8.2l5.1,1.8c-0.2-0.8-0.4-1.7-0.4-2.4l-0.1-1.5l0-32.9L8.1,43.1
		L8.1,43.1z"/>
	<path class="st3" d="M59,22.3c-0.8-0.2-1.7-0.4-2.4-0.4l-1.6-0.1l-32.8,0l45.6,45.6h0l4-9L59,22.3"/>
	<path class="st4" d="M58.9,22.3C58.9,22.3,59,22.3,58.9,22.3L58.9,22.3C59,22.3,58.9,22.3,58.9,22.3L58.9,22.3z M66.2,26.2
		c-1.7-1.7-4.6-3.2-7.2-3.9l12.7,36.1l-4,9h0l9.8-3.1l0-26.8L66.2,26.2L66.2,26.2z"/>
	<path class="st0" d="M57.2,17.3L49,9.2c-1.9-1.9-4.5-2.5-5.7-1.3l-21.2,14l32.8,0l1.6,0.1c0.7,0,1.5,0.2,2.4,0.4L57.2,17.3
		L57.2,17.3z"/>
</g>
</svg>
