<?xml version="1.0" encoding="utf-8"?>
<!-- Generator: Adobe Illustrator 27.9.0, SVG Export Plug-In . SVG Version: 6.00 Build 0)  -->
<svg version="1.1" id="Layer_1" xmlns="http://www.w3.org/2000/svg" xmlns:xlink="http://www.w3.org/1999/xlink" x="0px" y="0px"
	 viewBox="0 0 85 85" style="enable-background:new 0 0 85 85;" xml:space="preserve">
<style type="text/css">
	.st0{fill-rule:evenodd;clip-rule:evenodd;fill:url(#SVGID_1_);}
	.st1{fill-rule:evenodd;clip-rule:evenodd;fill:url(#SVGID_00000119102240503765322840000008051175467163565467_);}
	.st2{fill-rule:evenodd;clip-rule:evenodd;fill:url(#SVGID_00000042697903244467645990000017059780859282593944_);}
	.st3{fill-rule:evenodd;clip-rule:evenodd;fill:url(#SVGID_00000131334492459289302570000003593800474531671975_);}
	.st4{fill-rule:evenodd;clip-rule:evenodd;fill:url(#SVGID_00000132808145507373248190000002008185027788675773_);}
	.st5{fill-rule:evenodd;clip-rule:evenodd;fill:url(#SVGID_00000153690809083414637410000017532050421565565583_);}
	.st6{fill-rule:evenodd;clip-rule:evenodd;fill:url(#SVGID_00000064319593635358100980000017687464247002864039_);}
	.st7{fill-rule:evenodd;clip-rule:evenodd;fill:#330A4C;fill-opacity:0.316;}
	.st8{fill-rule:evenodd;clip-rule:evenodd;fill:#FFFFFF;}
	.st9{fill-rule:evenodd;clip-rule:evenodd;fill:#EDEDED;fill-opacity:0.603;}
</style>
<g>
	
		<linearGradient id="SVGID_1_" gradientUnits="userSpaceOnUse" x1="-474.3051" y1="506.317" x2="-474.9016" y2="481.8474" gradientTransform="matrix(1.9588 0 0 -3.0202 972.2357 1537.7461)">
		<stop  offset="0" style="stop-color:#D9D8DC"/>
		<stop  offset="1" style="stop-color:#FFFFFF;stop-opacity:0.385"/>
	</linearGradient>
	<path class="st0" d="M44.7,2.7c-5.8,2.1-11.4,8.1-16.8,18c-8.1,14.9-18.6,36.2-4.2,53c6.7,7.8,17.7,12.4,32.2,5.1
		C67.5,73,70.7,56.2,66.6,48.4C58,32.1,49.2,28.1,46.9,18C45.3,11.3,44.6,6.2,44.7,2.7L44.7,2.7z"/>
	
		<linearGradient id="SVGID_00000051358983454149379230000002344828997088358334_" gradientUnits="userSpaceOnUse" x1="-511.2383" y1="481.2447" x2="-516.1187" y2="459.9737" gradientTransform="matrix(1.7247 0 0 -3.4301 923.8967 1658.0454)">
		<stop  offset="0" style="stop-color:#8D67AF;stop-opacity:0.672"/>
		<stop  offset="1" style="stop-color:#9F8DAF"/>
	</linearGradient>
	<path style="fill-rule:evenodd;clip-rule:evenodd;fill:url(#SVGID_00000051358983454149379230000002344828997088358334_);" d="
		M44.7,2.5c-5.8,2.1-11.5,8.1-16.8,18c-8.1,14.9-18.6,36.2-4.2,53c6.7,7.8,17.6,10.3,23.6,5.7c3.9-3,6.6-5.9,8.2-11.9
		c1.7-6.7,0.4-15.8-0.5-19.9c-1.1-5.3-1.5-11-1.1-17.3c-0.1-0.1-0.2-0.3-0.3-0.4c-3.1-3.8-5.6-7.2-6.6-11.8
		C45.3,11.1,44.6,6,44.7,2.5L44.7,2.5z"/>
	
		<linearGradient id="SVGID_00000102534162886668817710000006324331240283486856_" gradientUnits="userSpaceOnUse" x1="-488.011" y1="488.3149" x2="-488.011" y2="472.308" gradientTransform="matrix(1.8526 0 0 -3.1935 950.3116 1588.6317)">
		<stop  offset="0" style="stop-color:#26053D;stop-opacity:0.762"/>
		<stop  offset="1" style="stop-color:#B7B4B4;stop-opacity:0.278"/>
	</linearGradient>
	<path style="fill-rule:evenodd;clip-rule:evenodd;fill:url(#SVGID_00000102534162886668817710000006324331240283486856_);" d="
		M39.9,5.1c-5.4,4.3-9.5,11.5-12.1,21.6c-4,15.2-4.4,29.2-3,37.3C27.5,79.9,41.6,85.9,56,78.5c8.9-4.5,12.6-14.2,12.4-24.8
		c-0.2-10.9-21.3-23.3-25-32.4C40.9,15.3,39.7,9.9,39.9,5.1L39.9,5.1z"/>
	
		<linearGradient id="SVGID_00000084493299185283412580000012311679889729303997_" gradientUnits="userSpaceOnUse" x1="-400.2192" y1="586.2675" x2="-392.8158" y2="571.3688" gradientTransform="matrix(2.7906 0 0 -2.1201 1144.0103 1273.5664)">
		<stop  offset="0" style="stop-color:#91739F;stop-opacity:0.46"/>
		<stop  offset="1" style="stop-color:#32054F;stop-opacity:0.54"/>
	</linearGradient>
	<path style="fill-rule:evenodd;clip-rule:evenodd;fill:url(#SVGID_00000084493299185283412580000012311679889729303997_);" d="
		M53.7,33.6c6.5,8.4,7.9,14.2,4.3,17.5c-5.5,4.9-19,8.1-27.4,2.2c-5.6-4-7.7-12.5-6.4-25.6c-2.3,4.8-4.2,9.7-5.9,14.7
		c-1.6,5-2.1,10.1-1.4,15.5c2,4,6.9,6.8,14.6,8.1c11.6,2,22.6,1,29.9-2.7c4.9-2.5,7.2-4.9,7-7.4c0.2-3.6-0.9-7.1-3.4-10.3
		C62.7,42.3,58.9,38.3,53.7,33.6L53.7,33.6z"/>
	
		<linearGradient id="SVGID_00000183246417640914115200000006135408360630311067_" gradientUnits="userSpaceOnUse" x1="-445.1167" y1="502.1502" x2="-458.2749" y2="516.2075" gradientTransform="matrix(2.1421 0 0 -2.7618 1010.0959 1461.9053)">
		<stop  offset="0" style="stop-color:#463D49;stop-opacity:0.331"/>
		<stop  offset="1" style="stop-color:#340A50;stop-opacity:0.821"/>
	</linearGradient>
	<path style="fill-rule:evenodd;clip-rule:evenodd;fill:url(#SVGID_00000183246417640914115200000006135408360630311067_);" d="
		M28.2,25.2c-0.1,6,1.5,11.8,4.7,17.2c4.7,8.2,10.3,16.2,18.6,22.9c5.5,4.5,9.9,5.9,13.2,4.3c-2.7,4.9-5.6,7.2-8.7,7.1
		c-4.6-0.1-10.2-2.1-19.1-12.9c-6-7.2-10.1-14-12.3-20.4c0.3-2.5,0.7-5.1,1.1-7.6C26.1,33.5,26.9,29.9,28.2,25.2L28.2,25.2z"/>
	
		<linearGradient id="SVGID_00000031176655059417386220000013703301415042068394_" gradientUnits="userSpaceOnUse" x1="-531.452" y1="461.951" x2="-535.3679" y2="448.1909" gradientTransform="matrix(1.6004 0 0 -3.6968 898.2303 1736.3242)">
		<stop  offset="0" style="stop-color:#715383;stop-opacity:0.145"/>
		<stop  offset="1" style="stop-color:#F4F4F4;stop-opacity:0.234"/>
	</linearGradient>
	<path style="fill-rule:evenodd;clip-rule:evenodd;fill:url(#SVGID_00000031176655059417386220000013703301415042068394_);" d="
		M42.2,33.5c0.5,4.9,2.4,12.8,0,18c-2.4,5.2-13.6,14.7-10.5,23.1c3.1,8.3,10.6,6.5,15.3,2.6c4.7-3.8,7.2-10.1,7.8-14.5
		c0.6-4.4-1.3-12.9-2-20.2c-0.4-4.9-0.1-9.1,0.8-12.6l-1.4-1.8l-8.5-2.5C42.4,27.6,41.9,30.2,42.2,33.5L42.2,33.5z"/>
	
		<linearGradient id="SVGID_00000116924259858600172610000014055682603076047252_" gradientUnits="userSpaceOnUse" x1="-578.8536" y1="437.0966" x2="-591.361" y2="439.4502" gradientTransform="matrix(1.3853 0 0 -4.2705 853.8209 1904.7166)">
		<stop  offset="0" style="stop-color:#A5A1A8;stop-opacity:0.356"/>
		<stop  offset="1" style="stop-color:#370C50;stop-opacity:0.582"/>
	</linearGradient>
	<path style="fill-rule:evenodd;clip-rule:evenodd;fill:url(#SVGID_00000116924259858600172610000014055682603076047252_);" d="
		M45.2,9.1c-2.8,1.2-5.4,3.5-7.8,6.9c-3.7,5.2-5.6,8.3-4.2,18.5c0.9,6.8,1.6,13.1,2,18.9l11.9-34.7c-0.4-1.6-0.8-3.2-1.1-4.8
		C45.7,12.4,45.5,10.8,45.2,9.1z"/>
	<path class="st7" d="M47.1,18.8c-3,1.8-5.4,5.4-7,10.9c-1.7,5.5-3.2,13.1-4.6,23c1.8-6.3,3.1-10.8,3.7-13.6
		c0.9-4.2,1.2-10.2,3.6-14.2C44.4,22.1,45.8,20.1,47.1,18.8L47.1,18.8z"/>
	<path class="st8" d="M33.1,77.4c5,0.7,7.6,1.3,7.8,1.9c0.3,0.8-0.6,1.6-3.4,1.1C35.7,80.1,34.2,79.1,33.1,77.4z"/>
	<path class="st9" d="M35.6,9.1c-2.7,3.3-5.1,6.7-7.1,10.4S25,26,24.2,27.8c-0.3,1.3-0.4,3.3-0.4,6c0,2.6,0.2,5.5,0.7,8.8
		c0.4-6.2,1.6-12.4,3.6-18.3C30.1,18.2,32.6,13.2,35.6,9.1z"/>
</g>
</svg>
