<?xml version="1.0" encoding="utf-8"?>
<!-- Generator: Adobe Illustrator 27.9.0, SVG Export Plug-In . SVG Version: 6.00 Build 0)  -->
<svg version="1.1" id="Layer_1" xmlns="http://www.w3.org/2000/svg" xmlns:xlink="http://www.w3.org/1999/xlink" x="0px" y="0px"
	 viewBox="0 0 85 85" style="enable-background:new 0 0 85 85;" xml:space="preserve">
<style type="text/css">
	.st0{fill:#0C8BEA;}
	.st1{fill:none;stroke:#FFFFFF;stroke-width:1.3392;stroke-miterlimit:10;}
	.st2{fill:#FFFFFF;}
</style>
<g>
	<g>
		<g>
			<path class="st0" d="M76.7,19.9L76.7,19.9c0-0.2,0.1-0.3,0.3-0.3h3.3c0.1,0,0.3-0.1,0.3-0.3v-1.3c0-0.1-0.1-0.3-0.3-0.3H77
				c-0.1,0-0.3-0.1-0.3-0.3v0c0-0.1-0.1-0.3-0.3-0.3h-2.9c-0.1,0-0.3-0.1-0.3-0.3v-3c0-1.2-1-2.2-2.2-2.2h-3c-0.1,0-0.3-0.1-0.3-0.3
				V8.6c0-0.1-0.1-0.3-0.3-0.3h0c-0.1,0-0.3-0.1-0.3-0.3V4.8c0-0.1-0.1-0.3-0.3-0.3h-1.3c-0.1,0-0.3,0.1-0.3,0.3V8
				c0,0.1-0.1,0.3-0.3,0.3h0c-0.1,0-0.3,0.1-0.3,0.3v2.9c0,0.1-0.1,0.3-0.3,0.3H60c-0.1,0-0.3-0.1-0.3-0.3V8.6
				c0-0.1-0.1-0.3-0.3-0.3h0c-0.1,0-0.3-0.1-0.3-0.3V4.8c0-0.1-0.1-0.3-0.3-0.3h-1.3c-0.1,0-0.3,0.1-0.3,0.3V8
				c0,0.1-0.1,0.3-0.3,0.3h0c-0.1,0-0.3,0.1-0.3,0.3v2.9c0,0.1-0.1,0.3-0.3,0.3h-4.5c-0.1,0-0.3-0.1-0.3-0.3V8.6
				c0-0.1-0.1-0.3-0.3-0.3h0c-0.1,0-0.3-0.1-0.3-0.3V4.8c0-0.1-0.1-0.3-0.3-0.3h-1.3c-0.1,0-0.3,0.1-0.3,0.3V8
				c0,0.1-0.1,0.3-0.3,0.3h0c-0.1,0-0.3,0.1-0.3,0.3v2.9c0,0.1-0.1,0.3-0.3,0.3h-4.5c-0.1,0-0.3-0.1-0.3-0.3V8.6
				c0-0.1-0.1-0.3-0.3-0.3h0c-0.1,0-0.3-0.1-0.3-0.3V4.8c0-0.1-0.1-0.3-0.3-0.3h-1.3c-0.1,0-0.3,0.1-0.3,0.3V8
				c0,0.1-0.1,0.3-0.3,0.3h0c-0.1,0-0.3,0.1-0.3,0.3v2.9c0,0.1-0.1,0.3-0.3,0.3h-4.5c-0.1,0-0.3-0.1-0.3-0.3V8.6
				c0-0.1-0.1-0.3-0.3-0.3h0c-0.1,0-0.3-0.1-0.3-0.3V4.8c0-0.1-0.1-0.3-0.3-0.3h-1.3c-0.1,0-0.3,0.1-0.3,0.3V8
				c0,0.1-0.1,0.3-0.3,0.3h0c-0.1,0-0.3,0.1-0.3,0.3v2.9c0,0.1-0.1,0.3-0.3,0.3h-4.5c-0.1,0-0.3-0.1-0.3-0.3V8.6
				c0-0.1-0.1-0.3-0.3-0.3h0c-0.1,0-0.3-0.1-0.3-0.3V4.8c0-0.1-0.1-0.3-0.3-0.3H26c-0.1,0-0.3,0.1-0.3,0.3V8c0,0.1-0.1,0.3-0.3,0.3
				h0c-0.1,0-0.3,0.1-0.3,0.3v2.9c0,0.1-0.1,0.3-0.3,0.3h-4.5c-0.1,0-0.3-0.1-0.3-0.3V8.6c0-0.1-0.1-0.3-0.3-0.3h0
				c-0.1,0-0.3-0.1-0.3-0.3V4.8c0-0.1-0.1-0.3-0.3-0.3h-1.3c-0.1,0-0.3,0.1-0.3,0.3V8c0,0.1-0.1,0.3-0.3,0.3h0
				c-0.1,0-0.3,0.1-0.3,0.3v2.9c0,0.1-0.1,0.3-0.3,0.3h-3c-1.2,0-2.2,1-2.2,2.2v3c0,0.1-0.1,0.3-0.3,0.3H8.6c-0.1,0-0.3,0.1-0.3,0.3
				v0c0,0.1-0.1,0.3-0.3,0.3H4.8c-0.1,0-0.3,0.1-0.3,0.3v1.3c0,0.1,0.1,0.3,0.3,0.3H8c0.1,0,0.3,0.1,0.3,0.3v0
				c0,0.1,0.1,0.3,0.3,0.3h2.9c0.1,0,0.3,0.1,0.3,0.3V25c0,0.1-0.1,0.3-0.3,0.3H8.6c-0.1,0-0.3,0.1-0.3,0.3v0c0,0.1-0.1,0.3-0.3,0.3
				H4.8c-0.1,0-0.3,0.1-0.3,0.3v1.3c0,0.1,0.1,0.3,0.3,0.3H8c0.1,0,0.3,0.1,0.3,0.3v0c0,0.1,0.1,0.3,0.3,0.3h2.9
				c0.1,0,0.3,0.1,0.3,0.3v4.5c0,0.1-0.1,0.3-0.3,0.3H8.6c-0.1,0-0.3,0.1-0.3,0.3v0c0,0.1-0.1,0.3-0.3,0.3H4.8
				c-0.1,0-0.3,0.1-0.3,0.3v1.3c0,0.1,0.1,0.3,0.3,0.3H8c0.1,0,0.3,0.1,0.3,0.3v0c0,0.1,0.1,0.3,0.3,0.3h2.9c0.1,0,0.3,0.1,0.3,0.3
				v4.5c0,0.1-0.1,0.3-0.3,0.3H8.6c-0.1,0-0.3,0.1-0.3,0.3v0c0,0.1-0.1,0.3-0.3,0.3H4.8c-0.1,0-0.3,0.1-0.3,0.3v1.3
				c0,0.1,0.1,0.3,0.3,0.3H8c0.1,0,0.3,0.1,0.3,0.3v0c0,0.1,0.1,0.3,0.3,0.3h2.9c0.1,0,0.3,0.1,0.3,0.3v4.5c0,0.1-0.1,0.3-0.3,0.3
				H8.6c-0.1,0-0.3,0.1-0.3,0.3v0c0,0.1-0.1,0.3-0.3,0.3H4.8c-0.1,0-0.3,0.1-0.3,0.3v1.3c0,0.1,0.1,0.3,0.3,0.3H8
				c0.1,0,0.3,0.1,0.3,0.3v0c0,0.1,0.1,0.3,0.3,0.3h2.9c0.1,0,0.3,0.1,0.3,0.3v4.5c0,0.1-0.1,0.3-0.3,0.3H8.6
				c-0.1,0-0.3,0.1-0.3,0.3v0c0,0.1-0.1,0.3-0.3,0.3H4.8c-0.1,0-0.3,0.1-0.3,0.3V59c0,0.1,0.1,0.3,0.3,0.3H8c0.1,0,0.3,0.1,0.3,0.3
				v0c0,0.1,0.1,0.3,0.3,0.3h2.9c0.1,0,0.3,0.1,0.3,0.3v4.5c0,0.1-0.1,0.3-0.3,0.3H8.6c-0.1,0-0.3,0.1-0.3,0.3v0
				c0,0.1-0.1,0.3-0.3,0.3H4.8c-0.1,0-0.3,0.1-0.3,0.3v1.3c0,0.1,0.1,0.3,0.3,0.3H8c0.1,0,0.3,0.1,0.3,0.3v0c0,0.1,0.1,0.3,0.3,0.3
				h2.9c0.1,0,0.3,0.1,0.3,0.3v3c0,1.2,1,2.2,2.2,2.2h3c0.1,0,0.3,0.1,0.3,0.3v2.9c0,0.1,0.1,0.3,0.3,0.3h0c0.1,0,0.3,0.1,0.3,0.3
				v3.3c0,0.1,0.1,0.3,0.3,0.3h1.3c0.1,0,0.3-0.1,0.3-0.3V77c0-0.1,0.1-0.3,0.3-0.3h0c0.1,0,0.3-0.1,0.3-0.3v-2.9
				c0-0.1,0.1-0.3,0.3-0.3H25c0.1,0,0.3,0.1,0.3,0.3v2.9c0,0.1,0.1,0.3,0.3,0.3h0c0.1,0,0.3,0.1,0.3,0.3v3.3c0,0.1,0.1,0.3,0.3,0.3
				h1.3c0.1,0,0.3-0.1,0.3-0.3V77c0-0.1,0.1-0.3,0.3-0.3h0c0.1,0,0.3-0.1,0.3-0.3v-2.9c0-0.1,0.1-0.3,0.3-0.3h4.5
				c0.1,0,0.3,0.1,0.3,0.3v2.9c0,0.1,0.1,0.3,0.3,0.3h0c0.1,0,0.3,0.1,0.3,0.3v3.3c0,0.1,0.1,0.3,0.3,0.3h1.3c0.1,0,0.3-0.1,0.3-0.3
				V77c0-0.1,0.1-0.3,0.3-0.3h0c0.1,0,0.3-0.1,0.3-0.3v-2.9c0-0.1,0.1-0.3,0.3-0.3h4.5c0.1,0,0.3,0.1,0.3,0.3v2.9
				c0,0.1,0.1,0.3,0.3,0.3h0c0.1,0,0.3,0.1,0.3,0.3v3.3c0,0.1,0.1,0.3,0.3,0.3h1.3c0.1,0,0.3-0.1,0.3-0.3V77c0-0.1,0.1-0.3,0.3-0.3
				h0c0.1,0,0.3-0.1,0.3-0.3v-2.9c0-0.1,0.1-0.3,0.3-0.3h4.5c0.1,0,0.3,0.1,0.3,0.3v2.9c0,0.1,0.1,0.3,0.3,0.3h0
				c0.1,0,0.3,0.1,0.3,0.3v3.3c0,0.1,0.1,0.3,0.3,0.3h1.3c0.1,0,0.3-0.1,0.3-0.3V77c0-0.1,0.1-0.3,0.3-0.3h0c0.1,0,0.3-0.1,0.3-0.3
				v-2.9c0-0.1,0.1-0.3,0.3-0.3h4.5c0.1,0,0.3,0.1,0.3,0.3v2.9c0,0.1,0.1,0.3,0.3,0.3h0c0.1,0,0.3,0.1,0.3,0.3v3.3
				c0,0.1,0.1,0.3,0.3,0.3H59c0.1,0,0.3-0.1,0.3-0.3V77c0-0.1,0.1-0.3,0.3-0.3h0c0.1,0,0.3-0.1,0.3-0.3v-2.9c0-0.1,0.1-0.3,0.3-0.3
				h4.5c0.1,0,0.3,0.1,0.3,0.3v2.9c0,0.1,0.1,0.3,0.3,0.3h0c0.1,0,0.3,0.1,0.3,0.3v3.3c0,0.1,0.1,0.3,0.3,0.3h1.3
				c0.1,0,0.3-0.1,0.3-0.3V77c0-0.1,0.1-0.3,0.3-0.3h0c0.1,0,0.3-0.1,0.3-0.3v-2.9c0-0.1,0.1-0.3,0.3-0.3h3c1.2,0,2.2-1,2.2-2.2v-3
				c0-0.1,0.1-0.3,0.3-0.3h2.9c0.1,0,0.3-0.1,0.3-0.3v0c0-0.1,0.1-0.3,0.3-0.3h3.3c0.1,0,0.3-0.1,0.3-0.3v-1.3
				c0-0.1-0.1-0.3-0.3-0.3H77c-0.1,0-0.3-0.1-0.3-0.3v0c0-0.1-0.1-0.3-0.3-0.3h-2.9c-0.1,0-0.3-0.1-0.3-0.3V60
				c0-0.1,0.1-0.3,0.3-0.3h2.9c0.1,0,0.3-0.1,0.3-0.3v0c0-0.1,0.1-0.3,0.3-0.3h3.3c0.1,0,0.3-0.1,0.3-0.3v-1.3
				c0-0.1-0.1-0.3-0.3-0.3H77c-0.1,0-0.3-0.1-0.3-0.3v0c0-0.1-0.1-0.3-0.3-0.3h-2.9c-0.1,0-0.3-0.1-0.3-0.3v-4.5
				c0-0.1,0.1-0.3,0.3-0.3h2.9c0.1,0,0.3-0.1,0.3-0.3v0c0-0.1,0.1-0.3,0.3-0.3h3.3c0.1,0,0.3-0.1,0.3-0.3v-1.3
				c0-0.1-0.1-0.3-0.3-0.3H77c-0.1,0-0.3-0.1-0.3-0.3v0c0-0.1-0.1-0.3-0.3-0.3h-2.9c-0.1,0-0.3-0.1-0.3-0.3v-4.5
				c0-0.1,0.1-0.3,0.3-0.3h2.9c0.1,0,0.3-0.1,0.3-0.3v0c0-0.1,0.1-0.3,0.3-0.3h3.3c0.1,0,0.3-0.1,0.3-0.3v-1.3
				c0-0.1-0.1-0.3-0.3-0.3H77c-0.1,0-0.3-0.1-0.3-0.3v0c0-0.1-0.1-0.3-0.3-0.3h-2.9c-0.1,0-0.3-0.1-0.3-0.3v-4.5
				c0-0.1,0.1-0.3,0.3-0.3h2.9c0.1,0,0.3-0.1,0.3-0.3v0c0-0.1,0.1-0.3,0.3-0.3h3.3c0.1,0,0.3-0.1,0.3-0.3v-1.3
				c0-0.1-0.1-0.3-0.3-0.3H77c-0.1,0-0.3-0.1-0.3-0.3v0c0-0.1-0.1-0.3-0.3-0.3h-2.9c-0.1,0-0.3-0.1-0.3-0.3v-4.5
				c0-0.1,0.1-0.3,0.3-0.3h2.9c0.1,0,0.3-0.1,0.3-0.3v0c0-0.1,0.1-0.3,0.3-0.3h3.3c0.1,0,0.3-0.1,0.3-0.3V26c0-0.1-0.1-0.3-0.3-0.3
				H77c-0.1,0-0.3-0.1-0.3-0.3v0c0-0.1-0.1-0.3-0.3-0.3h-2.9c-0.1,0-0.3-0.1-0.3-0.3v-4.5c0-0.1,0.1-0.3,0.3-0.3h2.9
				C76.6,20.2,76.7,20,76.7,19.9z"/>
		</g>
		<path class="st0" d="M76.7,19.9L76.7,19.9c0-0.2,0.1-0.3,0.3-0.3h3.3c0.1,0,0.3-0.1,0.3-0.3v-1.3c0-0.1-0.1-0.3-0.3-0.3H77
			c-0.1,0-0.3-0.1-0.3-0.3v0c0-0.1-0.1-0.3-0.3-0.3h-2.9c-0.1,0-0.3-0.1-0.3-0.3v-3c0-1.2-1-2.2-2.2-2.2h-3c-0.1,0-0.3-0.1-0.3-0.3
			V8.6c0-0.1-0.1-0.3-0.3-0.3h0c-0.1,0-0.3-0.1-0.3-0.3V4.8c0-0.1-0.1-0.3-0.3-0.3h-1.3c-0.1,0-0.3,0.1-0.3,0.3V8
			c0,0.1-0.1,0.3-0.3,0.3h0c-0.1,0-0.3,0.1-0.3,0.3v2.9c0,0.1-0.1,0.3-0.3,0.3H60c-0.1,0-0.3-0.1-0.3-0.3V8.6c0-0.1-0.1-0.3-0.3-0.3
			h0c-0.1,0-0.3-0.1-0.3-0.3V4.8c0-0.1-0.1-0.3-0.3-0.3h-1.3c-0.1,0-0.3,0.1-0.3,0.3V8c0,0.1-0.1,0.3-0.3,0.3h0
			c-0.1,0-0.3,0.1-0.3,0.3v2.9c0,0.1-0.1,0.3-0.3,0.3h-4.5c-0.1,0-0.3-0.1-0.3-0.3V8.6c0-0.1-0.1-0.3-0.3-0.3h0
			c-0.1,0-0.3-0.1-0.3-0.3V4.8c0-0.1-0.1-0.3-0.3-0.3h-1.3c-0.1,0-0.3,0.1-0.3,0.3V8c0,0.1-0.1,0.3-0.3,0.3h0
			c-0.1,0-0.3,0.1-0.3,0.3v2.9c0,0.1-0.1,0.3-0.3,0.3h-4.5c-0.1,0-0.3-0.1-0.3-0.3V8.6c0-0.1-0.1-0.3-0.3-0.3h0
			c-0.1,0-0.3-0.1-0.3-0.3V4.8c0-0.1-0.1-0.3-0.3-0.3h-1.3c-0.1,0-0.3,0.1-0.3,0.3V8c0,0.1-0.1,0.3-0.3,0.3h0
			c-0.1,0-0.3,0.1-0.3,0.3v2.9c0,0.1-0.1,0.3-0.3,0.3h-4.5c-0.1,0-0.3-0.1-0.3-0.3V8.6c0-0.1-0.1-0.3-0.3-0.3h0
			c-0.1,0-0.3-0.1-0.3-0.3V4.8c0-0.1-0.1-0.3-0.3-0.3h-1.3c-0.1,0-0.3,0.1-0.3,0.3V8c0,0.1-0.1,0.3-0.3,0.3h0
			c-0.1,0-0.3,0.1-0.3,0.3v2.9c0,0.1-0.1,0.3-0.3,0.3h-4.5c-0.1,0-0.3-0.1-0.3-0.3V8.6c0-0.1-0.1-0.3-0.3-0.3h0
			c-0.1,0-0.3-0.1-0.3-0.3V4.8c0-0.1-0.1-0.3-0.3-0.3H26c-0.1,0-0.3,0.1-0.3,0.3V8c0,0.1-0.1,0.3-0.3,0.3h0c-0.1,0-0.3,0.1-0.3,0.3
			v2.9c0,0.1-0.1,0.3-0.3,0.3h-4.5c-0.1,0-0.3-0.1-0.3-0.3V8.6c0-0.1-0.1-0.3-0.3-0.3h0c-0.1,0-0.3-0.1-0.3-0.3V4.8
			c0-0.1-0.1-0.3-0.3-0.3h-1.3c-0.1,0-0.3,0.1-0.3,0.3V8c0,0.1-0.1,0.3-0.3,0.3h0c-0.1,0-0.3,0.1-0.3,0.3v2.9c0,0.1-0.1,0.3-0.3,0.3
			h-3c-1.2,0-2.2,1-2.2,2.2v3c0,0.1-0.1,0.3-0.3,0.3H8.6c-0.1,0-0.3,0.1-0.3,0.3v0c0,0.1-0.1,0.3-0.3,0.3H4.8
			c-0.1,0-0.3,0.1-0.3,0.3v1.3c0,0.1,0.1,0.3,0.3,0.3H8c0.1,0,0.3,0.1,0.3,0.3v0c0,0.1,0.1,0.3,0.3,0.3h2.9c0.1,0,0.3,0.1,0.3,0.3
			V25c0,0.1-0.1,0.3-0.3,0.3H8.6c-0.1,0-0.3,0.1-0.3,0.3v0c0,0.1-0.1,0.3-0.3,0.3H4.8c-0.1,0-0.3,0.1-0.3,0.3v1.3
			c0,0.1,0.1,0.3,0.3,0.3H8c0.1,0,0.3,0.1,0.3,0.3v0c0,0.1,0.1,0.3,0.3,0.3h2.9c0.1,0,0.3,0.1,0.3,0.3v4.5c0,0.1-0.1,0.3-0.3,0.3
			H8.6c-0.1,0-0.3,0.1-0.3,0.3v0c0,0.1-0.1,0.3-0.3,0.3H4.8c-0.1,0-0.3,0.1-0.3,0.3v1.3c0,0.1,0.1,0.3,0.3,0.3H8
			c0.1,0,0.3,0.1,0.3,0.3v0c0,0.1,0.1,0.3,0.3,0.3h2.9c0.1,0,0.3,0.1,0.3,0.3v4.5c0,0.1-0.1,0.3-0.3,0.3H8.6c-0.1,0-0.3,0.1-0.3,0.3
			v0c0,0.1-0.1,0.3-0.3,0.3H4.8c-0.1,0-0.3,0.1-0.3,0.3v1.3c0,0.1,0.1,0.3,0.3,0.3H8c0.1,0,0.3,0.1,0.3,0.3v0c0,0.1,0.1,0.3,0.3,0.3
			h2.9c0.1,0,0.3,0.1,0.3,0.3v4.5c0,0.1-0.1,0.3-0.3,0.3H8.6c-0.1,0-0.3,0.1-0.3,0.3v0c0,0.1-0.1,0.3-0.3,0.3H4.8
			c-0.1,0-0.3,0.1-0.3,0.3v1.3c0,0.1,0.1,0.3,0.3,0.3H8c0.1,0,0.3,0.1,0.3,0.3v0c0,0.1,0.1,0.3,0.3,0.3h2.9c0.1,0,0.3,0.1,0.3,0.3
			v4.5c0,0.1-0.1,0.3-0.3,0.3H8.6c-0.1,0-0.3,0.1-0.3,0.3v0c0,0.1-0.1,0.3-0.3,0.3H4.8c-0.1,0-0.3,0.1-0.3,0.3V59
			c0,0.1,0.1,0.3,0.3,0.3H8c0.1,0,0.3,0.1,0.3,0.3v0c0,0.1,0.1,0.3,0.3,0.3h2.9c0.1,0,0.3,0.1,0.3,0.3v4.5c0,0.1-0.1,0.3-0.3,0.3
			H8.6c-0.1,0-0.3,0.1-0.3,0.3v0c0,0.1-0.1,0.3-0.3,0.3H4.8c-0.1,0-0.3,0.1-0.3,0.3v1.3c0,0.1,0.1,0.3,0.3,0.3H8
			c0.1,0,0.3,0.1,0.3,0.3v0c0,0.1,0.1,0.3,0.3,0.3h2.9c0.1,0,0.3,0.1,0.3,0.3v3c0,1.2,1,2.2,2.2,2.2h3c0.1,0,0.3,0.1,0.3,0.3v2.9
			c0,0.1,0.1,0.3,0.3,0.3h0c0.1,0,0.3,0.1,0.3,0.3v3.3c0,0.1,0.1,0.3,0.3,0.3h1.3c0.1,0,0.3-0.1,0.3-0.3V77c0-0.1,0.1-0.3,0.3-0.3h0
			c0.1,0,0.3-0.1,0.3-0.3v-2.9c0-0.1,0.1-0.3,0.3-0.3H25c0.1,0,0.3,0.1,0.3,0.3v2.9c0,0.1,0.1,0.3,0.3,0.3h0c0.1,0,0.3,0.1,0.3,0.3
			v3.3c0,0.1,0.1,0.3,0.3,0.3h1.3c0.1,0,0.3-0.1,0.3-0.3V77c0-0.1,0.1-0.3,0.3-0.3h0c0.1,0,0.3-0.1,0.3-0.3v-2.9
			c0-0.1,0.1-0.3,0.3-0.3h4.5c0.1,0,0.3,0.1,0.3,0.3v2.9c0,0.1,0.1,0.3,0.3,0.3h0c0.1,0,0.3,0.1,0.3,0.3v3.3c0,0.1,0.1,0.3,0.3,0.3
			h1.3c0.1,0,0.3-0.1,0.3-0.3V77c0-0.1,0.1-0.3,0.3-0.3h0c0.1,0,0.3-0.1,0.3-0.3v-2.9c0-0.1,0.1-0.3,0.3-0.3h4.5
			c0.1,0,0.3,0.1,0.3,0.3v2.9c0,0.1,0.1,0.3,0.3,0.3h0c0.1,0,0.3,0.1,0.3,0.3v3.3c0,0.1,0.1,0.3,0.3,0.3h1.3c0.1,0,0.3-0.1,0.3-0.3
			V77c0-0.1,0.1-0.3,0.3-0.3h0c0.1,0,0.3-0.1,0.3-0.3v-2.9c0-0.1,0.1-0.3,0.3-0.3h4.5c0.1,0,0.3,0.1,0.3,0.3v2.9
			c0,0.1,0.1,0.3,0.3,0.3h0c0.1,0,0.3,0.1,0.3,0.3v3.3c0,0.1,0.1,0.3,0.3,0.3h1.3c0.1,0,0.3-0.1,0.3-0.3V77c0-0.1,0.1-0.3,0.3-0.3h0
			c0.1,0,0.3-0.1,0.3-0.3v-2.9c0-0.1,0.1-0.3,0.3-0.3h4.5c0.1,0,0.3,0.1,0.3,0.3v2.9c0,0.1,0.1,0.3,0.3,0.3h0c0.1,0,0.3,0.1,0.3,0.3
			v3.3c0,0.1,0.1,0.3,0.3,0.3H59c0.1,0,0.3-0.1,0.3-0.3V77c0-0.1,0.1-0.3,0.3-0.3h0c0.1,0,0.3-0.1,0.3-0.3v-2.9
			c0-0.1,0.1-0.3,0.3-0.3h4.5c0.1,0,0.3,0.1,0.3,0.3v2.9c0,0.1,0.1,0.3,0.3,0.3h0c0.1,0,0.3,0.1,0.3,0.3v3.3c0,0.1,0.1,0.3,0.3,0.3
			h1.3c0.1,0,0.3-0.1,0.3-0.3V77c0-0.1,0.1-0.3,0.3-0.3h0c0.1,0,0.3-0.1,0.3-0.3v-2.9c0-0.1,0.1-0.3,0.3-0.3h3c1.2,0,2.2-1,2.2-2.2
			v-3c0-0.1,0.1-0.3,0.3-0.3h2.9c0.1,0,0.3-0.1,0.3-0.3v0c0-0.1,0.1-0.3,0.3-0.3h3.3c0.1,0,0.3-0.1,0.3-0.3v-1.3
			c0-0.1-0.1-0.3-0.3-0.3H77c-0.1,0-0.3-0.1-0.3-0.3v0c0-0.1-0.1-0.3-0.3-0.3h-2.9c-0.1,0-0.3-0.1-0.3-0.3V60c0-0.1,0.1-0.3,0.3-0.3
			h2.9c0.1,0,0.3-0.1,0.3-0.3v0c0-0.1,0.1-0.3,0.3-0.3h3.3c0.1,0,0.3-0.1,0.3-0.3v-1.3c0-0.1-0.1-0.3-0.3-0.3H77
			c-0.1,0-0.3-0.1-0.3-0.3v0c0-0.1-0.1-0.3-0.3-0.3h-2.9c-0.1,0-0.3-0.1-0.3-0.3v-4.5c0-0.1,0.1-0.3,0.3-0.3h2.9
			c0.1,0,0.3-0.1,0.3-0.3v0c0-0.1,0.1-0.3,0.3-0.3h3.3c0.1,0,0.3-0.1,0.3-0.3v-1.3c0-0.1-0.1-0.3-0.3-0.3H77c-0.1,0-0.3-0.1-0.3-0.3
			v0c0-0.1-0.1-0.3-0.3-0.3h-2.9c-0.1,0-0.3-0.1-0.3-0.3v-4.5c0-0.1,0.1-0.3,0.3-0.3h2.9c0.1,0,0.3-0.1,0.3-0.3v0
			c0-0.1,0.1-0.3,0.3-0.3h3.3c0.1,0,0.3-0.1,0.3-0.3v-1.3c0-0.1-0.1-0.3-0.3-0.3H77c-0.1,0-0.3-0.1-0.3-0.3v0c0-0.1-0.1-0.3-0.3-0.3
			h-2.9c-0.1,0-0.3-0.1-0.3-0.3v-4.5c0-0.1,0.1-0.3,0.3-0.3h2.9c0.1,0,0.3-0.1,0.3-0.3v0c0-0.1,0.1-0.3,0.3-0.3h3.3
			c0.1,0,0.3-0.1,0.3-0.3v-1.3c0-0.1-0.1-0.3-0.3-0.3H77c-0.1,0-0.3-0.1-0.3-0.3v0c0-0.1-0.1-0.3-0.3-0.3h-2.9
			c-0.1,0-0.3-0.1-0.3-0.3v-4.5c0-0.1,0.1-0.3,0.3-0.3h2.9c0.1,0,0.3-0.1,0.3-0.3v0c0-0.1,0.1-0.3,0.3-0.3h3.3
			c0.1,0,0.3-0.1,0.3-0.3V26c0-0.1-0.1-0.3-0.3-0.3H77c-0.1,0-0.3-0.1-0.3-0.3v0c0-0.1-0.1-0.3-0.3-0.3h-2.9c-0.1,0-0.3-0.1-0.3-0.3
			v-4.5c0-0.1,0.1-0.3,0.3-0.3h2.9C76.6,20.2,76.7,20,76.7,19.9z"/>
	</g>
	<path class="st1" d="M67,69.2H18c-1.2,0-2.2-1-2.2-2.2V18c0-1.2,1-2.2,2.2-2.2H67c1.2,0,2.2,1,2.2,2.2V67
		C69.2,68.2,68.2,69.2,67,69.2z"/>
	<path class="st2" d="M53,47.6c-1.8,3.2-5.2,5.4-9.2,5.4c-3.9,0-7.3-2.1-9.1-5.3c-0.9-1.6-1.4-3.4-1.4-5.2c0-5.8,4.7-10.5,10.5-10.5
		c3.9,0,7.3,2.1,9.1,5.2l9.2-5.3c-3.6-6.3-10.5-10.5-18.3-10.5c-11.6,0-21.1,9.4-21.1,21.1c0,3.8,1,7.4,2.8,10.5
		c3.6,6.3,10.5,10.6,18.3,10.6c7.8,0,14.7-4.3,18.3-10.6L53,47.6"/>
</g>
</svg>
