<?xml version="1.0" encoding="utf-8"?>
<!-- Generator: Adobe Illustrator 27.9.0, SVG Export Plug-In . SVG Version: 6.00 Build 0)  -->
<svg version="1.1" id="Layer_1" xmlns="http://www.w3.org/2000/svg" xmlns:xlink="http://www.w3.org/1999/xlink" x="0px" y="0px"
	 viewBox="0 0 85 85" style="enable-background:new 0 0 85 85;" xml:space="preserve">
<style type="text/css">
	.st0{fill:#FFFFFF;}
	.st1{fill:#A90533;}
</style>
<g>
	<path class="st0" d="M8.4,18.3h68.3v44.4H8.4V18.3z"/>
	<g>
		<path class="st1" d="M18.5,62.6C13,56.8,9.9,48.9,9.9,39.4c0-8.4,2.6-15.6,7.2-21.1l0,0H7.5v44.3L18.5,62.6L18.5,62.6L18.5,62.6z
			 M68.7,62.6c2.3-2.5,4.4-5.5,6.3-8.8l-10.5-5.3c-3.7,6-9.1,11.6-16.6,11.6c-10.9,0-15.2-9.4-15.2-21.4h40.7c0.1-1.4,0.1-2,0-2.6
			c0.3-7.1-1.6-13.1-5.1-17.8l0,0h9.2v44.3L68.7,62.6L68.7,62.6L68.7,62.6z"/>
		<path class="st1" d="M33.3,28.4c0.5-5.4,4.7-9.1,9.8-9.1c5.1,0,8.7,3.7,8.8,9.1H33.3L33.3,28.4z"/>
	</g>
</g>
</svg>
