<?xml version="1.0" encoding="utf-8"?>
<!-- Generator: Adobe Illustrator 27.9.0, SVG Export Plug-In . SVG Version: 6.00 Build 0)  -->
<svg version="1.1" id="Layer_1" xmlns="http://www.w3.org/2000/svg" xmlns:xlink="http://www.w3.org/1999/xlink" x="0px" y="0px"
	 viewBox="0 0 85 85" style="enable-background:new 0 0 85 85;" xml:space="preserve">
<style type="text/css">
	.st0{fill:#FFFFFF;}
	.st1{fill:#14F2E2;}
	.st2{fill:#4EB0F9;}
	.st3{fill:#F2D60F;}
	.st4{fill:#F90B0B;}
	.st5{fill:#52EA1F;}
	.st6{fill:#3AB5A8;}
	.st7{fill:#5A5B5B;}
	.st8{fill:#0D5591;stroke:#FFFFFF;stroke-width:0.1616;stroke-miterlimit:10;}
</style>
<g>
	<g>
		<polygon class="st0" points="41.9,42.7 57.4,25.1 44.4,44.6 		"/>
	</g>
	<path class="st0" d="M44.7,44.2c0.2,1.4-1,2.7-2.5,2.5c-1-0.1-1.8-0.9-1.9-1.9c-0.2-1.4,1-2.7,2.5-2.5
		C43.8,42.4,44.6,43.2,44.7,44.2z"/>
	<g>
		<g>
			<g>
				<path class="st1" d="M17.8,19.3c-5.7,6.1-9.2,14.2-9.2,23.2H18c0-6.4,2.4-12.2,6.4-16.5L17.8,19.3z"/>
				<path class="st2" d="M18.6,18.4l6.7,6.7c4.3-4.2,10.1-6.9,16.6-7V8.6C32.8,8.8,24.6,12.5,18.6,18.4z"/>
				<path class="st3" d="M43.1,8.6V18c6.4,0.2,12.3,2.8,16.6,7l6.7-6.7C60.4,12.5,52.2,8.8,43.1,8.6z"/>
				<path class="st4" d="M67.2,19.3L60.6,26c4,4.4,6.4,10.2,6.4,16.5h9.4C76.4,33.5,72.9,25.4,67.2,19.3z"/>
			</g>
			<g>
				<path class="st5" d="M79.5,42.5h-1.2c0-19.7-16.1-35.8-35.8-35.8S6.7,22.8,6.7,42.5H5.5c0-5,1-9.8,2.9-14.4
					c1.9-4.4,4.5-8.4,7.9-11.8c3.4-3.4,7.4-6.1,11.8-7.9c4.6-1.9,9.4-2.9,14.4-2.9c5,0,9.8,1,14.4,2.9c4.4,1.9,8.4,4.5,11.8,7.9
					c3.4,3.4,6.1,7.4,7.9,11.8C78.5,32.7,79.5,37.5,79.5,42.5z"/>
				<g>
					<path class="st1" d="M17.8,19.3c-5.7,6.1-9.2,14.2-9.2,23.2H18c0-6.4,2.4-12.2,6.4-16.5L17.8,19.3z"/>
					<path class="st2" d="M18.6,18.4l6.7,6.7c4.3-4.2,10.1-6.9,16.6-7V8.6C32.8,8.8,24.6,12.5,18.6,18.4z"/>
					<path class="st3" d="M43.1,8.6V18c6.4,0.2,12.3,2.8,16.6,7l6.7-6.7C60.4,12.5,52.2,8.8,43.1,8.6z"/>
					<path class="st4" d="M67.2,19.3L60.6,26c4,4.4,6.4,10.2,6.4,16.5h9.4C76.4,33.5,72.9,25.4,67.2,19.3z"/>
				</g>
				<path class="st5" d="M5.5,42.5c0-5,1-9.8,2.9-14.4"/>
			</g>
		</g>
		<g>
			<g>
				<path class="st1" d="M17.8,65.7c-5.7-6.1-9.2-14.2-9.2-23.2H18c0,6.4,2.4,12.2,6.4,16.5L17.8,65.7z"/>
				<path class="st2" d="M18.6,66.6l6.7-6.7c4.3,4.2,10.1,6.9,16.6,7v9.4C32.8,76.2,24.6,72.5,18.6,66.6z"/>
				<path class="st3" d="M43.1,76.4V67c6.4-0.2,12.3-2.8,16.6-7l6.7,6.7C60.4,72.5,52.2,76.2,43.1,76.4z"/>
				<path class="st4" d="M67.2,65.7L60.6,59c4-4.4,6.4-10.2,6.4-16.5h9.4C76.4,51.5,72.9,59.6,67.2,65.7z"/>
			</g>
			<g>
				<path class="st5" d="M79.5,42.5h-1.2c0,19.7-16.1,35.8-35.8,35.8S6.7,62.2,6.7,42.5H5.5c0,5,1,9.8,2.9,14.4
					c1.9,4.4,4.5,8.4,7.9,11.8c3.4,3.4,7.4,6.1,11.8,7.9c4.6,1.9,9.4,2.9,14.4,2.9c5,0,9.8-1,14.4-2.9c4.4-1.9,8.4-4.5,11.8-7.9
					c3.4-3.4,6.1-7.4,7.9-11.8C78.5,52.3,79.5,47.5,79.5,42.5z"/>
				<g>
					<path class="st1" d="M17.8,65.7c-5.7-6.1-9.2-14.2-9.2-23.2H18c0,6.4,2.4,12.2,6.4,16.5L17.8,65.7z"/>
					<path class="st2" d="M18.6,66.6l6.7-6.7c4.3,4.2,10.1,6.9,16.6,7v9.4C32.8,76.2,24.6,72.5,18.6,66.6z"/>
					<path class="st3" d="M43.1,76.4V67c6.4-0.2,12.3-2.8,16.6-7l6.7,6.7C60.4,72.5,52.2,76.2,43.1,76.4z"/>
					<path class="st4" d="M67.2,65.7L60.6,59c4-4.4,6.4-10.2,6.4-16.5h9.4C76.4,51.5,72.9,59.6,67.2,65.7z"/>
				</g>
				<path class="st5" d="M5.5,42.5c0,5,1,9.8,2.9,14.4"/>
			</g>
		</g>
	</g>
	<g>
		<polygon class="st6" points="41.1,41.6 56.6,24 43.6,43.5 		"/>
	</g>
	<path class="st7" d="M44.7,42.2c0.2,1.4-1,2.7-2.5,2.5c-1-0.1-1.8-0.9-1.9-1.9c-0.2-1.4,1-2.7,2.5-2.5
		C43.8,40.4,44.6,41.2,44.7,42.2z"/>
	<g>
		<path class="st8" d="M26.3,52.1h5.3c0,0,0,0,0,0l0.3,0.3c0,0.1-0.1,0.2-0.2,0.4c-0.1,0.2-0.2,0.3-0.4,0.5
			c-0.1,0.2-0.3,0.3-0.4,0.4c-0.1,0.1-0.2,0.2-0.3,0.2h-0.4l0,0l0.3,0.3l-1.5,1.4h-1.7l-0.6,1.7h-1.9L24.6,57h-0.1L26.3,52.1z
			 M24.7,56.9h1.7l0.6-1.7h1.7L30,54h-2l-0.8,0.8l0.5-1.4h2.7c0,0,0.1,0,0.2-0.1c0.1-0.1,0.2-0.2,0.3-0.3c0.1-0.1,0.2-0.3,0.3-0.4
			c0.1-0.1,0.2-0.2,0.2-0.3h-5L24.7,56.9z"/>
		<path class="st8" d="M29.3,57L29.3,57c0-0.1,0-0.2,0-0.2v0l0,0c0-0.2,0.1-0.2,0.1-0.2c0,0,0,0,0,0l2.9-3.8c0,0,0.1-0.1,0.1-0.2
			c0.1-0.1,0.1-0.1,0.2-0.2c0.1-0.1,0.2-0.1,0.2-0.2c0.1-0.1,0.1-0.1,0.2-0.1h1.5c0.1,0,0.1,0,0.2,0.1c0.1,0.1,0.1,0.1,0.1,0.2
			l0.2,0.2c0,0,0.1,0.1,0.1,0.2c0,0.1,0.1,0.1,0.1,0.2c0,0.1,0,0.2,0.1,0.2c0,0.1,0,0.1,0.1,0.2l0.6,3.9h-1.8L34.1,57H34l0-0.2
			c-0.1,0.1-0.2,0.2-0.3,0.3c-0.1,0.1-0.2,0.2-0.2,0.2h-3.9L29.3,57z M35.1,53.1c0-0.1,0-0.2-0.1-0.3c0-0.1-0.1-0.2-0.1-0.3
			c0-0.1-0.1-0.2-0.1-0.2c0-0.1-0.1-0.1-0.2-0.1h-1.5c0,0-0.1,0-0.2,0.1c-0.1,0-0.1,0.1-0.2,0.1c-0.1,0.1-0.1,0.1-0.2,0.2
			c-0.1,0.1-0.1,0.1-0.1,0.1l-3.2,4v0c0,0,0,0,0,0.1h3.7c0,0,0.1-0.1,0.2-0.2s0.2-0.2,0.3-0.3c0.1-0.1,0.2-0.2,0.2-0.3
			c0.1-0.1,0.1-0.2,0.1-0.2l0.2,1h1.6L35.1,53.1z M33.6,53.6l0.3,2.1h-1.8v-0.1L33.6,53.6z M33.7,54.6L33,55.5h0.8L33.7,54.6z"/>
		<path class="st8" d="M36.3,54.7c0-0.3,0.1-0.6,0.2-0.9c0.1-0.3,0.3-0.6,0.5-0.8c0.2-0.3,0.5-0.5,0.8-0.6c0.3-0.2,0.6-0.2,0.9-0.2
			h3.9c0,0,0,0,0,0c0,0,0,0,0,0l0.3,0.3c-0.2,0.3-0.4,0.5-0.6,0.7c-0.2,0.2-0.4,0.4-0.7,0.7h-2.3c-0.1,0-0.1,0-0.2,0.1
			C39,54,39,54,38.9,54.1c-0.1,0.1-0.1,0.2-0.2,0.2c-0.1,0.1-0.1,0.2-0.1,0.3h0c0,0.2-0.1,0.3-0.1,0.3c0,0.2,0,0.3,0.1,0.4
			c0.1,0.1,0.2,0.1,0.3,0.1h2.3c0,0,0,0,0,0l0.3,0.3c-0.2,0.2-0.3,0.5-0.5,0.7c-0.2,0.2-0.4,0.5-0.7,0.7h-0.7c-0.2,0-0.5,0-0.7,0
			c-0.2,0-0.5-0.1-0.7-0.1c-0.2-0.1-0.4-0.1-0.6-0.2c-0.2-0.1-0.4-0.2-0.5-0.4l-0.1-0.1c-0.2-0.2-0.4-0.4-0.6-0.7
			C36.3,55.5,36.3,55.1,36.3,54.7L36.3,54.7z M36.4,54.7c0,0.4,0.1,0.8,0.3,1c0.2,0.3,0.4,0.5,0.7,0.7c0.3,0.2,0.6,0.3,0.9,0.3
			c0.3,0.1,0.7,0.1,1.1,0.1H40c0.2-0.2,0.4-0.4,0.6-0.6c0.2-0.2,0.3-0.4,0.5-0.6h-2.1c-0.1,0-0.2,0-0.3-0.1
			c-0.1-0.1-0.2-0.2-0.3-0.3c-0.1-0.1-0.2-0.2-0.2-0.3c-0.1-0.1-0.1-0.2-0.1-0.4c0-0.1,0-0.2,0.1-0.4c0-0.1,0.1-0.2,0.1-0.3
			c0.1-0.1,0.1-0.2,0.2-0.3c0.1-0.1,0.2-0.1,0.2-0.2c0.1,0,0.2-0.1,0.2-0.1h2.3c0.2-0.2,0.4-0.4,0.6-0.6c0.2-0.2,0.3-0.4,0.5-0.6
			h-3.6c-0.3,0-0.6,0.1-0.9,0.2c-0.3,0.2-0.5,0.4-0.7,0.6c-0.2,0.2-0.4,0.5-0.5,0.8C36.5,54.1,36.4,54.4,36.4,54.7L36.4,54.7z"/>
		<path class="st8" d="M42.4,53.5L42.4,53.5l-0.1-0.1c0,0,0.1-0.1,0.1-0.2c0.1-0.1,0.2-0.2,0.3-0.4c0.1-0.1,0.2-0.3,0.4-0.4
			c0.1-0.1,0.2-0.2,0.3-0.3h4.7c0,0,0,0,0,0l0.3,0.3c0,0.1-0.1,0.2-0.2,0.4c-0.1,0.2-0.2,0.3-0.4,0.5s-0.3,0.3-0.4,0.4
			c-0.1,0.1-0.2,0.2-0.3,0.2h-1L45,57.3h-1.9L42.7,57h-0.1l1.1-3.1h-1.1L42.4,53.5z M44.6,56.9l1.3-3.5h1c0,0,0.1,0,0.2-0.1
			c0.1-0.1,0.2-0.2,0.3-0.3c0.1-0.1,0.2-0.3,0.3-0.4c0.1-0.1,0.2-0.2,0.2-0.3h-4.4c-0.1,0.1-0.2,0.1-0.3,0.3
			c-0.1,0.1-0.2,0.2-0.3,0.4c-0.1,0.1-0.2,0.2-0.3,0.4c-0.1,0.1-0.1,0.2-0.1,0.2v0h1.7l-1.3,3.5H44.6z"/>
		<path class="st8" d="M47.9,56.6c-0.2-0.1-0.4-0.3-0.5-0.6c-0.1-0.2-0.2-0.5-0.2-0.9c0-0.1,0-0.2,0-0.2c0-0.1,0-0.2,0-0.2
			c0-0.3,0.2-0.7,0.3-1c0.2-0.3,0.4-0.6,0.7-0.8c0.3-0.2,0.6-0.4,0.9-0.6c0.3-0.1,0.6-0.2,1-0.2h1.2c0.5,0,0.9,0.1,1.3,0.2
			c0.3,0.1,0.6,0.3,0.8,0.6l0.2,0.2c0.3,0.3,0.4,0.7,0.4,1.1c0,0.2,0,0.4-0.1,0.6c-0.1,0.4-0.2,0.7-0.4,1c-0.2,0.3-0.4,0.6-0.7,0.8
			S52.3,57,52,57.1c-0.3,0.1-0.7,0.2-1,0.2H50c-0.4,0-0.8,0-1.1-0.1c-0.3-0.1-0.6-0.2-0.8-0.4L47.9,56.6z M53.4,54.3
			c0-0.2,0.1-0.4,0.1-0.6c0-0.6-0.2-1-0.5-1.2c-0.4-0.2-0.9-0.4-1.6-0.4h-1.2c-0.3,0-0.6,0.1-0.9,0.2c-0.3,0.1-0.6,0.3-0.8,0.6
			c-0.3,0.2-0.5,0.5-0.6,0.8s-0.3,0.6-0.3,0.9c0,0.1,0,0.2,0,0.2c0,0.1,0,0.1,0,0.2c0,0.3,0.1,0.6,0.2,0.8c0.1,0.2,0.3,0.4,0.5,0.5
			c0.2,0.1,0.4,0.2,0.7,0.3c0.3,0.1,0.6,0.1,0.9,0.1h0.9c0.3,0,0.7-0.1,1-0.2c0.3-0.1,0.6-0.3,0.9-0.5c0.3-0.2,0.5-0.5,0.7-0.8
			C53.3,55,53.4,54.7,53.4,54.3z M49.1,54.6c0,0,0-0.1,0-0.2c0-0.1,0-0.1,0.1-0.2c0.1-0.1,0.1-0.2,0.2-0.3c0.1-0.1,0.2-0.2,0.3-0.3
			c0.1-0.1,0.2-0.1,0.3-0.2c0.1,0,0.2-0.1,0.3-0.1h0.7c0.1,0,0.3,0,0.4,0.1c0.1,0,0.2,0.1,0.2,0.2c0.1,0.1,0.1,0.2,0.1,0.3
			c0,0.1,0,0.2,0,0.3c0,0.1,0,0.1,0,0.2c0,0,0,0.1,0,0.1c0,0,0,0,0,0c0,0,0,0,0,0.1l0,0.1c0,0,0,0.1-0.1,0.2
			c-0.1,0.1-0.1,0.2-0.2,0.3c-0.1,0.1-0.2,0.2-0.3,0.3c-0.1,0.1-0.2,0.1-0.3,0.2c-0.1,0-0.2,0.1-0.3,0.1h-0.6c-0.1,0-0.2,0-0.3-0.1
			c-0.1-0.1-0.2-0.1-0.2-0.2c-0.1-0.1-0.1-0.2-0.2-0.3c0-0.1-0.1-0.2-0.1-0.3L49.1,54.6C49.1,54.6,49.1,54.6,49.1,54.6z M49.6,55.1
			c0,0.1,0,0.1,0,0.2c0,0.1,0,0.1,0.1,0.2c0.1,0,0.1,0.1,0.2,0.1h0.6c0.1,0,0.1,0,0.2-0.1c0.1,0,0.2-0.1,0.3-0.2
			c0.1-0.1,0.2-0.2,0.3-0.2c0.1-0.1,0.2-0.2,0.2-0.3c0.1-0.1,0.1-0.1,0.1-0.2l0-0.1c0,0,0-0.1,0-0.1c0,0,0,0,0-0.1c0,0,0-0.1,0-0.1
			c0,0,0-0.1,0-0.1c0-0.1,0-0.2,0-0.3c0,0-0.1,0-0.1,0c0,0-0.1,0-0.1,0h-0.7c-0.1,0-0.2,0-0.3,0.1c-0.1,0-0.2,0.1-0.3,0.2
			c-0.1,0.1-0.2,0.2-0.3,0.3c-0.1,0.1-0.1,0.2-0.2,0.3h0c0,0.1-0.1,0.1-0.1,0.2c0,0.1,0,0.1,0,0.1L49.6,55.1L49.6,55.1L49.6,55.1z"
			/>
		<path class="st8" d="M53.3,57L53.3,57l1.7-4.9h4c0.2,0,0.4,0,0.5,0.1c0.1,0.1,0.2,0.2,0.3,0.3l0.2,0.2c0.2,0.2,0.3,0.3,0.3,0.6
			c0,0.2,0.1,0.4,0.1,0.6c0,0.3-0.1,0.5-0.2,0.7c-0.1,0.2-0.3,0.4-0.5,0.5c-0.2,0.1-0.4,0.2-0.7,0.3c-0.2,0.1-0.5,0.1-0.7,0.1
			l1.4,1.5h0l0.3,0.3h-2.2L57.6,57l-1.4-1.3l-0.6,1.6h-1.9L53.3,57z M55.1,56.9l0.6-1.6l0.1-0.1l1.8,1.7h1.9l-1.7-1.8
			c0.2,0,0.5-0.1,0.8-0.1c0.3,0,0.5-0.1,0.7-0.2s0.4-0.3,0.5-0.5c0.1-0.2,0.2-0.4,0.2-0.7c0-0.1,0-0.3,0-0.4c0-0.2-0.1-0.3-0.1-0.4
			c-0.1-0.1-0.2-0.2-0.3-0.3c-0.1-0.1-0.3-0.1-0.5-0.1h-3.9l-1.7,4.7H55.1z M58.3,53.6c0,0.1,0,0.1-0.1,0.2c0,0.1-0.1,0.1-0.2,0.1
			h-1.4l-0.8,0.8l0.5-1.4h1.8c0.1,0,0.1,0,0.1,0C58.3,53.5,58.3,53.5,58.3,53.6L58.3,53.6z"/>
	</g>
</g>
</svg>
