<?xml version="1.0" encoding="utf-8"?>
<!-- Generator: Adobe Illustrator 27.9.0, SVG Export Plug-In . SVG Version: 6.00 Build 0)  -->
<svg version="1.1" id="Layer_1" xmlns="http://www.w3.org/2000/svg" xmlns:xlink="http://www.w3.org/1999/xlink" x="0px" y="0px"
	 viewBox="0 0 85 85" style="enable-background:new 0 0 85 85;" xml:space="preserve">
<style type="text/css">
	.st0{fill-rule:evenodd;clip-rule:evenodd;fill:#1969FF;}
	.st1{fill:#F7E00B;}
</style>
<g id="circle">
	<g id="Fantom-circle">
		<circle id="Oval" class="st0" cx="42.5" cy="42.5" r="36"/>
		<path id="Shape" class="st1" d="M40.3,17.9c1.2-0.6,3.1-0.6,4.3,0L57,24.5c0.7,0.4,1.1,1,1.2,1.6h0v32.8c0,0.6-0.4,1.3-1.2,1.7
			l-12.4,6.5c-1.2,0.6-3.1,0.6-4.3,0l-12.4-6.5c-0.8-0.4-1.2-1.1-1.2-1.7c0-0.1,0-0.1,0-0.2l0-32.4c0,0,0-0.1,0-0.1l0-0.1h0
			c0.1-0.6,0.4-1.2,1.2-1.6L40.3,17.9z M56.2,44.3l-11.6,6.1c-1.2,0.6-3.1,0.6-4.3,0l-11.6-6.1v14.4l11.6,6.1
			c0.7,0.4,1.4,0.7,2.1,0.7l0,0c0.7,0,1.4-0.3,2-0.7l11.7-6.2V44.3z M24.8,58.1c0,1.3,0.1,2.1,0.4,2.7c0.2,0.5,0.6,0.9,1.2,1.3l0,0
			c0.1,0.1,0.3,0.2,0.5,0.3l0.2,0.1l0.7,0.4l-1,1.7l-0.8-0.5L26,64.1c-0.2-0.1-0.4-0.3-0.6-0.4c-1.9-1.3-2.6-2.6-2.6-5.5l0-0.1H24.8
			z M41.5,35.5c-0.1,0-0.2,0.1-0.3,0.1l-12.4,6.5c0,0,0,0,0,0l0,0l0,0l0,0l12.4,6.5c0.1,0,0.2,0.1,0.3,0.1V35.5z M43.5,35.5v13.4
			c0.1,0,0.2-0.1,0.3-0.1l12.4-6.5c0,0,0,0,0,0l0,0l0,0l0,0l-12.4-6.5C43.7,35.6,43.6,35.6,43.5,35.5z M56.2,28.4l-11.1,5.8L56.2,40
			V28.4z M28.7,28.4V40l11.1-5.8L28.7,28.4z M43.7,19.7c-0.6-0.3-1.8-0.3-2.5,0l-12.4,6.5c0,0,0,0,0,0l0,0l0,0l0,0l12.4,6.5
			c0.6,0.3,1.8,0.3,2.5,0l12.4-6.5c0,0,0,0,0,0l0,0l0,0l0,0L43.7,19.7z M58.1,20.4l0.8,0.5l0.1,0.1c0.2,0.1,0.4,0.3,0.6,0.4
			c1.9,1.3,2.6,2.6,2.6,5.5l0,0.1h-1.9c0-1.3-0.1-2.1-0.4-2.7c-0.2-0.5-0.6-0.9-1.2-1.3l0,0c-0.1-0.1-0.3-0.2-0.5-0.3l-0.2-0.1
			L57.1,22L58.1,20.4z"/>
	</g>
</g>
</svg>
