<?xml version="1.0" encoding="utf-8"?>
<!-- Generator: Adobe Illustrator 27.9.0, SVG Export Plug-In . SVG Version: 6.00 Build 0)  -->
<svg version="1.1" id="Layer_1" xmlns="http://www.w3.org/2000/svg" xmlns:xlink="http://www.w3.org/1999/xlink" x="0px" y="0px"
	 viewBox="0 0 85 85" style="enable-background:new 0 0 85 85;" xml:space="preserve">
<style type="text/css">
	.st0{fill:#207EA8;}
	.st1{fill:#1DD4F2;}
	.st2{fill:#0F96F2;}
</style>
<g>
	<path class="st0" d="M4.7,42.2L40.2,6.6v17.8L22.4,42.2l17.8,17.8v17.8L4.7,42.2L4.7,42.2z"/>
	<path class="st0" d="M27.5,42.2l12.7-12.7v25.4L27.5,42.2L27.5,42.2z"/>
	<path class="st1" d="M79.5,42.2L42.7,6.6v17.8l17.8,17.8L42.7,59.9v17.8L79.5,42.2L79.5,42.2z"/>
	<g>
		<path class="st2" d="M47.4,41.9h-1.1l0.4-1.3h6.6l-0.4,1.3h-0.6v0.4h1.1L52.9,44h-0.6v1.7h-2.2V44h-0.5v1.7h-2.2V44h-1.1l0.4-1.6
			h0.6V41.9z M49.6,38.6v1.6h-2.2v-1.6H49.6z M49.6,41.9v0.4h0.5v-0.4H49.6z M52.3,38.6v1.6h-2.2v-1.6H52.3z"/>
	</g>
</g>
</svg>
