<?xml version="1.0" encoding="utf-8"?>
<!-- Generator: Adobe Illustrator 27.9.0, SVG Export Plug-In . SVG Version: 6.00 Build 0)  -->
<svg version="1.1" id="Layer_1" xmlns="http://www.w3.org/2000/svg" xmlns:xlink="http://www.w3.org/1999/xlink" x="0px" y="0px"
	 viewBox="0 0 85 85" style="enable-background:new 0 0 85 85;" xml:space="preserve">
<style type="text/css">
	.st0{fill:#734F96;}
	.st1{fill:#FFFFFF;}
	.st2{fill:#F6FC15;}
</style>
<g>
	<g>
		<g id="layer101" transform="translate(.142 -7.901)">
			<path id="path2" class="st0" d="M15.9,87.9c-4.4,0-11-7.7-11-11.1v-53c0-4.5,7.8-10.9,11.1-10.9l53.1,0c4.6,0,10.8,7.5,10.8,11
				v53c0,5.2-7,10.9-10.9,10.9L15.9,87.9z"/>
		</g>
		<g id="layer102" transform="translate(.142 -7.901)">
			<path id="path5" class="st1" d="M15.2,73.3l2.9-0.2c5.9-0.4,5.8-0.4,6.1-4.9c0.3-4.4-0.1-38.4-0.3-39.1c-0.3-1.1-1.5-1.8-5.1-1.8
				l-3.6,0v-6.4h54.7v24.4l-6.4-0.1c-0.1-0.1-0.2-1.8-0.4-3.4c-0.7-7.5-2.4-11.8-5.6-13.4c-1.7-0.9-4.4-1.1-12.9-1.1l-8,0v18.3H38
				c2.4,0,5.4-0.6,6.4-1.2c1.3-0.8,2.4-3.1,2.8-5.9c0.3-2,0.5-3.5,0.5-3.5l6.3,0v29.1h-6.5V63c0-1.9-0.9-6.3-1.5-7.6
				c-1-2-2.6-2.7-7.3-3.2L36.6,52l0.1,9.4c0.1,9,0.1,9.5,0.7,10.2c0.7,0.9,1.5,1.1,6.1,1.5l3.1,0.1l0,6.4H15.2V73.3z"/>
		</g>
	</g>
	<g>
		<path class="st2" d="M49,60.3v-1.1c0-0.7,0.2-1.2,0.5-1.5c0.3-0.3,0.9-0.5,1.6-0.5h6.4c0.8,0,1.3,0.2,1.7,0.5
			c0.4,0.3,0.5,0.8,0.5,1.5v1.1H49z M53.2,62.6h2.3v-1.2c0-0.2,0-0.3,0-0.3h4.3V69c0,0.7-0.2,1.2-0.5,1.5c-0.4,0.3-0.9,0.5-1.7,0.5
			H49l0.9-3.2h4.7c0.3,0,0.6-0.1,0.7-0.2c0.1-0.1,0.2-0.4,0.2-0.8v-1.1H49v-4.6h4.2v0.3V62.6z"/>
		<path class="st2" d="M67.4,66.7c0-0.3,0-0.6-0.1-0.7c-0.1-0.2-0.2-0.3-0.5-0.3H61v-4.6h4.3v1.4h4.2c0.8,0,1.3,0.2,1.7,0.5
			c0.4,0.3,0.5,0.8,0.5,1.5V69c0,0.7-0.2,1.2-0.5,1.5c-0.4,0.3-0.9,0.5-1.7,0.5h-7.8l-0.8-3.2h5.6c0.3,0,0.6-0.1,0.7-0.2
			c0.1-0.1,0.2-0.4,0.2-0.8V66.7z M61,60.3v-3.2h10.7v3.2H61z M71.7,61.4h-4.3v-0.3h4.3V61.4z"/>
	</g>
</g>
</svg>
