<?xml version="1.0" encoding="utf-8"?>
<!-- Generator: Adobe Illustrator 27.9.0, SVG Export Plug-In . SVG Version: 6.00 Build 0)  -->
<svg version="1.1" id="Layer_1" xmlns="http://www.w3.org/2000/svg" xmlns:xlink="http://www.w3.org/1999/xlink" x="0px" y="0px"
	 viewBox="0 0 85 85" style="enable-background:new 0 0 85 85;" xml:space="preserve">
<style type="text/css">
	.st0{fill:none;}
	.st1{fill:url(#XMLID_00000029005145969284979770000013904621447413734825_);}
	.st2{fill:url(#XMLID_00000106132781074042607120000012253330954242543801_);}
	.st3{fill:url(#XMLID_00000134230662257012678750000011169873278112310428_);}
	.st4{fill:url(#XMLID_00000168821707587479308800000000988224024410509192_);}
	.st5{fill:url(#SVGID_1_);}
</style>
<g>
	<path id="XMLID_75_" class="st0" d="M66.4,42.5c0,13.2-10.7,23.9-23.9,23.9c-9.9,0-18.4-6-22-14.6c-0.4,0.3-0.8,0.7-1.2,1
		c3.9,8.9,12.9,15.1,23.2,15.1c14,0,25.4-11.4,25.4-25.4c0-5.7-1.9-10.9-5-15.1c-0.5,0.2-1,0.4-1.5,0.6C64.5,31.9,66.4,37,66.4,42.5
		z"/>
	<path id="XMLID_78_" class="st0" d="M42.5,17.1c-14,0-25.4,11.4-25.4,25.4c0,3.7,0.8,7.1,2.2,10.3c0.4-0.3,0.8-0.7,1.2-1
		c-1.2-2.8-1.9-6-1.9-9.3c0-13.2,10.7-23.9,23.9-23.9c7.7,0,14.5,3.6,18.9,9.3c0.5-0.2,1-0.4,1.5-0.6C58.3,21.1,50.8,17.1,42.5,17.1
		z"/>
	
		<linearGradient id="XMLID_00000023243852038187043600000002693923610588290221_" gradientUnits="userSpaceOnUse" x1="5" y1="52.2062" x2="79.9999" y2="52.2062">
		<stop  offset="0" style="stop-color:#C69C6D"/>
		<stop  offset="0.1582" style="stop-color:#8C6239"/>
		<stop  offset="0.2792" style="stop-color:#805731"/>
		<stop  offset="0.7579" style="stop-color:#533016"/>
		<stop  offset="1" style="stop-color:#42210B"/>
	</linearGradient>
	<path id="XMLID_79_" style="fill:url(#XMLID_00000023243852038187043600000002693923610588290221_);" d="M80,30.1l-4-7
		c-4.4,1.2-8.8,2.6-13.1,4.2c3.1,4.2,5,9.5,5,15.1c0,14-11.4,25.4-25.4,25.4c-10.4,0-19.3-6.2-23.2-15.1c-3.5,3-6.9,6.1-10.1,9.3
		l3.9,6.9c2.1-1.2,4.5-1.9,7.1-1.9c7.8,0,14.2,6.3,14.2,14.2h16.2c0-7.9,6.4-14.2,14.2-14.2c2.6,0,5,0.7,7,1.9L80,54.8
		c-4.3-2.4-7.1-7.1-7.1-12.3C72.9,37.2,75.7,32.6,80,30.1z"/>
	
		<linearGradient id="XMLID_00000091705118256878550700000009845452781022393218_" gradientUnits="userSpaceOnUse" x1="10.0059" y1="21.3976" x2="63.0794" y2="52.0396">
		<stop  offset="0" style="stop-color:#C69C6D"/>
		<stop  offset="0.1582" style="stop-color:#8C6239"/>
		<stop  offset="0.2792" style="stop-color:#805731"/>
		<stop  offset="0.7579" style="stop-color:#533016"/>
		<stop  offset="1" style="stop-color:#42210B"/>
	</linearGradient>
	<path id="XMLID_80_" style="fill:url(#XMLID_00000091705118256878550700000009845452781022393218_);" d="M19.3,52.7
		c-1.4-3.1-2.2-6.6-2.2-10.3c0-14,11.4-25.4,25.4-25.4c8.3,0,15.8,4,20.4,10.2c4.3-1.6,8.7-3,13.1-4.2L71.9,16
		c-2.1,1.2-4.5,1.9-7,1.9c-7.8,0-14.2-6.4-14.2-14.2H34.4c0,7.7-6.4,14.2-14.2,14.2c-2.6,0-5-0.7-7.1-1.9L5,30.1
		c4.3,2.4,7.2,7,7.2,12.3S9.3,52.3,5,54.8l4.2,7.3C12.4,58.8,15.8,55.7,19.3,52.7z"/>
	
		<linearGradient id="XMLID_00000125597025839063205840000016639905226673734543_" gradientUnits="userSpaceOnUse" x1="18.6396" y1="47.0969" x2="66.3603" y2="47.0969">
		<stop  offset="0" style="stop-color:#603813"/>
		<stop  offset="0.2188" style="stop-color:#714922"/>
		<stop  offset="0.6511" style="stop-color:#9E7449"/>
		<stop  offset="1" style="stop-color:#C69C6D"/>
	</linearGradient>
	<path id="XMLID_81_" style="fill:url(#XMLID_00000125597025839063205840000016639905226673734543_);" d="M42.5,66.3
		c13.2,0,23.9-10.7,23.9-23.9c0-5.5-1.9-10.5-5-14.6c-1.3,0.5-2.6,1-3.8,1.5c3,3.5,4.9,8,4.9,13c0,11-8.9,19.9-19.9,19.9
		c-8.7,0-16-5.5-18.8-13.2c-1.1,0.8-2.2,1.7-3.2,2.6C24.1,60.3,32.6,66.3,42.5,66.3z"/>
	
		<linearGradient id="XMLID_00000060021991059387147350000009994979074731186603_" gradientUnits="userSpaceOnUse" x1="18.6396" y1="35.1479" x2="66.3604" y2="35.1479">
		<stop  offset="0" style="stop-color:#603813"/>
		<stop  offset="0.2188" style="stop-color:#714922"/>
		<stop  offset="0.6511" style="stop-color:#9E7449"/>
		<stop  offset="1" style="stop-color:#C69C6D"/>
	</linearGradient>
	<path id="XMLID_82_" style="fill:url(#XMLID_00000060021991059387147350000009994979074731186603_);" d="M22.6,42.5
		c0-11,8.9-19.9,19.9-19.9c6,0,11.4,2.7,15,6.9c1.3-0.5,2.6-1,3.8-1.5c-4.4-5.7-11.2-9.3-18.9-9.3c-13.2,0-23.9,10.7-23.9,23.9
		c0,3.3,0.7,6.4,1.9,9.3c1.1-0.9,2.1-1.7,3.2-2.6C23,47,22.6,44.8,22.6,42.5z"/>
	<g>
		<linearGradient id="SVGID_1_" gradientUnits="userSpaceOnUse" x1="26.1816" y1="45.3834" x2="59.6123" y2="45.3834">
			<stop  offset="0" style="stop-color:#C69C6D"/>
			<stop  offset="0.1582" style="stop-color:#8C6239"/>
			<stop  offset="0.2792" style="stop-color:#805731"/>
			<stop  offset="0.7579" style="stop-color:#533016"/>
			<stop  offset="1" style="stop-color:#42210B"/>
		</linearGradient>
		<path class="st5" d="M58.5,41.7H32.8c-0.7-0.5-1.2-0.9-1.5-1.4l0.1,0c0.3,0,0.6,0.1,1,0.1c0.4,0,0.8,0.1,1.4,0.1h0.8
			c0.2,0,0.3,0,0.3,0c-1-0.4-1.9-0.9-2.6-1.5c-0.8-0.5-1.5-1.1-2.2-1.8c-0.7-0.7-1.4-1.4-2-2.2c-0.6-0.8-1.3-1.7-1.9-2.7
			c1.5,0.6,3,1.1,4.6,1.7c1.6,0.5,3.3,1,5,1.4c1.7,0.4,3.5,0.7,5.3,1c1.8,0.2,3.7,0.4,5.5,0.4h13.1L58.5,41.7z M52.2,58.4h-5.7v-8.8
			l-0.1-0.2c-0.3-0.1-0.6-0.2-0.8-0.3c-0.2-0.1-0.5-0.2-0.7-0.2c-0.3-0.1-0.5-0.2-0.8-0.2c-0.3-0.1-0.6-0.2-0.9-0.2
			c-0.1,0.1-0.2,0.1-0.4,0.1c-0.2,0-0.4,0-0.6,0c-0.2,0-0.5,0-0.8-0.1c-0.3-0.1-0.6-0.1-0.9-0.2c-0.3-0.1-0.5-0.2-0.7-0.3
			c-0.2-0.1-0.3-0.2-0.3-0.3c0.1,0,0.3-0.1,0.5-0.2c0.2-0.1,0.4-0.1,0.5-0.2c0.2-0.1,0.3-0.1,0.4-0.2c0.1-0.1,0.2-0.1,0.2-0.2
			c0,0-0.2-0.1-0.6-0.1c-0.2,0-0.4,0-0.6,0c-0.2,0-0.5,0-0.8,0c-0.2,0-0.5,0-0.8-0.1c-0.3-0.1-0.6-0.2-1-0.4c-0.3-0.2-0.7-0.4-1-0.7
			c-0.3-0.3-0.6-0.6-0.9-0.9c0.3,0,0.7,0.1,1.2,0.1c0.5,0.1,0.9,0.1,1.3,0.1l0.6-0.1c-0.3-0.1-0.9-0.3-1.5-0.6
			c-0.7-0.3-1.4-0.6-2.1-1h17.5v2.3h6.2L57.3,50h-5.1V58.4z"/>
	</g>
</g>
</svg>
