<?xml version="1.0" encoding="utf-8"?>
<!-- Generator: Adobe Illustrator 27.9.0, SVG Export Plug-In . SVG Version: 6.00 Build 0)  -->
<svg version="1.1" id="Layer_1" xmlns="http://www.w3.org/2000/svg" xmlns:xlink="http://www.w3.org/1999/xlink" x="0px" y="0px"
	 viewBox="0 0 85 85" style="enable-background:new 0 0 85 85;" xml:space="preserve">
<style type="text/css">
	.st0{fill-rule:evenodd;clip-rule:evenodd;fill:#F6D2A2;}
	.st1{fill:#F4900B;}
	.st2{fill-rule:evenodd;clip-rule:evenodd;fill:#C6B198;}
	.st3{fill-rule:evenodd;clip-rule:evenodd;fill:#6AD7E5;}
	.st4{fill-rule:evenodd;clip-rule:evenodd;fill:#F4900B;}
	.st5{fill-rule:evenodd;clip-rule:evenodd;fill:#FFFFFF;}
	.st6{fill-rule:evenodd;clip-rule:evenodd;}
	.st7{fill:#231F20;}
	.st8{fill-rule:evenodd;clip-rule:evenodd;fill:#F70852;}
</style>
<g>
	<path class="st0" d="M14.2,45.8c0.1,2.3,2.4,1.2,3.5,0.5c1-0.7,1.3-0.1,1.4-1.5c0.1-0.9,0.1-1.8,0.1-2.7c-1.5-0.1-3.2,0.2-4.4,1.1
		C14.2,43.7,13,45.2,14.2,45.8"/>
	<path class="st1" d="M15.5,47.4c-0.5,0-1.3-0.2-1.4-1.5c-0.4-0.3-0.5-0.6-0.5-0.8c-0.1-0.8,0.8-1.7,1.2-2c1.1-0.8,2.4-1.2,3.9-1.2
		h0.9v0.2c0.1,0.7,0,1.4-0.1,2.1c0,0.2,0,0.4-0.1,0.6c-0.1,1-0.3,1.1-0.7,1.3c-0.2,0.1-0.4,0.1-0.7,0.4
		C17.6,46.7,16.5,47.4,15.5,47.4L15.5,47.4z M18.6,42.3c-1.4,0-2.6,0.4-3.6,1.1c-0.5,0.3-1.1,1.1-1.1,1.6c0,0.2,0.1,0.4,0.4,0.5
		l0.1,0.1v0.1c0.1,1.1,0.6,1.2,1,1.2c0.7,0,1.6-0.5,2.2-0.9c0.4-0.3,0.7-0.3,0.9-0.4c0.3-0.1,0.4-0.1,0.5-0.9c0-0.2,0-0.4,0.1-0.6
		c0.1-0.6,0.1-1.2,0.1-1.8C18.9,42.3,18.8,42.3,18.6,42.3z"/>
	<path class="st2" d="M14.2,45.8c0.3-0.1,0.7-0.2,0.9-0.5"/>
	<path class="st1" d="M14.2,45.9c-0.1,0-0.2-0.1-0.2-0.1c-0.1-0.1,0-0.3,0.1-0.3c0.1,0,0.1-0.1,0.1-0.1c0.3-0.1,0.5-0.2,0.7-0.4
		C15,45,15.1,45,15.3,45c0.1,0.1,0.1,0.2,0.1,0.3c-0.3,0.3-0.6,0.5-0.9,0.5l-0.1,0.1L14.2,45.9z"/>
	<path class="st3" d="M19.6,18c-8.9-2.5-2.3-13.9,4.9-9.2L19.6,18z"/>
	<path class="st1" d="M19.7,18.2l-0.2-0.1c-4.6-1.3-4.5-4.6-4.4-5.6c0.3-2.5,2.7-5.1,5.8-5.1c1.2,0,2.4,0.4,3.6,1.2l0.2,0.1
		L19.7,18.2z M21,7.9c-3,0-5.1,2.4-5.5,4.7c-0.3,2.4,1.1,4.2,3.9,5.1l4.7-8.9C23.2,8.3,22.1,7.9,21,7.9L21,7.9z"/>
	<path class="st3" d="M59.2,7.9c7-4.9,13.5,6.2,5.3,9.1L59.2,7.9z"/>
	<path class="st1" d="M64.4,17.2L59,7.9l0.2-0.1c1.2-0.9,2.5-1.3,3.7-1.3c3,0,5.2,2.5,5.6,4.9c0.2,1,0.4,4.3-3.9,5.8L64.4,17.2z
		 M59.5,8.1l5.1,8.7c2.6-0.9,3.9-2.9,3.5-5.3C67.7,9.3,65.7,7,62.9,7C61.8,6.9,60.7,7.3,59.5,8.1z"/>
	<path class="st0" d="M60.8,74.4c1.8,1.1,5.1,4.5,2.4,6.1c-2.6,2.4-4-2.6-6.3-3.3C57.8,75.9,59.1,74.7,60.8,74.4"/>
	<path class="st1" d="M61.8,81.3c-1.1,0-2-1.1-2.8-2c-0.7-0.8-1.4-1.6-2.2-1.9l-0.3-0.1l0.2-0.3c0.8-1.1,2.1-2.6,4.1-2.9h0.1
		l0.1,0.1c1.1,0.7,3.5,2.8,3.5,4.7c0,0.7-0.4,1.3-1.1,1.8C62.8,81.2,62.3,81.3,61.8,81.3L61.8,81.3z M57.2,77.1
		c0.8,0.3,1.4,1.2,2.1,1.9c0.8,1,1.6,1.8,2.4,1.8c0.4,0,0.8-0.2,1.2-0.6H63c0.6-0.4,0.9-0.9,0.9-1.4c0-1.5-1.9-3.4-3.2-4.3
		C59.5,74.8,58.3,75.6,57.2,77.1L57.2,77.1z M63.2,80.7c-0.1,0-0.1-0.1-0.2-0.1c-0.1-0.3-0.3-0.6-0.3-0.9c-0.2-0.5-0.4-1.1-0.8-1.4
		c-0.1-0.1-0.1-0.2,0-0.3c0.1-0.1,0.2-0.1,0.3,0c0.5,0.5,0.7,1.1,0.9,1.6l0.3,0.8c0.1,0.1,0,0.3-0.1,0.3H63.2z"/>
	<path class="st0" d="M28.7,78.2c-2.1,0.3-3.3,2.2-5.1,3.2c-1.6,1-2.3-0.3-2.4-0.6C21,80.7,21,81,20.6,80.6
		c-1.5-2.4,1.6-4.2,3.2-5.4C26.1,74.7,27.6,76.6,28.7,78.2"/>
	<path class="st1" d="M22.6,81.9c-0.9,0-1.3-0.7-1.4-1h-0.1c-0.2,0-0.3-0.1-0.6-0.3v-0.1c-1.4-2.3,1.1-4.1,2.7-5.3l0.6-0.4h0.1
		c0.3-0.1,0.5-0.1,0.7-0.1c2,0,3.2,1.7,4.3,3.1l0.3,0.5l-0.4,0.1c-1.2,0.2-2.2,1-3.1,1.8c-0.6,0.5-1.2,1-1.8,1.4
		C23.4,81.8,23,81.9,22.6,81.9L22.6,81.9z M21.1,80.6c0.1,0,0.1,0,0.3,0.1h0.1l0.1,0.1c0.1,0.2,0.5,0.8,1.1,0.8c0.3,0,0.7-0.1,1-0.3
		c0.7-0.3,1.2-0.9,1.8-1.3c0.9-0.7,1.8-1.5,3-1.8c-1-1.3-2.2-2.8-3.8-2.8c-0.2,0-0.4,0-0.6,0.1l-0.5,0.4c-1.7,1.2-3.8,2.7-2.6,4.7
		C20.9,80.5,21,80.6,21.1,80.6L21.1,80.6z M21.3,81c-0.1,0-0.3-0.1-0.2-0.3c0.1-0.7,0.4-1.1,0.7-1.6c0.2-0.3,0.3-0.5,0.5-0.8
		c0.1-0.1,0.2-0.1,0.3-0.1c0.1,0.1,0.1,0.2,0.1,0.3c-0.1,0.3-0.3,0.6-0.5,0.9c-0.3,0.5-0.6,0.9-0.7,1.4C21.5,81,21.4,81,21.3,81
		L21.3,81z"/>
	<path class="st4" d="M20,14.9c-1.2-0.6-2-1.4-1.3-2.8c0.7-1.2,1.9-1.1,3.1-0.5L20,14.9z M62.6,13.7c1.2-0.6,2-1.4,1.3-2.8
		c-0.7-1.2-1.9-1.1-3.1-0.5L62.6,13.7z"/>
	<path class="st0" d="M70.7,45.4c-0.1,2.3-2.4,1.2-3.5,0.5c-1-0.7-1.3-0.1-1.4-1.5c-0.1-0.9-0.1-1.8-0.1-2.7
		c1.5-0.1,3.2,0.2,4.4,1.1C70.8,43.4,72,44.8,70.7,45.4"/>
	<path class="st1" d="M69.5,47.1c-1,0-2.1-0.7-2.4-0.9c-0.3-0.2-0.5-0.3-0.7-0.4c-0.5-0.2-0.7-0.3-0.7-1.3c0-0.2,0-0.4-0.1-0.6
		c-0.1-0.7-0.1-1.4-0.1-2.1v-0.2h0.9c1.4,0,2.8,0.4,3.9,1.2c0.5,0.3,1.3,1.2,1.2,2c0,0.3-0.1,0.6-0.5,0.8
		C70.8,46.9,70,47.1,69.5,47.1L69.5,47.1z M65.9,42c0,0.6,0,1.2,0.1,1.8c0,0.2,0,0.4,0.1,0.6c0.1,0.8,0.1,0.8,0.5,0.9
		c0.2,0.1,0.5,0.2,0.9,0.4c0.6,0.4,1.5,0.9,2.2,0.9c0.4,0,0.9-0.1,1-1.2v-0.1l0.1-0.1c0.3-0.1,0.4-0.3,0.4-0.5
		c0.1-0.5-0.6-1.3-1.1-1.6c-1-0.7-2.3-1.1-3.6-1.1C66.2,42,66.1,42,65.9,42z"/>
	<path class="st2" d="M70.7,45.4c-0.3-0.1-0.7-0.2-0.9-0.5"/>
	<path class="st1" d="M70.7,45.7L70.7,45.7l-0.2-0.1c-0.3-0.1-0.7-0.2-0.9-0.5c-0.1-0.1-0.1-0.3,0.1-0.3c0.1-0.1,0.3-0.1,0.3,0.1
		c0.1,0.2,0.4,0.3,0.7,0.4c0.1,0,0.1,0.1,0.1,0.1c0.1,0.1,0.2,0.2,0.1,0.3S70.8,45.7,70.7,45.7L70.7,45.7z"/>
	<path class="st3" d="M41.6,3.3c8.9,0,17.3,1.2,21.7,9.9c3.9,9.6,2.5,20,3.2,30.1C67,52,68.1,62,64.1,70.1
		c-4.3,8.5-14.9,10.6-23.6,10.3c-6.9-0.3-15.2-2.5-19.1-8.8c-4.5-7.4-2.4-18.3-2.1-26.5c0.4-9.7-2.6-19.5,0.6-29
		C23,6.2,32,4,41.6,3.3"/>
	<path class="st1" d="M41.9,80.7h-1.6c-2.7-0.1-6.8-0.5-10.8-2.2c-3.9-1.6-6.7-3.8-8.5-6.8c-3.7-6-3-14.2-2.4-21.5
		c0.1-1.8,0.3-3.5,0.3-5.2c0.1-3.4-0.1-7-0.5-10.3c-0.5-6.2-1.1-12.5,1-18.7c1.6-4.6,4.4-7.9,8.7-10c3.3-1.6,7.5-2.6,13.4-3
		C50.3,3,59,4.2,63.4,13c2.9,7,2.9,14.6,3,21.9c0,2.8,0,5.6,0.2,8.3c0.1,0.9,0.1,1.7,0.1,2.6c0.5,8,1.1,17.1-2.6,24.4
		c-1.8,3.7-5.1,6.5-9.5,8.3C51.1,79.9,46.7,80.7,41.9,80.7L41.9,80.7z M41.6,3.5c-9.3,0.7-18.3,2.8-21.7,12.7
		c-2,6.1-1.5,12.4-1,18.5c0.3,3.4,0.6,6.9,0.5,10.4c-0.1,1.6-0.2,3.3-0.3,5.2c-0.6,7.2-1.2,15.4,2.4,21.2c1.5,2.4,6.4,8.2,18.9,8.7
		H42c14.5,0,19.9-6.4,21.9-10.2c3.6-7.2,3-16.3,2.6-24.2c-0.1-0.9-0.1-1.7-0.1-2.6c-0.1-2.8-0.2-5.6-0.2-8.3C66,27.6,66,20,63.2,13
		c-2-3.9-4.9-6.5-9-8C50,3.7,45.3,3.5,41.6,3.5L41.6,3.5z"/>
	<path class="st5" d="M43.2,15.2c1.6,9.3,16.8,6.8,14.6-2.6C55.9,4.2,42.7,6.6,43.2,15.2"/>
	<path d="M50.4,21.3c-3,0-6.7-1.6-7.5-6c-0.1-2.1,0.5-4,1.9-5.5c1.5-1.6,3.8-2.6,6.2-2.6c2.8,0,6,1.4,7,5.5c0.5,2.2,0.1,4.2-1.1,5.8
		C55.5,20.2,53,21.3,50.4,21.3L50.4,21.3z M43.4,15.2c0.3,1.8,1.2,3.3,2.6,4.3c1.2,0.9,2.8,1.4,4.5,1.4c2.4,0,4.8-1.1,6.1-2.7
		c1.2-1.4,1.5-3.3,1.1-5.5C56.7,9,53.6,7.7,51,7.7c-2.2,0-4.4,0.9-5.8,2.4C43.9,11.5,43.3,13.2,43.4,15.2L43.4,15.2z"/>
	<path class="st5" d="M25,16.7c2.1,8.1,15,6,14.6-2.1C39,4.9,23,6.7,25,16.7"/>
	<path d="M31.9,22.1c-2.8,0-6.1-1.4-7.2-5.3c-0.5-2.3,0-4.4,1.3-6C27.5,9,29.9,8,32.4,8c3.4,0,7,2,7.3,6.6c0.1,1.9-0.5,3.6-1.8,5
		C36.6,21.1,34.3,22.1,31.9,22.1z M32.4,8.4c-2.4,0-4.7,1-6,2.6c-1.2,1.5-1.6,3.4-1.2,5.6c0.9,3.7,4.1,5,6.7,5
		c2.2,0,4.4-0.9,5.8-2.4c1.2-1.2,1.8-2.9,1.6-4.7C39.2,11.8,37.3,8.4,32.4,8.4L32.4,8.4z"/>
	<path class="st5" d="M45,26.4c0,1.2,0.3,2.6,0.1,3.9c-0.3,0.6-0.9,0.7-1.4,0.9c-0.7-0.1-1.3-0.6-1.6-1.2c-0.2-1.4,0.1-2.9,0.1-4.3
		L45,26.4z"/>
	<path d="M43.6,31.4c-0.9-0.1-1.5-0.7-1.8-1.4c-0.1-1.1-0.1-2,0-3c0.1-0.5,0.1-0.9,0.1-1.4v-0.3l3.3,1.1v0.1c0,0.4,0.1,0.8,0.1,1.2
		c0.1,0.9,0.1,1.8,0,2.6v0.1c-0.3,0.5-0.7,0.7-1.2,0.9C44,31.2,43.8,31.3,43.6,31.4z M42.2,29.8c0.3,0.6,0.8,1,1.4,1.1
		c0.1-0.1,0.3-0.1,0.3-0.1c0.4-0.1,0.7-0.3,0.9-0.6c0.1-0.8,0.1-1.6,0-2.5c0-0.4-0.1-0.8-0.1-1.1l-2.5-0.8c0,0.4-0.1,0.8-0.1,1.1
		C42.1,28,42.1,28.9,42.2,29.8L42.2,29.8z"/>
	<g>
		<path class="st6" d="M30.8,15.4c0,1.3-1,2.4-2.2,2.4s-2.2-1.1-2.2-2.4s1-2.4,2.2-2.4S30.8,14.1,30.8,15.4"/>
		<path class="st5" d="M30.1,15.9c0,0.3-0.3,0.6-0.5,0.6S29,16.3,29,15.9c0-0.3,0.3-0.6,0.5-0.6C29.9,15.3,30.1,15.6,30.1,15.9"/>
		<path class="st6" d="M49.1,14.8c0,1.3-1,2.4-2.2,2.4c-1.2,0-2.2-1.1-2.2-2.4s1-2.4,2.2-2.4C48.1,12.5,49.1,13.5,49.1,14.8"/>
		<path class="st5" d="M48.4,15.3c0,0.3-0.2,0.6-0.5,0.6c-0.3,0-0.5-0.3-0.5-0.6c0-0.3,0.2-0.6,0.5-0.6C48.2,14.8,48.4,15,48.4,15.3
			 M38.7,26.2c-1,2.3,0.5,7,3.2,3.5c-0.2-1.4,0.1-2.9,0.1-4.3L38.7,26.2z"/>
	</g>
	<path d="M40.1,31.2c-0.5,0-0.9-0.3-1.2-0.8c-0.7-1.1-0.9-3-0.3-4.3l0.1-0.1l3.6-0.9v0.3l-0.1,1.4c-0.1,1-0.1,1.9,0,2.9v0.1
		l-0.1,0.1C41.4,30.8,40.8,31.2,40.1,31.2L40.1,31.2z M38.9,26.4c-0.4,1.1-0.3,2.9,0.3,3.7c0.3,0.4,0.5,0.6,0.9,0.6
		c0.5,0,1-0.4,1.5-1.1c-0.1-1-0.1-2,0.1-2.9l0.1-1.1L38.9,26.4z"/>
	<path class="st0" d="M39.1,21.8c-1.8,0.1-3.2,2.3-2.3,3.9c1.2,2.2,3.9-0.2,5.6,0c2,0.1,3.5,2.1,5.1,0.4c1.8-1.9-0.8-3.7-2.7-4.6
		L39.1,21.8z"/>
	<path class="st7" d="M46.1,27c-0.6,0-1.2-0.3-1.8-0.5c-0.6-0.3-1.2-0.5-2-0.5h-0.2c-0.5,0-1.1,0.2-1.8,0.5
		c-0.7,0.3-1.4,0.5-2.1,0.5c-0.8,0-1.4-0.3-1.8-1.1c-0.5-0.8-0.4-1.7,0.1-2.6c0.5-1,1.4-1.6,2.4-1.7l5.8-0.3H45
		c1.4,0.6,3.1,1.7,3.4,3c0.1,0.7-0.1,1.3-0.6,1.9C47.3,26.8,46.7,27,46.1,27L46.1,27z M42.5,25.6c0.7,0,1.4,0.3,2.1,0.6
		c0.6,0.3,1.1,0.5,1.6,0.5c0.5,0,0.9-0.2,1.2-0.6c0.5-0.5,0.6-1,0.5-1.5c-0.3-1.1-1.8-2.2-3.1-2.7l-5.7,0.3
		c-0.9,0.1-1.6,0.7-2.1,1.4c-0.4,0.7-0.4,1.5-0.1,2.2c0.3,0.6,0.7,0.9,1.4,0.9c0.6,0,1.2-0.3,1.9-0.5c0.7-0.3,1.3-0.5,2-0.5
		C42.3,25.5,42.3,25.5,42.5,25.6L42.5,25.6z"/>
	<path class="st8" d="M38.9,21.7c-0.1-3.1,5.8-3.5,6.4-0.9C46,23.4,39.1,24,38.9,21.7"/>
</g>
</svg>
