<?xml version="1.0" encoding="utf-8"?>
<!-- Generator: Adobe Illustrator 27.9.0, SVG Export Plug-In . SVG Version: 6.00 Build 0)  -->
<svg version="1.1" id="Layer_1" xmlns="http://www.w3.org/2000/svg" xmlns:xlink="http://www.w3.org/1999/xlink" x="0px" y="0px"
	 viewBox="0 0 85 85" style="enable-background:new 0 0 85 85;" xml:space="preserve">
<style type="text/css">
	.st0{fill:#3A7087;}
	.st1{fill:#F4C70B;stroke:#F4064A;stroke-width:0.9392;stroke-miterlimit:10;}
	.st2{fill-rule:evenodd;clip-rule:evenodd;fill:#F4C70B;stroke:#F4064A;stroke-width:0.9392;stroke-miterlimit:10;}
</style>
<g>
	<path id="path214" class="st0" d="M65.8,61.3l-23.7-9.2l-23.7,9.2l9.4-14.7l-24-9l29.5,0.1L42.1,23L51,37.8l29.5-0.1l-24,9
		L65.8,61.3"/>
	<path id="path300" class="st1" d="M23.8,28.7c2.4,0,1,5.9,0.1,7.7c-0.7,1.5-2.4,3.7-4.3,3.7c-2.3,0-2.2-2.6-1.3-4.5
		c0.5-1.1,1.3-2.2,2.3-3.1c-0.3,0.9,0.6,1.5,0.3,2.3c-0.3,0.5-0.8,1.1-1,1.7c-0.4,0.9-0.3,2.6,0.8,2.6c0.9,0,1.8-1.2,2.1-1.9
		c0.7-1.5,2.5-7.9,0.5-7.9c-2.3,0-6.2,5.6-7,7.3c-1.5,3.1-0.4,6.9,2.9,6.9c2.3,0,4.1-2.2,5-4.1c0.5-1.1,0.8-2.3,0.9-3.3l0.4-0.1
		c0.1,2.9,3.2,7.8,1.9,10.6c-1.7,3.6-6.7,3.5-9.6,4.8c-0.6-1.4-1.4-2.7-2.6-3.7c2.6-0.9,8.9-2.3,10.3-5.2c0.6-1.2,0.2-3.2-0.5-3.9
		c-0.1,0.4-0.3,0.9-0.5,1.3c-1.2,2.5-3.7,4.4-6.3,4.4c-3.6,0-5.1-2.6-3.4-6.2C15.9,35.9,21.2,28.7,23.8,28.7"/>
	<path id="path302" class="st1" d="M30,37.3c0.1,0.4,0.6,2.3,0.9,2.3c0.7,0,1.9-1.9,2.2-2.3c0.6,0.4,0.3,1.2,1.4,1.2
		c0.5,0,0.8-1.1,1.3-1.1c0,0.4,0,0.8-0.2,1.4c-0.4,0.8-1.3,1.9-2.2,1.9c-0.7,0-1.6-0.8-1.8-0.8c-0.2,0-0.6,0.1-0.7,0.3
		c-0.5,1,0.8,4.4,2.1,4.4c0.7,0,1.5-0.5,2.2-0.8c-0.2,1.2-0.2,2.3,0,3.3c-0.7,0.4-1.4,0.6-2,0.6c-3.2,0-1.4-7.4-4.3-8.9L30,37.3"/>
	<path id="path304" class="st2" d="M42.2,36.7c2.4,0,3.3,4.3,2.3,6.6c-0.8,1.8-2.3,3-4.2,3c-3.3,0-2.9-4.6-1.6-7.3
		c0.4-0.8,1.6-2.4,2.6-2.4C41.6,36.6,41.8,36.7,42.2,36.7z M42.1,37.1c-0.4,0-0.7,0.2-0.9,0.6c-0.4,0.8,1.5,1.6,1.2,2.1
		c-0.2,0.4-0.8,0.7-1.1,0.7c-1.6,0-1.6-2.1-0.6-3.4c-0.6,0.4-1,0.9-1.2,1.5c-0.9,2-0.2,4.7,1.9,4.7c1.2,0,2.5-1.1,3.1-2.2
		C45.1,39.7,43.5,37.1,42.1,37.1"/>
	<path id="path306" class="st2" d="M53.1,43.8c-0.6,1.3-1.8,2.1-3.1,2.1c-4.2,0-5-3.8-3.2-7.6c0.4-0.9,1.1-1.9,2.2-1.9
		C52.4,36.4,54.7,40.5,53.1,43.8L53.1,43.8z M49.8,36.8c-0.3,0-0.6,0.1-0.7,0.4c-0.3,0.7,1.4,1.3,1.4,2c-0.2,0.2-0.7,0.5-0.9,0.5
		c-1.3,0-2.2-1.7-1.1-3c-0.4,0.3-0.7,0.7-0.9,1.1c-1.1,2.3,0.5,4.7,2.8,4.7c1,0,2.2-0.5,2.7-1.6C53.7,39.4,51.2,36.8,49.8,36.8"/>
	<path id="path308" class="st1" d="M57.4,36.8c3.6,0,5.4,6.6,3.8,10c-0.3,0.7-0.9,1.3-1.6,1.3c-4.1,0-3.1-8.2-5.4-10.5
		c0.2-0.2,0.4-0.5,0.6-0.7c1.6,1.8,0.8,6.7,4.1,6.7c0.8,0,1.3-0.7,1.7-1.3c0.8-1.8-0.7-4.8-2.4-4.8c0,0-0.3,0-0.3,0.1
		c0.1,1.1,0.9,0.4,0.1,2.3c-0.9-0.2-1.9-1.6-1.4-2.7C56.8,36.9,57.2,36.8,57.4,36.8"/>
	<path id="path310" class="st2" d="M66.4,36.7c0.3,0,0.8,0,1.1,0.1c0.1,0,0,0.1,0,0.1c0.1,0.5,0.2,1,0.3,1.5
		c0.5,1.9,0.8,3.8,1.3,5.7c0.6,2,1.2,4.3,0.5,6.8c-0.1,0.2-0.2,0.5-0.3,0.8c-2.7,5.2-8.5,3.8-10.3,3.8c-0.2,0-0.5-0.1-0.6-0.2
		c0.8-0.5,1.2-1,1.6-1.7c0.4-0.9,0.4-1.7,0.3-2.4c0.1,0.1,0.6,0.3,0.8,0.3c0.8,0,5.1,2.2,7.3-1.9c0.6-1.2,0.5-2.5,0.4-3.5
		c0-0.5-0.1-1-0.2-1.5l-0.1-0.7l0-0.1l0-0.1c0.1,0,0,0.2,0,0.2c0.1,1.3,0,3-0.6,4.4c-0.3,0.7-0.8,1.3-1.6,1.3
		c-3.5,0-1.7-9.8-4.5-12.1c0.2-0.3,0.3-0.5,0.4-0.8c1.6,2,1.7,7.4,4.1,7.4c0.6,0,1.2-0.5,1.4-1.1C68.9,40.9,67.1,38.2,66.4,36.7"/>
</g>
</svg>
