<?xml version="1.0" encoding="utf-8"?>
<!-- Generator: Adobe Illustrator 27.9.0, SVG Export Plug-In . SVG Version: 6.00 Build 0)  -->
<svg version="1.1" id="Layer_1" xmlns="http://www.w3.org/2000/svg" xmlns:xlink="http://www.w3.org/1999/xlink" x="0px" y="0px"
	 viewBox="0 0 85 85" style="enable-background:new 0 0 85 85;" xml:space="preserve">
<style type="text/css">
	.st0{fill:#FBC707;}
	.st1{fill:#F68712;}
	.st2{fill:#F25C19;}
	.st3{fill:#FFF200;}
	.st4{fill:#F1471D;}
	.st5{fill:#FAB20B;}
	.st6{fill:#F47216;}
	.st7{fill:#F89C0E;}
</style>
<g transform="matrix(.1838103125 0 0 -.1838103125 0 313.44271375)">
	<path class="st0" d="M231.2,1616.8l-108.5,12l-82,35.6H136L231.2,1616.8"/>
	<path class="st0" d="M231.2,1616.8l110.9,9.5l79.5,38.1h-95.2L231.2,1616.8"/>
	<path class="st1" d="M231.2,1331.2l103.5-3.7l86.9-43.9h-95.2L231.2,1331.2"/>
	<path class="st2" d="M231.2,1331.2H126.9l-86.1-47.6H136L231.2,1331.2"/>
	<path class="st3" d="M88.4,1474v-100.2l-47.6-90.2v95.2L88.4,1474"/>
	<path class="st3" d="M88.4,1474l-7.9,99.4l-39.7,91.1v-95.2L88.4,1474"/>
	<path class="st4" d="M374,1474l10.4,104.3l37.3,86.1v-95.2L374,1474"/>
	<path class="st4" d="M374,1474l8.7-111.8l38.9-78.6v95.2L374,1474"/>
	<path class="st5" d="M40.8,1664.4l190.4-47.6l-30.6-121.3L88.4,1474L40.8,1664.4"/>
	<path class="st6" d="M421.6,1664.4L374,1474l-127.9,23.2l-14.9,119.6L421.6,1664.4"/>
	<path class="st2" d="M421.6,1283.6l-190.4,47.6l21.5,126.2L374,1474L421.6,1283.6"/>
	<path class="st7" d="M40.8,1283.6L88.4,1474l114.7-25.7l28.1-117.1L40.8,1283.6"/>
	<path class="st1" d="M231.2,1616.8L88.4,1474l142.8-142.8L374,1474L231.2,1616.8"/>
</g>
</svg>
