<?xml version="1.0" encoding="utf-8"?>
<!-- Generator: Adobe Illustrator 27.9.0, SVG Export Plug-In . SVG Version: 6.00 Build 0)  -->
<svg version="1.1" id="Layer_1" xmlns="http://www.w3.org/2000/svg" xmlns:xlink="http://www.w3.org/1999/xlink" x="0px" y="0px"
	 viewBox="0 0 85 85" style="enable-background:new 0 0 85 85;" xml:space="preserve">
<style type="text/css">
	.st0{fill:#D8164E;}
	.st1{fill:#FFFFFF;}
	.st2{fill:#F4E808;}
</style>
<g>
	<path class="st0" d="M42.5,7.5c-19.3,0-35,15.7-35,35s15.7,35,35,35s35-15.7,35-35S61.8,7.5,42.5,7.5z M50.9,33.5
		c-2.6,0-4.6-2.1-4.6-4.6c0-2.6,2.1-4.6,4.6-4.6c2.6,0,4.6,2.1,4.6,4.6C55.5,31.4,53.5,33.5,50.9,33.5z"/>
	<path class="st1" d="M55.5,28.9c0,2.6-2.1,4.6-4.6,4.6c-2.6,0-4.6-2.1-4.6-4.6c0-2.6,2.1-4.6,4.6-4.6
		C53.5,24.2,55.5,26.3,55.5,28.9z"/>
	<path class="st2" d="M60.3,55H24.7c-2.1,0-3.4-2.4-2.1-4.1l13.1-18.3c1-1.5,3.2-1.5,4.3,0l7.6,10.6c0.4,0.5,1.1,0.5,1.5,0l1.8-2.4
		c1-1.5,3.2-1.5,4.3,0l7.3,10.1C63.6,52.6,62.4,55,60.3,55z"/>
</g>
</svg>
