<?xml version="1.0" encoding="utf-8"?>
<!-- Generator: Adobe Illustrator 27.9.0, SVG Export Plug-In . SVG Version: 6.00 Build 0)  -->
<svg version="1.1" id="Layer_1" xmlns="http://www.w3.org/2000/svg" xmlns:xlink="http://www.w3.org/1999/xlink" x="0px" y="0px"
	 viewBox="0 0 85 85" style="enable-background:new 0 0 85 85;" xml:space="preserve">
<style type="text/css">
	.st0{fill:#397DB7;}
	.st1{fill:#2D9DC9;}
</style>
<path class="st0" d="M74.2,63.4c-1.4,1.9-2.9,3.7-4.7,5.3c-3-1.4-5.8-3-8.6-4.8c-10.2,4.4-21.1,6.6-32.2,6.6
	c-3.7,0-7.5-0.3-11.2-0.8c-2.6-2.3-4.9-4.9-6.9-7.8c5.7,1.2,11.5,1.8,17.4,1.8c12.2,0,23.8-2.7,34.3-7.5
	C66.1,59,70.1,61.4,74.2,63.4z"/>
<path class="st0" d="M79.5,52.9c-0.9,2.5-2,4.9-3.2,7.3c-4.7-2.2-9.2-4.8-13.4-7.8C52,57.6,40,60.3,28,60.3
	c-6.9,0-13.4-0.9-19.7-2.5c-1.2-2.3-2.1-4.8-2.7-7.3c6.5,1.7,13.4,2.6,20.4,2.6c13.6,0,26.5-3.4,37.6-9.3
	C68.5,47.5,73.8,50.5,79.5,52.9L79.5,52.9z M66.8,71c-2.3-1.2-4.5-2.5-6.6-3.9c-9.6,4-20.3,6.1-31.3,6.1c-2.5,0-4.9,0-7.4-0.3
	c6.4,4.2,13.8,6.5,21.4,6.5C51.8,79.4,60.3,76.2,66.8,71L66.8,71z"/>
<path class="st0" d="M66.8,14c-6.5-5.2-14.9-8.4-23.9-8.4c-7.6,0-15.1,2.3-21.4,6.5c2.5-0.3,4.9-0.3,7.4-0.3c11,0,21.7,2.1,31.3,6.1
	C62.3,16.5,64.5,15.2,66.8,14L66.8,14z"/>
<g>
	<path class="st1" d="M18.5,27.3v3.3H14v-3.3H18.5z M18.5,41.8H14V31.4h4.5V41.8z"/>
	<path class="st1" d="M24.3,27.3v3.3h-4.5v-3.3H24.3z M28.4,41.8h-8.6V31.4h4.5v7.1h4.9L28.4,41.8z"/>
	<path class="st1" d="M40.7,31.4l2.9,10.4h-4.4L36.5,32L35,38.5h2.5l-0.9,3.3h-6.8l2.4-10.4H40.7z M39.5,27.3l0.9,3.3h-8l0.8-3.3
		H39.5z"/>
	<path class="st1" d="M48.8,31.8c0,0.4,0.1,0.7,0.2,0.8c0.1,0.1,0.4,0.2,0.7,0.2h3.3c0.8,0,1.4,0.2,1.8,0.5c0.4,0.3,0.6,0.9,0.6,1.6
		v4.7c0,0.7-0.2,1.3-0.6,1.6c-0.4,0.3-1,0.5-1.8,0.5H45l-0.8-3.3h5.7c0.3,0,0.6-0.1,0.7-0.2c0.1-0.2,0.2-0.4,0.2-0.9v-0.1
		c0-0.4,0-0.6-0.1-0.8c-0.1-0.2-0.3-0.3-0.5-0.3h-3.6c-0.8,0-1.4-0.2-1.8-0.5c-0.4-0.3-0.6-0.9-0.6-1.6v-2.7h4.5V31.8z M44.3,29.4
		c0-1.3,0.6-2,1.8-2.1h9.3l-0.9,3.3H44.3V29.4z"/>
	<path class="st1" d="M56.6,30.6v-3.3h4.7l1.9,3.3H56.6z M65.4,41.8h-0.7l-3.6-6.4v6.4h-4.5V31.4h7l1.4,2.5l1.4-2.5h7.1v10.4H69
		v-6.4L65.4,41.8z M66.9,30.6l1.9-3.3h4.7v3.3H66.9z"/>
</g>
</svg>
