<?xml version="1.0" encoding="utf-8"?>
<!-- Generator: Adobe Illustrator 27.9.0, SVG Export Plug-In . SVG Version: 6.00 Build 0)  -->
<svg version="1.1" id="Layer_1" xmlns="http://www.w3.org/2000/svg" xmlns:xlink="http://www.w3.org/1999/xlink" x="0px" y="0px"
	 viewBox="0 0 85 85" style="enable-background:new 0 0 85 85;" xml:space="preserve">
<style type="text/css">
	.st0{fill-rule:evenodd;clip-rule:evenodd;fill:#EFC618;}
	.st1{fill-rule:evenodd;clip-rule:evenodd;fill:#E88610;}
	.st2{fill-rule:evenodd;clip-rule:evenodd;fill:#E80A25;}
	.st3{fill:#C2C3C4;stroke:#A4A5A4;stroke-width:0.1717;stroke-miterlimit:10;}
</style>
<g>
	<g>
		<path class="st0" d="M46.9,2.6C24.6,2.6,6.5,20.4,6.5,42.5c0,21.8,18.1,39.9,40.4,39.9c12.3,0,23.7-5.8,31.4-15.8L67.8,59
			c-5.1,6.5-13,10.5-20.9,10.5c-15.1,0-27.4-12.1-27.4-26.9c0-14.9,12.3-27.2,27.4-27.2c8.1,0,16,3.9,20.9,10.5l10.7-7.7
			C70.6,8.1,59,2.6,46.9,2.6L46.9,2.6z"/>
		<path class="st1" d="M66.4,42.6c0,10.8-8.7,19.6-19.5,19.8v6.3C61,68.5,72.5,56.8,72.5,42.6c0-14.2-11.5-25.8-25.6-26v6.3
			C57.6,23.1,66.4,31.8,66.4,42.6z"/>
		<path class="st2" d="M12.7,27.7l6.3,3.4c1.1-1.9,2.4-3.7,3.8-5.2l-5.1-5.2C15.7,22.8,13.9,25.3,12.7,27.7L12.7,27.7z"/>
		<path class="st2" d="M9,42.4c0,8,3.1,15.9,8.7,21.6l5.2-5.2c-4.2-4.3-6.7-10.4-6.7-16.4c0-2.7,0.5-5.3,1.4-8L10.8,32
			C9.6,35.2,9,38.7,9,42.4z"/>
	</g>
	<g>
		<path class="st3" d="M23.1,45v-0.2c0,0,0-0.1,0.1-0.2c0.1-0.1,0.2-0.2,0.3-0.3c0.1-0.1,0.2-0.2,0.3-0.4c0.1-0.1,0.2-0.2,0.3-0.2
			h0.8l0.6-1.6h-1.4v-0.2c0,0,0-0.1,0.1-0.2c0.1-0.1,0.2-0.2,0.3-0.3c0.1-0.1,0.2-0.2,0.3-0.4c0.1-0.1,0.2-0.2,0.3-0.2h4.1
			c0,0.1-0.1,0.2-0.2,0.4c-0.1,0.1-0.2,0.3-0.3,0.4c-0.1,0.1-0.2,0.3-0.3,0.4c-0.1,0.1-0.2,0.2-0.2,0.2h-0.8l-0.6,1.6h1.4
			c0,0.1-0.1,0.1-0.1,0.2c-0.1,0.1-0.1,0.2-0.2,0.3c-0.1,0.1-0.2,0.2-0.2,0.3c-0.1,0.1-0.2,0.2-0.2,0.3c-0.1,0.1-0.1,0.1-0.2,0.2
			C27.1,45,27,45,27,45H23.1z M27,44.8c0,0,0.1,0,0.2-0.1c0.1-0.1,0.2-0.2,0.3-0.3c0.1-0.1,0.2-0.2,0.3-0.3c0.1-0.1,0.1-0.2,0.2-0.3
			h-1.4l0.7-1.9h0.9c0,0,0.1,0,0.2-0.1c0.1-0.1,0.2-0.2,0.3-0.3c0.1-0.1,0.2-0.2,0.3-0.3c0.1-0.1,0.1-0.2,0.2-0.3h-3.8
			c-0.1,0-0.2,0.1-0.3,0.2c-0.1,0.1-0.2,0.2-0.3,0.3c-0.1,0.1-0.2,0.2-0.2,0.3c-0.1,0.1-0.1,0.1-0.1,0.2v0h1.4L25,43.9h-0.9
			c-0.1,0-0.2,0.1-0.3,0.2c-0.1,0.1-0.2,0.2-0.3,0.3c-0.1,0.1-0.2,0.2-0.2,0.3c-0.1,0.1-0.1,0.1-0.1,0.2v0H27z"/>
		<path class="st3" d="M27.8,45l1.6-4.2h2.1l0.3,1.8l0.7-1.8h1.8L32.6,45h-2.1l-0.3-1.8L29.5,45H27.8z M29.4,44.8l0.8-2.2l0.4,2.2
			h1.8l1.5-3.9h-1.4l-0.8,2.2l-0.4-2.2h-1.8L28,44.8H29.4z"/>
		<path class="st3" d="M34.1,45l1.1-2.9h-1.3v-0.2c0,0,0-0.1,0.1-0.2c0.1-0.1,0.2-0.2,0.3-0.3c0.1-0.1,0.2-0.2,0.3-0.4
			c0.1-0.1,0.2-0.2,0.3-0.2h4c0,0.1-0.1,0.2-0.2,0.4c-0.1,0.1-0.2,0.3-0.3,0.4c-0.1,0.1-0.2,0.3-0.3,0.4c-0.1,0.1-0.2,0.2-0.2,0.2
			H37L35.9,45H34.1z M35.8,44.8l1.1-2.9h0.9c0,0,0.1,0,0.2-0.1s0.2-0.2,0.3-0.3c0.1-0.1,0.2-0.2,0.3-0.3c0.1-0.1,0.1-0.2,0.2-0.3
			h-3.7c-0.1,0-0.1,0.1-0.2,0.2c-0.1,0.1-0.2,0.2-0.3,0.3c-0.1,0.1-0.2,0.2-0.2,0.3c-0.1,0.1-0.1,0.1-0.1,0.2v0h1.4l-1.1,2.9H35.8z"
			/>
		<path class="st3" d="M39,40.8h4.6c0,0.1-0.1,0.2-0.2,0.4c-0.1,0.1-0.2,0.3-0.3,0.4c-0.1,0.1-0.2,0.3-0.3,0.4
			c-0.1,0.1-0.2,0.2-0.2,0.2h-2.2l-0.2,0.5l0.3-0.3h2.2l-1.4,1.3h-1.5l-0.1,0.1h2.9c0,0,0,0.1-0.1,0.1c0,0.1-0.1,0.1-0.1,0.2
			c0,0.1-0.1,0.1-0.1,0.2c0,0.1-0.1,0.1-0.1,0.1l0,0c0,0.1-0.1,0.1-0.2,0.2s-0.2,0.2-0.3,0.2c-0.1,0.1-0.2,0.1-0.2,0.2
			C41.5,45,41.4,45,41.4,45h-4L39,40.8z M37.6,44.8h3.8c0,0,0,0,0.1-0.1c0.1,0,0.1-0.1,0.2-0.2c0.1-0.1,0.2-0.1,0.2-0.2
			c0.1-0.1,0.1-0.1,0.2-0.2c0,0,0,0,0-0.1c0,0,0-0.1,0.1-0.1c0,0,0-0.1,0.1-0.1c0,0,0-0.1,0-0.1h-2.9l0.2-0.4h1.5l1.1-1h-1.7
			l-0.7,0.7l0.4-1.2h2.3c0,0,0.1,0,0.2-0.1s0.2-0.2,0.3-0.3c0.1-0.1,0.2-0.2,0.3-0.3c0.1-0.1,0.1-0.2,0.2-0.3h-4.3L37.6,44.8z"/>
		<path class="st3" d="M42.2,45l1.6-4.2h3.5c0.2,0,0.4,0,0.5,0.1c0.1,0.1,0.2,0.2,0.3,0.3c0.1,0.1,0.1,0.3,0.1,0.4
			c0,0.2,0,0.3,0,0.4c0,0.2-0.1,0.5-0.2,0.6c-0.1,0.2-0.2,0.3-0.4,0.4c-0.2,0.1-0.4,0.2-0.6,0.3c-0.2,0.1-0.4,0.1-0.6,0.1L48,45h-2
			l-1.5-1.3L44,45H42.2z M43.9,44.8l0.5-1.3l0.1-0.1l1.5,1.4h1.6l-1.5-1.5c0.2,0,0.4,0,0.6-0.1c0.2,0,0.4-0.1,0.6-0.2
			s0.3-0.2,0.5-0.4c0.1-0.2,0.2-0.4,0.2-0.6c0-0.1,0-0.2,0-0.4c0-0.1-0.1-0.3-0.1-0.4c-0.1-0.1-0.1-0.2-0.3-0.3
			c-0.1-0.1-0.3-0.1-0.4-0.1h-3.4l-1.5,3.9H43.9z M46.6,42.2c0,0,0,0.1,0,0.2c0,0.1-0.1,0.1-0.2,0.1h-1.2l-0.7,0.7l0.4-1.2h1.5
			c0.1,0,0.1,0,0.1,0C46.6,42,46.6,42,46.6,42.2L46.6,42.2z M46.4,42.1h-1.4l-0.2,0.4l0.2-0.2h1.3c0,0,0,0,0,0
			C46.4,42.2,46.4,42.2,46.4,42.1L46.4,42.1z"/>
		<path class="st3" d="M48.2,43c0-0.3,0.1-0.5,0.2-0.8c0.1-0.3,0.3-0.5,0.5-0.7c0.2-0.2,0.4-0.4,0.7-0.5c0.3-0.1,0.5-0.2,0.8-0.2
			h3.4c-0.2,0.3-0.4,0.5-0.6,0.7c-0.2,0.2-0.4,0.4-0.6,0.6h-2c0,0-0.1,0-0.2,0.1c-0.1,0-0.1,0.1-0.2,0.1c-0.1,0.1-0.1,0.1-0.1,0.2
			s-0.1,0.1-0.1,0.2v0c0,0.1,0,0.1,0,0.2c0,0,0,0.1,0,0.1c0,0.1,0,0.2,0.1,0.3c0,0.1,0.1,0.2,0.2,0.2c0.1,0.1,0.1,0.1,0.2,0.2
			c0.1,0,0.1,0.1,0.2,0.1h2.1c-0.2,0.2-0.3,0.5-0.5,0.7c-0.2,0.2-0.4,0.4-0.6,0.6h-0.7c-0.3,0-0.6,0-1-0.1c-0.3-0.1-0.6-0.2-0.8-0.3
			c-0.2-0.1-0.4-0.3-0.6-0.6C48.3,43.8,48.2,43.4,48.2,43L48.2,43z M48.3,43.1c0,0.4,0.1,0.6,0.2,0.9s0.3,0.4,0.6,0.6
			c0.2,0.1,0.5,0.2,0.8,0.3c0.3,0.1,0.6,0.1,0.9,0.1h0.6c0.2-0.1,0.4-0.3,0.5-0.5s0.3-0.3,0.4-0.5h-1.8c-0.1,0-0.2,0-0.3-0.1
			c-0.1-0.1-0.2-0.1-0.3-0.2c-0.1-0.1-0.1-0.2-0.2-0.3c-0.1-0.1-0.1-0.2-0.1-0.3c0-0.1,0-0.2,0.1-0.3c0-0.1,0.1-0.2,0.1-0.3
			c0.1-0.1,0.1-0.2,0.2-0.2c0.1-0.1,0.1-0.1,0.2-0.2c0.1,0,0.1-0.1,0.2-0.1h2c0.2-0.1,0.3-0.3,0.5-0.5c0.1-0.2,0.3-0.3,0.4-0.5h-3.1
			c-0.3,0-0.5,0.1-0.8,0.2c-0.2,0.1-0.4,0.3-0.6,0.5c-0.2,0.2-0.3,0.4-0.4,0.7C48.4,42.6,48.3,42.8,48.3,43.1L48.3,43.1z"/>
		<path class="st3" d="M57.8,45h-1.7L56,44.4c0,0.1-0.1,0.1-0.2,0.2c-0.1,0.1-0.1,0.1-0.2,0.2c-0.1,0.1-0.1,0.1-0.2,0.1
			c0,0-0.1,0.1-0.1,0.1H52c0,0,0-0.1,0-0.1c0,0,0-0.1,0-0.1v0l0,0c0-0.2,0.1-0.3,0.1-0.3c0,0,0.1,0,0.1,0l2.5-3.1
			c0,0,0.1-0.1,0.1-0.1c0.1-0.1,0.1-0.1,0.2-0.2c0.1-0.1,0.1-0.1,0.2-0.1c0.1,0,0.1-0.1,0.2-0.1h1.3c0.1,0,0.2,0,0.2,0.1
			C57,41,57,41,57.1,41.1c0,0.1,0.1,0.2,0.1,0.3c0,0.1,0.1,0.2,0.1,0.3L57.8,45z M57.1,41.7c0-0.1,0-0.1-0.1-0.2
			c0-0.1,0-0.2-0.1-0.2c0-0.1-0.1-0.1-0.1-0.2c0-0.1-0.1-0.1-0.1-0.1h-1.3c0,0-0.1,0-0.1,0.1c-0.1,0-0.1,0.1-0.2,0.1
			c-0.1,0-0.1,0.1-0.1,0.1c0,0.1-0.1,0.1-0.1,0.1l-2.7,3.4v0c0,0,0,0,0,0h3.2c0,0,0.1-0.1,0.2-0.1c0.1-0.1,0.2-0.2,0.2-0.3
			s0.1-0.2,0.2-0.3c0.1-0.1,0.1-0.1,0.1-0.2l0.2,0.8h1.3L57.1,41.7z M55.8,42.1l0.3,1.7h-1.5v-0.1L55.8,42.1z M54.8,43.7h1.1
			l-0.2-1.2L54.8,43.7z"/>
		<path class="st3" d="M59.3,40.8h1.7L60,43.7h2.1c0,0,0,0.1-0.1,0.2C62,44,62,44.1,61.9,44.2c-0.1,0.1-0.2,0.3-0.3,0.4
			c-0.1,0.1-0.2,0.3-0.3,0.3h-3.5L59.3,40.8z M58,44.8h3.2c0.1-0.1,0.2-0.1,0.3-0.2c0.1-0.1,0.2-0.2,0.3-0.3
			c0.1-0.1,0.2-0.2,0.2-0.3c0.1-0.1,0.1-0.1,0.1-0.1h-2.3l1.1-2.9h-1.4L58,44.8z"/>
	</g>
</g>
</svg>
