<?xml version="1.0" encoding="utf-8"?>
<!-- Generator: Adobe Illustrator 27.9.0, SVG Export Plug-In . SVG Version: 6.00 Build 0)  -->
<svg version="1.1" id="Layer_1" xmlns="http://www.w3.org/2000/svg" xmlns:xlink="http://www.w3.org/1999/xlink" x="0px" y="0px"
	 viewBox="0 0 85 85" style="enable-background:new 0 0 85 85;" xml:space="preserve">
<style type="text/css">
	.st0{fill-rule:evenodd;clip-rule:evenodd;fill:#3174B9;}
	.st1{fill-rule:evenodd;clip-rule:evenodd;fill:#CA3132;}
	.st2{fill:#3174B9;}
</style>
<g>
	<g>
		<path class="st0" d="M25.5,63.2c0,0-2.9,1.7,2.1,2.3c6,0.7,9.1,0.6,15.7-0.7c0,0,1.7,1.1,4.2,2C32.6,73.2,13.9,66.5,25.5,63.2z
			 M23.7,54.9c0,0-3.2,2.4,1.7,2.9c6.4,0.7,11.5,0.7,20.3-1c0,0,1.2,1.2,3.1,1.9C30.8,64,10.9,59.2,23.7,54.9z"/>
		<path class="st1" d="M39,40.8c3.7,4.2-1,8-1,8S47.3,44,43,38c-4-5.6-7-8.4,9.5-18C52.5,20.1,26.6,26.6,39,40.8z"/>
		<path class="st0" d="M58.6,69.4c0,0,2.1,1.8-2.4,3.1c-8.6,2.6-35.7,3.4-43.2,0.1c-2.7-1.2,2.4-2.8,4-3.2c1.7-0.4,2.6-0.3,2.6-0.3
			c-3-2.1-19.4,4.2-8.3,6C41.6,80,66.5,72.9,58.6,69.4L58.6,69.4z M26.9,46.3c0,0-13.8,3.3-4.9,4.5c3.8,0.5,11.2,0.4,18.2-0.2
			c5.7-0.5,11.4-1.5,11.4-1.5s-2,0.9-3.5,1.9c-14,3.7-41,2-33.2-1.8C21.6,46,26.9,46.3,26.9,46.3L26.9,46.3z"/>
		<path class="st1" d="M43,4.6c0,0,7.9,7.9-7.5,20c-12.3,9.7-2.8,15.3,0,21.6c-7.2-6.5-12.5-12.2-8.9-17.5
			C31.8,20.9,46.2,17.1,43,4.6L43,4.6z"/>
		<path class="st0" d="M28.3,80.2C42,81,62.9,79.7,63.4,73.2c0,0-1,2.4-11.3,4.4c-11.7,2.2-26,1.9-34.6,0.5
			C17.6,78.2,19.3,79.6,28.3,80.2z"/>
	</g>
	<g>
		<path class="st2" d="M44.9,36.4c0-2.4,0.6-4.5,1.8-6.5c1.2-2,2.9-3.5,5.3-4.7c2.4-1.2,5.2-1.7,8.6-1.7c3.4,0,6.2,0.6,8.6,1.7
			c2.4,1.2,4.1,2.7,5.3,4.7c1.2,2,1.8,4.1,1.8,6.5c0,2.4-0.6,4.6-1.9,6.4c-1.2,1.9-2.9,3.3-4.9,4.3c2.5,0.9,4.4,2.4,5.9,4.5
			c1.4,2.1,2.2,4.5,2.2,7.3c0,2.8-0.7,5.3-2.2,7.5c-1.4,2.2-3.4,3.9-6,5c-2.6,1.2-5.5,1.8-8.8,1.8c-3.3,0-6.2-0.6-8.7-1.8
			c-2.5-1.2-4.5-2.9-6-5c-1.4-2.2-2.2-4.7-2.2-7.5c0-2.8,0.7-5.3,2.2-7.3c1.4-2,3.4-3.5,5.8-4.4C47.2,44.9,44.9,41.3,44.9,36.4z
			 M53.6,52.5c-1.8,1.4-2.7,3.5-2.7,6.1c0,2.5,0.9,4.5,2.6,6c1.7,1.5,4.1,2.3,7.1,2.3c3,0,5.3-0.8,7-2.4c1.7-1.6,2.6-3.6,2.6-6
			c0-2.6-0.9-4.6-2.6-6.1c-1.8-1.4-4.1-2.2-7-2.2C57.7,50.4,55.4,51.1,53.6,52.5z M66.8,31.7c-1.5-1.3-3.6-2-6.3-2
			c-2.6,0-4.7,0.7-6.2,2c-1.5,1.3-2.3,3.2-2.3,5.7c0,2.2,0.8,4,2.4,5.3c1.6,1.4,3.6,2.1,6.1,2.1c2.5,0,4.5-0.7,6.1-2.1
			c1.6-1.4,2.4-3.2,2.4-5.4C69.1,34.9,68.4,33,66.8,31.7z"/>
	</g>
</g>
</svg>
