<?xml version="1.0" encoding="UTF-8"?>
<svg id="Layer_1" data-name="Layer 1" xmlns="http://www.w3.org/2000/svg" viewBox="0 0 500 500">
  <defs>
    <style>
      .cls-1 {
        fill: #ff7300;
      }

      .cls-2 {
        fill: #0076b7;
      }
    </style>
  </defs>
  <path class="cls-2" d="m190.51,373.92s-17.32,10.07,12.33,13.48c35.92,4.1,54.28,3.51,93.87-3.98,0,0,10.41,6.53,24.94,12.18-88.75,38.03-200.85-2.2-131.14-21.68m-10.84-49.63s-19.43,14.38,10.24,17.45c38.37,3.96,68.68,4.28,121.12-5.81,0,0,7.25,7.35,18.66,11.37-107.3,31.38-226.81,2.47-150.02-23.01"/>
  <path class="cls-1" d="m271.08,240.1c21.87,25.18-5.75,47.83-5.75,47.83,0,0,55.52-28.66,30.02-64.56-23.82-33.47-42.08-50.1,56.79-107.45,0,0-155.2,38.76-81.07,124.17"/>
  <path class="cls-2" d="m388.46,410.64s12.82,10.56-14.12,18.73c-51.22,15.52-213.21,20.2-258.2.62-16.17-7.04,14.16-16.8,23.7-18.85,9.95-2.16,15.64-1.75,15.64-1.75-17.99-12.67-116.27,24.88-49.92,35.64,180.94,29.34,329.84-13.21,282.91-34.38m-189.62-137.77s-82.39,19.57-29.18,26.68c22.47,3.01,67.26,2.33,108.98-1.17,34.1-2.87,68.34-8.99,68.34-8.99,0,0-12.02,5.15-20.72,11.09-83.67,22.01-245.3,11.77-198.77-10.74,39.35-19.02,71.35-16.86,71.35-16.86m147.8,82.62c85.06-44.2,45.73-86.67,18.28-80.95-6.73,1.4-9.73,2.61-9.73,2.61,0,0,2.5-3.91,7.27-5.6,54.3-19.09,96.06,56.31-17.53,86.17,0,0,1.32-1.17,1.71-2.23"/>
  <path class="cls-1" d="m295.36,23.33s47.1,47.12-44.68,119.58c-73.6,58.12-16.78,91.26-.03,129.13-42.96-38.76-74.49-72.88-53.34-104.64,31.04-46.62,117.05-69.22,98.04-144.07"/>
  <path class="cls-2" d="m207.19,475.25c81.64,5.23,207.01-2.9,209.98-41.53,0,0-5.71,14.65-67.47,26.28-69.68,13.11-155.63,11.58-206.6,3.18,0,0,10.44,8.64,64.09,12.08"/>
</svg>