<?xml version="1.0" encoding="utf-8"?>
<!-- Generator: Adobe Illustrator 27.9.0, SVG Export Plug-In . SVG Version: 6.00 Build 0)  -->
<svg version="1.1" id="Layer_1" xmlns="http://www.w3.org/2000/svg" xmlns:xlink="http://www.w3.org/1999/xlink" x="0px" y="0px"
	 viewBox="0 0 85 85" style="enable-background:new 0 0 85 85;" xml:space="preserve">
<style type="text/css">
	.st0{fill:#1266A8;}
</style>
<g>
	<path class="st0" d="M8.9,56.3c0.1,0.2,0.2,0.3,0.2,0.5c0,0.1,0.1,0.2,0.1,0.3c0.1,0.2,0.2,0.3,0.3,0.5l0.5,0.8
		c0.1,0.2,0.2,0.3,0.3,0.5c0.2,0.3,0.4,0.6,0.6,0.9c0.1,0.1,0.2,0.2,0.3,0.4c0.3,0.5,0.7,1,1,1.4c0.2,0.3,0.5,0.6,0.7,1
		c0.1,0.1,0.2,0.2,0.3,0.4l0.7,0.8c0.1,0.1,0.2,0.2,0.3,0.3c0.3,0.4,0.6,0.7,1,1.1c0,0,0,0,0,0c0.4,0.5,0.8,1,1.3,1.4l0,0
		c0.3,0.3,0.5,0.5,0.8,0.8l0.3,0.3c0.4,0.3,0.7,0.7,1.1,1c0,0,0,0,0,0l0.2,0.2c0.3,0.3,0.7,0.6,1,0.8l0.4,0.3
		c0.3,0.2,0.5,0.4,0.8,0.6l0.4,0.3c0.3,0.2,0.6,0.4,0.9,0.7c0.1,0.1,0.2,0.2,0.3,0.2l0.1,0.1l0.9,0.6l0.4,0.3
		c0.5,0.3,0.9,0.6,1.4,0.9c0.1,0.1,0.3,0.1,0.4,0.2c0.3,0.2,0.7,0.4,1,0.6c0.2,0.1,0.4,0.2,0.6,0.3c0.2,0.1,0.5,0.3,0.7,0.4
		c0.1,0,0.1,0,0.2,0.1l0,0c0.1,0,0.2,0.1,0.3,0.1c0.4,0.2,0.8,0.4,1.2,0.5c0.1,0,0.2,0.1,0.2,0.1c0.5,0.2,0.9,0.4,1.4,0.6
		c0.1,0,0.2,0.1,0.3,0.1c0.4,0.2,0.9,0.3,1.3,0.5l0.2,0.1c0.5,0.2,1,0.3,1.5,0.5c0.1,0,0.2,0.1,0.4,0.1c0.5,0.2,1,0.3,1.5,0.4
		C69.2,84,78.7,58.6,78.7,58.6c-8,10.3-22.1,13-35.4,10c-0.5-0.1-1-0.3-1.5-0.4c-0.7-0.2-1.4-0.4-2.1-0.7l0.3,0.1l-0.2-0.1
		c-0.4-0.1-0.8-0.3-1.3-0.5c-0.1,0-0.2-0.1-0.3-0.1l0,0c-0.5-0.2-0.9-0.4-1.4-0.6c-0.1,0-0.2-0.1-0.3-0.1c-0.5-0.2-1.1-0.5-1.6-0.7
		l0.4,0.2c-0.1,0-0.2-0.1-0.3-0.2c-0.3-0.1-0.6-0.3-0.9-0.4c-0.2-0.1-0.4-0.2-0.7-0.3l0.1,0c-0.4-0.2-0.7-0.4-1.1-0.6
		c-0.1-0.1-0.2-0.1-0.4-0.2c-0.5-0.3-1.1-0.6-1.6-1l0.2,0.1c-0.1-0.1-0.3-0.2-0.4-0.3l0,0c-0.3-0.2-0.7-0.4-1-0.7
		c-0.1-0.1-0.2-0.1-0.3-0.2c-0.3-0.2-0.7-0.5-1-0.7l0.1,0.1c-0.1-0.1-0.3-0.2-0.4-0.3c-0.3-0.2-0.6-0.4-0.8-0.7L26.5,60
		c-0.4-0.3-0.8-0.6-1.2-1h0l-1.1-1l-0.3-0.3c-0.3-0.3-0.5-0.5-0.8-0.8l-0.3-0.3c-0.3-0.3-0.6-0.7-1-1l0,0l-0.1,0
		c-0.3-0.4-0.7-0.7-1-1.1c-0.1-0.1-0.2-0.2-0.3-0.3l-0.7-0.9c-0.3-0.4-0.6-0.8-1-1.2l-0.1-0.2c-7.4-10.1-10.1-24-4.2-35.4l-5.2,6.6
		c-6.7,9.6-5.9,22.2-0.8,32.4C8.6,55.8,8.8,56,8.9,56.3L8.9,56.3L8.9,56.3z"/>
	<path d="M31.6,42.4L31.6,42.4L31.6,42.4L31.6,42.4z"/>
	<path class="st0" d="M35.1,46.5l0.3,0.3c0.4,0.3,0.7,0.7,1.1,1l0,0c0.4,0.3,0.8,0.7,1.2,1l0.1,0c0.1,0.1,0.2,0.2,0.3,0.2
		c0.4,0.3,0.9,0.7,1.4,1l0,0c0.2,0.1,0.4,0.3,0.6,0.4c0.1,0.1,0.2,0.1,0.3,0.2c0.3,0.2,0.7,0.4,1,0.6c0.1,0,0.1,0,0.2,0.1
		c0.3,0.2,0.6,0.3,0.9,0.5c0.1,0.1,0.2,0.1,0.3,0.2c0.2,0.1,0.4,0.2,0.6,0.3l0.1,0c0.4,0.2,0.9,0.4,1.3,0.6c0.1,0,0.2,0.1,0.3,0.1
		c0.4,0.2,0.7,0.3,1.1,0.4c0.2,0.1,0.3,0.1,0.5,0.2c0.3,0.1,0.7,0.2,1,0.3l0.4,0.1c0.5,0.1,0.9,0.3,1.4,0.4
		c25.2,4.1,31-15.1,31-15.1c-5.2,7.5-15.4,11.1-26.2,8.3c-0.5-0.1-1.1-0.3-1.6-0.5l0.2,0c-0.2,0-0.3-0.1-0.4-0.1
		c-0.3-0.1-0.7-0.2-1-0.3l-0.5-0.2c-0.4-0.1-0.7-0.3-1.1-0.4c-0.1,0-0.2-0.1-0.3-0.1c-0.4-0.2-0.9-0.4-1.3-0.6l-0.7-0.3l-0.4-0.2
		c-0.3-0.2-0.6-0.3-0.8-0.5c-0.1,0-0.1-0.1-0.2-0.1h0c-0.3-0.2-0.7-0.4-1-0.6c-0.1-0.1-0.2-0.1-0.3-0.2l-0.7-0.4
		c-0.5-0.3-0.9-0.7-1.4-1c-0.1-0.1-0.2-0.2-0.3-0.3c-4.8-3.7-8.5-8.8-10.3-14.6c-1.9-6-1.5-12.7,1.8-18.1l-4,5.6
		c-4.9,7-4.6,16.3-0.8,23.7c0.7,1.4,1.4,2.5,2.2,3.6c0.7,1,1.5,2.2,2.5,3.1C34.4,45.8,34.8,46.2,35.1,46.5L35.1,46.5L35.1,46.5z"/>
	<path d="M12.2,61.5L12.2,61.5L12.2,61.5L12.2,61.5L12.2,61.5z M25.4,59.1L25.4,59.1L25.4,59.1L25.4,59.1z"/>
	<path class="st0" d="M47.8,8.9c-2.9,4.2-3.2,9.4-1.2,14.1c2.1,4.9,6.4,8.8,11.4,10.6c0.2,0.1,0.4,0.1,0.6,0.2L59,34
		c0.3,0.1,0.6,0.2,0.9,0.3c13.9,2.7,17.7-7.1,18.7-8.5c-3.3,4.7-8.9,5.9-15.7,4.2c-0.6-0.1-1.2-0.3-1.7-0.5l0.1,0
		c-0.7-0.2-1.4-0.5-2.1-0.9l0.1,0.1c-1.3-0.6-2.4-1.3-3.5-2.1C49.7,21.9,46,13.1,49.9,6L47.8,8.9L47.8,8.9z"/>
</g>
</svg>
