<?xml version="1.0" encoding="utf-8"?>
<!-- Generator: Adobe Illustrator 27.9.0, SVG Export Plug-In . SVG Version: 6.00 Build 0)  -->
<svg version="1.1" id="Layer_1" xmlns="http://www.w3.org/2000/svg" xmlns:xlink="http://www.w3.org/1999/xlink" x="0px" y="0px"
	 viewBox="0 0 85 85" style="enable-background:new 0 0 85 85;" xml:space="preserve">
<style type="text/css">
	.st0{fill:#0481A3;}
	.st1{fill:#14BEF0;}
	.st2{fill:#73D8F4;}
	.st3{fill:#6ABA2F;}
	.st4{fill:#B8EC00;}
	.st5{fill:#FFFFFF;}
	.st6{fill:#81D958;}
</style>
<g>
	<path class="st0" d="M16.9,16.4h50.2c1.1,0,1.9,1,1.7,2.1l-7.1,31.4c-0.2,1.1-1.2,1.9-2.3,1.9H9.4c-1.2,0-2.1-1.1-1.9-2.3l6.9-31.1
		C14.7,17.2,15.7,16.4,16.9,16.4"/>
	<path class="st1" d="M38.9,24.9h37.3c0.9,0,1.5,0.8,1.3,1.6l-6.3,28c-0.2,1-1.1,1.7-2.1,1.7H31.7c-0.8,0-1.3-0.7-1.2-1.5l6.3-28.3
		C37.1,25.6,37.9,24.9,38.9,24.9"/>
	<path class="st2" d="M38.9,24.9c-1,0-1.8,0.7-2,1.6l-5.7,25.2h28.1c1.1,0,2.1-0.8,2.3-1.9l5.6-25L38.9,24.9L38.9,24.9z"/>
	<path class="st3" d="M26.7,34.3h17.1c0.9,0,1.6,0.9,1.4,1.8l-7.2,31c-0.2,0.9-1,1.5-1.9,1.5H18.7c-0.8,0-1.4-0.8-1.3-1.6l7-30.9
		C24.7,35,25.6,34.3,26.7,34.3"/>
	<path class="st4" d="M30.5,54.8c-0.2,0.8,0.4,1.5,1.2,1.5h8.8l1-4.5H31.2L30.5,54.8L30.5,54.8z"/>
	<path class="st5" d="M43.7,34.3h-8.6l-3.9,17.5h10.3l3.6-15.7C45.4,35.2,44.7,34.3,43.7,34.3"/>
	<path class="st6" d="M26.7,34.3c-1.1,0-2,0.7-2.2,1.8l-3.5,15.7h10.3l3.9-17.5H26.7z"/>
</g>
</svg>
