<?xml version="1.0" encoding="utf-8"?>
<!-- Generator: Adobe Illustrator 27.9.0, SVG Export Plug-In . SVG Version: 6.00 Build 0)  -->
<svg version="1.1" id="Layer_1" xmlns="http://www.w3.org/2000/svg" xmlns:xlink="http://www.w3.org/1999/xlink" x="0px" y="0px"
	 viewBox="0 0 85 85" style="enable-background:new 0 0 85 85;" xml:space="preserve">
<style type="text/css">
	.st0{fill:#9B9A9A;}
	.st1{fill:#4D64AE;}
	.st2{fill:#CA3C32;}
	.st3{fill:#9259A3;}
	.st4{fill:#399746;}
</style>
<g id="Layer_2_00000028303148162124754030000006658243443262657188_">
	<g id="Layer_1-2">
		<g id="layer1">
			<g id="g3855">
				<g id="g945">
					<g id="g984">
						<g id="g920">
							<path id="path3804" class="st0" d="M51.2,59h-6.8V27.8l6.8-1.9V59z"/>
							<g id="g898">
								<g id="g893">
									<path id="path19" class="st1" d="M14.1,35.7c-2.6,0-4.6-2.1-4.6-4.6s2.1-4.6,4.6-4.6s4.6,2.1,4.6,4.6
										C18.7,33.6,16.6,35.7,14.1,35.7z"/>
								</g>
								<path id="path3819" class="st0" d="M17.7,59c0.1,1.6-0.2,3.2-0.7,4.8c-0.4,1.1-1,2.1-1.9,2.8c-0.9,0.7-1.9,1.2-2.9,1.4
									c-1.3,0.2-2.5,0.4-3.8,0.4c-0.8,0-1.7-0.1-2.5-0.2c-0.6-0.1-1.3-0.4-1.8-0.7c-0.4-0.2-0.8-0.6-1.1-1
									c-0.3-0.3-0.4-0.7-0.4-1.1c0-0.7,0.3-1.3,0.8-1.8C4,63,4.8,62.7,5.6,62.8c0.3,0,0.7,0,1,0.2c0.3,0.1,0.5,0.2,0.7,0.4
									c0.2,0.2,0.4,0.4,0.6,0.6c0.2,0.2,0.3,0.4,0.4,0.6c0.2,0.3,0.5,0.6,0.8,0.8c0.2,0.1,0.4,0.2,0.6,0.2c0.2,0,0.4,0,0.5-0.1
									c0.2-0.1,0.3-0.3,0.4-0.5c0.1-0.3,0.2-0.7,0.2-1c0.1-0.5,0.1-1.1,0.1-1.6V37.9l6.8-1.9V59z"/>
							</g>
							<path id="path3802" class="st0" d="M27.6,36.5v15.7c0,0.4,0.1,0.9,0.2,1.2c0.2,0.4,0.4,0.7,0.7,1c0.3,0.3,0.7,0.5,1,0.7
								c0.4,0.2,0.8,0.3,1.3,0.3c0.3,0,0.6-0.1,0.8-0.2c0.3-0.2,0.7-0.4,0.9-0.6c0.3-0.3,0.7-0.5,0.9-0.9c0.3-0.3,0.6-0.7,0.8-1.1
								V36.5h6.8V59h-6.8v-2.1c-0.9,0.7-1.8,1.4-2.8,1.8c-0.9,0.4-1.9,0.7-2.9,0.7c-1.1,0-2.1-0.2-3.1-0.5c-0.9-0.3-1.8-0.9-2.5-1.5
								c-0.7-0.6-1.3-1.4-1.7-2.2c-0.4-0.9-0.6-1.8-0.6-2.8V36.5H27.6z"/>
							<g id="g905">
								<g id="g890">
									<path id="path13" class="st2" d="M57.8,35.7c-2.6,0-4.6-2.1-4.6-4.7c0-2.6,2.1-4.6,4.7-4.6c2.6,0,4.6,2.1,4.6,4.6
										C62.4,33.6,60.3,35.7,57.8,35.7z"/>
									<path id="path25" class="st3" d="M68.9,35.7c-2.6,0-4.6-2.1-4.6-4.7s2.1-4.6,4.7-4.6c2.6,0,4.6,2.1,4.6,4.6
										C73.6,33.6,71.5,35.7,68.9,35.7z"/>
									<path id="path31" class="st4" d="M63.4,26c-2.6,0-4.6-2.1-4.6-4.6c0-2.6,2.1-4.6,4.6-4.6s4.6,2.1,4.6,4.6
										C68,23.9,65.9,26,63.4,26C63.4,26,63.4,26,63.4,26z"/>
								</g>
								<path id="path3823" class="st0" d="M54.8,37.9l6.8-1.9V59h-6.8V37.9z"/>
							</g>
							<path id="path3808" class="st0" d="M75.7,47.4c-0.7,0.3-1.3,0.6-2,1c-0.6,0.3-1.2,0.7-1.8,1.2c-0.5,0.4-1,0.9-1.3,1.4
								c-0.3,0.4-0.5,1-0.5,1.5c0,0.4,0.1,0.8,0.2,1.2c0.1,0.4,0.3,0.7,0.5,1c0.2,0.3,0.4,0.5,0.6,0.7c0.2,0.2,0.5,0.2,0.8,0.3
								c0.6,0,1.2-0.2,1.7-0.5c0.7-0.4,1.3-0.8,1.9-1.3L75.7,47.4z M82.5,59h-6.8v-1.8c-0.4,0.3-0.7,0.6-1.1,0.9
								c-0.4,0.3-0.8,0.5-1.2,0.7c-0.5,0.2-1,0.4-1.5,0.5c-0.7,0.1-1.3,0.2-2,0.2c-0.9,0-1.9-0.1-2.8-0.4c-0.8-0.3-1.5-0.7-2.1-1.2
								c-0.6-0.5-1-1.1-1.3-1.8c-0.3-0.7-0.5-1.5-0.5-2.3c0-0.8,0.1-1.6,0.5-2.3c0.3-0.7,0.8-1.3,1.3-1.9c0.6-0.6,1.3-1.1,2-1.5
								c0.8-0.5,1.6-0.9,2.4-1.2c0.9-0.4,1.8-0.7,2.7-1l2.7-0.9l0.7-0.2v-2.2c0-0.6-0.1-1.2-0.2-1.8c-0.1-0.4-0.3-0.9-0.6-1.2
								c-0.2-0.3-0.6-0.5-0.9-0.7c-0.4-0.1-0.8-0.2-1.2-0.2c-0.5,0-0.9,0.1-1.4,0.2c-0.3,0.1-0.6,0.3-0.9,0.6
								c-0.2,0.2-0.4,0.5-0.5,0.8c-0.1,0.3-0.2,0.7-0.1,1c0,0.4,0,0.8-0.1,1.2c-0.1,0.4-0.2,0.7-0.5,1c-0.3,0.3-0.6,0.5-0.9,0.7
								c-0.5,0.2-1,0.3-1.5,0.3c-0.4,0-0.9-0.1-1.3-0.2c-0.4-0.1-0.7-0.3-1-0.6c-0.3-0.3-0.5-0.6-0.7-0.9c-0.2-0.4-0.2-0.7-0.2-1.1
								c0-0.8,0.3-1.5,0.8-2.1c0.6-0.7,1.3-1.3,2.1-1.7c1-0.5,2-0.9,3.1-1.1c1.2-0.3,2.5-0.4,3.7-0.4c1.4,0,2.8,0.1,4.1,0.4
								c1,0.2,2,0.6,2.9,1.2c0.7,0.5,1.3,1.1,1.7,1.9c0.4,0.8,0.5,1.6,0.5,2.5L82.5,59z"/>
						</g>
					</g>
				</g>
			</g>
		</g>
	</g>
</g>
</svg>
