<?xml version="1.0" encoding="utf-8"?>
<!-- Generator: Adobe Illustrator 27.9.0, SVG Export Plug-In . SVG Version: 6.00 Build 0)  -->
<svg version="1.1" id="Layer_1" xmlns="http://www.w3.org/2000/svg" xmlns:xlink="http://www.w3.org/1999/xlink" x="0px" y="0px"
	 viewBox="0 0 85 85" style="enable-background:new 0 0 85 85;" xml:space="preserve">
<style type="text/css">
	.st0{fill:none;}
	.st1{fill:#99C826;}
	.st2{fill:#277F2E;}
</style>
<g>
	<path id="path2470" class="st0" d="M19.5,0"/>
	<path id="path2468" class="st0" d="M19.5,0"/>
	<path id="path2609" class="st1" d="M44.2,45.3v1.4c0,1.5,0.1,1.5,2.8,1.9c0.9,0.1,2.5,0.7,3.7,1.2c5,2.4,4.3,6-1.7,7.9
		c-2.2,0.7-3.2,0.8-6.9,0.8c-3.6,0-4.7-0.1-6.8-0.8c-6.3-2.1-6.5-6-0.5-8.2c1.1-0.4,2.6-0.8,3.5-0.9c1.3-0.2,1.5-0.3,1.3-0.9
		c-0.1-0.4-0.2-1-0.2-1.3c0-0.8-0.9-0.8-4.3,0c-3.2,0.7-7,2.7-8,4.2c-0.8,1.1-0.8,1.3-0.8,12.3c0,11,0,11.2,0.8,12.5
		c1.5,2.4,5.3,4.5,10,5.4c2.6,0.5,7.4,0.4,10.2-0.1c6.9-1.3,10.6-4.2,10.6-8.1c0-1.4,0-1.4,1.1-1.4c1.5,0,3.8-1.1,4.7-2.2
		c1.6-2,2.3-7.1,1.4-10.2c-0.8-2.8-3-4.9-5.7-5.3c-1.4-0.2-1.5-0.3-1.5-1.2c0-1.3-2-3.5-4.2-4.6c-1.7-0.9-4.7-1.6-7.7-2L44.2,45.3z
		 M57.9,57.4h1c1.8,0,2.4,1.3,2.4,4.7c0,2.7-0.6,4.9-1.3,4.9c-0.1,0-0.6,0.1-0.9,0.2c-0.4,0.1-0.8,0.1-0.9-0.1
		c-0.1-0.1-0.2-2.4-0.2-5V57.4z"/>
	<path id="path2607" class="st2" d="M33,5.7c-0.9,0-1.2,0.2-1.8,0.8c-1.7,1.7-3,5.6-2,6.2c0.2,0.1,1.5-0.1,2.9-0.5
		c5.6-1.7,8.7-1.6,9.7,0.4c0.9,1.8,0.4,4.1-1.9,9.6c-2.7,6.3-3.9,10.9-3.7,14c0.2,2.8,0.9,4,3.1,4.8l1.5,0.6l0.2,2.9
		c0.3,3.6,0.7,5.6,1.7,8.3c0.4,1.1,0.8,1.9,0.8,1.8c0.1-0.1,0-1.4-0.2-3c-0.2-1.6-0.3-4.6-0.3-6.6l0-3.6l1.2-0.2
		c1.7-0.3,4.5-2.1,5.7-3.8c2.4-3.3,0-7.1-4.7-7.1c-2.2,0-3.6,1.3-3.9,3.5c-0.3,2.9,1.4,4.2,2.5,1.9c1-2,1.9-2.7,3.3-2.7
		c1,0,1.5,0.2,2,0.9c0.9,1.1,0.9,1.2,0.2,2.7c-0.6,1.3-2.8,2.6-4.4,2.6c-1.5,0-3.6-1.3-4.6-2.8c-0.9-1.3-0.9-1.7-0.9-4.7
		c0-4,0.9-6.6,4.2-12c1.2-1.9,2.3-4.2,2.5-5c0.8-2.9-0.7-4.5-6.4-7.3c-2.6-1.3-3.8-1.7-5.4-1.8C33.6,5.7,33.3,5.7,33,5.7z M32,8.2
		c0.2,0,0.3,0.1,0.5,0.3c0.3,0.4,0.3,0.7-0.5,1.4c-0.5,0.5-1,0.9-1.3,0.9c-0.6,0-0.2-1.8,0.6-2.3C31.7,8.3,31.9,8.2,32,8.2z"/>
</g>
</svg>
