<?xml version="1.0" encoding="utf-8"?>
<!-- Generator: Adobe Illustrator 26.0.1, SVG Export Plug-In . SVG Version: 6.00 Build 0)  -->
<svg version="1.1" id="Layer_1" xmlns="http://www.w3.org/2000/svg" xmlns:xlink="http://www.w3.org/1999/xlink" x="0px" y="0px"
	 viewBox="0 0 500 500" style="enable-background:new 0 0 500 500;" xml:space="preserve">
<style type="text/css">
	.st0{fill-rule:evenodd;clip-rule:evenodd;fill:#FBB03B;}
</style>
<g>
	<path class="st0" d="M132.8,263.9l3.2,0.7l-11,35H25v-3.5h4.9c5.5,0,9.4-1.8,11.7-5.3c1.3-2,2-6.8,2-14.1v-83.3
		c0-8.1-0.9-13.1-2.7-15.1c-2.5-2.8-6.1-4.2-11-4.2H25v-3.5h58.4v3.5c-6.9-0.1-11.7,0.6-14.4,1.9c-2.8,1.3-4.6,3-5.7,5.1
		c-1,2-1.5,6.9-1.5,14.6v81.1c0,5.3,0.5,8.9,1.5,10.9c0.7,1.3,1.9,2.3,3.5,3c1.6,0.6,6.5,0.9,14.8,0.9h9.4c9.9,0,16.9-0.7,20.9-2.2
		c4-1.5,7.6-4.1,10.9-7.8C126.2,277.8,129.6,271.9,132.8,263.9z"/>
	<path class="st0" d="M148.2,239.7h-38.9l-6.8,15.9c-1.7,3.9-2.5,6.8-2.5,8.8c0,1.5,0.7,2.9,2.2,4c1.5,1.2,4.6,1.9,9.5,2.3v2.7H80
		v-2.7c4.2-0.8,6.9-1.7,8.1-2.9c2.5-2.4,5.3-7.2,8.4-14.4l35.4-82.7h2.6l35,83.6c2.8,6.7,5.4,11.1,7.7,13.1c2.3,2,5.5,3.1,9.6,3.4
		v2.7H147v-2.7c4-0.2,6.7-0.9,8.1-2c1.4-1.1,2.1-2.5,2.1-4.2c0-2.2-1-5.6-3-10.3L148.2,239.7L148.2,239.7z M146.2,234.2l-17-40.6
		l-17.5,40.6L146.2,234.2L146.2,234.2z"/>
	<path class="st0" d="M270.7,169.7l1.4,30.5h-3.7c-0.7-5.4-1.6-9.2-2.9-11.5c-2-3.7-4.6-6.4-7.9-8.2c-3.3-1.8-7.6-2.7-13-2.7h-18.3
		v99.4c0,8,0.9,13,2.6,15c2.4,2.7,6.2,4,11.2,4h4.5v3.5h-55.2v-3.5h4.6c5.5,0,9.4-1.7,11.7-5c1.4-2,2.1-6.7,2.1-14v-99.4h-15.7
		c-6.1,0-10.4,0.5-12.9,1.3c-3.3,1.2-6.2,3.6-8.5,7c-2.4,3.5-3.8,8.1-4.2,14H163l1.5-30.5H270.7L270.7,169.7z"/>
	<path class="st0" d="M286.5,212.4v49.3H314c7.1,0,11.9-1.1,14.3-3.2c3.2-2.8,5-7.8,5.3-14.9h3.4V287h-3.4c-0.9-6.1-1.7-10-2.6-11.7
		c-1.1-2.1-2.9-3.8-5.4-5.1c-2.5-1.2-6.4-1.9-11.6-1.9h-27.4v41.1c0,5.5,0.3,8.9,0.7,10.1c0.5,1.2,1.3,2.1,2.6,2.9
		c1.2,0.7,3.6,1,7,1H318c7,0,12.2-0.5,15.4-1.5c3.2-1,6.2-2.9,9.2-5.8c3.8-3.8,7.7-9.5,11.7-17.2h3.7l-10.7,31.3H251v-3.4h4.4
		c2.9,0,5.8-0.7,8.4-2.1c2-1,3.3-2.5,4-4.4c0.7-2,1-6,1-12.1v-81.1c0-7.9-0.8-12.8-2.4-14.6c-2.2-2.5-5.9-3.7-11-3.7H251v-3.4h96.2
		l1.4,27.3H345c-1.3-6.6-2.7-11.1-4.3-13.5c-1.6-2.5-3.9-4.3-6.9-5.6c-2.5-0.9-6.8-1.4-13-1.4L286.5,212.4L286.5,212.4z"/>
	<path class="st0" d="M416,227.8l27.7,41.3c7.7,11.4,13.4,18.7,17.1,21.7c3.7,3,8.4,4.7,14.1,5v3.5h-55.4v-3.5
		c3.7-0.1,6.4-0.5,8.2-1.2c1.3-0.6,2.4-1.5,3.3-2.6c0.8-1.2,1.3-2.4,1.3-3.6c0-1.5-0.3-3-0.8-4.4c-0.5-1.1-2.2-3.9-5.2-8.4
		l-21.9-33.1l-27,34.7c-2.9,3.7-4.6,6.1-5.1,7.4c-0.6,1.2-0.9,2.5-0.9,3.9c0,2.1,0.9,3.7,2.6,5c1.7,1.3,5,2.1,9.8,2.3v3.5h-45.8
		v-3.5c3.3-0.3,6-1,8.4-2c4-1.7,7.8-3.9,11.2-6.7c3.6-2.8,7.6-7.1,12.2-12.9l30.5-38.5l-25.4-37.3c-6.9-10.1-12.8-16.7-17.6-19.8
		c-4.8-3.2-10.4-4.8-16.7-5v-3.5h59.7v3.5c-5.1,0.2-8.6,1-10.4,2.5c-1.9,1.5-2.8,3.1-2.8,4.8c0,2.4,1.5,5.8,4.5,10.3l19.8,29.6
		l23-29.1c2.7-3.4,4.3-5.8,4.9-7c0.6-1.3,0.9-2.6,0.9-3.9c0-1.3-0.4-2.5-1.2-3.5c-0.9-1.3-2.1-2.3-3.6-2.8c-1.5-0.6-4.5-0.8-9-0.9
		v-3.5H472v3.5c-3.6,0.2-6.6,0.7-8.9,1.7c-3.4,1.5-6.6,3.4-9.4,5.9c-2.9,2.5-6.9,7.1-12.1,13.7L416,227.8L416,227.8z"/>
</g>
</svg>
