<?xml version="1.0" encoding="utf-8"?>
<!-- Generator: Adobe Illustrator 26.0.1, SVG Export Plug-In . SVG Version: 6.00 Build 0)  -->
<svg version="1.1" id="Layer_1" xmlns="http://www.w3.org/2000/svg" xmlns:xlink="http://www.w3.org/1999/xlink" x="0px" y="0px"
	 viewBox="0 0 500 500" style="enable-background:new 0 0 500 500;" xml:space="preserve">
<style type="text/css">
	.st0{fill-rule:evenodd;clip-rule:evenodd;fill:#FFC200;}
</style>
<path class="st0" d="M464.9,293.3c-20,93.1-103.1,163.4-202.1,163.4c-113.8,0-206.7-92.9-206.7-206.7S148.9,43.3,262.8,43.3
	c98.4,0,181,69.3,201.7,161.6C443.6,106.9,356.3,33,252.2,33c-119.5,0-217,97.5-217,217s97.5,217,217,217
	C356.9,467,444.7,392.2,464.9,293.3L464.9,293.3L464.9,293.3z"/>
<path class="st0" d="M228,357.9c12-1.2,13.5-13.9,7.9-19.4c-4.6-4.5-30.2-23.6-36.9-31c-3.1-3.5-7.3-5.2-9.1-9.1
	c-4.1-9-7-21.8-1.8-31c0.9-1.7,1.5-0.9,0.8,2.5c-4.1,19.6,8.7,35.6,11.5,27.4c1.9-5.7,0.1-15.8,1.2-23.9
	c1.8-14.3,14.8-41.7,20.5-43.2c-8.8-16.3,10.3-29.1,10.1-43.4c-0.2-9.3,8.2,11.4,16.5,15.8c9.3,4.9,19.6-9.2,34.2-16.4
	c4.1-2,9.4-4.4,9.1-6.1c-1.7-8.4-19.1,10.3-34.7,10.9c-7.1,0.3-9.7-1.4-12.5-4.1c-8.3-8,0.9-1.3,13.2-3.6c5.5-1,7.3-1.9,13.1-4.3
	c5.8-2.4,12.5-5.8,19-7.6c4.6-1.2,4.2-4.7,2.4-5.7c-1-0.6-2.5-0.5-3.8,1.5c-2.8,4.9-16.1,7.7-20.2,9c-5.3,1.6-11.2,3.1-19,2.8
	c-11.9-0.5-9.1-5.9-17.6-10.8c-2.5-1.4-1.8-5.2,1.5-8.5c1.7-1.7,6.5-2.7,8.9-6.7c0.3-0.6,3.4-3.7,5.8-5.4c0.8-0.6,0.9-15.1-6.6-15.4
	c-6.3-0.3-8.1,4.6-7.9,9.5s2.9,8.9,4.6,8.9c3.3,0,0.2,3.6-1.6,4.2c-2.8,0.9-6.6-10.9-6.1-16.5c0.5-5.9,3.5-16.3,11-16.1
	c6.7,0.2,11.6,8.6,11.3,23.1c-0.1,2.5,10.9-1.2,14.5,2.7c2.6,2.8-8.9-25.7,16.8-27.7c6.8,1.3,13.3,3.6,16,19.1
	c-1,1.6,1.7,12.5-2.5,13.8c-5.1,1.6-8.2-0.2-5.3-5.1c2-4.9,0-17.3-10.3-16.5c-10.3,0.7-9,19.1-6.1,19.4c2.8,0.4,10,5.4,14.9,6.4
	c16.3,3.2,4.3,12.5,6.5,23.9c2.4,12.8,10.8,9.4,18.4,43.3c1.6,2.1,7.9,4,14,30c5.5,23.4-2.3,40.4,10.9,39c3-0.3,7.3-1.1,9.2-7.8
	c5-17.3-2.5-38-10-51.9c-4.4-8.1-8.5-13.7-10.6-15.6c8.6,5.1,19.6,21.3,22.1,33.3c3.3,15.8,5.7,22.5,0.7,39.2
	c2.9,1.5,10.1,4.5,10.1,8c-7.5-6.2-30.6-7.3-31.2,7.5c-3.9,0.1-6.9,0.4-9.4,3.4c-9.3,11-0.7,33.1-1.6,45
	c-0.8,10.4-3.7,20.8-5.4,31.2c-5.5-0.2-5-4.2-3.2-9.9c1.6-5,4.1-11.3,4.2-17.3c0.1-5.4-0.4-8.8-1.8-9.7s-3.5,0.9-6.5,5.6
	c-6.3,10.2-20,14.7-32.9,16.3c-12.8,1.6-24.7,0.3-31-6.7c-2.2-2.4-5.7,0.7-6.2,1.3c-0.6,0.9,2.1,2.5,4.1,6.2
	c2.9,5.4,5.7,13.5-1.2,17.2C240.2,370.5,234.2,369.4,228,357.9L228,357.9L228,357.9z M223.4,357.4c4.6,7.2,20.8,37.7-7.6,41.6
	c-9.5,1.3-24.8-5.5-39.6-9.1c-13.3-3.2-26.8-5.2-34.4-7.3c-4.6-1.3-6.4-2.9-6.9-4.8c-1.1-5,5.5-12.1,5.9-18.1s-2.2-9.1-4.2-14
	c-2.1-4.9-2.6-8.6-0.9-10.6c1.3-1.6,3.9-2.3,8.1-1.9c5.4,0.5,11.9-0.6,15.4-2.7c5.9-3.6,8.6-10.9,6-19.8c0,8.7-2.8,12-10,15.9
	c-6.7,3.7-17.1,0.7-21.8,4.9c-5.7,5,2.1,17.8,1.4,27.2c-0.5,7.2-8.1,15.4-4.7,22.7c3.4,7.3,19.2,8.1,35.7,11.5
	c23.4,4.9,37.1,13.4,47.9,13.8c15.8,0.6,18.2-15.6,43-15.8c7.2-0.4,14.3-0.6,21.4-0.7c8-0.1,16,0,24.2,0.2
	c16.5,0.4,10.8,9,21.5,14.5c9,4.6,25.3,2.8,29.2-0.9c5.3-5,19.4-17.1,30.2-22.5c13.5-6.8,45.1-18.5,22.2-32.8
	c-5.4-3.3-18-6.8-19.1-31.1c-4.8,4.3-4.2,26.9,9.1,31.4c15,5,24.3,13.4-3.5,22.9c-18.4,6.3-21.5,8.2-36.1,20.4
	c-14.7,12.3-36.6,7.4-32.8-18.4c2-13.5,3.1-24.6-0.2-36.3c-1.6-5.7-2.5-13-1.3-18.2c2.2-10,7.6-13,12.9-3.4
	c3.3,6,4.5,13.1,16.4,13.6c18.7,0.9,22.4-18.1,28.4-19c4-0.6,8-11.9,4.9-30.1c-3.3-19.6-14.8-50.4-29.5-66.1
	c-12.3-13-20-24.4-24.9-40.7c-4.1-13.7-6.4-27-5.5-39.7c1.1-16.5-8.1-39.5-22.6-50.3c-9.1-6.8-23.4-10.4-36.4-10.2
	c-7.3,0.1-14.1,1.1-19.4,4c-21.6,11.7-24.6,28.5-24.3,47.6c0.3,18,0.9,38.5,3,58c-2.4,8.9-15,25.9-23.1,36.3
	c-10.8,10.7-16.3,31.4-23.3,49.4c-3.7,9.6-10,14-10.6,26.4c-0.1,3.5,0,12.4,3.3,9.9C183.7,295,199.5,319.7,223.4,357.4L223.4,357.4z
	 M289.2,98.5c-0.7,2-3.5,3.7-1.7,5.2s2.8-2,6.4-3.3c0.9-0.3,5.2,0.1,6-1.9c0.4-0.9-2.2-1.9-3.8-3.4s-3-2.8-4.5-2.7
	C288,92.6,289.8,96.7,289.2,98.5L289.2,98.5z M311.2,173c1.3-1.4,2,2.4,5.6,4.7c2.9,1.8,5.6,0.5,6.3,4.1c0.5,2.6-1.1,5.4-3.3,5.1
	C316,186.2,307.2,177.1,311.2,173L311.2,173z M251.8,150c-5.9-0.4-6.3,3.8-4.4,3.8C249.4,153.7,248.2,150.3,251.8,150z M241.6,139
	c0.7-0.1,1.7,1,1.4,2.7c-0.4,2.3-0.2,3.8,1.4,3.8c0.3,0,0.6-0.1,0.6-0.6c0.8-4.6-1.6-8-2.6-8.3C240.2,136,240.4,139.3,241.6,139
	L241.6,139L241.6,139z M284.8,137.1c1.5,0.4,3,3.1,3.3,5.9c0,0.3,2-0.4,2-1c0.1-4.5-3.7-6.6-4.8-6.6
	C282.9,135.6,283.6,136.7,284.8,137.1L284.8,137.1L284.8,137.1z M262.6,150.5c5.4-2.5,7.3,1.4,5.4,2
	C266.2,153.1,266.1,149.6,262.6,150.5z M197.6,242.3c-2.6-0.3,0.7-2.2,2.1-4.6c1.5-2.6,1.2-6,2.9-5.5s0.7,2.3-0.4,5.4
	C201.2,240.2,198.5,242.4,197.6,242.3L197.6,242.3z"/>
</svg>
