<?xml version="1.0" encoding="utf-8"?>
<!-- Generator: Adobe Illustrator 27.9.0, SVG Export Plug-In . SVG Version: 6.00 Build 0)  -->
<svg version="1.1" id="Layer_1" xmlns="http://www.w3.org/2000/svg" xmlns:xlink="http://www.w3.org/1999/xlink" x="0px" y="0px"
	 viewBox="0 0 85 85" style="enable-background:new 0 0 85 85;" xml:space="preserve">
<style type="text/css">
	.st0{fill:#FFFFFF;}
	.st1{fill:#F41414;stroke:#F40606;stroke-width:0.7415;}
	.st2{fill:#EDA20A;}
</style>
<g>
	<circle class="st0" cx="42.5" cy="42.5" r="34.9"/>
	<path class="st1" d="M42.4,7.5c-9.3,0-18.1,3.7-24.7,10.2c-13.7,13.7-13.7,35.8,0,49.5c13.7,13.7,35.8,13.7,49.5,0
		c13.7-13.7,13.7-35.8,0-49.5C60.7,11.2,51.7,7.5,42.4,7.5L42.4,7.5z M42.8,7.6c8.9,0.1,17.7,3.5,24.4,10.2
		c13.6,13.6,13.6,35.7,0,49.3c-6.8,6.8-17.8,6.8-24.6,0c-6.8-6.8-6.8-17.8,0-24.6c6.9-6.9,6.9-18,0-24.9c-5.5-5.5-14-6.9-20.9-3.2
		C27.9,9.7,35.4,7.6,42.8,7.6L42.8,7.6z M14.5,27h5.9c1.5,6.3,3.7,11.8,6,17.3c2.4-6.1,4.9-12,8.2-17.3h5.9
		C33.3,41.4,25.4,51.3,37,64h-5.9C24,52.6,18.9,42.1,14.5,27z"/>
	<path class="st2" d="M48,21c11.6,12.7,3.7,22.6-3.6,37.1h5.9c3.3-5.2,5.8-11.1,8.2-17.3c2.3,5.5,4.6,11,6,17.3h5.9
		C66.1,42.9,61,32.4,53.9,21H48z"/>
</g>
</svg>
