<?xml version="1.0" encoding="UTF-8"?>
<svg id="Layer_1" data-name="Layer 1" xmlns="http://www.w3.org/2000/svg" viewBox="0 0 500 500">
  <defs>
    <style>
      .cls-1 {
        fill: #fff;
      }

      .cls-2 {
        fill: #00007d;
      }

      .cls-3 {
        fill: #929292;
      }
    </style>
  </defs>
  <path class="cls-2" d="m407.78,250.03c0-87.11-70.7-157.82-157.82-157.82S92.15,162.92,92.15,250.03s70.7,157.81,157.82,157.81,157.81-70.7,157.81-157.82"/>
  <path class="cls-1" d="m361.57,184.64c0-25.51-20.71-46.22-46.22-46.22s-46.22,20.71-46.22,46.22,20.71,46.22,46.22,46.22,46.22-20.71,46.22-46.22"/>
  <path class="cls-2" d="m454,92.21c0-25.51-20.71-46.22-46.22-46.22s-46.22,20.71-46.22,46.22,20.71,46.22,46.22,46.22,46.22-20.71,46.22-46.22"/>
  <path class="cls-1" d="m142.36,227.02h13.8v89.74h51.11v12.14h-64.91v-101.88m89.81,27.6v49.31c0,3.79.59,6.89,1.76,9.29,2.16,4.44,6.19,6.66,12.09,6.66,8.47,0,14.23-3.89,17.29-11.65,1.67-4.16,2.5-9.87,2.5-17.13v-36.48h12.48v74.28h-11.79l.14-10.96c-1.59,2.82-3.56,5.2-5.92,7.14-4.67,3.88-10.34,5.83-17.01,5.83-10.39,0-17.47-3.54-21.23-10.61-2.04-3.79-3.06-8.85-3.06-15.19v-50.49h12.76m106.32,29.33c2.87-.37,4.78-1.57,5.76-3.6.55-1.11.83-2.71.83-4.8,0-4.27-1.51-7.37-4.53-9.29-3.02-1.93-7.35-2.89-12.98-2.89-6.51,0-11.12,1.77-13.84,5.3-1.52,1.95-2.52,4.86-2.98,8.71h-11.65c.23-9.18,3.2-15.57,8.9-19.16,5.7-3.59,12.32-5.39,19.85-5.39,8.73,0,15.82,1.66,21.27,4.99,5.4,3.33,8.1,8.51,8.1,15.54v42.79c0,1.29.27,2.33.8,3.12.53.79,1.65,1.18,3.36,1.18.55,0,1.18-.03,1.87-.1.69-.07,1.44-.17,2.22-.31v9.22c-1.94.55-3.42.9-4.44,1.04-1.02.14-2.41.21-4.16.21-4.3,0-7.42-1.53-9.36-4.58-1.02-1.62-1.73-3.91-2.15-6.86-2.54,3.33-6.2,6.22-10.96,8.67-4.76,2.45-10.01,3.67-15.74,3.67-6.89,0-12.52-2.09-16.89-6.27-4.37-4.18-6.55-9.41-6.55-15.69,0-6.88,2.15-12.21,6.45-16,4.3-3.79,9.94-6.12,16.92-7l19.9-2.49h0Zm-26.29,33.72c2.64,2.08,5.76,3.11,9.36,3.11,4.39,0,8.64-1.02,12.76-3.05,6.94-3.37,10.4-8.88,10.4-16.55v-10.04c-1.52.97-3.48,1.79-5.88,2.43-2.4.65-4.75,1.11-7.06,1.39l-7.54.97c-4.52.6-7.92,1.55-10.2,2.84-3.86,2.17-5.79,5.63-5.79,10.38,0,3.6,1.32,6.43,3.95,8.51h0Z"/>
  <path class="cls-3" d="m257.3,456.27l-.16-4.73c5.85-.2,11.75-.67,17.53-1.37l.57,4.7c-5.92.72-11.96,1.19-17.94,1.4h0Zm-18-.15c-5.98-.31-12.01-.88-17.92-1.7l.65-4.69c5.78.8,11.67,1.36,17.51,1.66l-.24,4.73h0Zm53.7-4.22l-.98-4.63c5.72-1.21,11.44-2.69,17.03-4.4l1.39,4.53c-5.74,1.76-11.56,3.26-17.43,4.51h0Zm-89.32-.73c-5.83-1.34-11.66-2.95-17.35-4.79l1.46-4.5c5.58,1.81,11.23,3.37,16.95,4.68l-1.06,4.62Zm123.71-9.79l-1.78-4.39c5.43-2.2,10.77-4.64,15.99-7.31l2.15,4.22c-5.34,2.73-10.8,5.23-16.37,7.48Zm-157.94-1.3c-5.53-2.35-10.95-4.94-16.25-7.76l2.23-4.18c5.16,2.75,10.5,5.3,15.88,7.58l-1.85,4.36h0Zm189.96-15.06l-2.52-4.01c4.97-3.12,9.8-6.45,14.48-9.98l2.85,3.78c-4.79,3.62-9.74,7.02-14.82,10.21h0Zm-221.72-1.84c-5.03-3.27-9.92-6.76-14.65-10.46l2.92-3.73c4.62,3.61,9.4,7.02,14.32,10.22l-2.58,3.97Zm250.42-19.83l-3.17-3.52c4.34-3.91,8.56-8.06,12.55-12.33l3.46,3.23c-4.1,4.39-8.38,8.6-12.84,12.62h0Zm-278.77-2.32c-4.39-4.09-8.6-8.38-12.63-12.83l3.52-3.17c3.93,4.36,8.05,8.54,12.34,12.54l-3.23,3.46h0Zm303.3-23.99l-3.73-2.92c3.61-4.62,7.03-9.4,10.23-14.32l3.97,2.58c-3.28,5.03-6.77,9.92-10.47,14.65Zm-327.4-2.72c-3.62-4.79-7.03-9.73-10.22-14.82l4.01-2.52c3.12,4.97,6.45,9.8,9.99,14.48l-3.78,2.85h0Zm347.02-27.44l-4.18-2.23c2.75-5.16,5.3-10.5,7.59-15.88l4.36,1.85c-2.35,5.53-4.94,10.95-7.77,16.25Zm-366.13-3.03c-2.73-5.34-5.23-10.8-7.49-16.36l4.39-1.78c2.21,5.43,4.65,10.77,7.32,15.99l-4.21,2.16Zm380.21-30.09l-4.5-1.46c1.81-5.58,3.38-11.23,4.69-16.95l4.61,1.06c-1.35,5.85-2.95,11.64-4.8,17.35h0Zm-393.73-3.24c-1.76-5.74-3.27-11.55-4.52-17.43l4.63-.98c1.22,5.74,2.69,11.42,4.41,17.02l-4.53,1.39Zm401.8-31.81l-4.69-.65c.8-5.77,1.37-11.66,1.67-17.51l4.73.25c-.31,5.99-.88,11.97-1.71,17.91Zm-409.28-3.36c-.73-5.96-1.2-11.94-1.41-17.94l4.73-.17c.2,5.85.67,11.75,1.38,17.53l-4.7.58Zm406.41-32.39c-.2-5.84-.67-11.74-1.38-17.54l4.7-.58c.73,5.94,1.2,11.98,1.41,17.95l-4.73.16Zm-402.96-3.31l-4.73-.24c.3-5.98.87-12.01,1.69-17.92l4.69.65c-.8,5.78-1.35,11.67-1.65,17.51Zm398.67-31.57c-1.22-5.74-2.69-11.42-4.41-17.03l4.53-1.38c1.75,5.74,3.26,11.56,4.51,17.43l-4.63.99h0Zm-393.85-3.23l-4.62-1.06c1.34-5.85,2.94-11.64,4.79-17.35l4.51,1.46c-1.81,5.58-3.37,11.24-4.68,16.95Zm383.57-30.39c-2.19-5.42-4.64-10.8-7.3-16.01l4.22-2.15c2.73,5.35,5.22,10.82,7.47,16.38l-4.39,1.77Zm-372.75-3.05l-4.36-1.85c2.35-5.53,4.93-10.95,7.75-16.26l4.18,2.22c-2.75,5.18-5.28,10.48-7.57,15.88h0Zm16.5-31.04l-3.97-2.58c3.27-5.03,6.76-9.93,10.45-14.66l3.73,2.91c-3.61,4.63-7.02,9.4-10.22,14.32h0Zm21.63-27.71l-3.47-3.23c4.09-4.39,8.37-8.61,12.83-12.63l3.17,3.52c-4.35,3.93-8.53,8.05-12.53,12.34h0Zm26.09-23.56l-2.86-3.77c4.79-3.62,9.73-7.03,14.81-10.23l2.52,4.01c-4.97,3.12-9.8,6.46-14.47,9.99h0Zm231.39-8.22l-.26-.17,2.57-3.97.25.16-2.57,3.98h0Zm-15.43-9.07c-5.18-2.75-10.49-5.26-15.89-7.55l1.84-4.36c5.53,2.34,10.96,4.92,16.26,7.73l-2.22,4.18h0Zm-186.2-1.39l-2.16-4.21c5.34-2.74,10.8-5.24,16.36-7.5l1.78,4.39c-5.43,2.21-10.76,4.65-15.98,7.33h0Zm153.82-12.29c-5.58-1.8-11.24-3.36-16.96-4.68l1.06-4.62c5.83,1.34,11.67,2.95,17.36,4.79l-1.46,4.51Zm-121.27-.93l-1.39-4.53c5.74-1.76,11.55-3.27,17.42-4.52l.99,4.63c-5.74,1.22-11.41,2.7-17.02,4.42Zm87.01-6.93c-5.79-.81-11.68-1.36-17.52-1.66l.24-4.73c5.97.3,12,.88,17.93,1.7l-.65,4.69Zm-52.64-.4l-.58-4.7c5.92-.73,11.96-1.21,17.94-1.42l.17,4.73c-5.85.21-11.75.68-17.53,1.39Z"/>
</svg>