<?xml version="1.0" encoding="utf-8"?>
<!-- Generator: Adobe Illustrator 26.0.1, SVG Export Plug-In . SVG Version: 6.00 Build 0)  -->
<svg version="1.1" id="Layer_1" xmlns="http://www.w3.org/2000/svg" xmlns:xlink="http://www.w3.org/1999/xlink" x="0px" y="0px"
	 viewBox="0 0 500 500" style="enable-background:new 0 0 500 500;" xml:space="preserve">
<style type="text/css">
	.st0{fill:#29ABE2;}
</style>
<path class="st0" d="M444,388.8H57.3C39.8,388.8,25,374,25,356.4V143.6c0-17.5,14.8-32.3,32.3-32.3h385.3
	c17.5,0,32.3,14.8,32.3,32.3v212.9C475,373.9,461.5,388.8,444,388.8z M57.3,132.8c-5.4,0-10.8,5.4-10.8,10.8v212.9
	c0,6.7,5.4,10.8,10.8,10.8h385.3c6.7,0,10.8-5.4,10.8-10.8V143.6c0-6.7-5.4-10.8-10.8-10.8C442.7,132.8,57.3,132.8,57.3,132.8z
	 M89.7,324.1V175.9h43.1l43.1,53.9l43.1-53.9h43.1v148.2H219v-84.9l-43.1,53.9l-43.1-53.9v84.9H89.7L89.7,324.1z M360.5,324.1
	l-64.7-71.4h43.1v-76.8H382v75.4h43.1L360.5,324.1L360.5,324.1z"/>
</svg>
