<?xml version="1.0" encoding="UTF-8"?>
<svg id="Layer_1" data-name="Layer 1" xmlns="http://www.w3.org/2000/svg" viewBox="0 0 500 500">
  <defs>
    <style>
      .cls-1 {
        fill: #d16432;
      }
    </style>
  </defs>
  <g id="Layer_2" data-name="Layer 2">
    <g id="Layer_1-2" data-name="Layer 1-2">
      <path class="cls-1" d="m108.92,329.52c-20.52-15.39-49.59-35.91-80.38-58.14,35.91-15.39,71.82-27.36,107.74-42.75l46.17,34.2c-22.23,25.65-46.17,47.88-73.54,66.69m299.27-116.29c-8.55-22.23-15.39-44.46-22.23-66.69-6.84-23.94-17.1-46.17-29.07-68.4-5.13-8.55-17.1-29.07-30.78-29.07-3.42,0-6.84,1.71-8.55,3.42-10.26,8.55-18.81,20.52-23.94,32.49-10.26,18.81-22.23,35.91-35.91,51.3-10.26,13.68-22.23,25.65-37.62,32.49-3.42,1.71-6.84,1.71-10.26,3.42-6.84,1.71-13.68,5.13-18.81,10.26-8.55,8.55-17.1,17.1-25.65,27.36l-6.84,8.55,41.04,30.78c32.49-37.62,66.69-75.25,92.35-143.65-10.26,58.14-35.91,111.16-75.25,155.62-23.94,29.07-51.3,54.72-80.38,78.67,6.84-1.71,13.68,0,20.52,1.71,20.52,8.55,32.49,39.33,41.04,61.56,6.84,15.39,13.68,30.78,20.52,47.88,18.81-5.13,35.91-13.68,49.59-27.36,15.39-13.68,29.07-29.07,41.04-44.46,23.94-29.07,56.43-70.11,94.06-51.3,6.84,3.42,11.97,6.84,17.1,11.97,6.84,6.84,13.68,11.97,20.52,18.81,10.26,10.26,18.81,18.81,30.78,25.65-23.94-56.43-42.75-112.87-63.27-171.01"/>
    </g>
  </g>
</svg>