<?xml version="1.0" encoding="utf-8"?>
<!-- Generator: Adobe Illustrator 26.0.1, SVG Export Plug-In . SVG Version: 6.00 Build 0)  -->
<svg version="1.1" id="Layer_1" xmlns="http://www.w3.org/2000/svg" xmlns:xlink="http://www.w3.org/1999/xlink" x="0px" y="0px"
	 viewBox="0 0 500 500" style="enable-background:new 0 0 500 500;" xml:space="preserve">
<style type="text/css">
	.st0{clip-path:url(#SVGID_00000132795934093101940790000001343447324168340110_);}
	.st1{fill:none;stroke:#E6E6E6;stroke-linecap:square;stroke-linejoin:round;}
	.st2{clip-path:url(#SVGID_00000028283698972165005360000000023315317605508521_);}
	.st3{clip-path:url(#SVGID_00000126314073910597661890000007988368679564625327_);}
	.st4{clip-path:url(#SVGID_00000155128143873464824870000000834600074564436098_);}
	.st5{clip-path:url(#SVGID_00000062175193812055476020000002898310222911412884_);}
	.st6{clip-path:url(#SVGID_00000105397916122430125740000018092028576280574371_);}
	.st7{clip-path:url(#SVGID_00000138545253439714049170000001999700684616215734_);}
	.st8{clip-path:url(#SVGID_00000119113773390911913440000014431081871543269521_);}
	.st9{clip-path:url(#SVGID_00000163791730051389994740000014770379449322031543_);}
	.st10{clip-path:url(#SVGID_00000171719584221097732210000006256239028464298882_);}
	.st11{clip-path:url(#SVGID_00000129885467845203237580000007932766424205575582_);}
	.st12{clip-path:url(#SVGID_00000098188235085346397730000018404015413665086348_);}
	.st13{fill:none;}
	.st14{fill:#1F9FCC;}
	.st15{fill:none;stroke:#1F9FCC;stroke-width:4;stroke-linecap:square;}
</style>
<g>
	<g id="xtick_1">
		<g id="line2d_1">
			<g>
				<defs>
					<path id="SVGID_1_" d="M462.5,250c0-27.9-5.5-55.5-16.2-81.3s-26.3-49.2-46.1-68.9s-43.2-35.4-68.9-46.1S277.9,37.5,250,37.5
						s-55.5,5.5-81.3,16.2S119.5,80,99.7,99.7c-19.7,19.7-35.4,43.2-46.1,68.9S37.5,222.1,37.5,250s5.5,55.5,16.2,81.3
						s26.3,49.2,46.1,68.9c19.7,19.7,43.2,35.4,68.9,46.1s53.4,16.2,81.3,16.2s55.5-5.5,81.3-16.2s49.2-26.3,68.9-46.1
						s35.4-43.2,46.1-68.9S462.5,277.9,462.5,250 M250,250L250,250z"/>
				</defs>
				<clipPath id="SVGID_00000140702877444847018120000017810078318802187670_">
					<use xlink:href="#SVGID_1_"  style="overflow:visible;"/>
				</clipPath>
				<g style="clip-path:url(#SVGID_00000140702877444847018120000017810078318802187670_);">
					<path class="st1" d="M250,250h212.5"/>
				</g>
			</g>
		</g>
	</g>
	<g id="xtick_2">
		<g id="line2d_2">
			<g>
				<defs>
					<path id="SVGID_00000104677066677953680850000016541691340910540478_" d="M462.5,250c0-27.9-5.5-55.5-16.2-81.3
						s-26.3-49.2-46.1-68.9s-43.2-35.4-68.9-46.1S277.9,37.5,250,37.5s-55.5,5.5-81.3,16.2S119.5,80,99.7,99.7
						c-19.7,19.7-35.4,43.2-46.1,68.9S37.5,222.1,37.5,250s5.5,55.5,16.2,81.3s26.3,49.2,46.1,68.9c19.7,19.7,43.2,35.4,68.9,46.1
						s53.4,16.2,81.3,16.2s55.5-5.5,81.3-16.2s49.2-26.3,68.9-46.1s35.4-43.2,46.1-68.9S462.5,277.9,462.5,250 M250,250L250,250z"/>
				</defs>
				<clipPath id="SVGID_00000084491607094849993100000016977244154287955358_">
					<use xlink:href="#SVGID_00000104677066677953680850000016541691340910540478_"  style="overflow:visible;"/>
				</clipPath>
				<g style="clip-path:url(#SVGID_00000084491607094849993100000016977244154287955358_);">
					<path class="st1" d="M250,250L400.3,99.7"/>
				</g>
			</g>
		</g>
	</g>
	<g id="xtick_3">
		<g id="line2d_3">
			<g>
				<defs>
					<path id="SVGID_00000067918450233982797590000016835947233115613337_" d="M462.5,250c0-27.9-5.5-55.5-16.2-81.3
						s-26.3-49.2-46.1-68.9s-43.2-35.4-68.9-46.1S277.9,37.5,250,37.5s-55.5,5.5-81.3,16.2S119.5,80,99.7,99.7
						c-19.7,19.7-35.4,43.2-46.1,68.9S37.5,222.1,37.5,250s5.5,55.5,16.2,81.3s26.3,49.2,46.1,68.9c19.7,19.7,43.2,35.4,68.9,46.1
						s53.4,16.2,81.3,16.2s55.5-5.5,81.3-16.2s49.2-26.3,68.9-46.1s35.4-43.2,46.1-68.9S462.5,277.9,462.5,250 M250,250L250,250z"/>
				</defs>
				<clipPath id="SVGID_00000133531348251365578270000002371173376876092551_">
					<use xlink:href="#SVGID_00000067918450233982797590000016835947233115613337_"  style="overflow:visible;"/>
				</clipPath>
				<g style="clip-path:url(#SVGID_00000133531348251365578270000002371173376876092551_);">
					<path class="st1" d="M250,250V37.5"/>
				</g>
			</g>
		</g>
	</g>
	<g id="xtick_4">
		<g id="line2d_4">
			<g>
				<defs>
					<path id="SVGID_00000065791993147190477360000007792375729155379074_" d="M462.5,250c0-27.9-5.5-55.5-16.2-81.3
						s-26.3-49.2-46.1-68.9s-43.2-35.4-68.9-46.1S277.9,37.5,250,37.5s-55.5,5.5-81.3,16.2S119.5,80,99.7,99.7
						c-19.7,19.7-35.4,43.2-46.1,68.9S37.5,222.1,37.5,250s5.5,55.5,16.2,81.3s26.3,49.2,46.1,68.9c19.7,19.7,43.2,35.4,68.9,46.1
						s53.4,16.2,81.3,16.2s55.5-5.5,81.3-16.2s49.2-26.3,68.9-46.1s35.4-43.2,46.1-68.9S462.5,277.9,462.5,250 M250,250L250,250z"/>
				</defs>
				<clipPath id="SVGID_00000041290723416080029470000005319100589797327264_">
					<use xlink:href="#SVGID_00000065791993147190477360000007792375729155379074_"  style="overflow:visible;"/>
				</clipPath>
				<g style="clip-path:url(#SVGID_00000041290723416080029470000005319100589797327264_);">
					<path class="st1" d="M250,250L99.7,99.7"/>
				</g>
			</g>
		</g>
	</g>
	<g id="xtick_5">
		<g id="line2d_5">
			<g>
				<defs>
					<path id="SVGID_00000060000443242245169980000004093745171606424253_" d="M462.5,250c0-27.9-5.5-55.5-16.2-81.3
						s-26.3-49.2-46.1-68.9s-43.2-35.4-68.9-46.1S277.9,37.5,250,37.5s-55.5,5.5-81.3,16.2S119.5,80,99.7,99.7
						c-19.7,19.7-35.4,43.2-46.1,68.9S37.5,222.1,37.5,250s5.5,55.5,16.2,81.3s26.3,49.2,46.1,68.9c19.7,19.7,43.2,35.4,68.9,46.1
						s53.4,16.2,81.3,16.2s55.5-5.5,81.3-16.2s49.2-26.3,68.9-46.1s35.4-43.2,46.1-68.9S462.5,277.9,462.5,250 M250,250L250,250z"/>
				</defs>
				<clipPath id="SVGID_00000042701854480815000910000008847622913632635269_">
					<use xlink:href="#SVGID_00000060000443242245169980000004093745171606424253_"  style="overflow:visible;"/>
				</clipPath>
				<g style="clip-path:url(#SVGID_00000042701854480815000910000008847622913632635269_);">
					<path class="st1" d="M250,250H37.5"/>
				</g>
			</g>
		</g>
	</g>
	<g id="xtick_6">
		<g id="line2d_6">
			<g>
				<defs>
					<path id="SVGID_00000029044367724401264400000011651333723886215341_" d="M462.5,250c0-27.9-5.5-55.5-16.2-81.3
						s-26.3-49.2-46.1-68.9s-43.2-35.4-68.9-46.1S277.9,37.5,250,37.5s-55.5,5.5-81.3,16.2S119.5,80,99.7,99.7
						c-19.7,19.7-35.4,43.2-46.1,68.9S37.5,222.1,37.5,250s5.5,55.5,16.2,81.3s26.3,49.2,46.1,68.9c19.7,19.7,43.2,35.4,68.9,46.1
						s53.4,16.2,81.3,16.2s55.5-5.5,81.3-16.2s49.2-26.3,68.9-46.1s35.4-43.2,46.1-68.9S462.5,277.9,462.5,250 M250,250L250,250z"/>
				</defs>
				<clipPath id="SVGID_00000041996195899716375680000005262856895359405739_">
					<use xlink:href="#SVGID_00000029044367724401264400000011651333723886215341_"  style="overflow:visible;"/>
				</clipPath>
				<g style="clip-path:url(#SVGID_00000041996195899716375680000005262856895359405739_);">
					<path class="st1" d="M250,250L99.7,400.3"/>
				</g>
			</g>
		</g>
	</g>
	<g id="xtick_7">
		<g id="line2d_7">
			<g>
				<defs>
					<path id="SVGID_00000015313130298712566120000006566215385641203633_" d="M462.5,250c0-27.9-5.5-55.5-16.2-81.3
						s-26.3-49.2-46.1-68.9s-43.2-35.4-68.9-46.1S277.9,37.5,250,37.5s-55.5,5.5-81.3,16.2S119.5,80,99.7,99.7
						c-19.7,19.7-35.4,43.2-46.1,68.9S37.5,222.1,37.5,250s5.5,55.5,16.2,81.3s26.3,49.2,46.1,68.9c19.7,19.7,43.2,35.4,68.9,46.1
						s53.4,16.2,81.3,16.2s55.5-5.5,81.3-16.2s49.2-26.3,68.9-46.1s35.4-43.2,46.1-68.9S462.5,277.9,462.5,250 M250,250L250,250z"/>
				</defs>
				<clipPath id="SVGID_00000127003354200152645210000004867516740451429047_">
					<use xlink:href="#SVGID_00000015313130298712566120000006566215385641203633_"  style="overflow:visible;"/>
				</clipPath>
				<g style="clip-path:url(#SVGID_00000127003354200152645210000004867516740451429047_);">
					<path class="st1" d="M250,250v212.5"/>
				</g>
			</g>
		</g>
	</g>
	<g id="xtick_8">
		<g id="line2d_8">
			<g>
				<defs>
					<path id="SVGID_00000170257200520848058390000016576203066025558937_" d="M462.5,250c0-27.9-5.5-55.5-16.2-81.3
						s-26.3-49.2-46.1-68.9s-43.2-35.4-68.9-46.1S277.9,37.5,250,37.5s-55.5,5.5-81.3,16.2S119.5,80,99.7,99.7
						c-19.7,19.7-35.4,43.2-46.1,68.9S37.5,222.1,37.5,250s5.5,55.5,16.2,81.3s26.3,49.2,46.1,68.9c19.7,19.7,43.2,35.4,68.9,46.1
						s53.4,16.2,81.3,16.2s55.5-5.5,81.3-16.2s49.2-26.3,68.9-46.1s35.4-43.2,46.1-68.9S462.5,277.9,462.5,250 M250,250L250,250z"/>
				</defs>
				<clipPath id="SVGID_00000044872156795320439490000011290186541912844177_">
					<use xlink:href="#SVGID_00000170257200520848058390000016576203066025558937_"  style="overflow:visible;"/>
				</clipPath>
				<g style="clip-path:url(#SVGID_00000044872156795320439490000011290186541912844177_);">
					<path class="st1" d="M250,250l150.3,150.3"/>
				</g>
			</g>
		</g>
	</g>
	<g id="ytick_1">
		<g id="line2d_9">
			<g>
				<defs>
					<path id="SVGID_00000039120512409874387720000003455498939425160348_" d="M462.5,250c0-27.9-5.5-55.5-16.2-81.3
						s-26.3-49.2-46.1-68.9s-43.2-35.4-68.9-46.1S277.9,37.5,250,37.5s-55.5,5.5-81.3,16.2S119.5,80,99.7,99.7
						c-19.7,19.7-35.4,43.2-46.1,68.9S37.5,222.1,37.5,250s5.5,55.5,16.2,81.3s26.3,49.2,46.1,68.9c19.7,19.7,43.2,35.4,68.9,46.1
						s53.4,16.2,81.3,16.2s55.5-5.5,81.3-16.2s49.2-26.3,68.9-46.1s35.4-43.2,46.1-68.9S462.5,277.9,462.5,250 M250,250L250,250z"/>
				</defs>
				<clipPath id="SVGID_00000073709248967270098170000009980087698821160383_">
					<use xlink:href="#SVGID_00000039120512409874387720000003455498939425160348_"  style="overflow:visible;"/>
				</clipPath>
				<g style="clip-path:url(#SVGID_00000073709248967270098170000009980087698821160383_);">
					<path class="st1" d="M273.6,250c0-3.1-0.6-6.2-1.8-9c-1.2-2.9-2.9-5.5-5.1-7.7s-4.8-3.9-7.7-5.1c-2.9-1.2-5.9-1.8-9-1.8
						s-6.2,0.6-9,1.8c-2.9,1.2-5.5,2.9-7.7,5.1s-3.9,4.8-5.1,7.7s-1.8,5.9-1.8,9s0.6,6.2,1.8,9c1.2,2.9,2.9,5.5,5.1,7.7
						s4.8,3.9,7.7,5.1s5.9,1.8,9,1.8s6.2-0.6,9-1.8s5.5-2.9,7.7-5.1s3.9-4.8,5.1-7.7C273,256.2,273.6,253.1,273.6,250"/>
				</g>
			</g>
		</g>
	</g>
	<g id="ytick_2">
		<g id="line2d_10">
			<g>
				<defs>
					<path id="SVGID_00000021111609857305941690000015482977541558433410_" d="M462.5,250c0-27.9-5.5-55.5-16.2-81.3
						s-26.3-49.2-46.1-68.9s-43.2-35.4-68.9-46.1S277.9,37.5,250,37.5s-55.5,5.5-81.3,16.2S119.5,80,99.7,99.7
						c-19.7,19.7-35.4,43.2-46.1,68.9S37.5,222.1,37.5,250s5.5,55.5,16.2,81.3s26.3,49.2,46.1,68.9c19.7,19.7,43.2,35.4,68.9,46.1
						s53.4,16.2,81.3,16.2s55.5-5.5,81.3-16.2s49.2-26.3,68.9-46.1s35.4-43.2,46.1-68.9S462.5,277.9,462.5,250 M250,250L250,250z"/>
				</defs>
				<clipPath id="SVGID_00000183210095281581440520000009231480190644077995_">
					<use xlink:href="#SVGID_00000021111609857305941690000015482977541558433410_"  style="overflow:visible;"/>
				</clipPath>
				<g style="clip-path:url(#SVGID_00000183210095281581440520000009231480190644077995_);">
					<path class="st1" d="M320.8,250c0-9.3-1.8-18.5-5.4-27.1c-3.6-8.6-8.8-16.4-15.4-23s-14.4-11.8-23-15.4s-17.8-5.4-27.1-5.4
						s-18.5,1.8-27.1,5.4c-8.6,3.6-16.4,8.8-23,15.4s-11.8,14.4-15.4,23s-5.4,17.8-5.4,27.1c0,9.3,1.8,18.5,5.4,27.1
						c3.6,8.6,8.8,16.4,15.4,23c6.6,6.6,14.4,11.8,23,15.4s17.8,5.4,27.1,5.4s18.5-1.8,27.1-5.4c8.6-3.6,16.4-8.8,23-15.4
						c6.6-6.6,11.8-14.4,15.4-23S320.8,259.3,320.8,250"/>
				</g>
			</g>
		</g>
	</g>
	<g id="ytick_3">
		<g id="line2d_11">
			<g>
				<defs>
					<path id="SVGID_00000176028571681959231890000006853860192486458787_" d="M462.5,250c0-27.9-5.5-55.5-16.2-81.3
						s-26.3-49.2-46.1-68.9s-43.2-35.4-68.9-46.1S277.9,37.5,250,37.5s-55.5,5.5-81.3,16.2S119.5,80,99.7,99.7
						c-19.7,19.7-35.4,43.2-46.1,68.9S37.5,222.1,37.5,250s5.5,55.5,16.2,81.3s26.3,49.2,46.1,68.9c19.7,19.7,43.2,35.4,68.9,46.1
						s53.4,16.2,81.3,16.2s55.5-5.5,81.3-16.2s49.2-26.3,68.9-46.1s35.4-43.2,46.1-68.9S462.5,277.9,462.5,250 M250,250L250,250z"/>
				</defs>
				<clipPath id="SVGID_00000013875766971491536120000011824362411798030783_">
					<use xlink:href="#SVGID_00000176028571681959231890000006853860192486458787_"  style="overflow:visible;"/>
				</clipPath>
				<g style="clip-path:url(#SVGID_00000013875766971491536120000011824362411798030783_);">
					<path class="st1" d="M368.1,250c0-15.5-3-30.9-9-45.2c-5.9-14.3-14.6-27.3-25.6-38.3s-24-19.7-38.3-25.6
						c-14.3-5.9-29.7-9-45.2-9s-30.9,3.1-45.2,9c-14.3,5.9-27.3,14.6-38.3,25.6c-11,11-19.7,24-25.6,38.3s-9,29.7-9,45.2
						s3.1,30.9,9,45.2c5.9,14.3,14.6,27.3,25.6,38.3s24,19.7,38.3,25.6s29.7,9,45.2,9s30.9-3,45.2-9c14.3-5.9,27.3-14.6,38.3-25.6
						s19.7-24,25.6-38.3C365,280.9,368.1,265.5,368.1,250"/>
				</g>
			</g>
		</g>
	</g>
	<g id="ytick_4">
		<g id="line2d_12">
			<g>
				<defs>
					<path id="SVGID_00000083786186543424819350000011531808238717286816_" d="M462.5,250c0-27.9-5.5-55.5-16.2-81.3
						s-26.3-49.2-46.1-68.9s-43.2-35.4-68.9-46.1S277.9,37.5,250,37.5s-55.5,5.5-81.3,16.2S119.5,80,99.7,99.7
						c-19.7,19.7-35.4,43.2-46.1,68.9S37.5,222.1,37.5,250s5.5,55.5,16.2,81.3s26.3,49.2,46.1,68.9c19.7,19.7,43.2,35.4,68.9,46.1
						s53.4,16.2,81.3,16.2s55.5-5.5,81.3-16.2s49.2-26.3,68.9-46.1s35.4-43.2,46.1-68.9S462.5,277.9,462.5,250 M250,250L250,250z"/>
				</defs>
				<clipPath id="SVGID_00000092448519141012164660000004146763519646122924_">
					<use xlink:href="#SVGID_00000083786186543424819350000011531808238717286816_"  style="overflow:visible;"/>
				</clipPath>
				<g style="clip-path:url(#SVGID_00000092448519141012164660000004146763519646122924_);">
					<path class="st1" d="M415.3,250c0-21.7-4.3-43.2-12.6-63.2c-8.3-20.1-20.5-38.3-35.8-53.6s-33.6-27.5-53.6-35.8
						S271.7,84.7,250,84.7s-43.2,4.3-63.2,12.6c-20.1,8.3-38.3,20.5-53.6,35.8s-27.5,33.6-35.8,53.6S84.7,228.3,84.7,250
						s4.3,43.2,12.6,63.2c8.3,20,20.5,38.3,35.8,53.6s33.6,27.5,53.6,35.8c20.1,8.3,41.6,12.6,63.2,12.6s43.2-4.3,63.2-12.6
						c20-8.3,38.3-20.5,53.6-35.8s27.5-33.6,35.8-53.6C411,293.2,415.3,271.7,415.3,250"/>
				</g>
			</g>
		</g>
	</g>
	<path class="st13" d="M462.5,250c0-27.9-5.5-55.5-16.2-81.3s-26.3-49.2-46.1-68.9s-43.2-35.4-68.9-46.1S277.9,37.5,250,37.5
		s-55.5,5.5-81.3,16.2S119.5,80,99.7,99.7c-19.7,19.7-35.4,43.2-46.1,68.9S37.5,222.1,37.5,250s5.5,55.5,16.2,81.3
		s26.3,49.2,46.1,68.9c19.7,19.7,43.2,35.4,68.9,46.1s53.4,16.2,81.3,16.2s55.5-5.5,81.3-16.2s49.2-26.3,68.9-46.1
		s35.4-43.2,46.1-68.9S462.5,277.9,462.5,250 M250,250L250,250z"/>
	<g>
		<path class="st14" d="M250,250L250,250l44.9-14.6c0.8,2.4,1.3,4.8,1.7,7.2c0.4,2.4,0.6,4.9,0.6,7.4L250,250L250,250z"/>
	</g>
	<path class="st13" d="M462.5,250c0-27.9-5.5-55.5-16.2-81.3s-26.3-49.2-46.1-68.9s-43.2-35.4-68.9-46.1S277.9,37.5,250,37.5
		s-55.5,5.5-81.3,16.2S119.5,80,99.7,99.7c-19.7,19.7-35.4,43.2-46.1,68.9S37.5,222.1,37.5,250s5.5,55.5,16.2,81.3
		s26.3,49.2,46.1,68.9c19.7,19.7,43.2,35.4,68.9,46.1s53.4,16.2,81.3,16.2s55.5-5.5,81.3-16.2s49.2-26.3,68.9-46.1
		s35.4-43.2,46.1-68.9S462.5,277.9,462.5,250 M250,250L250,250z"/>
	<g>
		<path class="st14" d="M250,250L250,250l49.8-132.6c7,2.6,13.7,5.8,20.1,9.4c6.5,3.7,12.6,7.8,18.4,12.4L250,250L250,250z"/>
	</g>
	<path class="st13" d="M462.5,250c0-27.9-5.5-55.5-16.2-81.3s-26.3-49.2-46.1-68.9s-43.2-35.4-68.9-46.1S277.9,37.5,250,37.5
		s-55.5,5.5-81.3,16.2S119.5,80,99.7,99.7c-19.7,19.7-35.4,43.2-46.1,68.9S37.5,222.1,37.5,250s5.5,55.5,16.2,81.3
		s26.3,49.2,46.1,68.9c19.7,19.7,43.2,35.4,68.9,46.1s53.4,16.2,81.3,16.2s55.5-5.5,81.3-16.2s49.2-26.3,68.9-46.1
		s35.4-43.2,46.1-68.9S462.5,277.9,462.5,250 M250,250L250,250z"/>
	<g>
		<path class="st14" d="M250,250L250,250L128.9,105c11.4-9.5,23.9-17.7,37.2-24.2s27.4-11.6,41.8-14.9L250,250z"/>
	</g>
	<path class="st13" d="M462.5,250c0-27.9-5.5-55.5-16.2-81.3s-26.3-49.2-46.1-68.9s-43.2-35.4-68.9-46.1S277.9,37.5,250,37.5
		s-55.5,5.5-81.3,16.2S119.5,80,99.7,99.7c-19.7,19.7-35.4,43.2-46.1,68.9S37.5,222.1,37.5,250s5.5,55.5,16.2,81.3
		s26.3,49.2,46.1,68.9c19.7,19.7,43.2,35.4,68.9,46.1s53.4,16.2,81.3,16.2s55.5-5.5,81.3-16.2s49.2-26.3,68.9-46.1
		s35.4-43.2,46.1-68.9S462.5,277.9,462.5,250 M250,250L250,250z"/>
	<g>
		<path class="st14" d="M250,250L250,250L87.4,279.5c-3.1-17.1-3.5-34.5-1.2-51.7c2.3-17.2,7.3-33.9,14.9-49.5L250,250L250,250z"/>
	</g>
	<path class="st13" d="M462.5,250c0-27.9-5.5-55.5-16.2-81.3s-26.3-49.2-46.1-68.9s-43.2-35.4-68.9-46.1S277.9,37.5,250,37.5
		s-55.5,5.5-81.3,16.2S119.5,80,99.7,99.7c-19.7,19.7-35.4,43.2-46.1,68.9S37.5,222.1,37.5,250s5.5,55.5,16.2,81.3
		s26.3,49.2,46.1,68.9c19.7,19.7,43.2,35.4,68.9,46.1s53.4,16.2,81.3,16.2s55.5-5.5,81.3-16.2s49.2-26.3,68.9-46.1
		s35.4-43.2,46.1-68.9S462.5,277.9,462.5,250 M250,250L250,250z"/>
	<g>
		<path class="st14" d="M250,250L250,250l-77.6,53.8c-1.4-2-2.7-4.1-4-6.3c-1.2-2.1-2.4-4.3-3.5-6.5L250,250L250,250z"/>
	</g>
	<path class="st13" d="M462.5,250c0-27.9-5.5-55.5-16.2-81.3s-26.3-49.2-46.1-68.9s-43.2-35.4-68.9-46.1S277.9,37.5,250,37.5
		s-55.5,5.5-81.3,16.2S119.5,80,99.7,99.7c-19.7,19.7-35.4,43.2-46.1,68.9S37.5,222.1,37.5,250s5.5,55.5,16.2,81.3
		s26.3,49.2,46.1,68.9c19.7,19.7,43.2,35.4,68.9,46.1s53.4,16.2,81.3,16.2s55.5-5.5,81.3-16.2s49.2-26.3,68.9-46.1
		s35.4-43.2,46.1-68.9S462.5,277.9,462.5,250 M250,250L250,250z"/>
	<g>
		<path class="st14" d="M250,250L250,250l19.8,116.4c-7.6,1.3-15.4,1.8-23.1,1.6s-15.4-1.2-23-2.9L250,250L250,250z"/>
	</g>
	<path class="st13" d="M462.5,250c0-27.9-5.5-55.5-16.2-81.3s-26.3-49.2-46.1-68.9s-43.2-35.4-68.9-46.1S277.9,37.5,250,37.5
		s-55.5,5.5-81.3,16.2S119.5,80,99.7,99.7c-19.7,19.7-35.4,43.2-46.1,68.9S37.5,222.1,37.5,250s5.5,55.5,16.2,81.3
		s26.3,49.2,46.1,68.9c19.7,19.7,43.2,35.4,68.9,46.1s53.4,16.2,81.3,16.2s55.5-5.5,81.3-16.2s49.2-26.3,68.9-46.1
		s35.4-43.2,46.1-68.9S462.5,277.9,462.5,250 M250,250L250,250z"/>
	<g>
		<path class="st14" d="M250,250L250,250l149,116.1c-4.6,5.9-9.5,11.4-14.7,16.7s-10.7,10.2-16.5,14.9L250,250L250,250z"/>
	</g>
	<path class="st15" d="M462.5,250c0-27.9-5.5-55.5-16.2-81.3s-26.3-49.2-46.1-68.9s-43.2-35.4-68.9-46.1S277.9,37.5,250,37.5
		s-55.5,5.5-81.3,16.2S119.5,80,99.7,99.7c-19.7,19.7-35.4,43.2-46.1,68.9S37.5,222.1,37.5,250s5.5,55.5,16.2,81.3
		s26.3,49.2,46.1,68.9c19.7,19.7,43.2,35.4,68.9,46.1s53.4,16.2,81.3,16.2s55.5-5.5,81.3-16.2s49.2-26.3,68.9-46.1
		s35.4-43.2,46.1-68.9S462.5,277.9,462.5,250"/>
</g>
</svg>
