<?xml version="1.0" encoding="UTF-8"?>
<svg id="Layer_1" data-name="Layer 1" xmlns="http://www.w3.org/2000/svg" viewBox="0 0 500 500">
  <defs>
    <style>
      .cls-1 {
        fill: #4d77cf;
      }

      .cls-2 {
        fill: #4dabcf;
      }
    </style>
  </defs>
  <g id="Layer_1-2" data-name="Layer 1">
    <polygon class="cls-2" points="219.65 121.72 147.44 85.27 68.19 124.82 142.35 162.06 219.65 121.72"/>
    <polygon class="cls-2" points="252.75 138.42 328.46 176.64 249.91 216.09 175.63 178.78 252.75 138.42"/>
    <polygon class="cls-2" points="353.86 85.82 431.64 124.82 362.08 159.76 286.21 121.49 353.86 85.82"/>
    <polygon class="cls-2" points="320.38 69.02 250.37 33.92 181.1 68.48 253.25 104.87 320.38 69.02"/>
    <polygon class="cls-2" points="265.64 370.53 265.64 466.08 350.47 423.75 350.37 328.16 265.64 370.53"/>
    <polygon class="cls-2" points="350.34 294.8 350.25 200.22 265.64 242.27 265.64 336.89 350.34 294.8"/>
    <polygon class="cls-2" points="452.17 277.07 452.17 373 379.83 409.1 379.77 313.62 452.17 277.07"/>
    <polygon class="cls-2" points="452.17 243.54 452.17 149.54 379.69 185.58 379.75 280.35 452.17 243.54"/>
    <path class="cls-1" d="m235.7,242.27l-57.13-28.72v124.16s-69.87-148.67-76.35-162.03c-.84-1.72-4.27-3.61-5.15-4.07-12.53-6.58-49.24-25.17-49.24-25.17v219.35l50.79,27.15v-114.66s69.13,132.84,69.83,134.3,7.64,15.45,15.06,20.37c9.88,6.54,52.21,31.99,52.21,31.99v-222.66Z"/>
  </g>
</svg>