<?xml version="1.0" encoding="utf-8"?>
<!-- Generator: Adobe Illustrator 27.9.0, SVG Export Plug-In . SVG Version: 6.00 Build 0)  -->
<svg version="1.1" id="Layer_1" xmlns="http://www.w3.org/2000/svg" xmlns:xlink="http://www.w3.org/1999/xlink" x="0px" y="0px"
	 viewBox="0 0 85 85" style="enable-background:new 0 0 85 85;" xml:space="preserve">
<style type="text/css">
	.st0{fill:#ED225D;}
</style>
<g>
	<path class="st0" d="M11.4,34.1v2.3h0.1c0.2-0.3,0.5-0.6,0.8-1c0.3-0.3,0.7-0.6,1.2-0.9c0.5-0.3,1-0.5,1.6-0.6
		c0.6-0.2,1.3-0.3,2-0.3c1.2,0,2.2,0.2,3.2,0.7c1,0.4,1.8,1.1,2.5,1.8c0.7,0.8,1.3,1.7,1.6,2.7c0.4,1,0.6,2.2,0.6,3.4
		s-0.2,2.3-0.6,3.4c-0.4,1.1-0.9,2-1.6,2.8c-0.7,0.8-1.5,1.4-2.5,1.9c-1,0.5-2.1,0.7-3.4,0.7c-1.2,0-2.2-0.2-3.2-0.7
		c-1-0.5-1.7-1.1-2.2-1.9h-0.1v10.4H7.5V34.1H11.4z M21,42.2c0-0.6-0.1-1.3-0.3-1.9c-0.2-0.6-0.5-1.2-0.9-1.7
		c-0.4-0.5-0.9-0.9-1.5-1.2c-0.6-0.3-1.3-0.5-2.1-0.5c-0.8,0-1.4,0.2-2,0.5c-0.6,0.3-1.1,0.7-1.5,1.2c-0.4,0.5-0.7,1.1-1,1.7
		c-0.2,0.6-0.3,1.3-0.3,1.9c0,0.6,0.1,1.3,0.3,1.9c0.2,0.6,0.5,1.2,1,1.7c0.4,0.5,0.9,0.9,1.5,1.2c0.6,0.3,1.3,0.5,2,0.5
		c0.8,0,1.5-0.2,2.1-0.5c0.6-0.3,1.1-0.7,1.5-1.2c0.4-0.5,0.7-1.1,0.9-1.7C20.9,43.5,21,42.9,21,42.2z"/>
	<path class="st0" d="M60.9,33.3v18.1c0,1-0.1,1.9-0.2,2.8c-0.2,0.9-0.5,1.6-0.9,2.3c-0.4,0.6-1,1.2-1.8,1.6c-0.8,0.4-1.8,0.6-3,0.6
		c-0.3,0-0.7,0-1-0.1c-0.3,0-0.6-0.1-0.8-0.1l0.3-3.5c0.2,0,0.4,0.1,0.6,0.1c0.2,0,0.4,0,0.5,0c0.5,0,0.9-0.1,1.2-0.3
		c0.3-0.2,0.5-0.4,0.7-0.8c0.2-0.3,0.3-0.7,0.3-1.1c0-0.4,0.1-0.9,0.1-1.3V33.3H60.9z"/>
	<path class="st0" d="M74.8,38.5c-0.4-0.5-0.9-0.9-1.5-1.2s-1.3-0.5-2.1-0.5c-0.7,0-1.3,0.1-1.8,0.4c-0.5,0.3-0.8,0.7-0.8,1.4
		s0.3,1.1,0.9,1.3c0.6,0.3,1.5,0.5,2.6,0.8c0.6,0.1,1.2,0.3,1.9,0.5c0.6,0.2,1.2,0.5,1.7,0.9c0.5,0.4,0.9,0.8,1.2,1.4
		c0.3,0.6,0.5,1.2,0.5,2c0,1-0.2,1.8-0.6,2.5c-0.4,0.7-0.9,1.3-1.5,1.7c-0.6,0.4-1.4,0.7-2.2,0.9c-0.8,0.2-1.7,0.3-2.6,0.3
		c-1.3,0-2.5-0.2-3.7-0.7c-1.2-0.5-2.2-1.1-3-2l2.7-2.5c0.5,0.6,1,1.1,1.8,1.5c0.7,0.4,1.5,0.6,2.4,0.6c0.3,0,0.6,0,0.9-0.1
		c0.3-0.1,0.6-0.2,0.9-0.3c0.3-0.1,0.5-0.3,0.6-0.6c0.2-0.3,0.2-0.6,0.2-0.9c0-0.7-0.3-1.2-0.9-1.5c-0.6-0.3-1.6-0.6-2.8-0.9
		c-0.6-0.1-1.2-0.3-1.8-0.5c-0.6-0.2-1.1-0.5-1.6-0.9c-0.5-0.4-0.8-0.8-1.1-1.3c-0.3-0.5-0.4-1.2-0.4-1.9c0-0.9,0.2-1.7,0.6-2.4
		c0.4-0.7,0.9-1.2,1.5-1.6c0.6-0.4,1.3-0.7,2.1-0.9c0.8-0.2,1.6-0.3,2.4-0.3c1.2,0,2.3,0.2,3.5,0.6c1.1,0.4,2,1,2.7,1.9L74.8,38.5z"
		/>
	<g>
		<path class="st0" d="M50.7,47l2.4-0.7l0.5,1.5l-2.4,0.8l1.5,2.1l-1.3,0.9l-1.6-2.1l-1.5,2L47,50.6l1.5-2.1l-2.4-0.9l0.5-1.5L49,47
			v-2.5h1.6L50.7,47L50.7,47z"/>
	</g>
	<g>
		<path class="st0" d="M42.2,39.3c-0.4-0.9-1-1.7-1.8-2.4c-0.8-0.6-1.6-1.1-2.6-1.5c-1-0.3-2.1-0.5-3.3-0.5c-0.4,0-0.9,0-1.5,0.1
			c-0.5,0-1,0.1-1.4,0.2L32,30h9.9v-3.7H28.1l-0.4,13.2c0.4-0.2,0.8-0.4,1.2-0.5c0.5-0.2,0.9-0.3,1.4-0.4c0.5-0.1,1-0.2,1.5-0.3
			c0.5-0.1,1-0.1,1.5-0.1c0.7,0,1.3,0.1,1.9,0.2c0.6,0.1,1.2,0.4,1.7,0.8c0.5,0.4,0.9,0.9,1.2,1.5c0.3,0.6,0.5,1.4,0.5,2.3
			c0,0.7-0.1,1.4-0.4,2c-0.2,0.6-0.6,1.1-1,1.4c-0.4,0.4-0.9,0.7-1.4,0.9c-0.5,0.2-1.1,0.3-1.7,0.3c-1.1,0-2-0.3-2.8-0.9
			c-0.8-0.6-1.4-1.3-1.7-2.3l0,0l-3,2.8c0.6,1,1.4,1.8,2.3,2.4c1.4,0.9,3.1,1.4,5.1,1.4c1.2,0,2.3-0.2,3.4-0.6
			c1.1-0.4,2-0.9,2.8-1.7c0.8-0.7,1.4-1.6,1.9-2.7c0.5-1.1,0.7-2.3,0.7-3.6C42.9,41.3,42.7,40.3,42.2,39.3z"/>
	</g>
</g>
</svg>
