<?xml version="1.0" encoding="UTF-8"?>
<svg id="Layer_1" data-name="Layer 1" xmlns="http://www.w3.org/2000/svg" viewBox="0 0 500 500">
  <defs>
    <style>
      .cls-1 {
        fill: #2bb5f9;
      }
    </style>
  </defs>
  <path class="cls-1" d="m307.73,264.39c3.79,22.35,6.36,44.88,7.71,67.51.37,14.09-3.74,27.93-11.74,39.54-1.88,6.72-7.53,0-11.56,0-9.95,0-13.63-10.76-19.01-17.39s-1.52-12.64,2.06-17.93c3.86-2.78,5.38-8.97,10.94-8.97s4.84-7.62,4.03-11.65c3.68-5.65,1.43-13.99,5.02-20.17,6.45-2.87,4.57-12.91,6.81-18.56,1.79-4.03,0-11.74,5.11-13.45,0,0,.63,0,.54.9m-6.19-230.22c-8.43-.99-14.79,4.75-21.87,7.98-5.88,1.96-11.87,3.57-17.93,4.84-4.39,8.97-14.52,14.25-19.99,22.68-5.6,16.75-16.01,31.47-29.94,42.32-19.9,10.31-29.94,32.72-36.49,53.79-2.24,4.75-1.88,11.74-4.3,15.78-7.89,2.24-3.68-8.07-4.57-13-1.17-7.35,5.29-12.1,5.74-19.28,2.67-5.1,3.79-10.86,3.23-16.59-.9-12.82,2.96-28.42-6.1-38.91-5.38-3.14-3.68-9.77-5.65-14.88-5.35-7.3-12.16-13.41-19.99-17.93-6.45-.63-12.37-8.97-19.01-5.11-4.12,4.84-11.74,4.75-14.16,11.21-1.52,8.07-10.58,5.92-16.5,7.89-7.53,2.96-17.21,0-23.4,6.01-6.19,6.01-16.32,14.79-13.27,24.92,7.08,13.9,25.37,6.9,35.32,15.33-3.14,9.32-6.76,18.48-10.85,27.43-1.63,12.16-1.87,24.46-.72,36.67,1.88,12.19-1.26,27.88,8.97,36.49,5.83,2.15,5.47,8.97,7.71,13.99,2.24,5.02,6.54-1.79,8.34,3.05,5.2,2.87.54,8.97,3.41,12.55,4.78.95,9.18,3.29,12.64,6.72,5.51,3.84,10.64,8.19,15.33,13,3.59,7.35,8.16-7.17,12.1-1.7,1.86,4.59,7.09,6.8,11.68,4.94.33-.13.65-.29.97-.46,7.3-1.23,14.19-4.21,20.08-8.7,3.86,13.72.9,28.6,2.6,42.76,2.38,10.34,3.88,20.87,4.48,31.47,2.69,10.44,4.25,21.14,4.66,31.92,2.91,22.39-.89,45.14-10.94,65.36-1.2,6.34-6.13,11.31-12.46,12.55-4.48,2.06-13.81,5.74-10.67,12.19,10.4,8.97,26.9,7.98,38.82,3.41,7.89-3.86,1.08-13.45,5.11-19.28,5.29-20.44,2.69-42.32,8.97-62.76,4.86-10.31,6.69-21.78,5.29-33.08,1.26-6.9-1.61-15.24,2.87-20.89.07-6.95,2.65-13.63,7.26-18.83,1.46-10.55,2.21-21.18,2.24-31.83,6.31-1.97,12.96-2.64,19.54-1.97,0,5.92-4.21,12.73-2.96,19.36,1.32,7.45-.11,15.13-4.03,21.61-2.78,11.65-4.66,26,2.6,35.86,12.01,13.18,27.7,22.5,39.09,36.58,3.55,2.86,4.11,8.05,1.25,11.6-.22.27-.46.53-.71.77-2.09,7.59-7.79,13.67-15.24,16.23-4.75,1.88-12.37,8.97-6.81,13.9,11.19,2.52,22.87,1.74,33.62-2.24,7.35-2.69,4.66-11.57,7.53-17.12,3.96,5.38,7.61,10.97,10.94,16.76,4.57,6.81,12.46,1.17,17.93-.99.64-9.97-1.37-19.93-5.83-28.87-2.51-5.92-12.28-6.1-11.83-13.36,4.84-17.93,16.85-31.92,26.36-47.07,7.89-7.53,1.97-18.74,2.42-28.24-2.51-24.42,3.4-48.97,16.76-69.57,2.77,11.44,6.33,22.68,10.67,33.62,3.13,12.83,8.8,24.9,16.68,35.5,3.68,12.73,2.69,26.9,5.11,40.07,3.46,22.79,2.18,46.05-3.77,68.31.63,8.16-7.08,14.16-6.37,22.14,2.15,7.35,10.76,1.43,15.24,4.57,8.1,2.51,16.81-1.31,20.44-8.97-1.87-6.23-3.13-12.62-3.77-19.1-6.15-18.85-7.51-38.94-3.94-58.45.72-10.58,7.08-23.49-1.17-32.54-2.24-9.68,1.61-20.17-.72-30.12-5.53-25.5-6.17-51.81-1.88-77.55,1.43-3.59,0-10.22,3.86-12.19,3.82,5.7,5.53,12.54,4.84,19.36,3.48,10.57,3.92,21.91,1.26,32.72-6.54,8.34-2.51,19.63-1.7,29.05,1.08,6.63,7.98,1.88,8.97-2.24,6.02-11.22,10.89-23.03,14.52-35.23,4.12-5.56,0-12.1,0-17.93,6.37-.81,3.94-7.98.54-11.12-3.41-11.48-2.6-24.74-10.31-34.52-12.19-12.61-22.3-27.07-29.94-42.85-8.16-25.73-31.47-42.85-39.36-68.85-2.96-15.09-12.01-28.29-25.01-36.49-5.79-2.66-11.79-4.85-17.93-6.54-5.23,1.09-10.53,1.75-15.87,1.97"/>
</svg>