<?xml version="1.0" encoding="UTF-8"?>
<svg id="Layer_1" data-name="Layer 1" xmlns="http://www.w3.org/2000/svg" viewBox="0 0 500 500">
  <defs>
    <style>
      .cls-1 {
        fill: #8993be;
      }

      .cls-2 {
        fill: #232531;
        fill-rule: evenodd;
      }
    </style>
  </defs>
  <ellipse class="cls-1" cx="250" cy="250" rx="232.83" ry="121.2"/>
  <path class="cls-2" d="m82.55,321.76l25.52-129.17h59c25.51,1.6,38.27,14.35,38.27,36.68,0,38.27-30.3,60.6-57.41,59h-28.7l-6.38,33.49h-30.3Zm43.06-57.41l7.97-47.84h20.73c11.16,0,19.14,4.78,19.14,14.35-1.59,27.11-14.35,31.9-28.7,33.49h-19.14Zm73.81,23.92l25.51-129.17h30.3l-6.38,33.49h28.7c25.52,1.6,35.08,14.35,31.9,30.3l-11.16,65.38h-31.89l11.16-59c1.59-7.97,1.59-12.76-9.57-12.76h-23.92l-14.35,71.76h-30.3Zm96.83,33.49l25.51-129.17h59c25.52,1.6,38.28,14.35,38.28,36.68,0,38.27-30.3,60.6-57.41,59h-28.71l-6.38,33.49h-30.3Zm43.06-57.41l7.97-47.84h20.73c11.16,0,19.14,4.78,19.14,14.35-1.59,27.11-14.35,31.9-28.7,33.49h-19.14Z"/>
</svg>