<?xml version="1.0" encoding="utf-8"?>
<!-- Generator: Adobe Illustrator 27.9.0, SVG Export Plug-In . SVG Version: 6.00 Build 0)  -->
<svg version="1.1" id="Layer_1" xmlns="http://www.w3.org/2000/svg" xmlns:xlink="http://www.w3.org/1999/xlink" x="0px" y="0px"
	 viewBox="0 0 85 85" style="enable-background:new 0 0 85 85;" xml:space="preserve">
<style type="text/css">
	.st0{fill:#0468FF;}
	.st1{fill:#1F34AB;}
	.st2{fill:#85AEFF;}
</style>
<g>
	<g>
		<path class="st0" d="M46,67.6V52.1c5.2,0,9.4-1.5,12.3-4.3c2.3-2.3,3.6-5.5,3.6-9c0-6.6-4.9-13.3-15.9-13.3V10
			c11.9,0,19.2,4.8,23.3,8.9c5.3,5.3,8.2,12.4,8.2,20c0,7.6-2.9,14.7-8.2,20C65.3,62.8,57.9,67.6,46,67.6z"/>
	</g>
	<g>
		<rect x="3.9" y="41.5" transform="matrix(0.6 -0.8 0.8 0.6 -27.3554 43.927)" class="st1" width="52.6" height="15.6"/>
	</g>
	<g>
		
			<rect x="11.9" y="37.6" transform="matrix(0.8944 -0.4472 0.4472 0.8944 -19.9738 14.0284)" class="st2" width="15.6" height="23.5"/>
	</g>
</g>
</svg>
