<?xml version="1.0" encoding="UTF-8"?>
<svg id="Layer_1" data-name="Layer 1" xmlns="http://www.w3.org/2000/svg" xmlns:xlink="http://www.w3.org/1999/xlink" viewBox="0 0 500 500">
  <defs>
    <style>
      .cls-1 {
        fill: #2165b6;
      }

      .cls-2 {
        fill: url(#linear-gradient);
      }
    </style>
    <linearGradient id="linear-gradient" x1="490.86" y1="1831.36" x2="490.96" y2="1831.25" gradientTransform="translate(-1227009 3010135.55) scale(2500 -1643.57)" gradientUnits="userSpaceOnUse">
      <stop offset="0" stop-color="#c9cbce"/>
      <stop offset="1" stop-color="#7b7a81"/>
    </linearGradient>
  </defs>
  <path class="cls-2" d="m288.49,345.37c-96.21,0-177.98-48.19-177.98-105.92s72.15-105.75,168.36-105.75c121.51,0,177.83,46.74,177.83,104.47s-62.07,107.2-168.21,107.2m-38.49-269.4c-125.08,0-230.91,67.35-230.91,153.94,0,81.78,105.2,149.68,230.28,149.68s231.55-63.08,231.55-149.68-105.84-153.94-230.91-153.94"/>
  <path class="cls-1" d="m210.21,169.47v254.56h76.93v-99c19.23,0,30.69-4.2,43.27,18.86,19.23,33,43.27,80.14,43.27,80.14h91.35s-57.7-94.28-62.5-99c-8.87-9.43-19.23-9.43-33.66-14.14,28.85-4.71,55.74-16.68,65.09-42.33,8.17-23.57,7.21-53.55-10.31-73.66-15.17-15.91-30.74-25.44-69.21-25.44h-144.24,0Zm76.93,53.02h50.48c11.97,0,21.64,11.79,21.64,23.57s-9.62,23.57-21.64,23.57h-50.48v-47.14h0Z"/>
</svg>