<?xml version="1.0" encoding="UTF-8"?>
<svg id="Layer_1" data-name="Layer 1" xmlns="http://www.w3.org/2000/svg" xmlns:xlink="http://www.w3.org/1999/xlink" viewBox="0 0 500 500">
  <defs>
    <style>
      .cls-1 {
        fill: #fff;
      }

      .cls-1, .cls-2 {
        fill-rule: evenodd;
      }

      .cls-3, .cls-2 {
        fill: #0054a6;
      }

      .cls-4 {
        clip-path: url(#clippath);
      }

      .cls-5 {
        fill: none;
      }
    </style>
    <clipPath id="clippath">
      <circle class="cls-5" cx="238.81" cy="250" r="220.69"/>
    </clipPath>
  </defs>
  <path id="circle" class="cls-3" d="m238.81,29.31c-121.89,0-220.69,98.81-220.69,220.69,0,0,0,0,0,0,.01,36.57,9.11,72.57,26.49,104.75,1.27.3,2.48.78,3.67,1.32,4.28,1.97,8.32,4.82,10.72,8.87,1.2,2.03,1.96,4.33,2.06,6.69.1,2.33-.49,4.7-1.75,6.66,41.42,57.97,108.27,92.38,179.51,92.39,121.88,0,220.69-98.81,220.69-220.69,0-121.89-98.81-220.69-220.69-220.69,0,0,0,0,0,0Z"/>
  <path id="tongue" class="cls-2" d="m442.88,167.04l11.26-5.24,7.61-20.8,7.99,2.8-6.86,18.6,19.01,6.55-2.87,7.79-21.23-7.41-11.71,5.38"/>
  <g class="cls-4">
    <path id="snake" class="cls-1" d="m320.85,278.97c-15.2-20.79-45.24-32.88-71.01-38.56-25.77-5.68-41.45-10.06-53.98-16.84-14.3-7.74-25.54-30.55-21.15-50.33,6.89-31.04,34.61-53.37,66.27-48.95,15.81,2.24,29.22,10.61,38.06,22.39l35.05,46.05c20.04,25.8,42.56,33.48,67.07,21.3l11.92-5.64c.99-.46,2.19-1.39,4.13-.77,1.94.62,2.9,2.29,3.99,4.26s2.24,3.77,4.29,4.26,4.91.15,6.24-1.12c9.08-8.66,27.51-26.29,27.51-26.29,4.98-4.27,3.52-8.18,3.52-8.18l-6.86-15.62s-1.88-3.75-8.36-2.88l-38.16,3.51c-2.22.32-4.2,1.79-5.05,4.04-.51,1.31-.55,2.69-.17,3.93l1.37,4.39c.27.91.27,1.94-.1,2.88-.44,1.16-1.33,1.98-2.39,2.42l-10.79,4.57c-12.43,4.22-24.13,2.39-32.7-8.09l-9.8-13.01-27.89-37.01c-13.24-17.56-33.21-30.09-56.79-33.38-47.22-6.61-91.04,26.09-97.91,73.03-3.46,23.66-.21,43.67,17.67,64.12,17.88,20.44,52.64,28.23,82.76,35.13,3.22.76,12.29,3,17.65,4.94,4.96,1.8,16.38,6.01,25.67,13.6h0c11.09,11.28,16.96,27.39,14.47,44.28-4.2,28.81-31.09,48.88-60.07,44.81-14.51-2.01-26.77-9.71-34.88-20.48l-33.48-44.44c-6.83-9.06-17.15-15.53-29.35-17.27-12.18-1.71-23.98,1.67-33.12,8.52l-69.94,52.19c2.96,8.43,6.72,16.81,14.72,23.63l72.11-54.06c3.3-2.25,7.4-3.28,11.65-2.7,4.52.65,8.37,3.02,10.9,6.38l35.42,47.6c12.47,15.3,30.6,26.14,51.82,29.13,44.64,6.25,86.08-24.68,92.56-69.08,3-20.66-2.05-40.62-12.87-56.66"/>
  </g>
</svg>