<?xml version="1.0" encoding="UTF-8"?>
<svg id="Layer_1" data-name="Layer 1" xmlns="http://www.w3.org/2000/svg" xmlns:xlink="http://www.w3.org/1999/xlink" viewBox="0 0 500 500">
  <defs>
    <style>
      .cls-1 {
        fill: url(#linear-gradient-2);
      }

      .cls-2 {
        fill: #fff;
      }

      .cls-3 {
        fill: url(#linear-gradient);
      }
    </style>
    <linearGradient id="linear-gradient" x1="-2901.44" y1="-423.77" x2="-2893.16" y2="-376.86" gradientTransform="translate(-28043.71 4159.28) rotate(-180) scale(9.77 -9.77)" gradientUnits="userSpaceOnUse">
      <stop offset="0" stop-color="#faae42"/>
      <stop offset="1" stop-color="#ef3e31"/>
    </linearGradient>
    <linearGradient id="linear-gradient-2" x1="-933.49" y1="756.99" x2="-939.55" y2="722.64" gradientTransform="translate(9370.45 7435.61) scale(9.77 -9.77)" gradientUnits="userSpaceOnUse">
      <stop offset="0" stop-color="#e39f3a"/>
      <stop offset="1" stop-color="#d33929"/>
    </linearGradient>
  </defs>
  <path class="cls-3" d="m131.14,36.16h236.89c11.53,0,22.72,1.84,33.58,5.68,15.7,5.68,29.9,15.7,40.6,28.73,10.86,13.03,18.04,29.07,20.55,45.77,1,6.18,1.17,12.36,1.17,18.54v231.04c0,7.35-.33,14.87-1.84,22.05-3.34,16.54-11.19,32.08-22.55,44.6-11.19,12.53-25.89,21.88-41.76,26.9-9.69,3.01-19.71,4.34-29.9,4.34-4.51,0-237.39,0-240.9-.17-17.04-.84-33.91-6.35-48.11-15.87-13.87-9.36-25.23-22.39-32.58-37.42-6.35-12.86-9.52-27.23-9.52-41.6v-237.56c-.33-14.2,2.67-28.23,8.85-40.93,7.18-15.04,18.38-28.23,32.24-37.59,14.2-9.69,30.91-15.37,47.95-16.2,1.67-.33,3.51-.33,5.35-.33Z"/>
  <path class="cls-1" d="m396.93,385.99c-1.5-2.34-3.17-4.68-5.01-6.85-4.18-5.01-9.02-9.36-14.37-13.03-6.68-4.51-14.53-7.35-22.55-7.68-5.68-.33-11.36.67-16.71,2.67-5.35,1.84-10.52,4.51-15.54,7.18-5.85,3.01-11.69,6.01-17.88,8.52-7.35,3.01-15.04,5.35-22.89,7.02-9.86,1.84-19.88,2.51-29.74,2.34-17.88-.33-35.75-3.01-52.79-8.02-15.04-4.51-29.4-10.69-42.93-18.54-11.86-6.85-22.89-14.7-33.24-23.56-8.52-7.35-16.37-15.2-23.72-23.56-5.01-5.85-9.86-12.03-14.37-18.38-1.84-2.51-3.51-5.18-5.01-7.85l-44.1-47.61v-107.75c0-52.29,42.27-94.72,94.56-94.72h84.36l62.48,63.48c141,95.89,95.39,201.64,95.39,201.64,0,0,40.09,45.11,24.06,84.7Z"/>
  <path class="cls-2" d="m277.82,99.65c141,95.89,95.39,201.64,95.39,201.64,0,0,40.09,45.27,23.89,84.87,0,0-16.54-27.73-44.27-27.73s-42.43,27.73-96.23,27.73c-119.78,0-176.41-100.07-176.41-100.07,107.92,71,181.59,20.72,181.59,20.72-48.61-28.23-152.02-163.22-152.02-163.22,90.04,76.68,128.97,96.89,128.97,96.89-23.22-19.21-88.37-113.1-88.37-113.1,52.12,52.79,155.7,126.46,155.7,126.46,29.4-81.52-28.23-154.2-28.23-154.2Z"/>
</svg>