<?xml version="1.0" encoding="UTF-8"?><svg id="Layer_1" xmlns="http://www.w3.org/2000/svg" viewBox="0 0 500 500"><defs><style>.cls-1{fill:#004e8c;}.cls-2{fill:#fff;isolation:isolate;opacity:.1;}</style></defs><path class="cls-1" d="m343.47,228.75c5.85-5.09,9.01-12.61,8.57-20.35,0-15.09-9.93-22.63-29.79-22.63l-20.66.18v50.2h18.5c8.42.4,16.71-2.23,23.37-7.4Z"/><path class="cls-1" d="m350.93,300.85c5.96-5.22,9.2-12.87,8.82-20.78,0-18.34-12.5-27.51-37.5-27.51l-20.66-.06v38.55l17.39,17.39h7.28c8.87.51,17.62-2.18,24.67-7.59Z"/><path class="cls-1" d="m252.74,49.9c-55.95,0-106.47,23.29-142.38,60.7,1.83-1.76,3.68-3.5,5.59-5.2l109.09,109.09,16.11-45.25,19.55.31-21.71,58.9,44.1,44.1v-102.99h44.22c11.48-.61,22.81,2.88,31.95,9.87,7.75,6.25,12.13,15.77,11.84,25.72.12,8.24-2.46,16.3-7.34,22.94-4.93,6.62-11.84,11.48-19.74,13.88v.43c9.54.77,18.49,4.98,25.16,11.84,6.46,7.12,9.85,16.49,9.44,26.09.41,12.39-4.86,24.29-14.31,32.32-8.27,6.9-18.4,11.09-29.02,12.12l59.3,59.3c-1.74,1.95-3.53,3.85-5.34,5.73,37.49-35.92,60.84-86.49,60.84-142.52,0-109-88.36-197.35-197.35-197.35Z"/><path class="cls-2" d="m55.39,247.25c0-53.04,20.93-101.19,54.97-136.65-76.06,73.15-81.27,193.98-10.45,273.44,72.51,81.37,197.26,88.56,278.64,16.04,3.7-3.3,7.26-6.75,10.71-10.32-35.45,33.96-83.54,54.84-136.51,54.84-109,0-197.35-88.36-197.35-197.35Z"/><path class="cls-1" d="m335.29,324.74c-2.33.23-4.69.3-7.06.22h-45.14v-52.42l-44.1-44.1-35.58,96.52h-20.29l-56.37-155.42h20.29l43.17,123.35c1.49,4.47,2.54,9.08,3.15,13.75h.43c.65-4.8,1.8-9.51,3.45-14.06l27.8-78.09-109.09-109.09c-1.91,1.7-3.76,3.44-5.59,5.2-34.04,35.46-54.97,83.61-54.97,136.65,0,109,88.36,197.35,197.35,197.35,52.97,0,101.06-20.87,136.51-54.84,1.81-1.88,3.6-3.78,5.34-5.73l-59.3-59.3Z"/><path class="cls-2" d="m335.29,324.74c-2.33.23-4.69.3-7.06.22h-45.14v-52.42l-44.1-44.1-35.58,96.52h-20.29l-56.37-155.42h20.29l43.17,123.35c1.49,4.47,2.54,9.08,3.15,13.75h.43c.65-4.8,1.8-9.51,3.45-14.06l27.8-78.09-109.09-109.09c-1.91,1.7-3.76,3.44-5.59,5.2-34.04,35.46-54.97,83.61-54.97,136.65,0,109,88.36,197.35,197.35,197.35,52.97,0,101.06-20.87,136.51-54.84,1.81-1.88,3.6-3.78,5.34-5.73l-59.3-59.3Z"/><polygon class="cls-1" points="301.59 308.43 318.98 308.43 301.59 291.04 301.59 308.43"/><polygon class="cls-2" points="301.59 308.43 318.98 308.43 301.59 291.04 301.59 308.43"/></svg>