<svg width="52" height="52" viewBox="0 0 61 61" fill="none" xmlns="http://www.w3.org/2000/svg">
<g clip-path="url(#clip0_428_45)">
<g clip-path="url(#clip1_428_45)">
<path d="M53.5927 19.2742C53.6107 18.4618 53.4151 17.659 53.0251 16.945C52.6207 16.255 52.0387 15.6874 51.3391 15.3022C45.1375 11.7214 38.9323 8.14538 32.7259 4.57418C31.0543 3.60818 29.4343 3.64178 27.7747 4.62338C25.3063 6.07418 12.9451 13.1638 9.26231 15.2998C7.74551 16.1782 7.00871 17.5234 7.00871 19.2718V40.8694C6.99311 41.665 7.18151 42.451 7.55471 43.153C7.95911 43.8634 8.55191 44.4478 9.26831 44.8414C12.9511 46.9846 25.3147 54.0658 27.7831 55.5226C29.4439 56.5042 31.0639 56.5378 32.7367 55.5718C38.9371 51.9898 45.1423 48.4114 51.3499 44.839C52.0663 44.4454 52.6603 43.861 53.0635 43.1506C53.4379 42.4486 53.6251 41.6626 53.6095 40.867V19.2742H53.5927Z" fill="#004482"/>
<path d="M53.5976 40.8694C53.6132 41.665 53.426 42.451 53.0516 43.153C52.9592 43.3198 52.856 43.4806 52.7408 43.633L30.3008 30.0706L51.3392 15.301C52.0376 15.6874 52.6196 16.255 53.0228 16.9438C53.414 17.6566 53.6108 18.4594 53.5928 19.273C53.5976 26.4718 53.5976 40.8682 53.5976 40.8682V40.8694Z" fill="#00599C"/>
<path d="M53.0225 16.9449L7.54735 43.1529C7.17535 42.4509 6.98815 41.6649 7.00495 40.8705V19.2705C7.00495 17.5221 7.74414 16.1769 9.25854 15.2985C12.9437 13.1625 25.3049 6.07294 27.7745 4.61734C29.4305 3.63574 31.0529 3.60214 32.7245 4.56814C38.9249 8.15014 45.1301 11.7285 51.3377 15.3009C52.0361 15.6873 52.6181 16.2549 53.0213 16.9437L53.0225 16.9449Z" fill="#659AD2"/>
<path d="M31.2012 38.7957C28.0824 38.8005 25.2084 37.1061 23.7024 34.3749C23.6268 34.2405 23.5548 34.1037 23.4876 33.9633C21.4284 29.7093 23.2068 24.5913 27.4608 22.5321C31.0176 20.8101 35.2908 21.7473 37.8012 24.8001C37.9152 24.9369 38.016 25.0809 38.1288 25.2285C38.1804 25.2993 38.232 25.3701 38.2788 25.4433L45.7932 21.1149C45.6108 20.8209 45.4188 20.5353 45.2184 20.2581C45.114 20.1105 45.0036 19.9689 44.9016 19.8297C39.1344 12.3381 28.386 10.9389 20.8932 16.7061C14.3112 21.7725 12.3156 30.8325 16.1604 38.1957C16.2336 38.3325 16.308 38.4681 16.3752 38.6025C21.0384 46.8285 31.4868 49.7181 39.7128 45.0561C42.1416 43.6797 44.196 41.7309 45.6984 39.3789L38.3508 34.9377C36.7704 37.3473 34.0824 38.7981 31.2012 38.7969V38.7957Z" fill="white"/>
</g>
</g>
<defs>
<clipPath id="clip0_428_45">
<rect width="60" height="60" fill="white" transform="translate(0.308594 0.0705566)"/>
</clipPath>
<clipPath id="clip1_428_45">
<rect width="60" height="60" fill="white" transform="translate(0.308594 0.0705566)"/>
</clipPath>
</defs>
</svg>
